<svg id="Слой_1" data-name="Слой 1" xmlns="http://www.w3.org/2000/svg" xmlns:xlink="http://www.w3.org/1999/xlink" viewBox="0 0 3121.6 1687.85"><defs><style>.cls-1{fill:none;}.cls-2{fill:#e7f3fe;}.cls-3{fill:#9bd6e8;}.cls-4{fill:#9ec8ff;}.cls-5{fill:#fff;}.cls-6{clip-path:url(#clip-path);}.cls-7{fill:#a2dff2;}.cls-8{fill:#9cd499;}.cls-9{fill:#f39892;}.cls-10{fill:#2e5b9a;}.cls-11{fill:#232e4f;}.cls-12{fill:#3e6bab;}.cls-13{fill:#f37168;}.cls-14{fill:#212d51;}.cls-15{fill:#5d9ef5;}.cls-16{fill:#303c60;}.cls-17{fill:#4476bd;}.cls-18{fill:#d54a41;}.cls-19{fill:#85baff;}.cls-20{fill:#f09959;}.cls-21{fill:#96cfe0;}.cls-22{fill:#e38540;}.cls-23{fill:#1b243d;}.cls-24{fill:#ffd24f;}.cls-25{fill:#edc055;}.cls-26{fill:#2a66c6;}.cls-27{fill:#63acc2;}.cls-28{fill:#0f2d5c;}</style><clipPath id="clip-path" transform="translate(-189.2 -136.08)"><path class="cls-1" d="M785.25,277.13c-142.83,0-258.62,115.79-258.62,258.62S642.42,794.38,785.25,794.38s258.62-115.79,258.62-258.62S928.09,277.13,785.25,277.13Zm0,395.63a137,137,0,1,1,137-137A137,137,0,0,1,785.25,672.76Z"/></clipPath></defs><title>Audit-log</title><path class="cls-2" d="M404.64,1717.27S54.25,1438.73,247.17,1053s-76-519.3,111.08-598.76,290.54,93.61,808.46-50.15S2725.14,21.52,2962.81,199.31,2520.74,865.48,2841.9,861.79c649.87-7.47,527.38,660.77,213,876.4C2895.54,1847.53,404.64,1717.27,404.64,1717.27Z" transform="translate(-189.2 -136.08)"/><path class="cls-3" d="M3243.69,1752.52c-479.85-195.16-2763-110-2911.17-52.06s28.85,96.89,410.09,75.45,871.77,2.38,1293.1,13.86S3554.76,1879,3243.69,1752.52Z" transform="translate(-189.2 -136.08)"/><path class="cls-4" d="M2635.5,635a344.58,344.58,0,0,0,2.15-38.29c0-6.83-.23-13.61-0.62-20.34l-63.28-20.47a278.19,278.19,0,0,0-22.4-75.82l42-51.63a341.8,341.8,0,0,0-33.24-48.31l-63.29,20.65a281.2,281.2,0,0,0-62.65-48.16l3.6-66.49a338.64,338.64,0,0,0-55.24-19.58l-39.08,53.93a281.4,281.4,0,0,0-79-2.07l-36.18-55.92A338.41,338.41,0,0,0,2172,279.14l0.08,66.59A280.69,280.69,0,0,0,2107,390.52l-62.09-24A342.37,342.37,0,0,0,2009.16,413l39.18,53.79a278.14,278.14,0,0,0-26.41,74.52l-64.26,17.1a344.61,344.61,0,0,0-2.15,38.29c0,6.83.22,13.61,0.62,20.34l63.28,20.47a278.1,278.1,0,0,0,22.41,75.82l-42,51.63a341.89,341.89,0,0,0,33.24,48.31l63.29-20.65A281.22,281.22,0,0,0,2159,840.83l-3.6,66.49a338.52,338.52,0,0,0,55.24,19.58L2249.75,873a281.36,281.36,0,0,0,79,2.07L2364.92,931a338.42,338.42,0,0,0,56.21-16.61l-0.08-66.59A280.7,280.7,0,0,0,2486.16,803l62.09,24A342.43,342.43,0,0,0,2584,780.45l-39.18-53.79a278.17,278.17,0,0,0,26.41-74.52Zm-338.92,95.48a133.77,133.77,0,1,1,133.78-133.77A133.77,133.77,0,0,1,2296.58,730.52Z" transform="translate(-189.2 -136.08)"/><path class="cls-5" d="M2479,749.32a5,5,0,0,1-3.84-8.2,226.32,226.32,0,0,0,39.88-218,5,5,0,0,1,9.46-3.26,236.32,236.32,0,0,1-41.64,227.64A5,5,0,0,1,2479,749.32Z" transform="translate(-189.2 -136.08)"/><path class="cls-5" d="M2459.67,433.58a5,5,0,0,1-3.43-1.36,224.62,224.62,0,0,0-77.78-47.92,5,5,0,1,1,3.41-9.4,234.57,234.57,0,0,1,81.23,50A5,5,0,0,1,2459.67,433.58Z" transform="translate(-189.2 -136.08)"/><path class="cls-5" d="M2244.69,377.82a5,5,0,0,1-1.22-9.85,236.86,236.86,0,0,1,57.92-7.16,5,5,0,0,1,0,10,226.84,226.84,0,0,0-55.47,6.86A5,5,0,0,1,2244.69,377.82Z" transform="translate(-189.2 -136.08)"/><path class="cls-4" d="M3084.59,722.24a238.62,238.62,0,0,0,1.49-26.52c0-4.73-.16-9.43-0.43-14.09l-43.83-14.18a192.66,192.66,0,0,0-15.52-52.51l29.06-35.76a236.76,236.76,0,0,0-23-33.46L2988.51,560a194.77,194.77,0,0,0-43.39-33.35l2.49-46.05A234.51,234.51,0,0,0,2909.35,467l-27.07,37.35a194.89,194.89,0,0,0-54.72-1.43l-25.06-38.73a234.49,234.49,0,0,0-38.93,11.51l0.06,46.12a194.39,194.39,0,0,0-45.1,31l-43-16.59a237.12,237.12,0,0,0-24.77,32.2l27.14,37.26a192.63,192.63,0,0,0-18.3,51.61l-44.51,11.84a238.58,238.58,0,0,0-1.49,26.52c0,4.73.16,9.43,0.43,14.09L2657.86,724a192.64,192.64,0,0,0,15.52,52.51l-29.06,35.76a236.7,236.7,0,0,0,23,33.46l43.83-14.3a194.76,194.76,0,0,0,43.39,33.35l-2.49,46.05a234.53,234.53,0,0,0,38.26,13.56L2817.4,887a194.88,194.88,0,0,0,54.72,1.43l25.06,38.73a234.44,234.44,0,0,0,38.93-11.5l-0.06-46.12a194.42,194.42,0,0,0,45.1-31l43,16.59a237.09,237.09,0,0,0,24.77-32.2l-27.14-37.25a192.64,192.64,0,0,0,18.3-51.61Zm-234.75,66.13a92.66,92.66,0,1,1,92.66-92.66A92.66,92.66,0,0,1,2849.84,788.37Z" transform="translate(-189.2 -136.08)"/><path class="cls-5" d="M2976.22,802.92a5,5,0,0,1-3.84-8.2,155.22,155.22,0,0,0,27.35-149.5,5,5,0,0,1,9.46-3.26,165.22,165.22,0,0,1-29.11,159.15A5,5,0,0,1,2976.22,802.92Z" transform="translate(-189.2 -136.08)"/><path class="cls-5" d="M2962.8,584.23a5,5,0,0,1-3.43-1.36A154.05,154.05,0,0,0,2906,550a5,5,0,1,1,3.41-9.4,164,164,0,0,1,56.79,35A5,5,0,0,1,2962.8,584.23Z" transform="translate(-189.2 -136.08)"/><path class="cls-5" d="M2813.9,545.61a5,5,0,0,1-1.22-9.85,165.61,165.61,0,0,1,40.5-5,5,5,0,0,1,0,10,155.57,155.57,0,0,0-38,4.7A5,5,0,0,1,2813.9,545.61Z" transform="translate(-189.2 -136.08)"/><g class="cls-6"><path class="cls-7" d="M1019,678.69L785.25,535.75,743,806.46C852.78,823.77,961.68,772.32,1019,678.69Z" transform="translate(-189.2 -136.08)"/><path class="cls-8" d="M1019.25,678.37c0.63-1,1.45-2.45,1.42-2.4a274,274,0,0,0,6.07-269.71c-82.72,43.34-33.46,17-241.48,129.49C1019.38,678.93,983,656.85,1019.25,678.37Z" transform="translate(-189.2 -136.08)"/><path class="cls-4" d="M528.3,441.07l256.95,94.68,241-130.34C913.54,196.9,610.05,221.91,528.3,441.07Z" transform="translate(-189.2 -136.08)"/><path class="cls-9" d="M743,806.46l42.28-270.71L528.3,441.07C467.2,604.88,575.65,780.09,743,806.46Z" transform="translate(-189.2 -136.08)"/><path class="cls-2" d="M1031.37,675.6a284.19,284.19,0,0,0,7.09-266.43l0.15-.08-4.32-8-0.27-.48-3.54-6.58-0.13.07c-27.28-47.39-66.17-85.18-112.94-109.55C871.6,260.69,819.53,250,766.79,253.67c-109.87,7.63-202.43,74.7-243.69,175.8l-0.15-.06-3.16,8.48-3.19,8.55,0.15,0.06c-25.83,76.73-17.27,160.4,24,231,41.92,71.76,111.5,121.07,191.91,136.39l0,0.16,9,1.41,9,1.42,0-.16a283.32,283.32,0,0,0,271.57-126l0.18,0.11,1.78-2.92,0,0,2.85-4.78c0.44-.73,1-1.63,1.28-2.15l0.19-.32,0.14-.25,2.88-4.71ZM1004,428.44l18.88-9.88A266,266,0,0,1,1016,665.88l-1.73-1c-9.55-5.66-13.7-8.12-32.73-19.72L803.47,536.24,951.31,456.3C973,444.62,981.91,440,1004,428.44Zm-463.81,7.31c38.74-94.3,125.26-156.81,227.9-163.94,101.41-7.05,194.75,42.59,245.79,130l-71.19,38.49c-14.7,7.91-35.24,19-69.64,37.64l-85.28,46.13-2.19,1.19-7.16-4.38-0.39,2.5L665.41,481.9Zm16.25,232.56c-38.48-65.87-46.56-143.91-22.6-215.52l169.26,62.37,72.06,26.55-39.7,254.2C660.44,781.44,595.56,735.33,556.41,668.31Zm197,130.43,38.75-248.12L893,612.3c40.66,24.87,63.92,39.1,78.57,48l34.82,21.29A263.84,263.84,0,0,1,753.38,798.74Z" transform="translate(-189.2 -136.08)"/></g><circle class="cls-10" cx="1312.48" cy="826.47" r="742"/><circle class="cls-11" cx="1311.5" cy="834.25" r="599.35"/><circle class="cls-5" cx="1312.48" cy="816.75" r="569.23"/><path class="cls-12" d="M1501.7,972.83a20,20,0,0,1-10-37.35l215.61-123.74a20,20,0,0,1,19.91,34.69L1511.63,970.18A19.91,19.91,0,0,1,1501.7,972.83Z" transform="translate(-189.2 -136.08)"/><path class="cls-13" d="M1501.69,967.83a15,15,0,0,1-13.05-7.59L1323.19,669.3a15,15,0,0,1,26.08-14.83l165.45,290.95A15,15,0,0,1,1501.69,967.83Z" transform="translate(-189.2 -136.08)"/><circle class="cls-14" cx="1312.48" cy="816.75" r="27.52"/><path class="cls-14" d="M1472.41,567.28h-26v-86h-25V462.92l51-7.86V567.28Z" transform="translate(-189.2 -136.08)"/><path class="cls-14" d="M1587,567.28h-78.48V550.33l36-37.89a76,76,0,0,0,10.09-14q3.24-6.16,3.24-10.71,0-6.47-3.27-10.32t-9.82-3.85a10.53,10.53,0,0,0-9.2,5q-3.35,5-3.35,12.67h-25.42l-0.15-.46a35,35,0,0,1,10.17-26.38q10.55-10.82,28-10.82,18.48,0,28.84,9.09T1584,487.49a32.81,32.81,0,0,1-5.51,18.79q-5.51,8.16-20.29,24.26L1543,546.79l0.23,0.46H1587v20Z" transform="translate(-189.2 -136.08)"/><path class="cls-14" d="M1509,1316.82a56.12,56.12,0,0,1,11.78,1.12,74.16,74.16,0,0,1,11.4,3.58l-4.31,18.95q-5.39-1.62-9.43-2.43a47.67,47.67,0,0,0-9.28-.81q-9.24,0-14.83,6.51t-5.35,19l0.23,0.38a22.45,22.45,0,0,1,9-6,35.53,35.53,0,0,1,12.79-2.16q15,0,23.38,10.82t8.36,27.69q0,16.64-11.05,27.69t-28.23,11.05q-18.41,0-29.73-12.09T1462.4,1387v-22.57q0-22.18,13.05-34.89T1509,1316.82Zm-5.16,58.15a26.49,26.49,0,0,0-9.28,1.46,14.63,14.63,0,0,0-6.12,4.07v6.6q0,12.12,4,18.6t11.05,6.48q5.85,0,9.55-5.52a23,23,0,0,0,3.7-13.12q0-8.51-3.58-13.54A10.94,10.94,0,0,0,1503.83,1375Z" transform="translate(-189.2 -136.08)"/><path class="cls-14" d="M1044.32,980.52a16.64,16.64,0,0,0,12.86-5.58q5.08-5.58,5.08-15.44v-4.93a25,25,0,0,1-8.78,7,24.71,24.71,0,0,1-10.63,2.35q-15.33,0-24-10.36t-8.66-28.3q0-16.71,10.94-28.38t28.19-11.67q16.94,0,27.92,12.25t11,33.66v26.65q0,19.41-12.48,31.12t-31.42,11.71a59.64,59.64,0,0,1-12-1.27,65.79,65.79,0,0,1-11.82-3.58l2.7-18.56a69.87,69.87,0,0,0,10.21,2.58A66.21,66.21,0,0,0,1044.32,980.52Zm4.24-35.35a19.42,19.42,0,0,0,7.89-1.54,16,16,0,0,0,5.81-4.24V927.84q0-11-3.66-16.83t-9.36-5.81q-6,0-9.51,6.08a27.42,27.42,0,0,0-3.5,13.94q0,9.24,3.08,14.59A10,10,0,0,0,1048.56,945.17Z" transform="translate(-189.2 -136.08)"/><path class="cls-14" d="M1938.62,932h12.25q7,0,10.78-3.77t3.77-10.47a12.58,12.58,0,0,0-3.39-8.93q-3.39-3.62-9.86-3.62a14.36,14.36,0,0,0-8.93,2.93,9.07,9.07,0,0,0-3.85,7.55h-25.26l-0.15-.46q-0.46-13.4,10.55-21.72t26.72-8.32q18.25,0,29.19,8.36t10.94,23.68a23.19,23.19,0,0,1-4.74,14.06A31.73,31.73,0,0,1,1974,941.32a30.15,30.15,0,0,1,14.09,10.05,26,26,0,0,1,5.08,16.13q0,15.4-11.78,24.22t-30.11,8.82q-15.79,0-27.61-8.28t-11.44-24l0.15-.46h25.42a11.53,11.53,0,0,0,4.2,9,15,15,0,0,0,10.21,3.66q6.85,0,10.94-3.85a12.78,12.78,0,0,0,4.08-9.7q0-8.16-4.27-11.9t-12.05-3.74h-12.25V932Z" transform="translate(-189.2 -136.08)"/><path class="cls-3" d="M2776,1113.13a83.88,83.88,0,1,1,83.88-83.88A84,84,0,0,1,2776,1113.13Zm0-147.76a63.88,63.88,0,1,0,63.88,63.88A63.95,63.95,0,0,0,2776,965.37Z" transform="translate(-189.2 -136.08)"/><path class="cls-3" d="M2670.76,1113.13a83.88,83.88,0,1,1,83.88-83.88A84,84,0,0,1,2670.76,1113.13Zm0-147.76a63.88,63.88,0,1,0,63.88,63.88A63.95,63.95,0,0,0,2670.76,965.37Z" transform="translate(-189.2 -136.08)"/><path class="cls-3" d="M2556.65,1113.13a83.88,83.88,0,1,1,83.88-83.88A84,84,0,0,1,2556.65,1113.13Zm0-147.76a63.88,63.88,0,1,0,63.88,63.88A63.95,63.95,0,0,0,2556.65,965.37Z" transform="translate(-189.2 -136.08)"/><path class="cls-3" d="M2451.44,1113.13a83.88,83.88,0,1,1,83.88-83.88A84,84,0,0,1,2451.44,1113.13Zm0-147.76a63.88,63.88,0,1,0,63.88,63.88A63.95,63.95,0,0,0,2451.44,965.37Z" transform="translate(-189.2 -136.08)"/><path class="cls-3" d="M2342.13,1113.13a83.88,83.88,0,1,1,83.88-83.88A84,84,0,0,1,2342.13,1113.13Zm0-147.76a63.88,63.88,0,1,0,63.88,63.88A63.95,63.95,0,0,0,2342.13,965.37Z" transform="translate(-189.2 -136.08)"/><path class="cls-3" d="M2236.92,1113.13a83.88,83.88,0,1,1,83.88-83.88A84,84,0,0,1,2236.92,1113.13Zm0-147.76a63.88,63.88,0,1,0,63.88,63.88A63.95,63.95,0,0,0,2236.92,965.37Z" transform="translate(-189.2 -136.08)"/><path class="cls-3" d="M2119.37,1113.13a83.88,83.88,0,1,1,83.88-83.88A84,84,0,0,1,2119.37,1113.13Zm0-147.76a63.88,63.88,0,1,0,63.88,63.88A63.95,63.95,0,0,0,2119.37,965.37Z" transform="translate(-189.2 -136.08)"/><path class="cls-14" d="M2861,1752.52H1695.23c-13.33,0-22.1-10.8-19.6-24.13l126.66-675c2.5-13.33,15.33-24.13,28.66-24.13H2996.74c13.33,0,22.1,10.8,19.6,24.13l-126.66,675C2887.18,1741.71,2874.35,1752.52,2861,1752.52Z" transform="translate(-189.2 -136.08)"/><path class="cls-10" d="M2882.83,1752.52H1717c-13.33,0-22.1-10.8-19.6-24.13l126.66-675c2.5-13.33,15.33-24.13,28.66-24.13H3018.55c13.33,0,22.1,10.8,19.6,24.13l-126.66,675C2909,1741.71,2896.16,1752.52,2882.83,1752.52Z" transform="translate(-189.2 -136.08)"/><path class="cls-14" d="M3118,1752.52H1952.25c-13.33,0-26-10.8-28.39-24.13l-119-675c-2.35-13.33,6.55-24.13,19.88-24.13H2990.52c13.33,0,26,10.8,28.39,24.13l119,675C3140.28,1741.71,3131.38,1752.52,3118,1752.52Z" transform="translate(-189.2 -136.08)"/><path class="cls-12" d="M3142.35,1752.52H1976.56c-13.33,0-26-10.8-28.39-24.13l-119-675c-2.35-13.33,6.55-24.13,19.88-24.13H3014.82c13.33,0,26,10.8,28.39,24.13l119,675C3164.58,1741.71,3155.68,1752.52,3142.35,1752.52Z" transform="translate(-189.2 -136.08)"/><path class="cls-14" d="M2831.34,1095.18c4,11.22.51,20.32-7.85,20.32s-18.38-9.1-22.41-20.32-0.51-20.32,7.85-20.32S2827.32,1084,2831.34,1095.18Z" transform="translate(-189.2 -136.08)"/><path class="cls-14" d="M2724.59,1095.18c4,11.22.51,20.32-7.85,20.32s-18.38-9.1-22.41-20.32-0.51-20.32,7.85-20.32S2720.57,1084,2724.59,1095.18Z" transform="translate(-189.2 -136.08)"/><path class="cls-14" d="M2606.06,1095.18c4,11.22.51,20.32-7.85,20.32s-18.38-9.1-22.41-20.32-0.51-20.32,7.85-20.32S2602,1084,2606.06,1095.18Z" transform="translate(-189.2 -136.08)"/><path class="cls-14" d="M2499.3,1095.18c4,11.22.51,20.32-7.85,20.32s-18.38-9.1-22.41-20.32-0.51-20.32,7.85-20.32S2495.28,1084,2499.3,1095.18Z" transform="translate(-189.2 -136.08)"/><path class="cls-14" d="M2396.12,1097.09c4,11.22.51,20.32-7.85,20.32s-18.38-9.1-22.41-20.32-0.51-20.32,7.85-20.32S2392.09,1085.86,2396.12,1097.09Z" transform="translate(-189.2 -136.08)"/><path class="cls-14" d="M2294.92,1097.09c4,11.22.51,20.32-7.85,20.32s-18.38-9.1-22.41-20.32-0.51-20.32,7.85-20.32S2290.89,1085.86,2294.92,1097.09Z" transform="translate(-189.2 -136.08)"/><path class="cls-14" d="M2182.15,1097.09c4,11.22.51,20.32-7.85,20.32s-18.38-9.1-22.41-20.32-0.51-20.32,7.85-20.32S2178.13,1085.86,2182.15,1097.09Z" transform="translate(-189.2 -136.08)"/><path class="cls-3" d="M2811.25,1104.18a10,10,0,0,1-4.79-18.79,63.89,63.89,0,0,0-30.49-120,10,10,0,0,1,0-20A83.89,83.89,0,0,1,2816,1103,10,10,0,0,1,2811.25,1104.18Z" transform="translate(-189.2 -136.08)"/><path class="cls-3" d="M2705.6,1104.42a10,10,0,0,1-4.73-18.82,63.89,63.89,0,0,0-27.05-120.16,10,10,0,0,1,.94-20,83.89,83.89,0,0,1,35.55,157.77A10,10,0,0,1,2705.6,1104.42Z" transform="translate(-189.2 -136.08)"/><path class="cls-3" d="M2588.08,1106.13a10,10,0,0,1-4.27-19,63.89,63.89,0,0,0-24.18-121.64,10,10,0,0,1,.92-20,83.89,83.89,0,0,1,31.78,159.71A10,10,0,0,1,2588.08,1106.13Z" transform="translate(-189.2 -136.08)"/><path class="cls-3" d="M2480.75,1107.09a10,10,0,0,1-4-19.18,63.89,63.89,0,0,0-22.35-122.47,10,10,0,0,1,.92-20,83.89,83.89,0,0,1,29.37,160.8A10,10,0,0,1,2480.75,1107.09Z" transform="translate(-189.2 -136.08)"/><path class="cls-3" d="M2375.48,1105.2a10,10,0,0,1-4.53-18.92,63.89,63.89,0,0,0-25.49-120.81,10,10,0,0,1,1-20,83.89,83.89,0,0,1,33.5,158.63A10,10,0,0,1,2375.48,1105.2Z" transform="translate(-189.2 -136.08)"/><path class="cls-3" d="M2273.76,1103.31a10,10,0,0,1-5-18.67,63.89,63.89,0,0,0-25.78-119,10,10,0,1,1,1.87-19.91,83.89,83.89,0,0,1,33.9,156.23A10,10,0,0,1,2273.76,1103.31Z" transform="translate(-189.2 -136.08)"/><path class="cls-3" d="M2159.85,1101.06a10,10,0,0,1-5.5-18.36,63.89,63.89,0,0,0-26.72-116.8,10,10,0,1,1,2.56-19.84,83.89,83.89,0,0,1,35.14,153.36A10,10,0,0,1,2159.85,1101.06Z" transform="translate(-189.2 -136.08)"/><path class="cls-5" d="M3104.34,1730.35H2006.75c-11.61,0-22.68-9.41-24.73-21l-95.7-542.74c-2-11.61,5.71-21,17.32-21H3001.23c11.61,0,22.68,9.41,24.73,21l95.7,542.74C3123.71,1720.94,3116,1730.35,3104.34,1730.35Z" transform="translate(-189.2 -136.08)"/><path class="cls-4" d="M3079.6,1695H2019l-0.15-.83-90.5-513.23H2989l0.15,0.83Zm-1058.9-2H3077.22l-89.94-510.05H1930.76Z" transform="translate(-189.2 -136.08)"/><rect class="cls-4" x="1812.6" y="1454.5" width="1058.55" height="2"/><rect class="cls-4" x="1794.54" y="1352.09" width="1058.55" height="2"/><rect class="cls-4" x="1776.48" y="1249.67" width="1058.55" height="2"/><rect class="cls-4" x="1758.43" y="1147.26" width="1058.55" height="2"/><rect class="cls-4" x="2881.04" y="1177.98" width="2" height="519.95" transform="translate(-395.11 386.23) rotate(-10)"/><rect class="cls-4" x="2729.82" y="1177.98" width="2" height="519.95" transform="translate(-397.41 359.97) rotate(-10)"/><rect class="cls-4" x="2578.6" y="1177.98" width="2" height="519.95" transform="translate(-399.71 333.71) rotate(-10)"/><rect class="cls-4" x="2427.38" y="1177.98" width="2" height="519.95" transform="translate(-402.01 307.45) rotate(-10)"/><rect class="cls-4" x="2276.16" y="1177.98" width="2" height="519.95" transform="translate(-404.3 281.19) rotate(-10)"/><rect class="cls-4" x="2124.93" y="1177.98" width="2" height="519.95" transform="translate(-406.6 254.93) rotate(-10)"/><path class="cls-9" d="M2959.92,1246.59h-35.59c-13.58,0-26.64-11.11-29-24.68s6.75-24.68,20.33-24.68h35.59c13.58,0,26.64,11.11,29,24.68S2973.5,1246.59,2959.92,1246.59Z" transform="translate(-189.2 -136.08)"/><path class="cls-9" d="M3009.28,1453.25h-61.42c-6.47,0-12.7-5.3-13.84-11.77l-4.55-25.83c-1.14-6.47,3.22-11.77,9.69-11.77h61.42c6.47,0,12.7,5.3,13.84,11.77l4.55,25.83C3020.11,1448,3015.75,1453.25,3009.28,1453.25Z" transform="translate(-189.2 -136.08)"/><path class="cls-4" d="M2229.84,1371.74h-83.53c-9.23,0-18.12-7.56-19.75-16.79l-6.93-39.33c-1.63-9.23,4.59-16.79,13.83-16.79H2217c9.23,0,18.12,7.56,19.75,16.79l6.93,39.33C2245.29,1364.18,2239.07,1371.74,2229.84,1371.74Z" transform="translate(-189.2 -136.08)"/><path class="cls-5" d="M2216.26,1361.47h-60c-6.63,0-13-5.43-14.19-12.06l-5-28.25c-1.17-6.63,3.3-12.06,9.93-12.06h60c6.63,0,13,5.43,14.19,12.06l5,28.25C2227.37,1356,2222.89,1361.47,2216.26,1361.47Z" transform="translate(-189.2 -136.08)"/><path class="cls-4" d="M2890.09,1678.28h-83.53c-9.23,0-18.12-7.56-19.75-16.79l-6.93-39.33c-1.63-9.23,4.59-16.79,13.83-16.79h83.53c9.23,0,18.12,7.55,19.75,16.79l6.93,39.33C2905.54,1670.73,2899.32,1678.28,2890.09,1678.28Z" transform="translate(-189.2 -136.08)"/><path class="cls-5" d="M2876.51,1668h-60c-6.63,0-13-5.43-14.19-12.06l-5-28.25c-1.17-6.63,3.3-12.06,9.93-12.06h60c6.63,0,13,5.43,14.19,12.06l5,28.25C2887.62,1662.59,2883.14,1668,2876.51,1668Z" transform="translate(-189.2 -136.08)"/><path class="cls-4" d="M2533.73,1320.07h-65.44a10,10,0,0,1-9.45-8,6.57,6.57,0,0,1,6.62-8h65.44a10,10,0,0,1,9.45,8A6.58,6.58,0,0,1,2533.73,1320.07Z" transform="translate(-189.2 -136.08)"/><path class="cls-4" d="M2538.18,1345.33h-65.44a10,10,0,0,1-9.45-8,6.58,6.58,0,0,1,6.62-8h65.44a10,10,0,0,1,9.45,8A6.57,6.57,0,0,1,2538.18,1345.33Z" transform="translate(-189.2 -136.08)"/><path class="cls-4" d="M2442.81,1624.89h-65.44a10,10,0,0,1-9.45-8,6.57,6.57,0,0,1,6.62-8H2440a10,10,0,0,1,9.45,8A6.57,6.57,0,0,1,2442.81,1624.89Z" transform="translate(-189.2 -136.08)"/><path class="cls-4" d="M2447.27,1650.15h-65.44a10,10,0,0,1-9.45-8,6.58,6.58,0,0,1,6.62-8h65.44a10,10,0,0,1,9.45,8A6.57,6.57,0,0,1,2447.27,1650.15Z" transform="translate(-189.2 -136.08)"/><path class="cls-4" d="M2069.84,1433.74H2004.4a10,10,0,0,1-9.45-8,6.58,6.58,0,0,1,6.62-8H2067a10,10,0,0,1,9.45,8A6.57,6.57,0,0,1,2069.84,1433.74Z" transform="translate(-189.2 -136.08)"/><path class="cls-4" d="M2074.3,1459h-65.44a10,10,0,0,1-9.45-8,6.58,6.58,0,0,1,6.62-8h65.44a10,10,0,0,1,9.45,8A6.57,6.57,0,0,1,2074.3,1459Z" transform="translate(-189.2 -136.08)"/><path class="cls-8" d="M2276.73,1580.11h-96.94c-8.39,0-16.46-6.86-17.94-15.25l-7.68-43.53c-1.48-8.39,4.17-15.25,12.56-15.25h96.94c8.39,0,16.46,6.86,17.94,15.25l7.68,43.53C2290.77,1573.24,2285.12,1580.11,2276.73,1580.11Z" transform="translate(-189.2 -136.08)"/><path class="cls-5" d="M2217.91,1562.29a2,2,0,0,1-1.37-.55l-21.77-20.6a2,2,0,1,1,2.75-2.9l20.23,19.15,30.69-36.3a2,2,0,0,1,3.05,2.58l-32.05,37.91a2,2,0,0,1-1.42.71h-0.11Z" transform="translate(-189.2 -136.08)"/><path class="cls-8" d="M2674.69,1268.4h-96.94c-8.39,0-16.46-6.86-17.94-15.25l-7.68-43.53c-1.48-8.39,4.17-15.25,12.56-15.25h96.94c8.39,0,16.46,6.86,17.94,15.25l7.68,43.53C2688.73,1261.53,2683.08,1268.4,2674.69,1268.4Z" transform="translate(-189.2 -136.08)"/><path class="cls-5" d="M2615.87,1250.58a2,2,0,0,1-1.37-.55l-21.77-20.6a2,2,0,0,1,2.75-2.9l20.23,19.15,30.69-36.3a2,2,0,1,1,3.05,2.58l-32.05,37.91a2,2,0,0,1-1.42.71h-0.11Z" transform="translate(-189.2 -136.08)"/><path class="cls-4" d="M2705.2,1540.51c3.35,19-9.35,34.44-28.37,34.44s-37.16-15.42-40.52-34.44,9.35-34.44,28.37-34.44S2701.85,1521.49,2705.2,1540.51Z" transform="translate(-189.2 -136.08)"/><path class="cls-4" d="M2277.69,1645.56c3.35,19-9.35,34.44-28.37,34.44s-37.16-15.42-40.52-34.44,9.35-34.44,28.37-34.44S2274.33,1626.54,2277.69,1645.56Z" transform="translate(-189.2 -136.08)"/><path class="cls-4" d="M562.21,966.4H719.77c0,86.44-71.13,157.57-157.57,157.57S404.64,1052.84,404.64,966.4s71.13-157.57,157.57-157.57V966.4Z" transform="translate(-189.2 -136.08)"/><path class="cls-9" d="M746.16,944.34A157.57,157.57,0,0,0,588.59,786.77V944.34H746.16Z" transform="translate(-189.2 -136.08)"/><rect class="cls-4" x="242.43" y="1365.78" width="97.45" height="205.67"/><rect class="cls-4" x="543.66" y="1150.89" width="97.46" height="420.56"/><rect class="cls-4" x="694.28" y="1355.15" width="97.45" height="216.29"/><rect class="cls-4" x="844.9" y="1293.93" width="97.45" height="277.52"/><rect class="cls-4" x="393.05" y="1229.99" width="97.45" height="341.46"/><rect class="cls-4" x="996.02" y="1046.83" width="97.45" height="524.62"/><rect class="cls-15" x="252.18" y="1375.53" width="87.49" height="205.67"/><rect class="cls-15" x="553.41" y="1160.63" width="87.49" height="420.56"/><rect class="cls-15" x="704.02" y="1364.9" width="87.49" height="216.29"/><rect class="cls-15" x="854.64" y="1303.68" width="87.49" height="277.52"/><rect class="cls-15" x="402.79" y="1239.73" width="87.49" height="341.46"/><rect class="cls-15" x="1005.76" y="1056.58" width="87.49" height="524.62"/><path class="cls-13" d="M404.65,1445.57a15,15,0,0,1-8.57-27.32L777.8,1153.12a15,15,0,0,1,19.78,2.37l140.28,158.2,300.51-287.4A15,15,0,1,1,1259.1,1048L947.34,1346.13a15,15,0,0,1-21.59-.89L784,1185.36,413.19,1442.89A14.93,14.93,0,0,1,404.65,1445.57Z" transform="translate(-189.2 -136.08)"/><path class="cls-13" d="M1243.61,1116.91a15,15,0,0,1-14.71-18l10.78-52.68L1182.2,1052a15,15,0,1,1-3-29.85l77.77-7.87a15,15,0,0,1,16.2,17.93l-14.87,72.66A15,15,0,0,1,1243.61,1116.91Z" transform="translate(-189.2 -136.08)"/><path class="cls-16" d="M2853.72,889.14c26.88-53.78,97.21-78.17,117.17-18.26s26.88,63.71,55,88.77c97.5,87-50.78,139.08-103,161.92s-73.06-74-77-150.91C2842.76,910.54,2845.85,904.88,2853.72,889.14Z" transform="translate(-189.2 -136.08)"/><path class="cls-17" d="M2933,1700.46c5.26,21.38-5.12,38.33-19,50.69-11.31,10-46.06,14.32-44.38,19.34s42.71,6.62,56.53,4.52,17.59-8.79,34.79-8.79c11.27,0,13.37-9.16,8.34-20.5s-6.78-17.6-2.24-27.76S2933,1700.46,2933,1700.46Z" transform="translate(-189.2 -136.08)"/><path class="cls-17" d="M3138.1,1700.46c-0.84,22.19-3.41,38.73,2,49,21,17.59,38.5,37.56,31.82,38.94-31.82,6.57-44-12.5-62-17.92-22.1-6.65,2.09-34.42-6.56-70-4.81-19.8,33.36-15.05,33.36-15.05Z" transform="translate(-189.2 -136.08)"/><path class="cls-13" d="M2987.92,1194c-14,117.25-39.33,203.92-42.16,259.5s-14.13,274.44-14.13,274.44,31.09-2.17,33.92-6.88,58.41-128.12,55.58-204.43,55.51-192.33,55.51-192.33l-14.06-113.84Z" transform="translate(-189.2 -136.08)"/><path class="cls-18" d="M3001.33,1245l-21.83,9.14c-5.94,37.18-12.52,70.61-18.3,100.25,34.75,22.46,52.7,97.3,60.39,143.06,3.92-51.2,28.08-113.06,43.06-147.27Z" transform="translate(-189.2 -136.08)"/><path class="cls-13" d="M3102.15,1182.16s47.06,60,45.58,128.12c-2.25,103.67-13.55,133.26,6.12,242,7.68,42.45-17,181.33-17,181.33s-21,1.65-32.35-4c0.94-10.2-13.6-176.19-41.93-252.5-13.72-36.95-33-140.43-43.36-199.78s-12.25-71.6-8.48-71.6S3102.15,1182.16,3102.15,1182.16Z" transform="translate(-189.2 -136.08)"/><path class="cls-19" d="M2683,1319l-65,7.5a10,10,0,0,1-10.31-6.9,6.57,6.57,0,0,1,5.66-8.74l65-7.5a10,10,0,0,1,10.31,6.9A6.58,6.58,0,0,1,2683,1319Z" transform="translate(-189.2 -136.08)"/><path class="cls-19" d="M2690.36,1343.61l-65,7.5a10,10,0,0,1-10.31-6.9,6.58,6.58,0,0,1,5.66-8.74l65-7.5a10,10,0,0,1,10.31,6.9A6.58,6.58,0,0,1,2690.36,1343.61Z" transform="translate(-189.2 -136.08)"/><path class="cls-20" d="M2732.5,1282.47c-19.49,6.17-31.23,7.47-45,6.5s-22.88,7.15-31,10.4-11.37,8.36,2.27,6.5S2679,1304,2679,1304s9.84,2.19,14.39,5.44a60,60,0,0,1,7.17,6.24c4.05,3.9,3.84,11.39.4,15.84-3.72,4.82-6.14,10.14-10,12-7.21,3.55-.41,7.82,6.76,3.55,6.82-4.06,10.72-9.82,15.92-15.59,7.44-8.26,14.29-21.59,21.11-27.52S2732.5,1282.47,2732.5,1282.47Z" transform="translate(-189.2 -136.08)"/><path class="cls-7" d="M2927.19,1050.18c-31.61,65-61.49,134.51-101.13,167s-102.91,67.16-102.91,67.16,8.71,24.44,12.61,25.09,98.11-32.68,125.39-50.77,84.95-79.28,84.95-79.28Z" transform="translate(-189.2 -136.08)"/><path class="cls-21" d="M2924.18,1202.41c26-23.38,51.48-61.89,50.68-65.95-1.07-5.44-39.38-105.92-39.38-105.92-8.29,19.5-15.46,36.72-21.65,51.76C2917.68,1127.84,2934.73,1172.77,2924.18,1202.41Z" transform="translate(-189.2 -136.08)"/><path class="cls-7" d="M2982.78,963.63s70.32,8.35,102.39,56.49,17.18,127.29,25,163.83-98.63,81.91-112.09,44.63c-12.91-35.74-67.53-101.78-73-121.67-12.77-46.65,33.46-126.13,33.46-126.13Z" transform="translate(-189.2 -136.08)"/><path class="cls-20" d="M2940.77,901.44l54,69.59s-19.69,30.92-48.11,98.45c-10.36-34.37,4.62-81.33,4.62-81.33l-46.21-67.45Z" transform="translate(-189.2 -136.08)"/><path class="cls-22" d="M2966,933.9l-25.2-32.46-35.68,19.27,46.21,67.45s-0.8,3.69-1.87,9.43C2962.76,977.48,2967.86,956.62,2966,933.9Z" transform="translate(-189.2 -136.08)"/><path class="cls-20" d="M2933.11,924.31c2.16,27.57-19.55,51-40.4,52.66s-33-19.16-35.11-46.74,13-51.25,33.84-52.89S2930.94,896.74,2933.11,924.31Z" transform="translate(-189.2 -136.08)"/><path class="cls-7" d="M2983.1,1162.77c8.8,55.76-23.87,175.07-23.87,175.07s19.49,4.43,77.9-1.23,84.16-64,93-65.58,13.31,54.25,17.65,58.67,5-70.57-6.34-100c-20.1-52.25-16.16-74.42-8.65-106.08C3146.1,1067.29,2983.1,1162.77,2983.1,1162.77Z" transform="translate(-189.2 -136.08)"/><path class="cls-21" d="M3146.14,1247.85a104.63,104.63,0,0,0-4.75-18.19c-20.1-52.25-16.16-74.42-8.65-106.08,0.59-2.5-46.66-78.41-46.66-78.41l-61.41-66c-58.93,95.68,12.24,141,6.71,178s-34,65.24-34,65.24l2,13.15a33.38,33.38,0,0,0,37.55,28.05c25.46-3.53,58.85-10.63,73.71-24.42C3125,1225.88,3137.73,1236.21,3146.14,1247.85Z" transform="translate(-189.2 -136.08)"/><path class="cls-20" d="M3001.3,1231.49s-25.62,12-28.55,14.27-3.21,11.41-3.21,11.41-13.14,16-6.45,19.7,19.24,13.95,32.22,6c8-4.86,9.3-37.37,14.87-38.57S3001.3,1231.49,3001.3,1231.49Z" transform="translate(-189.2 -136.08)"/><path class="cls-7" d="M3036.35,974.52c28.92-4,63.73,43.41,80.4,86.84s37,105.75,37,105.75-41.35,45.67-86.63,64.6c-39.49,16.52-59.85,23.8-59.85,23.8L2995,1233.46l88.63-74.33s-47.64-62-59.89-112.84S3014.37,977.58,3036.35,974.52Z" transform="translate(-189.2 -136.08)"/><path class="cls-16" d="M2852.46,900.28c19.29,48.68,75.43,24.15,90.09,15.42s18.32,110.78,50.56,106.12c23.67-3.43,11.24-32.69,34.43-44.76,17.08-8.89,30.53,3.43,30.53,3.43a35.54,35.54,0,0,0-16.31-14.19c-11-4.46-54.4-33.7-71.91-64.33s-63.73-37.84-75.39-34.37-34.93,26.56-34.93,26.56Z" transform="translate(-189.2 -136.08)"/><path class="cls-16" d="M2991.93,1034.81c-21.42,0-30.76-42.09-41.52-90.56-2.14-9.66-4.36-19.65-6.68-29.26a2.44,2.44,0,0,1,4.74-1.15c2.33,9.65,4.56,19.66,6.71,29.35,9.73,43.85,19.79,89.15,38.45,86.62,11.28-1.55,13.46-26.09,11.74-48.54a2.44,2.44,0,1,1,4.86-.37c1.18,15.34,2,51.28-15.93,53.74A17.25,17.25,0,0,1,2991.93,1034.81Z" transform="translate(-189.2 -136.08)"/><path class="cls-16" d="M2992.8,1047.62a13.62,13.62,0,0,1-6.17-1.55c-27.49-13.85-45.72-125.25-46.48-130a2.44,2.44,0,1,1,4.81-.78c5.09,31.58,22.88,115.84,43.87,126.41a8.28,8.28,0,0,0,8,0c9.24-4.78,10.11-20.44,10.88-34.25s1.52-27.14,10.62-30.07a2.44,2.44,0,1,1,1.49,4.64c-5.92,1.9-6.56,13.46-7.25,25.7-0.84,15.12-1.8,32.25-13.51,38.31A13.52,13.52,0,0,1,2992.8,1047.62Z" transform="translate(-189.2 -136.08)"/><ellipse class="cls-20" cx="2939.33" cy="921.55" rx="12.72" ry="9.21" transform="translate(967.33 3297.55) rotate(-72.04)"/><path class="cls-11" d="M1355,1674.6s-185.89-129.12-264.52-54.67c-62.79,59.45,48.66,129.28,191.24,110.5,100.36-13.22,111.73,6,129.31,5.57,130.8-10,307.05-49.16,221.28-110.64-116.85-83.76-195.88,5-236.59,27.14Z" transform="translate(-189.2 -136.08)"/><path class="cls-23" d="M1595.34,1622.25c-48.86-10.08-235,58.94-235,58.94s-162.08-48.86-200.86-53.51-56.61,10.08-56.61,10.08,18.3-20.62,39.55-22.49,52-7,52-7,310.21-14.73,351.31-5.43S1595.34,1622.25,1595.34,1622.25Z" transform="translate(-189.2 -136.08)"/><path class="cls-24" d="M1331.73,1371c-7.37,1.16-122,51.15-123.36,72.08s31.39,190.8,94.83,212.91,134.39,0,134.39,0,74.45-183.79,52.34-218.69-122.14-66.3-122.14-66.3h-36.06Z" transform="translate(-189.2 -136.08)"/><path class="cls-24" d="M1247.51,1410.56c-109.47,58.66-136.36,164.57-107.4,187.91,20.29,16.36,96.78,52.54,163.09,50.21s128.57,3.92,128.57,3.92,113.74-23.14,136.43-57.23-40.25-144.81-96.68-176.82S1247.51,1410.56,1247.51,1410.56Z" transform="translate(-189.2 -136.08)"/><path class="cls-20" d="M1351.9,1437.3a27.61,27.61,0,0,1-27.53-27.53V1317.1a27.53,27.53,0,1,1,55.06,0v92.67A27.61,27.61,0,0,1,1351.9,1437.3Z" transform="translate(-189.2 -136.08)"/><path class="cls-22" d="M1351.9,1289.57a27.61,27.61,0,0,0-27.53,27.53v75.77c16.23,13.56,31.95,6.46,55.06-11.46V1317.1A27.61,27.61,0,0,0,1351.9,1289.57Z" transform="translate(-189.2 -136.08)"/><path class="cls-20" d="M1412.32,1320.85c-4.52,9.24-11.87,14.36-16.41,11.44s-4.55-12.77,0-22,11.87-14.36,16.41-11.44S1416.85,1311.61,1412.32,1320.85Z" transform="translate(-189.2 -136.08)"/><path class="cls-20" d="M1305.8,1311c5.23,8.4,6.24,18.56,2.24,22.68s-11.47.65-16.7-7.75-6.24-18.56-2.24-22.68S1300.57,1302.57,1305.8,1311Z" transform="translate(-189.2 -136.08)"/><ellipse class="cls-20" cx="1163.93" cy="1184.18" rx="47.35" ry="60.97"/><path class="cls-25" d="M1456.37,1471.15c31,16.55,58.05,79.24,58.05,79.24s-69.8,10.86-84.27,21.71,2.07-4.14,10.34-34.12S1456.37,1471.15,1456.37,1471.15Z" transform="translate(-189.2 -136.08)"/><path class="cls-25" d="M1240.41,1466.63c7.24,33.09,41.88,125.47,41.88,125.47s-32.08-36.54-66.18-38.61-46.75-2.59-46.53,5.69c0,1.63,5.69-36.71,32.06-60.49S1240.41,1466.63,1240.41,1466.63Z" transform="translate(-189.2 -136.08)"/><path class="cls-26" d="M1448.35,1674.95H1261a15.45,15.45,0,0,1-15.24-12.9l-22.59-134.8a15.45,15.45,0,0,1,15.24-18h232.48a15.45,15.45,0,0,1,15.24,18l-22.59,134.8A15.45,15.45,0,0,1,1448.35,1674.95Z" transform="translate(-189.2 -136.08)"/><path class="cls-27" d="M1448.35,1674.95H1261a15.3,15.3,0,0,1-15.24-12.43l-22.59-129.93c-1.58-9.08,5.68-17.35,15.24-17.35h232.48c9.55,0,16.82,8.27,15.24,17.35l-22.59,129.93A15.3,15.3,0,0,1,1448.35,1674.95Z" transform="translate(-189.2 -136.08)"/><path class="cls-23" d="M1379.43,1728.05c-1.12-.19-121-30.19-147.73-8.09s89.57,22.48,110.51,17.64S1379.43,1728.05,1379.43,1728.05Z" transform="translate(-189.2 -136.08)"/><path class="cls-23" d="M1406.18,1733.43s25.59-19.28,59.32-15.79,62.81,10.85,33.73,20-59.32,10.28-73.28,9.12S1406.18,1733.43,1406.18,1733.43Z" transform="translate(-189.2 -136.08)"/><path class="cls-28" d="M1338,1234.31c-30.76,9.33-20.05,95.91,15.11,93.06s36.59-40.29,34.09-64.54S1369.75,1224.68,1338,1234.31Z" transform="translate(-189.2 -136.08)"/><path class="cls-28" d="M1327,1298.49c-8.56-8.2-20.32,17.61-15.69,29s-1.85,17.94,4.42,30.15-11.56-7.76-14.05-22.38-3.92-39.93-7.49-51.34,0.18-31.19,16.07-35.3,19.59-11.41,25.65-11.77,34.94,2.5,49.21,10.34,22.11,19.61,21,37.44-5.71,63.47-10,71-6.49,5.71-5.21,1.43,5.92-30,2.36-39.23-1.78-32.09-11.05-33.87-7.13,14-18.18,15.21S1327,1298.49,1327,1298.49Z" transform="translate(-189.2 -136.08)"/></svg>