<svg xmlns="http://www.w3.org/2000/svg" xmlns:xlink="http://www.w3.org/1999/xlink" viewBox="0 0 586.49 522.97"><defs><style>.cls-1{isolation:isolate;}.cls-2{fill:#eff0f8;}.cls-3{opacity:0.5;}.cls-4{fill:#f9c6b5;}.cls-5{fill:#b5eff9;}.cls-6{fill:#dde6fc;}.cls-7{fill:#8497fa;}.cls-8{fill:#e6e9f8;}.cls-9{fill:#ddf7fc;}.cls-10{fill:#adadea;}.cls-11{fill:#393768;}.cls-12,.cls-16,.cls-18,.cls-20,.cls-23,.cls-24,.cls-26,.cls-31,.cls-32,.cls-33,.cls-34,.cls-36{mix-blend-mode:soft-light;}.cls-12{fill:url(#linear-gradient);}.cls-13{opacity:0.1;}.cls-14{fill:#cce9f1;}.cls-15{fill:#edb6a4;}.cls-16{fill:url(#linear-gradient-2);}.cls-17{fill:#80bced;}.cls-18{fill:url(#linear-gradient-3);}.cls-19{fill:#e0a494;}.cls-20{fill:url(#linear-gradient-4);}.cls-21{fill:#385575;}.cls-22{fill:#a9d3f6;}.cls-23{fill:url(#linear-gradient-5);}.cls-24{fill:url(#linear-gradient-6);}.cls-25{fill:#535e9d;}.cls-26{fill:url(#linear-gradient-7);}.cls-27{fill:#a8cfef;}.cls-28{fill:#888fd3;}.cls-29{fill:#ccd7f1;}.cls-30{fill:#9a92ea;}.cls-31{fill:url(#linear-gradient-8);}.cls-32{fill:url(#linear-gradient-9);}.cls-33{fill:url(#linear-gradient-10);}.cls-34{fill:url(#linear-gradient-11);}.cls-35{fill:#635fb5;}.cls-36{fill:url(#linear-gradient-12);}</style><linearGradient id="linear-gradient" x1="741.45" y1="274.1" x2="741.45" y2="542.88" gradientUnits="userSpaceOnUse"><stop offset="0" stop-color="#fff"/><stop offset="0.1" stop-color="#fafafa"/><stop offset="0.22" stop-color="#eaeaea"/><stop offset="0.36" stop-color="#d0d0d0"/><stop offset="0.51" stop-color="#ababab"/><stop offset="0.67" stop-color="#7d7d7d"/><stop offset="0.83" stop-color="#444"/><stop offset="1" stop-color="#020202"/><stop offset="1"/></linearGradient><linearGradient id="linear-gradient-2" x1="634.78" y1="617.32" x2="671.76" y2="624.97" xlink:href="#linear-gradient"/><linearGradient id="linear-gradient-3" x1="644.25" y1="619.2" x2="706.31" y2="622.6" xlink:href="#linear-gradient"/><linearGradient id="linear-gradient-4" x1="675.29" y1="495.68" x2="673.38" y2="522.88" xlink:href="#linear-gradient"/><linearGradient id="linear-gradient-5" x1="524.59" y1="456.95" x2="541.08" y2="466.96" gradientTransform="matrix(-0.99, -0.16, -0.16, 0.99, 1274.65, 105.8)" xlink:href="#linear-gradient"/><linearGradient id="linear-gradient-6" x1="560.81" y1="374.51" x2="572.37" y2="406.1" gradientTransform="matrix(-0.72, -0.7, -0.7, 0.72, 1361.65, 573.49)" xlink:href="#linear-gradient"/><linearGradient id="linear-gradient-7" x1="721.42" y1="498.6" x2="715.04" y2="525.22" xlink:href="#linear-gradient"/><linearGradient id="linear-gradient-8" x1="625.48" y1="457.38" x2="647.76" y2="527.46" gradientTransform="translate(448.74 -350.35) rotate(45)" xlink:href="#linear-gradient"/><linearGradient id="linear-gradient-9" x1="394.63" y1="438.46" x2="405.54" y2="464.58" gradientTransform="matrix(-1, 0, 0, 1, 1351.51, 38.72)" xlink:href="#linear-gradient"/><linearGradient id="linear-gradient-10" x1="417.87" y1="672.2" x2="421.82" y2="702.67" gradientTransform="matrix(-0.78, 0.62, 0.62, 0.78, 900.69, -313.48)" xlink:href="#linear-gradient"/><linearGradient id="linear-gradient-11" x1="437.65" y1="654.91" x2="407.36" y2="682.87" gradientTransform="matrix(-0.78, 0.62, 0.62, 0.78, 900.69, -313.48)" xlink:href="#linear-gradient"/><linearGradient id="linear-gradient-12" x1="512.5" y1="753.84" x2="523.41" y2="779.97" gradientTransform="matrix(-0.6, 0.8, 0.8, 0.6, 688.74, -351.57)" xlink:href="#linear-gradient"/></defs><title>Cloud-storage</title><g class="cls-1"><g id="Object"><g id="Cloud_Services" data-name="Cloud Services"><path class="cls-2" d="M881.35,645.18C607.74,640,537,688.27,610,699.89s190.83,0,121.86,19.17-41.14,31.73,9.63,30.41,97.91-1,148.15-25.47,83-27.46,122-26.82c53.14,0.88,66.84-32,21.89-43.12S914.77,645.81,881.35,645.18Z" transform="translate(-514.59 -226.6)"/><path class="cls-2" d="M667.49,568.78c-78.48-6.2-141.82-89.7-122.59-114.26s46.88-1.87,45.23-31.28-67.57-54.5-48.66-79,39,31.85,88.76,6.33S664.11,254,701.38,257s36.3,61.48,103.34,56.19,46.73,58.41,95,68.15,49.09,38.73,14.86,75.2S766.05,576.57,667.49,568.78Z" transform="translate(-514.59 -226.6)"/><g class="cls-3"><path class="cls-4" d="M570,490.35a5.48,5.48,0,0,1-5.47-5.47h3.15a2.32,2.32,0,1,0,2.32-2.32v-3.15A5.47,5.47,0,1,1,570,490.35Z" transform="translate(-514.59 -226.6)"/><path class="cls-4" d="M609.05,539.76a5.48,5.48,0,0,1-5.47-5.47h3.15a2.32,2.32,0,1,0,2.32-2.32v-3.15A5.47,5.47,0,1,1,609.05,539.76Z" transform="translate(-514.59 -226.6)"/><path class="cls-4" d="M715.7,558.37a5.48,5.48,0,0,1-5.47-5.47h3.15a2.32,2.32,0,1,0,2.32-2.32v-3.14A5.47,5.47,0,1,1,715.7,558.37Z" transform="translate(-514.59 -226.6)"/><path class="cls-4" d="M813.89,501.15a5.48,5.48,0,0,1-5.47-5.47h3.15a2.32,2.32,0,1,0,2.32-2.32v-3.15A5.47,5.47,0,1,1,813.89,501.15Z" transform="translate(-514.59 -226.6)"/><path class="cls-4" d="M767.34,410.91a5.48,5.48,0,0,1-5.47-5.47H765a2.32,2.32,0,1,0,2.32-2.32V400A5.47,5.47,0,1,1,767.34,410.91Z" transform="translate(-514.59 -226.6)"/><path class="cls-4" d="M695.6,462a5.48,5.48,0,0,1-5.47-5.47h3.14a2.32,2.32,0,1,0,2.32-2.32V451A5.47,5.47,0,1,1,695.6,462Z" transform="translate(-514.59 -226.6)"/><path class="cls-4" d="M623,402.28a5.48,5.48,0,0,1-5.47-5.47h3.14a2.32,2.32,0,1,0,2.32-2.32v-3.15A5.47,5.47,0,1,1,623,402.28Z" transform="translate(-514.59 -226.6)"/><path class="cls-4" d="M567.17,368.41a5.48,5.48,0,0,1-5.47-5.47h3.15a2.32,2.32,0,1,0,2.32-2.32v-3.15A5.47,5.47,0,1,1,567.17,368.41Z" transform="translate(-514.59 -226.6)"/><path class="cls-4" d="M714.47,288.12a5.48,5.48,0,0,1-5.47-5.47h3.15a2.32,2.32,0,1,0,2.32-2.32v-3.15A5.47,5.47,0,1,1,714.47,288.12Z" transform="translate(-514.59 -226.6)"/><path class="cls-4" d="M683.76,348a5.48,5.48,0,0,1-5.47-5.47h3.14a2.32,2.32,0,1,0,2.32-2.32V337.1A5.47,5.47,0,1,1,683.76,348Z" transform="translate(-514.59 -226.6)"/><path class="cls-4" d="M814.2,338.93a5.48,5.48,0,0,1-5.47-5.47h3.14a2.32,2.32,0,1,0,2.32-2.32V328A5.47,5.47,0,1,1,814.2,338.93Z" transform="translate(-514.59 -226.6)"/><path class="cls-4" d="M750.46,355.48A5.48,5.48,0,0,1,745,350h3.14a2.32,2.32,0,1,0,2.32-2.32v-3.15A5.47,5.47,0,1,1,750.46,355.48Z" transform="translate(-514.59 -226.6)"/><path class="cls-4" d="M863.43,392.18a5.48,5.48,0,0,1-5.47-5.47h3.15a2.32,2.32,0,1,0,2.32-2.32v-3.14A5.47,5.47,0,1,1,863.43,392.18Z" transform="translate(-514.59 -226.6)"/><path class="cls-4" d="M889.33,454.54a5.48,5.48,0,0,1-5.47-5.47H887a2.32,2.32,0,1,0,2.32-2.32v-3.15A5.47,5.47,0,1,1,889.33,454.54Z" transform="translate(-514.59 -226.6)"/><path class="cls-5" d="M909.34,409.88a5.47,5.47,0,1,1,5.47-5.47h-3.15a2.32,2.32,0,1,0-2.32,2.32v3.14Z" transform="translate(-514.59 -226.6)"/><path class="cls-5" d="M847.74,445.76a5.47,5.47,0,1,1,5.47-5.47h-3.14a2.32,2.32,0,1,0-2.32,2.33v3.15Z" transform="translate(-514.59 -226.6)"/><path class="cls-5" d="M850.57,357.28a5.47,5.47,0,1,1,5.47-5.47H852.9a2.32,2.32,0,1,0-2.33,2.32v3.15Z" transform="translate(-514.59 -226.6)"/><path class="cls-5" d="M820,365.72a5.47,5.47,0,1,1,5.47-5.47h-3.14a2.33,2.33,0,1,0-2.33,2.32v3.14Z" transform="translate(-514.59 -226.6)"/><path class="cls-5" d="M775.15,324a5.47,5.47,0,1,1,5.47-5.47h-3.14a2.32,2.32,0,1,0-2.33,2.32V324Z" transform="translate(-514.59 -226.6)"/><path class="cls-5" d="M715,348.76a5.47,5.47,0,1,1,5.47-5.47h-3.15a2.32,2.32,0,1,0-2.33,2.33v3.14Z" transform="translate(-514.59 -226.6)"/><path class="cls-5" d="M681.92,294a5.47,5.47,0,1,1,5.47-5.47h-3.14a2.32,2.32,0,1,0-2.32,2.32V294Z" transform="translate(-514.59 -226.6)"/><path class="cls-5" d="M647.38,365.17a5.47,5.47,0,1,1,5.47-5.47H649.7a2.32,2.32,0,1,0-2.33,2.32v3.15Z" transform="translate(-514.59 -226.6)"/><path class="cls-5" d="M598.25,383.42a5.47,5.47,0,1,1,5.47-5.47h-3.15a2.32,2.32,0,1,0-2.32,2.32v3.15Z" transform="translate(-514.59 -226.6)"/><path class="cls-5" d="M590,453.37a5.47,5.47,0,1,1,5.47-5.47h-3.15a2.32,2.32,0,1,0-2.32,2.32v3.15Z" transform="translate(-514.59 -226.6)"/><path class="cls-5" d="M581.8,517.46a5.47,5.47,0,1,1,5.47-5.47h-3.15a2.32,2.32,0,1,0-2.32,2.32v3.15Z" transform="translate(-514.59 -226.6)"/><path class="cls-5" d="M633.44,556.42a5.47,5.47,0,1,1,5.47-5.47h-3.14a2.32,2.32,0,1,0-2.32,2.33v3.15Z" transform="translate(-514.59 -226.6)"/><path class="cls-5" d="M741.88,560.5a5.47,5.47,0,1,1,5.47-5.47h-3.14a2.32,2.32,0,1,0-2.32,2.32v3.14Z" transform="translate(-514.59 -226.6)"/><path class="cls-5" d="M744.19,468.64a5.47,5.47,0,1,1,5.47-5.47h-3.14a2.33,2.33,0,1,0-2.32,2.32v3.15Z" transform="translate(-514.59 -226.6)"/><path class="cls-5" d="M806.82,473.45a5.47,5.47,0,1,1,5.47-5.47h-3.14a2.33,2.33,0,1,0-2.33,2.32v3.15Z" transform="translate(-514.59 -226.6)"/><path class="cls-5" d="M722.38,423.27a5.47,5.47,0,1,1,5.47-5.47H724.7a2.32,2.32,0,1,0-2.32,2.32v3.15Z" transform="translate(-514.59 -226.6)"/><path class="cls-5" d="M667.24,440.43a5.47,5.47,0,1,1,5.47-5.47h-3.15a2.32,2.32,0,1,0-2.33,2.32v3.15Z" transform="translate(-514.59 -226.6)"/></g><path class="cls-6" d="M880.08,581.84c23.43-18,34-31.85,24.1-45.26s-8.36-14.69,2-30.43-0.2-16.65-4.69-25.92,4.51-18.59,9.75-31.43-14.34-29.08-27.42-17.17,4.84,21.44-4,35.89-34.26,19-28.48,32.15S877.93,518.12,865,532s-21.63,23.47-9.63,36.55S880.08,581.84,880.08,581.84Z" transform="translate(-514.59 -226.6)"/><path class="cls-7" d="M893.39,453.84q-5.87,44.22-11.39,88.44c-1.88,14.74-4,29.48-5.38,44.22S874,616,873.52,630.71h0.41c2.84-14.74,4.8-29.48,6.83-44.22s3.12-29.48,4.55-44.21q4.42-44.21,8.48-88.43h-0.41Z" transform="translate(-514.59 -226.6)"/><path class="cls-8" d="M875.59,494.73c2.16,1.18,5.75,1.72,9.91,2.33,6.12,0.91,13.57,2,19.13,5.89a46.54,46.54,0,0,1,5.72-21.85c0.4-.74.87-1.42,1.29-2.15-1.8-5.76-7-9.68-11.64-13.14-3-2.21-5.52-4.13-6.77-6.23a1,1,0,0,1,.47-1.37,1.05,1.05,0,0,1,1.45.28c1.08,1.81,3.5,3.63,6.31,5.73,4.17,3.12,9.24,6.95,11.61,12.34a113.09,113.09,0,0,1,18.14-21.69,0.8,0.8,0,0,1-.36-0.88c1.34-5.79-.95-11.31-3-16.19-1.28-3.09-2.39-5.77-2.39-8.09a1.08,1.08,0,0,1,1-1,0.85,0.85,0,0,1,1,.82c0,2,1.05,4.54,2.27,7.48,1.9,4.59,4.2,10.26,3.2,16.22,2.84-2.63,5.77-5.18,8.76-7.66a1.06,1.06,0,0,1,.6-0.61l0.23-.07q4.51-3.72,9.11-7.28c-2.51,2.26-5,4.52-7.54,6.79,6-1.75,12.34-.87,17.48-0.12,3.43,0.5,6.39.93,8.57,0.54a0.87,0.87,0,0,1,1.08.72,1.06,1.06,0,0,1-.9,1.08c-2.53.46-5.65,0-9.26-.52-5.69-.83-12.14-1.77-18.17.56a1,1,0,0,1-1-.15,0.08,0.08,0,0,1,0,0,162,162,0,0,0-12,11.91q-2.42,2.61-4.71,5.32c6.29-1.49,12.72-.44,18,0.42,3.68,0.61,6.86,1.12,9.2.74a0.93,0.93,0,0,1,1.15.8,1.15,1.15,0,0,1-1,1.15c-2.73.45-6.08-.1-9.95-0.73-6.11-1-13-2.13-19.56.28H923A83.54,83.54,0,0,0,912.84,482a48.22,48.22,0,0,0-2.46,6c7.51-1.16,14.79,1,20.74,2.74,4,1.18,7.36,2.2,10,2.08a1,1,0,0,1,1.14,1.06A1.33,1.33,0,0,1,941,495c-3.07.14-6.67-.93-10.82-2.17-6.25-1.86-13.3-3.92-20.51-2.52-0.46,1.58-.86,3.16-1.17,4.75a47,47,0,0,0-.36,13.27,78.25,78.25,0,0,0,2.48,11.35c5-2.49,10.8-3,15.55-3.35,3.31-.27,6.17-0.5,8.09-1.3a0.87,0.87,0,0,1,1.18.41,0.92,0.92,0,0,1-.58,1.14c-2.24.93-5.25,1.17-8.73,1.45-4.9.4-10.37,0.86-15.07,3.29,1.26,4.19,2.73,8.35,4.16,12.53,1.51,4.58,2.94,9.24,4.14,14,3.06-2.79,7-4.56,10.37-6a24.92,24.92,0,0,0,5.87-3.12,0.78,0.78,0,0,1,1,0,0.65,0.65,0,0,1-.08,1,25.75,25.75,0,0,1-6.32,3.4c-3.62,1.59-7.67,3.37-10.54,6.3a99,99,0,0,1,2.05,10.79,91.67,91.67,0,0,1-.51,27.68c-3.08,18.61-11.39,36.49-21.46,53.17,4.27-8.67,8.65-17.3,11.7-26.25a121.43,121.43,0,0,0,7-27,98.24,98.24,0,0,0,0-26.9c0-.14-0.05-0.27-0.07-0.4a0.7,0.7,0,0,1-.32-0.07c-3.83-2.13-8.8-1.89-13.19-1.68-2.78.13-5.19,0.25-6.93-.26a0.61,0.61,0,0,1-.39-0.86,0.84,0.84,0,0,1,1-.45,22.47,22.47,0,0,0,6.42.2c4.08-.19,9.07-0.41,13.12,1.46a145.45,145.45,0,0,0-6.38-23.62L911.39,534c-5.41-.84-11.17,1.06-16.29,2.76-3.38,1.13-6.29,2.1-8.65,2.12a0.78,0.78,0,0,1-.83-0.85,1,1,0,0,1,1-.86c2,0,4.79-.94,8-2,4.76-1.59,10.57-3.5,16.14-3-2.48-7.5-5-15.12-5.93-23.26-0.1-1-.15-1.92-0.2-2.89-5.18-4.59-12.94-5.75-19.79-6.77-4.38-.65-8.16-1.21-10.67-2.59a1,1,0,0,1-.29-1.52A1.34,1.34,0,0,1,875.59,494.73Z" transform="translate(-514.59 -226.6)"/><path class="cls-5" d="M932.38,445.83a0.91,0.91,0,0,0,1.31-.56c3.07-12.83-3.63-16-4.28-22.47-0.57-5.71-3.77,7.54-7.12,11.07C919.47,436.83,929.17,443.69,932.38,445.83Z" transform="translate(-514.59 -226.6)"/><path class="cls-5" d="M906.49,470.78a0.94,0.94,0,0,0,1-1.11c-3.78-13-12.27-12.82-16.41-18.38-3.65-4.91.23,8.54-1.26,13.28C888.59,468.54,902.09,470.31,906.49,470.78Z" transform="translate(-514.59 -226.6)"/><path class="cls-5" d="M894.53,500.79a0.94,0.94,0,0,0,.45-1.54c-11.38-10.41-20.22-6.12-27.74-9.35-6.64-2.85,5.1,7.92,6.22,13.09C874.4,507.34,889.63,502.48,894.53,500.79Z" transform="translate(-514.59 -226.6)"/><path class="cls-5" d="M902.6,534.34a0.65,0.65,0,0,0-.31-1.12c-12.37-2.54-16.89,3.25-23.56,3.86-5.89.54,6.89,3.18,9.81,6C891,545.51,899.81,537.12,902.6,534.34Z" transform="translate(-514.59 -226.6)"/><path class="cls-5" d="M911.08,558.39a0.55,0.55,0,0,0,.06-1c-8.44-4.77-13.29-1.21-18.37-2.23-4.48-.89,4.24,4.05,5.64,7C899.59,564.61,908.29,560,911.08,558.39Z" transform="translate(-514.59 -226.6)"/><path class="cls-5" d="M953,445a0.77,0.77,0,0,1,.35-1.27c13.33-5.24,18.1.07,25.26-.63,6.32-.62-7.44,4.81-10.63,8.48C965.35,454.64,956,447.4,953,445Z" transform="translate(-514.59 -226.6)"/><path class="cls-5" d="M934,464.73a0.83,0.83,0,0,1,.41-1.36c14.45-5.42,19.46.4,27.18-.23,6.81-.55-8.11,5.07-11.61,9C947,475.37,937.1,467.39,934,464.73Z" transform="translate(-514.59 -226.6)"/><path class="cls-5" d="M920.9,490.12a1,1,0,0,1,.66-1.49c16.75-4.18,21.34,3.08,29.92,3.42,7.57,0.3-9.72,4.64-14.19,8.57C933.54,503.93,923.92,493.56,920.9,490.12Z" transform="translate(-514.59 -226.6)"/><path class="cls-5" d="M918.39,518.69a0.67,0.67,0,0,1,0-1.19c11.11-7.37,16.83-3.68,23.31-5.78,5.72-1.85-5.75,5.78-7.82,9.67C932.18,524.65,921.73,520.21,918.39,518.69Z" transform="translate(-514.59 -226.6)"/><path class="cls-5" d="M924.45,545.58a0.51,0.51,0,0,1-.37-0.85c6.28-8.27,11.9-7.19,16.26-10.44,3.85-2.87-2.62,5.68-3,9C937,546.09,927.52,545.76,924.45,545.58Z" transform="translate(-514.59 -226.6)"/><path class="cls-5" d="M947.44,440.35a0.66,0.66,0,0,0,1,.63c12-4.92,12.07-11.49,17.26-15.55,4.59-3.58-7.8,1.49-12.08,1.05C950,426.11,948,436.87,947.44,440.35Z" transform="translate(-514.59 -226.6)"/><path class="cls-8" d="M969.55,497.15c0.95,2.28,3.4,4.94,6.26,8,4.2,4.55,9.3,10.1,11.21,16.58a46.53,46.53,0,0,1,18.15-13.44c0.77-.32,1.57-0.57,2.35-0.87,2.21-5.62.6-11.94-.83-17.53-0.92-3.58-1.71-6.67-1.36-9.1a1,1,0,0,1,1.22-.78,1.05,1.05,0,0,1,.95,1.13c-0.3,2.09.45,5,1.33,8.42,1.29,5,2.84,11.2,1.31,16.89a113.09,113.09,0,0,1,27.73-5.53,0.8,0.8,0,0,1,.27-0.91c4.68-3.67,6.36-9.41,7.84-14.47,0.94-3.21,1.75-6,3.21-7.8a1.08,1.08,0,0,1,1.41-.16,0.85,0.85,0,0,1,.26,1.26c-1.25,1.56-2,4.19-2.92,7.25-1.4,4.77-3.15,10.63-7.68,14.64,3.87-.27,7.74-0.42,11.63-0.48a1.06,1.06,0,0,1,.84-0.1l0.22,0.09c3.9,0,7.8,0,11.66,0l-10.13.56c5.81,2.43,10.15,7.06,13.7,10.87,2.36,2.54,4.4,4.73,6.34,5.79a0.87,0.87,0,0,1,.39,1.24,1.06,1.06,0,0,1-1.38.28c-2.26-1.23-4.4-3.54-6.89-6.21-3.92-4.21-8.35-9-14.51-11a1,1,0,0,1-.71-0.76,0.08,0.08,0,0,1,0,0,162,162,0,0,0-16.81,1.76q-3.52.52-7,1.19c5.84,2.78,10.19,7.63,13.78,11.63,2.49,2.78,4.64,5.17,6.71,6.34a0.93,0.93,0,0,1,.39,1.34,1.15,1.15,0,0,1-1.5.27c-2.41-1.36-4.67-3.89-7.29-6.81-4.13-4.6-8.81-9.82-15.41-12l0,0a83.54,83.54,0,0,0-17.68,5.82,48.22,48.22,0,0,0-5.66,3.1c6.58,3.8,10.92,10,14.44,15.14,2.34,3.4,4.36,6.33,6.49,7.89a1,1,0,0,1,.22,1.54,1.33,1.33,0,0,1-1.73.11c-2.48-1.82-4.61-4.91-7.07-8.48-3.71-5.37-7.9-11.4-14.4-14.82-1.34.94-2.66,1.93-3.89,3a47,47,0,0,0-8.6,10.11,78.26,78.26,0,0,0-5.18,10.4c5.49,1.22,10.27,4.46,14.22,7.14,2.75,1.87,5.12,3.47,7.12,4.06a0.87,0.87,0,0,1,.66,1.06,0.92,0.92,0,0,1-1.16.53c-2.32-.68-4.82-2.38-7.71-4.34-4.07-2.76-8.62-5.83-13.8-6.88-1.65,4.05-3.11,8.21-4.62,12.37-1.7,4.52-3.5,9-5.54,13.48,4.13-.25,8.34.86,11.85,1.81a24.93,24.93,0,0,0,6.53,1.25,0.78,0.78,0,0,1,.83.63,0.65,0.65,0,0,1-.67.7,25.75,25.75,0,0,1-7.06-1.31c-3.82-1-8.08-2.18-12.15-1.7a98.9,98.9,0,0,1-5.17,9.7,91.67,91.67,0,0,1-17.75,21.25c-14.07,12.57-31.75,21.29-50.05,28,8.76-4.08,17.58-8.06,25.57-13.12a121.43,121.43,0,0,0,22.4-16.63,98.24,98.24,0,0,0,16.86-21c0.07-.12.13-0.24,0.2-0.36a0.7,0.7,0,0,1-.2-0.25c-1.65-4.06-5.67-7-9.22-9.58-2.25-1.64-4.2-3.06-5.23-4.55a0.61,0.61,0,0,1,.24-0.91,0.84,0.84,0,0,1,1,.26,22.48,22.48,0,0,0,4.88,4.18c3.3,2.4,7.32,5.37,9.31,9.37a145.44,145.44,0,0,0,9.84-22.4l0.4-1.08c-3.69-4-9.37-6.18-14.42-8.06-3.34-1.24-6.22-2.31-8.06-3.77a0.78,0.78,0,0,1-.11-1.18,1,1,0,0,1,1.33,0c1.59,1.26,4.32,2.27,7.49,3.45,4.71,1.75,10.43,3.9,14.45,7.79,2.77-7.39,5.61-14.89,10-21.84,0.52-.81,1.08-1.59,1.66-2.37-1.15-6.82-6.47-12.59-11.18-17.68-3-3.25-5.6-6.06-6.69-8.7a1,1,0,0,1,.73-1.36A1.34,1.34,0,0,1,969.55,497.15Z" transform="translate(-514.59 -226.6)"/><path class="cls-5" d="M1044.46,494.65a0.91,0.91,0,0,0,1.37.38c10.43-8.07,7.2-14.75,10.75-20.19,3.13-4.81-7.66,3.51-12.49,4.16C1040,479.56,1043.3,491,1044.46,494.65Z" transform="translate(-514.59 -226.6)"/><path class="cls-5" d="M1008.64,497.87a0.94,0.94,0,0,0,1.49-.22c5.21-12.51-1.52-17.69-1.26-24.61,0.23-6.11-5.17,6.8-9.31,9.55C996.1,484.9,1005.51,494.75,1008.64,497.87Z" transform="translate(-514.59 -226.6)"/><path class="cls-5" d="M980.52,513.75a0.94,0.94,0,0,0,1.31-.91c-2.34-15.24-11.92-17.45-15.75-24.67-3.38-6.38-1,9.37-3.36,14.1C960.72,506.23,975.64,512,980.52,513.75Z" transform="translate(-514.59 -226.6)"/><path class="cls-5" d="M965.77,545a0.65,0.65,0,0,0,.46-1.07c-8-9.74-15.19-8.06-20.77-11.76-4.92-3.27,3.37,6.8,3.86,10.86C949.72,546.38,961.86,545.37,965.77,545Z" transform="translate(-514.59 -226.6)"/><path class="cls-5" d="M957.3,569a0.55,0.55,0,0,0,.65-0.7c-3.59-9-9.6-9.28-12.91-13.25-2.93-3.5.76,5.81,0,9C944.45,566.65,954.15,568.48,957.3,569Z" transform="translate(-514.59 -226.6)"/><path class="cls-5" d="M1061.08,507a0.77,0.77,0,0,1,1.07-.77c13.67,4.27,14.06,11.4,20.07,15.34,5.31,3.48-8.82-.92-13.6-0.06C1064.62,522.19,1061.87,510.69,1061.08,507Z" transform="translate(-514.59 -226.6)"/><path class="cls-5" d="M1033.85,510.38a0.83,0.83,0,0,1,1.17-.81c14.65,4.84,14.92,12.51,21.32,16.86,5.65,3.84-9.49-1.14-14.67-.3C1037.33,526.85,1034.61,514.42,1033.85,510.38Z" transform="translate(-514.59 -226.6)"/><path class="cls-5" d="M1007.75,522a1,1,0,0,1,1.45-.74c15.67,7.24,14.7,15.78,21.17,21.42,5.72,5-10.48-2.48-16.43-2.22C1008.94,540.65,1007.94,526.54,1007.75,522Z" transform="translate(-514.59 -226.6)"/><path class="cls-5" d="M987.88,542.66a0.67,0.67,0,0,1,.76-0.92c13.28,1.22,15.42,7.68,21.79,10.11,5.62,2.15-8.1.9-12.15,2.63C994.89,555.94,989.53,545.93,987.88,542.66Z" transform="translate(-514.59 -226.6)"/><path class="cls-5" d="M975.74,567.41a0.51,0.51,0,0,1,.25-0.89c10.08-2.51,13.78,1.86,19.22,2.06,4.8,0.18-5.6,2.78-8,5.15C985.24,575.7,978,569.47,975.74,567.41Z" transform="translate(-514.59 -226.6)"/><path class="cls-5" d="M1059.63,499.84a0.66,0.66,0,0,0,.37,1.1c12.43,3.68,16.6-1.39,23.2-1.29,5.82,0.08-7-3.73-10.07-6.75C1070.56,490.36,1062.25,497.47,1059.63,499.84Z" transform="translate(-514.59 -226.6)"/><path class="cls-9" d="M862.28,628c12.68,0,10.83,23.65,27.11,23.4,19.19-.29,13.84-14.42,46.8-24.65,18.6-7.37,17.16-22.4,3.91-16.43s-28.18,16.33-25.9,4.69,12.36-22.64,39.36-30.36,38.86-28.4,25.72-30.77S946.8,568,931.17,581.76s-26.73,7-15.65-4.87,33.7-19.37,44.2-39.12,5.89-24.49-6.95-24.26S914.42,543.14,910,558.67s-14.41,20.86-12.74,10.2,9.29-29.83.16-29.34-13.24,15.29-9.63,20.9,5.63,10.2-3.75,14.73-12.77-23.76-20-16.66-8.38,31.31,3.78,31.55,17.24,21.21,4.36,24.11-19.44-18.1-24.53-8.43S849.61,628,862.28,628Zm4.37-46.45c-4.54-1.09-4.11-6.67-3.11-11s3.56-1.33,8,4.28c0,0,3.35,3.26,4.44,6S871.2,582.61,866.66,581.52Zm70.08-37.45c2.5-6.74-1.4-11.71,8.21-16.62s9.74-8.44,9.69-1.93-1.92,11.62-10.81,15.64C943.82,541.16,934.23,550.81,936.73,544.07Zm17.4,31c-0.23-1.12,8.67-8.89,8.67-8.89,7.31-6.45,17.1-6.07,15.08-3s-7.64,8.35-12.68,9.19S954.36,576.19,954.13,575.07Zm-22.39,44.76c7-4.17,16.12-5,9.67-.6s-11.54,6.46-14,5.63S928.06,622,931.74,619.83Zm-37.25-64c-4-4.52-5.34-7.76-1.19-9.92s5.55,1.29,4.31,4.72A14.27,14.27,0,0,1,894.5,555.82Zm-14.09,61.75c15.52-9.26,13.55-15.53,12.73-25.52-1-11.81,6.27-5.91,12.15,3.24s-6.22,14.06-4.93,23.29c0,0,0,12.23-6.83,13.59C886.53,633.58,868.68,624.58,880.41,617.58Zm-30.3-6.15c0.71-3.26,2.5.61,6.51,3.7,6.83,5.26.34,5.18-3.6,4.46S849.4,614.68,850.11,611.42Z" transform="translate(-514.59 -226.6)"/><path class="cls-6" d="M652.09,637.61C642,629.83,637.39,623.83,641.67,618s3.62-6.36-.88-13.17,0.09-7.21,2-11.21-1.95-8-4.22-13.6,6.21-12.58,11.87-7.43-2.1,9.27,1.74,15.53,14.82,8.24,12.32,13.91-11.5,8-5.9,14,9.36,10.16,4.17,15.81S652.09,637.61,652.09,637.61Z" transform="translate(-514.59 -226.6)"/><path class="cls-7" d="M646.34,582.23q2.54,19.13,4.93,38.27c0.81,6.38,1.73,12.76,2.33,19.13s1.14,12.75,1.34,19.13h-0.18c-1.23-6.38-2.08-12.76-3-19.14s-1.35-12.75-2-19.13q-1.91-19.13-3.67-38.26h0.18Z" transform="translate(-514.59 -226.6)"/><path class="cls-8" d="M654,599.92a14.62,14.62,0,0,1-4.29,1c-2.65.39-5.87,0.88-8.28,2.55A20.13,20.13,0,0,0,639,594c-0.17-.32-0.38-0.62-0.56-0.93,0.78-2.49,3-4.19,5-5.68a11.25,11.25,0,0,0,2.93-2.7,0.44,0.44,0,0,0-.2-0.59,0.46,0.46,0,0,0-.63.12,10.9,10.9,0,0,1-2.73,2.48c-1.81,1.35-4,3-5,5.34a48.93,48.93,0,0,0-7.85-9.38,0.34,0.34,0,0,0,.16-0.38c-0.58-2.51.41-4.9,1.28-7a10.11,10.11,0,0,0,1-3.5,0.47,0.47,0,0,0-.43-0.44,0.37,0.37,0,0,0-.43.35,9.77,9.77,0,0,1-1,3.23c-0.82,2-1.82,4.44-1.38,7-1.23-1.14-2.5-2.24-3.79-3.32a0.46,0.46,0,0,0-.26-0.26l-0.1,0q-2-1.61-3.94-3.15l3.26,2.94a17.86,17.86,0,0,0-7.56-.05,13,13,0,0,1-3.71.23,0.38,0.38,0,0,0-.47.31,0.46,0.46,0,0,0,.39.47,13.41,13.41,0,0,0,4-.23c2.46-.36,5.25-0.77,7.86.24a0.43,0.43,0,0,0,.44-0.06v0a70.11,70.11,0,0,1,5.19,5.15q1,1.13,2,2.3a19.86,19.86,0,0,0-7.8.18,13.87,13.87,0,0,1-4,.32,0.4,0.4,0,0,0-.5.34,0.5,0.5,0,0,0,.43.5,14.37,14.37,0,0,0,4.3-.32c2.64-.43,5.64-0.92,8.46.12h0a36.15,36.15,0,0,1,4.38,6.76A20.86,20.86,0,0,1,639,597c-3.25-.5-6.4.42-9,1.19a14.85,14.85,0,0,1-4.33.9,0.44,0.44,0,0,0-.49.46,0.57,0.57,0,0,0,.55.51,15.4,15.4,0,0,0,4.68-.94c2.71-.81,5.76-1.7,8.87-1.09,0.2,0.68.37,1.37,0.51,2.06a20.34,20.34,0,0,1,.16,5.74,33.85,33.85,0,0,1-1.07,4.91,18.47,18.47,0,0,0-6.73-1.45,13,13,0,0,1-3.5-.56,0.38,0.38,0,0,0-.51.18,0.4,0.4,0,0,0,.25.49,13.4,13.4,0,0,0,3.78.63,17.1,17.1,0,0,1,6.52,1.42c-0.54,1.81-1.18,3.61-1.8,5.42-0.65,2-1.27,4-1.79,6a16.25,16.25,0,0,0-4.49-2.61,10.78,10.78,0,0,1-2.54-1.35,0.34,0.34,0,0,0-.45,0,0.28,0.28,0,0,0,0,.42,11.14,11.14,0,0,0,2.73,1.47,14.27,14.27,0,0,1,4.56,2.72,42.81,42.81,0,0,0-.89,4.67,39.66,39.66,0,0,0,.22,12c1.33,8.05,4.93,15.79,9.28,23a97.6,97.6,0,0,1-5.06-11.36,52.54,52.54,0,0,1-3-11.68,42.51,42.51,0,0,1,0-11.64c0-.06,0-0.12,0-0.17a0.31,0.31,0,0,0,.14,0c1.66-.92,3.81-0.82,5.71-0.73a10,10,0,0,0,3-.11,0.26,0.26,0,0,0,.17-0.37,0.36,0.36,0,0,0-.42-0.2,9.72,9.72,0,0,1-2.78.09,12.43,12.43,0,0,0-5.68.63,62.93,62.93,0,0,1,2.76-10.22l0.16-.47c2.34-.36,4.83.46,7,1.2a13.62,13.62,0,0,0,3.74.92,0.34,0.34,0,0,0,.36-0.37,0.44,0.44,0,0,0-.44-0.37,13.18,13.18,0,0,1-3.46-.87,17.75,17.75,0,0,0-7-1.29,51.26,51.26,0,0,0,2.57-10.06c0-.41.07-0.83,0.08-1.25,2.24-2,5.6-2.49,8.56-2.93a15.09,15.09,0,0,0,4.62-1.12,0.43,0.43,0,0,0,.12-0.66A0.58,0.58,0,0,0,654,599.92Z" transform="translate(-514.59 -226.6)"/><path class="cls-5" d="M629.47,578.76a0.39,0.39,0,0,1-.57-0.24c-1.33-5.55,1.57-6.92,1.85-9.72,0.25-2.47,1.63,3.26,3.08,4.79C635,574.87,630.85,577.83,629.47,578.76Z" transform="translate(-514.59 -226.6)"/><path class="cls-5" d="M640.67,589.56a0.41,0.41,0,0,1-.44-0.48c1.64-5.63,5.31-5.55,7.1-8,1.58-2.12-.1,3.7.55,5.75C648.41,588.59,642.57,589.35,640.67,589.56Z" transform="translate(-514.59 -226.6)"/><path class="cls-5" d="M645.84,602.54a0.4,0.4,0,0,1-.2-0.66c4.92-4.5,8.75-2.65,12-4,2.87-1.23-2.21,3.43-2.69,5.67C654.55,605.37,648,603.27,645.84,602.54Z" transform="translate(-514.59 -226.6)"/><path class="cls-5" d="M642.35,617.06a0.28,0.28,0,0,1,.14-0.49c5.35-1.1,7.31,1.41,10.19,1.67,2.55,0.23-3,1.38-4.25,2.61C647.37,621.89,643.55,618.26,642.35,617.06Z" transform="translate(-514.59 -226.6)"/><path class="cls-5" d="M638.68,627.46a0.24,0.24,0,0,1,0-.41c3.65-2.07,5.75-.53,7.95-1,1.94-.39-1.83,1.75-2.44,3C643.65,630.15,639.88,628.14,638.68,627.46Z" transform="translate(-514.59 -226.6)"/><path class="cls-5" d="M620.52,578.39a0.33,0.33,0,0,0-.15-0.55c-5.77-2.27-7.83,0-10.93-.27-2.73-.27,3.22,2.08,4.6,3.67C615.2,582.57,619.25,579.44,620.52,578.39Z" transform="translate(-514.59 -226.6)"/><path class="cls-5" d="M628.78,586.94a0.36,0.36,0,0,0-.18-0.59c-6.25-2.34-8.42.17-11.76-.1-2.95-.24,3.51,2.19,5,3.88C623.14,591.54,627.42,588.09,628.78,586.94Z" transform="translate(-514.59 -226.6)"/><path class="cls-5" d="M634.43,597.92a0.42,0.42,0,0,0-.29-0.64c-7.25-1.81-9.23,1.33-12.95,1.48-3.28.13,4.21,2,6.14,3.71C629,603.9,633.13,599.41,634.43,597.92Z" transform="translate(-514.59 -226.6)"/><path class="cls-5" d="M635.51,610.29a0.29,0.29,0,0,0,0-.51c-4.81-3.19-7.28-1.59-10.09-2.5-2.48-.8,2.49,2.5,3.38,4.18C629.55,612.86,634.07,610.94,635.51,610.29Z" transform="translate(-514.59 -226.6)"/><path class="cls-5" d="M632.9,621.92a0.22,0.22,0,0,0,.16-0.37c-2.72-3.58-5.15-3.11-7-4.52-1.67-1.24,1.13,2.46,1.29,3.9C627.44,622.14,631.57,622,632.9,621.92Z" transform="translate(-514.59 -226.6)"/><path class="cls-5" d="M622.95,576.39a0.29,0.29,0,0,1-.42.27c-5.19-2.13-5.22-5-7.47-6.73-2-1.55,3.38.64,5.23,0.45C621.83,570.23,622.7,574.88,622.95,576.39Z" transform="translate(-514.59 -226.6)"/><path class="cls-8" d="M613.38,601a14.62,14.62,0,0,1-2.71,3.47c-1.82,2-4,4.37-4.85,7.17A20.13,20.13,0,0,0,598,605.8c-0.33-.14-0.68-0.24-1-0.37-1-2.43-.26-5.17.36-7.58a11.25,11.25,0,0,0,.59-3.94,0.44,0.44,0,0,0-.53-0.34,0.46,0.46,0,0,0-.41.49,10.89,10.89,0,0,1-.58,3.64c-0.56,2.18-1.23,4.85-.57,7.31a48.93,48.93,0,0,0-12-2.39,0.34,0.34,0,0,0-.12-0.39c-2-1.59-2.75-4.07-3.39-6.26a10.11,10.11,0,0,0-1.39-3.38,0.47,0.47,0,0,0-.61-0.07,0.37,0.37,0,0,0-.11.54,9.77,9.77,0,0,1,1.26,3.14c0.6,2.06,1.36,4.6,3.32,6.34-1.67-.12-3.35-0.18-5-0.21a0.46,0.46,0,0,0-.37,0l-0.1,0c-1.69,0-3.37,0-5,0l4.38,0.24a17.87,17.87,0,0,0-5.93,4.7,13,13,0,0,1-2.74,2.51,0.38,0.38,0,0,0-.17.54,0.46,0.46,0,0,0,.6.12,13.41,13.41,0,0,0,3-2.69c1.69-1.82,3.61-3.89,6.28-4.74a0.43,0.43,0,0,0,.31-0.33,0,0,0,0,0,0,0,70.12,70.12,0,0,1,7.27.76q1.52,0.23,3,.52a19.86,19.86,0,0,0-6,5,13.86,13.86,0,0,1-2.9,2.74,0.4,0.4,0,0,0-.17.58,0.5,0.5,0,0,0,.65.12,14.37,14.37,0,0,0,3.16-2.95c1.79-2,3.81-4.25,6.67-5.21h0a36.14,36.14,0,0,1,7.65,2.52,20.86,20.86,0,0,1,2.45,1.34c-2.85,1.65-4.72,4.34-6.25,6.55a14.85,14.85,0,0,1-2.81,3.41,0.44,0.44,0,0,0-.1.66,0.57,0.57,0,0,0,.75,0,15.39,15.39,0,0,0,3.06-3.67c1.6-2.32,3.42-4.93,6.23-6.41,0.58,0.41,1.15.83,1.68,1.28a20.34,20.34,0,0,1,3.72,4.37,33.86,33.86,0,0,1,2.24,4.5,18.47,18.47,0,0,0-6.15,3.09,13,13,0,0,1-3.08,1.76,0.38,0.38,0,0,0-.29.46,0.4,0.4,0,0,0,.5.23,13.41,13.41,0,0,0,3.34-1.88,17.1,17.1,0,0,1,6-3c0.71,1.75,1.35,3.55,2,5.35,0.74,2,1.51,3.91,2.4,5.83a16.25,16.25,0,0,0-5.13.78,10.78,10.78,0,0,1-2.82.54,0.34,0.34,0,0,0-.36.27,0.28,0.28,0,0,0,.29.3,11.14,11.14,0,0,0,3.05-.57,14.27,14.27,0,0,1,5.26-.74,42.83,42.83,0,0,0,2.23,4.19,39.66,39.66,0,0,0,7.68,9.2c6.09,5.44,13.74,9.21,21.66,12.1a97.6,97.6,0,0,1-11.07-5.68,52.54,52.54,0,0,1-9.69-7.2,42.51,42.51,0,0,1-7.29-9.07l-0.09-.16a0.3,0.3,0,0,0,.09-0.11c0.71-1.76,2.45-3,4-4.14a10,10,0,0,0,2.26-2,0.26,0.26,0,0,0-.1-0.39,0.36,0.36,0,0,0-.45.11,9.73,9.73,0,0,1-2.11,1.81,12.43,12.43,0,0,0-4,4.05,62.93,62.93,0,0,1-4.26-9.69l-0.17-.47c1.6-1.75,4.05-2.67,6.24-3.49a13.61,13.61,0,0,0,3.49-1.63,0.34,0.34,0,0,0,0-.51,0.44,0.44,0,0,0-.58,0,13.18,13.18,0,0,1-3.24,1.49,17.75,17.75,0,0,0-6.25,3.37,51.25,51.25,0,0,0-4.31-9.45c-0.23-.35-0.47-0.69-0.72-1,0.5-3,2.8-5.45,4.84-7.65a15.09,15.09,0,0,0,2.9-3.77,0.43,0.43,0,0,0-.31-0.59A0.58,0.58,0,0,0,613.38,601Z" transform="translate(-514.59 -226.6)"/><path class="cls-5" d="M581,599.89a0.39,0.39,0,0,1-.59.17c-4.51-3.49-3.12-6.38-4.65-8.74-1.36-2.08,3.31,1.52,5.4,1.8C582.88,593.35,581.47,598.29,581,599.89Z" transform="translate(-514.59 -226.6)"/><path class="cls-5" d="M596.47,601.28a0.41,0.41,0,0,1-.65-0.1c-2.26-5.41.66-7.65,0.54-10.65-0.1-2.64,2.24,2.94,4,4.13C601.89,595.67,597.82,599.93,596.47,601.28Z" transform="translate(-514.59 -226.6)"/><path class="cls-5" d="M608.64,608.15a0.4,0.4,0,0,1-.57-0.4c1-6.59,5.16-7.55,6.82-10.68,1.46-2.76.43,4.05,1.46,6.1C617.2,604.9,610.74,607.39,608.64,608.15Z" transform="translate(-514.59 -226.6)"/><path class="cls-5" d="M615,621.65a0.28,0.28,0,0,1-.2-0.46c3.48-4.21,6.57-3.49,9-5.09,2.13-1.42-1.46,2.94-1.67,4.7C622,622.27,616.71,621.83,615,621.65Z" transform="translate(-514.59 -226.6)"/><path class="cls-5" d="M618.68,632.05a0.24,0.24,0,0,1-.28-0.3c1.55-3.9,4.15-4,5.59-5.73,1.27-1.52-.33,2.52,0,3.88C624.24,631,620,631.83,618.68,632.05Z" transform="translate(-514.59 -226.6)"/><path class="cls-5" d="M573.78,605.21a0.33,0.33,0,0,0-.46-0.33c-5.91,1.85-6.08,4.93-8.68,6.64-2.3,1.51,3.82-.4,5.88,0C572.24,611.8,573.44,606.82,573.78,605.21Z" transform="translate(-514.59 -226.6)"/><path class="cls-5" d="M585.56,606.69a0.36,0.36,0,0,0-.51-0.35c-6.34,2.09-6.45,5.41-9.22,7.3-2.44,1.66,4.11-.49,6.35-0.13C584.05,613.81,585.23,608.44,585.56,606.69Z" transform="translate(-514.59 -226.6)"/><path class="cls-5" d="M596.85,611.71a0.42,0.42,0,0,0-.63-0.32c-6.78,3.13-6.36,6.83-9.16,9.27-2.47,2.15,4.53-1.07,7.11-1C596.34,619.79,596.77,613.68,596.85,611.71Z" transform="translate(-514.59 -226.6)"/><path class="cls-5" d="M605.45,620.66a0.29,0.29,0,0,0-.33-0.4c-5.74.53-6.67,3.32-9.43,4.38-2.43.93,3.5,0.39,5.26,1.14C602.42,626.4,604.74,622.07,605.45,620.66Z" transform="translate(-514.59 -226.6)"/><path class="cls-5" d="M610.7,631.36a0.22,0.22,0,0,0-.11-0.39c-4.36-1.08-6,.8-8.32.89-2.08.08,2.42,1.2,3.45,2.23C606.59,635,609.72,632.26,610.7,631.36Z" transform="translate(-514.59 -226.6)"/><path class="cls-5" d="M574.41,602.13a0.29,0.29,0,0,1-.16.48c-5.38,1.59-7.18-.6-10-0.56-2.52,0,3-1.61,4.36-2.92C569.68,598,573.27,601.1,574.41,602.13Z" transform="translate(-514.59 -226.6)"/><path class="cls-9" d="M666.11,647.95c-2.2-4.19-5,4.9-10.61,3.65s-3.38-10.33,1.88-10.43,4.76-10.58,1.63-13.65-4.6,9.17-8.65,7.21-3.18-3.95-1.62-6.38-0.21-8.83-4.16-9-0.65,8.08.07,12.69-3.62,2.3-5.51-4.41S626.19,608.15,620.64,608s-7.55,2-3,10.5,14.33,11.79,19.12,16.93,0,8.07-6.77,2.11-15.13-13.1-20.82-12.08-0.56,10,11.13,13.31,16,8.1,17,13.13-5.47.55-11.21-2-6.35,3.92,1.69,7.11c14.26,4.43,11.94,10.54,20.25,10.67,7,0.11,6.24-10.14,11.73-10.12A6.69,6.69,0,0,0,666.11,647.95Zm-12.23-10.79a9.89,9.89,0,0,1,1.92-2.59c1.9-2.43,3-3.72,3.44-1.85s0.62,4.28-1.34,4.76S653.41,638.33,653.88,637.16ZM624.51,620c-3.85-1.74-4.65-4-4.68-6.77s0-1.29,4.19.84,2.47,4.27,3.55,7.19S624.51,620,624.51,620Zm-9.25,13.5c-2.18-.36-4.61-2.65-5.49-4s3.36-1.49,6.52,1.3c0,0,3.85,3.36,3.75,3.85S617.45,633.87,615.26,633.51Zm16.36,22.71c-1.08.36-3.28-.51-6.07-2.44s1.17-1.55,4.18.26C631.33,655,632.7,655.86,631.63,656.22ZM644.5,624.1c-0.54-1.49.07-3,1.86-2s1.23,2.33-.51,4.29A6.17,6.17,0,0,1,644.5,624.1Zm1.77,35.29c-3-.59-3-5.88-3-5.88,0.56-4-4.67-6.12-2.13-10.08s5.68-6.51,5.26-1.4c-0.36,4.32-1.21,7,5.51,11C657,656.1,649.3,660,646.27,659.39Zm17.53-5.45c-1.71.31-4.51,0.34-1.56-1.93,1.73-1.33,2.51-3,2.82-1.6S665.51,653.63,663.8,653.94Z" transform="translate(-514.59 -226.6)"/><path class="cls-10" d="M826.17,564.65a6.38,6.38,0,0,1-1.29,1l3-1.79a6.38,6.38,0,0,0,1.29-1l1.52-1.59-3,1.79Z" transform="translate(-514.59 -226.6)"/><path class="cls-10" d="M814,527.8q-0.32,0-.63,0h-0.07l-0.21,0-0.41.07-0.15,0-0.41.12-0.27.08-0.11.05a6.36,6.36,0,0,0-.93.45l-3,1.79a6.38,6.38,0,0,1,.93-0.45l0.37-.13,0.41-.12,0.56-.12,0.21,0a6.51,6.51,0,0,1,.85-0.06h2.2l3-1.79H814Z" transform="translate(-514.59 -226.6)"/><path class="cls-10" d="M851.4,562.58l-3,1.79,0,2.24a6.69,6.69,0,0,1,0,.83c0,0.06,0,.12,0,0.18a6.59,6.59,0,0,1-.12.66l0,0.13a6.52,6.52,0,0,1-.24.72l-0.1.22c-0.07.16-.14,0.31-0.22,0.46s-0.15.27-.23,0.4l-0.2.3a6.53,6.53,0,0,1-.78.91l-0.17.16a6.48,6.48,0,0,1-1,.76l3-1.79a6.48,6.48,0,0,0,1-.75l0.17-.16a6.51,6.51,0,0,0,.78-0.91l0.06-.07c0.05-.08.09-0.16,0.14-0.24s0.16-.26.23-0.39l0.07-.13c0.06-.11.1-0.23,0.15-0.34l0.1-.22,0-.07q0.11-.29.19-0.59v-0.06l0-.13c0-.13.06-0.26,0.09-0.39s0-.18,0-0.27,0-.12,0-0.17,0-.08,0-0.13q0-.29,0-0.59s0-.07,0-0.11Z" transform="translate(-514.59 -226.6)"/><path class="cls-10" d="M849.48,554.11c-0.42.17-.86,0.32-1.29,0.46s-0.76.25-1.16,0.35-1,.24-1.58.33l-0.59.1a18.51,18.51,0,0,1-2.41.17c-0.55,0-1.09,0-1.62-.08l-0.7-.08c-0.36,0-.71-0.1-1.06-0.16l-0.71-.14c-0.33-.07-0.66-0.16-1-0.25l-0.76-.23c-0.29-.1-0.57-0.2-0.85-0.31s-0.61-.24-0.9-0.37l-0.71-.34q-0.59-.29-1.16-0.63l-0.56-.34a19.25,19.25,0,0,1-2.22-1.64l-0.58-.53c-0.22-.21-0.45-0.42-0.66-0.64s-0.41-.44-0.61-0.66-0.41-.46-0.6-0.7-0.37-.47-0.54-0.72-0.36-.5-0.53-0.75-0.32-.51-0.48-0.77-0.32-.53-0.46-0.81-0.19-.37-0.28-0.56a19.14,19.14,0,0,1-1.07-2.59c0-.12-0.07-0.25-0.1-0.38-0.16-.53-0.3-1.06-0.41-1.61-0.06-.3-0.11-0.6-0.15-0.9s-0.1-.63-0.14-1c-0.06-.55-0.1-1.11-0.11-1.68a19,19,0,0,1,.11-2.34c0-.17,0-0.34.07-0.5A18.71,18.71,0,0,1,824,532c0-.13.05-0.26,0.09-0.39a18.5,18.5,0,0,1,.67-2.05c0.08-.21.18-0.41,0.27-0.61,0.2-.46.41-0.9,0.64-1.34s0.43-.75.66-1.11,0.42-.68.65-1,0.32-.42.48-0.63q0.44-.57.93-1.09c0.18-.2.36-0.39,0.55-0.58,0.35-.35.73-0.69,1.11-1,0.18-.15.35-0.31,0.53-0.45a18.19,18.19,0,0,1,1.79-1.25l-3,1.79a18.22,18.22,0,0,0-1.79,1.25c-0.18.14-.35,0.3-0.53,0.45-0.38.32-.75,0.66-1.11,1-0.19.19-.37,0.38-0.55,0.58-0.32.35-.63,0.72-0.93,1.09-0.16.21-.33,0.41-0.48,0.63s-0.17.21-.25,0.33-0.26.45-.4,0.67-0.45.73-.66,1.11c-0.06.12-.14,0.22-0.2,0.34-0.16.32-.29,0.66-0.44,1s-0.19.4-.27,0.61l-0.09.19q-0.31.82-.54,1.68c0,0.06,0,.12,0,0.17s-0.06.26-.09,0.4c-0.08.35-.17,0.71-0.24,1.07s-0.07.52-.1,0.78,0,0.33-.07.5,0,0.23,0,.35q-0.07.83-.07,1.68,0,0.16,0,.32,0,0.73.08,1.44c0,0.08,0,.16,0,0.24,0,0.32.09,0.63,0.14,0.95s0.06,0.47.1,0.7c0,0.07,0,.14.05,0.21,0.11,0.54.25,1.08,0.41,1.6,0,0.11.05,0.23,0.09,0.34l0,0a19.08,19.08,0,0,0,1.07,2.59c0,0.09.07,0.19,0.11,0.27s0.11,0.19.17,0.29c0.15,0.27.3,0.54,0.46,0.8s0.31,0.52.48,0.77,0.35,0.51.53,0.75,0.36,0.48.54,0.72,0.4,0.47.6,0.7,0.4,0.45.61,0.66,0.44,0.43.66,0.64,0.28,0.28.43,0.41l0.16,0.12a19.2,19.2,0,0,0,2.22,1.64l0.19,0.14,0.37,0.2q0.57,0.33,1.16.63l0.39,0.21,0.31,0.13c0.3,0.13.6,0.25,0.9,0.37s0.35,0.15.53,0.22l0.32,0.1,0.76,0.23,0.56,0.17,0.41,0.08,0.71,0.15,0.48,0.1,0.57,0.06,0.7,0.08,0.35,0q0.63,0,1.27,0h0.43q0.91,0,1.79-.13l0.19,0,0.59-.1c0.39-.06.78-0.12,1.16-0.2,0.14,0,.27-0.09.42-0.13,0.39-.1.78-0.23,1.16-0.35s0.52-.14.76-0.23l0.53-.23,0.51-.22a18.07,18.07,0,0,0,1.91-1l3-1.79a18.14,18.14,0,0,1-1.91,1Z" transform="translate(-514.59 -226.6)"/><path class="cls-10" d="M818.9,510.6a6.48,6.48,0,0,1,1.64-.22,6.56,6.56,0,0,1,1.2.12l0.13,0a6.57,6.57,0,0,1,1.07.32l0.16,0.06a6.6,6.6,0,0,1,1,.53l0.3,0.22a6.68,6.68,0,0,1,.82.67l1.58,1.57c1-.48,2-0.92,3.08-1.3l3-1.79-0.33.12c-0.94.35-1.85,0.75-2.75,1.18l-1.58-1.57-0.33-.31c-0.16-.14-0.33-0.24-0.49-0.36s-0.2-.16-0.3-0.22l-0.09-.07a6.61,6.61,0,0,0-.68-0.37l-0.23-.09-0.15-.06-0.23-.09-0.58-.17-0.26-.05-0.13,0-0.18,0-0.57-.06-0.44,0h-0.15q-0.31,0-.62,0a6.47,6.47,0,0,0-.69.12l-0.18.05-0.18.05c-0.15,0-.31.08-0.46,0.14a6.4,6.4,0,0,0-1.05.51l-3,1.79a6.37,6.37,0,0,1,1.51-.65Z" transform="translate(-514.59 -226.6)"/><path class="cls-10" d="M870.27,554.93c0-.15,0-0.3,0-0.44a6.77,6.77,0,0,0-.1-0.67v-0.06l0-.13c0-.19-0.09-0.39-0.15-0.58s-0.09-.21-0.13-0.32-0.11-.29-0.18-0.43-0.07-.18-0.11-0.27-0.19-.31-0.28-0.46-0.13-.22-0.2-0.33a6.73,6.73,0,0,0-.79-1l-1.58-1.57q0.41-.91.77-1.84l0.11-.27c0.12-.33.24-0.66,0.35-1h0l-3,1.79c-0.14.43-.3,0.86-0.46,1.28-0.24.62-.5,1.24-0.77,1.84l1.58,1.57a6.73,6.73,0,0,1,.79,1c0.07,0.11.13,0.22,0.2,0.33a6.73,6.73,0,0,1,.39.73c0.06,0.14.12,0.28,0.18,0.43a6.82,6.82,0,0,1,.28.9l0,0.13a6.79,6.79,0,0,1,.13,1.17s0,0.07,0,.1a6.74,6.74,0,0,1-.09,1.23h0a6.58,6.58,0,0,1-.33,1.21l0,0.06a6.46,6.46,0,0,1-.49,1l-0.12.2a6.38,6.38,0,0,1-.78,1l-3.07,3.17a6.53,6.53,0,0,1-1.28,1l3-1.79a6.51,6.51,0,0,0,1.28-1l3.07-3.17a6.42,6.42,0,0,0,.71-0.87l0.07-.11,0.12-.2c0.08-.14.18-0.28,0.25-0.42s0.17-.36.24-0.55l0-.06v0q0.11-.29.19-0.59t0.13-.58h0v0c0-.19.06-0.37,0.07-0.56s0-.4,0-0.59c0,0,0-.05,0-0.08S870.27,555,870.27,554.93Z" transform="translate(-514.59 -226.6)"/><path class="cls-10" d="M850.46,510.81l0-2.2q0-.26,0-0.51t-0.1-.66l0-.11,0-.18c0-.16-0.07-0.32-0.12-0.47s-0.11-.26-0.16-0.39-0.11-.29-0.18-0.42-0.05-.14-0.09-0.21-0.16-.25-0.24-0.37-0.22-.38-0.35-0.55-0.27-.33-0.41-0.49-0.29-.33-0.45-0.47l-0.14-.15c-0.13-.12-0.28-0.21-0.42-0.31s-0.24-.19-0.37-0.27l-0.12-.09a6.71,6.71,0,0,0-.68-0.37l-0.16-.06-0.15-.06-0.31-.13-0.58-.17-0.2,0-0.12,0-0.24,0-0.57-.06h-5q-0.32,0-.64,0h-0.07l-0.21,0-0.41.07-0.15,0-0.41.12-0.27.08-0.11.05a6.37,6.37,0,0,0-.93.45l-3,1.79a6.37,6.37,0,0,1,.93-0.45l0.38-.13,0.41-.12,0.56-.12,0.21,0a6.59,6.59,0,0,1,.85-0.06h4.45a6.52,6.52,0,0,1,1.26.13l0.12,0a6.56,6.56,0,0,1,1.09.34l0.15,0.06a6.71,6.71,0,0,1,1,.52c0.13,0.08.25,0.18,0.37,0.27a6.81,6.81,0,0,1,.57.46c0.16,0.15.3,0.31,0.45,0.47s0.28,0.32.41,0.49,0.24,0.36.35,0.55,0.23,0.38.32,0.58,0.12,0.28.18,0.42a6.71,6.71,0,0,1,.28.86c0,0.06,0,.12,0,0.18a6.72,6.72,0,0,1,.15,1.28l0,2.2c1,0.38,2.1.82,3.09,1.3l3-1.79-0.33-.16C852.32,511.53,851.39,511.15,850.46,510.81Z" transform="translate(-514.59 -226.6)"/><path class="cls-10" d="M876.55,539.67q0-.29,0-0.59s0-.07,0-0.11l-0.08-4.51q0-.26,0-0.51t-0.1-.66l0-.11,0-.18c0-.16-0.07-0.32-0.12-0.47s-0.11-.26-0.16-0.39-0.11-.29-0.18-0.42-0.05-.14-0.09-0.21-0.16-.25-0.24-0.37-0.22-.37-0.35-0.55-0.27-.33-0.41-0.49-0.29-.32-0.45-0.47l-0.14-.15c-0.13-.12-0.28-0.21-0.42-0.31s-0.24-.19-0.37-0.27l-0.12-.09a6.75,6.75,0,0,0-.68-0.37l-0.16-.06-0.15-.06-0.31-.13-0.58-.17-0.2,0-0.12,0-0.24,0-0.57-.06-0.44,0h-2.2a30.17,30.17,0,0,0-1.34-3.1l1.52-1.57a6.61,6.61,0,0,0,.7-0.86l0.07-.12,0.12-.21c0.08-.14.17-0.27,0.24-0.41s0.17-.38.25-0.57l0-.05v0q0.11-.3.19-0.6t0.13-.58h0c0-.19.06-0.37,0.07-0.56s0-.39,0-0.59c0,0,0-.05,0-0.08s0-.06,0-0.1,0-.29,0-0.44a6.75,6.75,0,0,0-.1-0.67l0-.06,0-.13c0-.19-0.09-0.38-0.15-0.57s-0.09-.22-0.13-0.33-0.11-.28-0.17-0.43-0.06-.18-0.11-0.26-0.19-.31-0.29-0.46-0.13-.22-0.2-0.33a6.76,6.76,0,0,0-.79-1l-3.18-3.19-0.3-.28c-0.17-.15-0.35-0.26-0.53-0.39s-0.2-.15-0.3-0.22l-0.08-.06a6.73,6.73,0,0,0-.69-0.37l-0.24-.1-0.16-.07-0.22-.09-0.59-.18-0.27-.06-0.13,0-0.18,0-0.58-.07-0.45,0h-0.15q-0.31,0-.63,0a6.48,6.48,0,0,0-.69.12l-0.18.05-0.18.05c-0.16,0-.31.08-0.46,0.14a6.37,6.37,0,0,0-1.05.51l-3,1.79a6.37,6.37,0,0,1,1.52-.65l0.18-.05a6.5,6.5,0,0,1,1.65-.22,6.61,6.61,0,0,1,1.2.12l0.13,0a6.66,6.66,0,0,1,1.08.32l0.16,0.06a6.73,6.73,0,0,1,1,.53c0.1,0.07.2,0.15,0.3,0.22a6.84,6.84,0,0,1,.83.67l3.18,3.19a6.76,6.76,0,0,1,.8,1c0.07,0.11.13,0.22,0.2,0.33a6.72,6.72,0,0,1,.39.73c0.06,0.14.12,0.28,0.17,0.42a6.76,6.76,0,0,1,.28.9l0,0.13a6.77,6.77,0,0,1,.13,1.17s0,0.06,0,.09a6.71,6.71,0,0,1-.09,1.23h0a6.62,6.62,0,0,1-.33,1.22l0,0.05a6.54,6.54,0,0,1-.49,1l-0.12.21a6.56,6.56,0,0,1-.77,1l-1.52,1.57a30.18,30.18,0,0,1,1.34,3.1h2.2a6.52,6.52,0,0,1,1.26.13l0.12,0a6.59,6.59,0,0,1,1.09.34l0.15,0.06a6.72,6.72,0,0,1,1,.52c0.13,0.08.25,0.18,0.37,0.27a6.79,6.79,0,0,1,.57.46c0.16,0.15.3,0.31,0.45,0.47s0.28,0.32.41,0.49,0.24,0.36.35,0.55,0.23,0.38.33,0.58,0.12,0.28.17,0.42a6.72,6.72,0,0,1,.28.87l0,0.18a6.71,6.71,0,0,1,.15,1.28l0.08,4.51a6.67,6.67,0,0,1,0,.83c0,0.06,0,.12,0,0.18a6.57,6.57,0,0,1-.12.66l0,0.13a6.5,6.5,0,0,1-.23.72l-0.1.22c-0.07.16-.14,0.31-0.22,0.46s-0.15.27-.23,0.39l-0.19.3a6.49,6.49,0,0,1-.78.91l-0.17.16a6.45,6.45,0,0,1-1,.75h0l3-1.79a6.45,6.45,0,0,0,1-.75l0.17-.16a6.48,6.48,0,0,0,.78-0.91l0.06-.07c0.05-.07.09-0.16,0.14-0.23s0.16-.26.23-0.39l0.07-.13c0.05-.11.1-0.23,0.15-0.34l0.1-.22,0-.07q0.11-.29.19-0.59v-0.05l0-.14c0-.13.06-0.25,0.08-0.38s0-.18,0-0.27,0-.12,0-0.18S876.54,539.71,876.55,539.67Z" transform="translate(-514.59 -226.6)"/><path class="cls-11" d="M866.83,529.59a6.79,6.79,0,0,1,6.71,6.65l0.08,4.51a6.48,6.48,0,0,1-6.47,6.63H865a29.35,29.35,0,0,1-1.23,3.12l1.58,1.57a6.7,6.7,0,0,1,.17,9.41l-3.07,3.17a6.46,6.46,0,0,1-4.64,2,6.66,6.66,0,0,1-4.7-2l-1.58-1.59a22.28,22.28,0,0,1-3,1.3l0,2.24a6.49,6.49,0,0,1-6.47,6.65h-4.45a6.76,6.76,0,0,1-6.71-6.65l0-2.24a24.77,24.77,0,0,1-3.13-1.3l-1.52,1.59a6.37,6.37,0,0,1-4.61,2,6.65,6.65,0,0,1-4.69-2l-3.22-3.17a6.73,6.73,0,0,1-.17-9.41l1.54-1.57a30.47,30.47,0,0,1-1.34-3.12h-2.2a6.74,6.74,0,0,1-6.69-6.63l-0.08-4.51a6.47,6.47,0,0,1,6.45-6.65h2.2a29,29,0,0,1,1.23-3.1l-1.6-1.57a6.73,6.73,0,0,1-.17-9.41l3.1-3.19a6.41,6.41,0,0,1,4.62-2,6.6,6.6,0,0,1,4.68,2l1.58,1.57c1-.48,2-0.92,3.08-1.3l0-2.2a6.47,6.47,0,0,1,6.47-6.65h4.45a6.79,6.79,0,0,1,6.71,6.65l0,2.2c1,0.38,2.1.82,3.09,1.3l1.52-1.57a6.42,6.42,0,0,1,4.62-2,6.7,6.7,0,0,1,4.71,2l3.18,3.19a6.7,6.7,0,0,1,.17,9.41l-1.52,1.57a30.18,30.18,0,0,1,1.34,3.1h2.2ZM839.5,557.31a18.31,18.31,0,0,0,18.29-18.81,19.16,19.16,0,0,0-19-18.83,18.34,18.34,0,0,0-18.29,18.83A19.15,19.15,0,0,0,839.5,557.31Z" transform="translate(-514.59 -226.6)"/><path class="cls-11" d="M879.06,460.7c0-.35-0.09-0.69-0.11-1-0.11-1.53-.28-3.05-0.49-4.56-0.06-.44-0.07-0.88-0.14-1.32,0-.22-0.09-0.44-0.12-0.66-0.07-.44-0.16-0.88-0.24-1.31q-0.34-1.83-.77-3.62c-0.11-.46-0.22-0.93-0.34-1.39-0.08-.29-0.13-0.58-0.21-0.87-0.16-.59-0.38-1.17-0.56-1.76-0.29-.94-0.57-1.88-0.89-2.81s-0.59-1.6-.9-2.39-0.71-1.81-1.1-2.7c-0.12-.28-0.22-0.57-0.34-0.84s-0.35-.65-0.51-1q-1.11-2.37-2.39-4.64c-0.27-.48-0.53-1-0.81-1.44-1.12-1.89-2.32-3.73-3.6-5.51-0.25-.34-0.52-0.66-0.77-1q-1.64-2.18-3.44-4.23c-0.42-.48-0.84-0.95-1.27-1.41-1.33-1.44-2.71-2.83-4.16-4.15-0.16-.14-0.29-0.31-0.45-0.45l-0.14-.11c-0.92-.82-1.88-1.58-2.84-2.36-0.45-.36-0.88-0.75-1.34-1.1q-2.16-1.65-4.45-3.14h0c-1.34-.87-2.72-1.68-4.12-2.45l-1.24-.66c-0.52-.28-1-0.57-1.56-0.83-0.32-.16-0.67-0.28-1-0.43-1.31-.62-2.65-1.2-4-1.74-0.42-.17-0.82-0.38-1.25-0.54l-1.3-.48q-1.52-2.21-3.16-4.32c-0.37-.48-0.78-0.93-1.16-1.41-0.74-.91-1.46-1.82-2.23-2.69-0.46-.53-1-1-1.43-1.54-0.72-.78-1.43-1.58-2.18-2.33-0.54-.54-1.1-1-1.65-1.57-0.71-.67-1.4-1.37-2.12-2l0,0c-1.55-1.39-3.17-2.71-4.81-4-0.48-.38-1-0.73-1.47-1.1q-1.83-1.35-3.71-2.61c-0.31-.21-0.61-0.45-0.93-0.65s-0.63-.38-0.94-0.57c-0.68-.43-1.37-0.85-2.07-1.26s-1.57-.92-2.36-1.36-1.42-.77-2.14-1.14c-0.42-.22-0.83-0.46-1.25-0.67s-0.92-.42-1.37-0.64l-1.6-.74c-1-.46-2-0.89-3.07-1.3-0.47-.19-0.94-0.39-1.42-0.58l-0.47-.19q-2-.74-3.94-1.38l-0.81-.24c-0.92-.29-1.85-0.58-2.78-0.84l-0.61-.14c-2.14-.58-4.31-1.08-6.49-1.49l-0.24-.06c-0.28-.05-0.56-0.07-0.83-0.12q-2.76-.48-5.55-0.77c-0.32,0-.64-0.1-1-0.13s-0.59,0-.88,0c-2-.17-4.11-0.28-6.17-0.3l-0.47,0h-0.26c-1.44,0-2.87,0-4.3.12l-1.4.1c-0.73,0-1.47.09-2.2,0.15l-0.61.07c-0.76.08-1.51,0.18-2.27,0.27s-1.49.19-2.23,0.3-1.5.26-2.24,0.39c-0.54.1-1.08,0.17-1.61,0.28l-0.5.12c-1.56.33-3.11,0.69-4.65,1.11l-0.34.08c-1.65.45-3.27,1-4.88,1.52l-0.42.13c-0.73.25-1.45,0.54-2.17,0.81l-1.29.48c-1.31.52-2.61,1.07-3.89,1.66l-11.63,5.33c1.28-.59,2.58-1.14,3.89-1.66,0.43-.17.86-0.32,1.29-0.49,0.86-.32,1.72-0.64,2.58-0.94,1.61-.55,3.23-1.06,4.88-1.52l0.37-.09c1.53-.41,3.07-0.78,4.62-1.1,0.71-.15,1.42-0.28,2.13-0.41s1.48-.28,2.23-0.39,1.5-.21,2.25-0.3,1.5-.2,2.25-0.27c0.94-.09,1.88-0.17,2.82-0.23l1.39-.1c1.43-.07,2.86-0.12,4.3-0.12l0.74,0c2.06,0,4.12.13,6.16,0.3l1.86,0.18q2.79,0.29,5.54.77l1.09,0.17c2.19,0.41,4.35.91,6.49,1.49,1.14,0.31,2.28.63,3.41,1L775,369c1.48,0.48,3,1,4.41,1.57,0.48,0.18,1,.39,1.43.58,1,0.42,2.05.85,3.07,1.3l1.61,0.75c0.88,0.42,1.75.86,2.62,1.3s1.43,0.75,2.14,1.14,1.58,0.89,2.36,1.36,1.39,0.83,2.08,1.26,1.24,0.81,1.86,1.22q1.89,1.26,3.72,2.62c0.49,0.36,1,.72,1.47,1.09,1.64,1.27,3.26,2.59,4.81,4,0.73,0.65,1.43,1.35,2.14,2,0.56,0.53,1.14,1,1.68,1.6,0.73,0.73,1.42,1.51,2.12,2.27,0.5,0.54,1,1.05,1.5,1.6,0.75,0.85,1.46,1.74,2.18,2.63,0.4,0.49.83,1,1.22,1.47q1.64,2.11,3.16,4.32c0.87,0.31,1.7.68,2.55,1,1.36,0.54,2.7,1.12,4,1.75,0.86,0.41,1.72.82,2.55,1.26l1.25,0.66c1.41,0.78,2.79,1.59,4.13,2.46q2.29,1.48,4.44,3.13c0.46,0.35.89,0.75,1.35,1.11,1,0.77,1.92,1.53,2.83,2.35,0.2,0.18.38,0.38,0.58,0.56,1.45,1.33,2.83,2.72,4.17,4.16,0.43,0.46.85,0.94,1.27,1.41q1.8,2.06,3.45,4.24c0.25,0.33.52,0.65,0.76,1,1.29,1.78,2.48,3.62,3.61,5.51,0.28,0.47.54,1,.81,1.44q1.28,2.27,2.39,4.64c0.29,0.61.58,1.21,0.85,1.83,0.39,0.89.74,1.8,1.1,2.71s0.62,1.59.9,2.39,0.61,1.87.89,2.81,0.54,1.74.77,2.63c0.12,0.46.23,0.92,0.34,1.39q0.43,1.8.77,3.62c0.08,0.44.17,0.87,0.24,1.31,0.11,0.65.17,1.32,0.26,2,0.21,1.51.38,3,.49,4.57,0.1,1.33.2,2.66,0.22,4s0,2.86-.09,4.28-0.17,2.64-.3,3.94c-0.06.59-.09,1.19-0.17,1.78-0.23,1.87-.53,3.73-0.91,5.55,0,0.1-.05.2-0.07,0.3-0.37,1.76-.82,3.49-1.33,5.2-0.16.53-.34,1.06-0.51,1.58q-0.67,2.09-1.46,4.12c-0.31.78-.61,1.57-0.95,2.33-0.18.41-.35,0.82-0.54,1.22-0.57,1.25-1.17,2.48-1.82,3.68l-0.16.31q-1.13,2.09-2.4,4.09c-0.24.38-.51,0.74-0.75,1.11-0.62.94-1.25,1.88-1.91,2.79-0.32.43-.66,0.85-1,1.27-0.62.8-1.24,1.6-1.89,2.37-0.39.47-.81,0.92-1.21,1.38-0.62.7-1.25,1.39-1.9,2.06-0.45.46-.9,0.91-1.36,1.36q-1,1-2,1.87-0.72.65-1.46,1.28c-0.7.59-1.41,1.17-2.13,1.73-0.5.39-1,.78-1.51,1.16-0.76.56-1.54,1.1-2.32,1.63-0.5.34-1,.69-1.5,1-0.88.56-1.77,1.08-2.68,1.6-0.44.25-.87,0.52-1.32,0.77-1.36.74-2.75,1.45-4.16,2.1l11.63-5.33c1.42-.65,2.8-1.35,4.16-2.1,0.45-.25.88-0.52,1.32-0.77,0.9-.52,1.8-1,2.67-1.6,0.51-.32,1-0.67,1.5-1,0.78-.53,1.56-1.07,2.32-1.63,0.51-.38,1-0.77,1.51-1.16,0.72-.56,1.43-1.14,2.12-1.73q0.74-.63,1.46-1.28,1-.92,2-1.87c0.46-.45.91-0.89,1.36-1.35,0.65-.67,1.28-1.37,1.91-2.07,0.4-.45.82-0.9,1.21-1.37,0.65-.78,1.28-1.58,1.9-2.38,0.33-.42.66-0.83,1-1.26l0.21-.27c0.59-.82,1.14-1.67,1.7-2.52,0.25-.38.52-0.74,0.76-1.12q1.25-2,2.37-4l0-.06,0.16-.31c0.64-1.2,1.24-2.43,1.82-3.68,0.19-.4.36-0.81,0.54-1.22s0.42-.92.62-1.39c0.13-.31.21-0.63,0.33-0.94,0.53-1.35,1-2.72,1.46-4.11,0.12-.37.28-0.73,0.39-1.1,0-.16.08-0.33,0.12-0.49,0.5-1.71,1-3.44,1.32-5.19,0-.09.05-0.18,0.07-0.27v0c0.38-1.82.67-3.68,0.91-5.55,0-.13,0-0.25.06-0.38,0.05-.46.06-0.93,0.11-1.4,0.13-1.31.24-2.62,0.3-3.94,0-.27.05-0.53,0.06-0.79q0.06-1.73,0-3.49Q879.15,462.17,879.06,460.7Z" transform="translate(-514.59 -226.6)"/><path class="cls-11" d="M653.23,392.08c1.37-.47,2.75-0.91,4.16-1.29l0.42-.1q1.9-.51,3.85-0.92c0.6-.13,1.2-0.24,1.81-0.35s1.3-.24,2-0.35,1.28-.18,1.92-0.26,1.32-.17,2-0.24l1.17-.1c2.06-.18,4.13-0.29,6.24-0.29,0.56,0,1.1.06,1.65,0.07,1.81,0,3.61.1,5.39,0.26,2,0.18,4,.41,6,0.74l11.63-5.33q-2.75-.46-5.55-0.72l-0.42,0c-1.77-.16-3.57-0.22-5.37-0.26-0.47,0-.93-0.07-1.41-0.07h-0.26c-2.1,0-4.18.12-6.24,0.29l-0.62,0-0.55.07c-0.67.07-1.32,0.16-2,.24s-1.28.16-1.92,0.26-1.31.23-2,.35c-0.46.08-.92,0.15-1.37,0.24l-0.44.11q-1.94.41-3.83,0.92l-0.44.11c-1.4.39-2.79,0.83-4.15,1.29l-0.33.1L664,387c-2,.71-3.94,1.48-5.84,2.35l-11.63,5.33c1.9-.87,3.85-1.64,5.84-2.35Z" transform="translate(-514.59 -226.6)"/><path class="cls-11" d="M826.13,503.9l-2.17,1-6.61,3-0.52.31-0.21.1c-1.24.52-2.38,1-3.62,1.45a0.38,0.38,0,0,0-.31.1c-0.21,0-.41.1-0.62,0.1a17.37,17.37,0,0,1-3.31.93,6.57,6.57,0,0,0-.72.21,0.78,0.78,0,0,0-.41.1,11.72,11.72,0,0,0-1.86.31l-2.17.31h-0.31c-1.34.1-2.69,0.21-3.93,0.21H678.69c-0.93,0-1.76-.1-2.58-0.1a9.44,9.44,0,0,0-1.65-.1h-0.1a30.87,30.87,0,0,1-4.13-.62,3,3,0,0,1-.93-0.21c-1-.21-2.07-0.41-3.1-0.72a23,23,0,0,1-4-1.34h-0.1a1.09,1.09,0,0,1-.52-0.21c-1.14-.41-2.38-1-3.51-1.55-0.1,0-.21-0.1-0.31-0.1s-0.52-.31-0.72-0.41c-1.14-.62-2.27-1.24-3.41-2a6,6,0,0,1-.72-0.41c-0.31-.21-0.52-0.41-0.83-0.62a13.39,13.39,0,0,1-1.55-1c-0.62-.41-1.14-0.93-1.76-1.34-0.41-.41-0.93-0.72-1.34-1.14-0.21-.21-0.41-0.31-0.62-0.52l-0.72-.72c-0.72-.72-1.55-1.45-2.27-2.27l-1-1.14c-0.83-.93-1.55-1.86-2.27-2.79-0.21-.31-0.52-0.62-0.72-0.93-0.93-1.24-1.76-2.58-2.58-3.93-0.21-.31-0.31-0.62-0.52-0.93-0.62-1.14-1.14-2.17-1.65-3.31-0.1-.21-0.21-0.31-0.31-0.52-0.21-.52-0.41-1-0.62-1.45l-0.62-1.55c-0.31-.83-0.52-1.65-0.83-2.38-0.1-.52-0.31-1-0.41-1.55a280.77,280.77,0,0,1-.21-0.62c-0.1-.21-0.1-0.41-0.21-0.62a19.06,19.06,0,0,1-.52-2.58c-0.1-.41-0.21-0.93-0.31-1.34,0-.21-0.1-0.41-0.1-0.62l-0.31-2.48c-0.1-.62-0.1-1.34-0.21-2h0.1a0.21,0.21,0,0,1-.1-0.21v-0.21c0-.72-0.1-1.34-0.1-2.07V461a0.77,0.77,0,0,0,.1-0.52,25.43,25.43,0,0,1,.21-2.69,2.85,2.85,0,0,1,.1-0.93v-0.31c0.21-1.24.31-2.48,0.62-3.72v-0.21c0.31-1.24.62-2.48,1-3.72v-0.31c0.1-.31.21-0.52,0.31-0.83,0.31-.93.62-1.86,1-2.89,0.1-.21.1-0.41,0.21-0.62a0.79,0.79,0,0,0,.21-0.52c0.62-1.24,1.14-2.58,1.86-3.82a0.32,0.32,0,0,1,.1-0.21c0.62-1,1.14-2.07,1.76-3.1h0.1a1.67,1.67,0,0,1,.41-0.72,0.1,0.1,0,0,0,.1-0.1,0.1,0.1,0,0,1,.1-0.1c0-.1,0-0.1.1-0.1V435.4a7.87,7.87,0,0,0,.83-1.14,11,11,0,0,1,1-1.24l0.62-.93c0.83-.93,1.65-1.76,2.48-2.69a47.81,47.81,0,0,1,14.26-10.12l11.57-5.37c-1.34.62-2.58,1.34-3.93,2.07A48.81,48.81,0,0,0,655.14,424s-7.34,9.61-10.13,16.22c-0.31.72-.52,1.45-0.83,2.27-0.1.31-.21,0.72-0.31,1-0.31,1.24-.72,2.48-0.93,3.82a0.1,0.1,0,0,1-.1.1c-0.21,1.24-.41,2.48-0.52,3.72a5.45,5.45,0,0,0-.1,1.34c-0.1.83-.21,1.76-0.31,2.69v3a14.54,14.54,0,0,0,.1,2.07v0.1c0,0.52.1,0.93,0.1,1.45a15.75,15.75,0,0,0,.31,2.17v0.62a3,3,0,0,0,.21.93,28,28,0,0,0,.93,4.24,3.05,3.05,0,0,0,.21,1c0.21,0.52.31,1.14,0.52,1.55,0.21,0.83.52,1.65,0.72,2.38a10.48,10.48,0,0,0,.72,1.55,11.19,11.19,0,0,0,.83,2c0.52,1.14,1.14,2.27,1.65,3.31a4.18,4.18,0,0,1,.52.93,26.29,26.29,0,0,0,2.69,3.93,7.31,7.31,0,0,0,.62.93c0.83,0.93,1.55,1.86,2.27,2.79,0.41,0.41.72,0.83,1.14,1.24,0.72,0.72,1.45,1.45,2.27,2.17l1.24,1.24a18.19,18.19,0,0,1,1.45,1.24,19.94,19.94,0,0,1,1.76,1.34,12.57,12.57,0,0,1,1.45,1l1.55,0.93c1.14,0.72,2.27,1.34,3.41,2a9.53,9.53,0,0,0,1,.52c1.24,0.62,2.38,1.14,3.62,1.65a1.1,1.1,0,0,1,.52.21c1.34,0.52,2.69.93,4,1.34l3.1,0.62c0.31,0.1.72,0.21,1,.31,1.34,0.21,2.69.41,4.13,0.52a9.44,9.44,0,0,0,1.65.1,25.16,25.16,0,0,0,2.79.1H810.94a29.07,29.07,0,0,0,4.24-.21l2.17-.31a19.07,19.07,0,0,0,2.38-.41c0.21,0,.41-0.1.62-0.1s0.52-.1.83-0.21c0.83-.21,1.76-0.52,2.58-0.72a1.46,1.46,0,0,1,.62-0.21C824.89,504.31,825.51,504.11,826.13,503.9Z" transform="translate(-514.59 -226.6)"/><path class="cls-8" d="M828.09,503.07l-2,.83c0.52-.31,1-0.52,1.65-0.83h0.31Z" transform="translate(-514.59 -226.6)"/><path class="cls-10" d="M820.56,403.07c27.48,9.76,46.49,36.14,47,65.93,0.64,38.59-29.77,70-67.79,70H679.25c-40.91,0-74.82-33.84-75.52-75.47s32.09-75.33,73-75.33a78.54,78.54,0,0,1,13,1.07,83.59,83.59,0,0,1,59.18-24.41C777.3,364.84,804.33,379.37,820.56,403.07Zm20,72.89a43.84,43.84,0,0,0,.44-7c-0.33-19.47-13.5-36.61-32-41.63L803.78,426,801,421.28c-11-18.21-30.73-29.54-51.59-29.54a57.75,57.75,0,0,0-36.29,12.78,42.36,42.36,0,0,0-4.77,4.22c-1.26,1.33-2.49,2.68-3.66,4.09l-5.45,6.75-2.47-.77-5.89-1.76a47,47,0,0,0-47.3,12.37,43.62,43.62,0,0,0-5.17,6.43,48,48,0,0,0-8.09,27.66C630.72,490.25,652.46,512,678.8,512H799.3a41.69,41.69,0,0,0,40.55-32.31A30.77,30.77,0,0,0,840.57,476Z" transform="translate(-514.59 -226.6)"/><path class="cls-12" d="M879.06,460.7c0-.35-0.09-0.69-0.11-1-0.11-1.53-.28-3.05-0.49-4.56-0.06-.44-0.07-0.88-0.14-1.32,0-.22-0.09-0.44-0.12-0.66-0.07-.44-0.16-0.88-0.24-1.31q-0.34-1.83-.77-3.62c-0.11-.46-0.22-0.93-0.34-1.39-0.08-.29-0.13-0.58-0.21-0.87-0.16-.59-0.38-1.17-0.56-1.75-0.29-.94-0.57-1.88-0.89-2.81s-0.59-1.6-.9-2.39-0.71-1.81-1.1-2.7c-0.12-.28-0.22-0.57-0.34-0.84s-0.35-.65-0.51-1q-1.11-2.37-2.39-4.64c-0.27-.48-0.52-1-0.81-1.44-1.12-1.89-2.32-3.73-3.6-5.51-0.25-.34-0.52-0.66-0.77-1q-1.64-2.18-3.44-4.23c-0.42-.48-0.84-0.95-1.27-1.41-1.33-1.44-2.72-2.83-4.16-4.15-0.16-.14-0.29-0.31-0.45-0.45l-0.14-.11c-0.92-.82-1.88-1.58-2.84-2.36-0.45-.36-0.88-0.75-1.34-1.1q-2.16-1.65-4.45-3.14h0c-1.34-.87-2.72-1.67-4.12-2.45l-1.24-.66c-0.52-.28-1-0.57-1.56-0.83-0.32-.16-0.67-0.28-1-0.43-1.31-.62-2.65-1.2-4-1.74-0.42-.17-0.82-0.38-1.25-0.54l-1.3-.48q-1.52-2.21-3.16-4.32c-0.37-.48-0.78-0.93-1.16-1.41-0.74-.91-1.46-1.82-2.23-2.69-0.46-.53-1-1-1.43-1.54-0.72-.78-1.43-1.58-2.18-2.33-0.54-.54-1.1-1-1.65-1.57-0.71-.68-1.4-1.37-2.12-2l0,0c-1.55-1.39-3.17-2.71-4.81-4-0.48-.38-1-0.73-1.47-1.1q-1.83-1.35-3.71-2.61c-0.31-.21-0.61-0.45-0.93-0.65s-0.63-.38-0.94-0.57c-0.68-.43-1.37-0.85-2.07-1.26s-1.57-.92-2.36-1.36-1.42-.77-2.14-1.14c-0.42-.22-0.83-0.46-1.25-0.67s-0.92-.42-1.37-0.64l-1.6-.74c-1-.46-2-0.89-3.07-1.31-0.47-.19-0.94-0.39-1.42-0.58l-0.47-.19c-1.3-.49-2.61-0.95-3.94-1.38l-0.81-.24c-0.92-.29-1.85-0.58-2.78-0.84l-0.61-.14c-2.14-.58-4.31-1.08-6.49-1.49l-0.24-.06c-0.28-.05-0.56-0.07-0.83-0.12q-2.76-.48-5.55-0.77c-0.32,0-.64-0.1-1-0.13s-0.59,0-.88,0c-2-.17-4.11-0.28-6.18-0.3l-0.47,0h-0.26c-1.44,0-2.87,0-4.3.12l-1.4.1c-0.73,0-1.47.09-2.2,0.15l-0.61.07c-0.76.08-1.51,0.18-2.27,0.27s-1.49.19-2.23,0.3-1.5.26-2.24,0.39c-0.54.1-1.08,0.17-1.61,0.28l-0.5.12c-1.56.33-3.11,0.7-4.65,1.11l-0.34.08c-1.65.45-3.27,1-4.88,1.52l-0.42.13c-0.73.25-1.45,0.54-2.17,0.81-0.43.16-.86,0.31-1.29,0.48-1.31.52-2.61,1.07-3.89,1.66l-11.63,5.33c0.76-.35,1.54-0.66,2.31-1a83.39,83.39,0,0,0-19.76,11.81l-0.64-.08-0.42,0c-1.77-.16-3.57-0.22-5.37-0.26-0.47,0-.93-0.07-1.41-0.07h-0.26c-2.1,0-4.18.11-6.24,0.29l-0.62,0-0.55.07c-0.67.07-1.32,0.16-2,.24s-1.28.16-1.92,0.26-1.31.23-2,.35c-0.46.08-.92,0.15-1.37,0.24l-0.44.11q-1.94.41-3.83,0.92l-0.44.11c-1.4.39-2.79,0.83-4.15,1.29l-0.33.1L664,387c-2,.71-3.94,1.48-5.84,2.35l-11.63,5.33c0.24-.11.49-0.19,0.72-0.29a74,74,0,0,0-43.57,69.07c0.69,41.63,34.61,75.47,75.52,75.47h120.5a66.88,66.88,0,0,0,38-11.77l-0.29.21c-0.5.34-1,.68-1.5,1-0.87.56-1.77,1.08-2.68,1.6-0.44.25-.87,0.52-1.32,0.77-1.36.74-2.75,1.45-4.16,2.1l11.63-5.33c1.42-.65,2.8-1.35,4.16-2.1,0.45-.24.88-0.52,1.32-0.77,0.9-.52,1.8-1,2.67-1.6,0.51-.32,1-0.67,1.5-1,0.78-.53,1.56-1.07,2.32-1.63,0.51-.38,1-0.77,1.51-1.16,0.72-.56,1.43-1.14,2.12-1.73q0.74-.63,1.46-1.28,1-.92,2-1.87c0.46-.45.91-0.89,1.36-1.35,0.65-.67,1.28-1.37,1.91-2.07,0.4-.46.82-0.9,1.21-1.37,0.65-.78,1.28-1.58,1.9-2.38,0.33-.42.66-0.83,1-1.26l0.21-.27c0.59-.82,1.14-1.67,1.7-2.52,0.25-.38.52-0.74,0.76-1.12q1.25-2,2.37-4l0-.06,0.16-.31c0.64-1.2,1.24-2.43,1.82-3.68,0.19-.41.36-0.81,0.54-1.22s0.42-.92.62-1.39c0.13-.31.21-0.63,0.33-0.94,0.53-1.35,1-2.72,1.46-4.11,0.12-.37.28-0.73,0.39-1.1,0-.16.08-0.33,0.12-0.49,0.5-1.71,1-3.44,1.33-5.2,0-.09.05-0.18,0.07-0.27v0c0.38-1.82.67-3.68,0.91-5.55,0-.13,0-0.25.06-0.38,0.05-.46.06-0.93,0.11-1.4,0.13-1.31.24-2.62,0.3-3.94,0-.27.05-0.53,0.06-0.79q0.06-1.73,0-3.49Q879.15,462.17,879.06,460.7Zm-13.85-8.57c0.12,0.46.23,0.92,0.34,1.39q0.43,1.8.77,3.62l0.1,0.52a71.37,71.37,0,0,0-2.38-9.42c0.13,0.42.27,0.84,0.4,1.26C864.71,450.38,865,451.25,865.21,452.13Zm-3.66-10.54c0.39,0.89.74,1.8,1.1,2.71s0.62,1.59.9,2.39c0,0.11.07,0.23,0.11,0.34a71.75,71.75,0,0,0-3.48-8.28c0.17,0.34.36,0.67,0.52,1C861,440.37,861.28,441,861.55,441.59Zm-4.05-7.92c0.28,0.47.54,1,.81,1.44s0.45,0.89.69,1.33a71.87,71.87,0,0,0-4.27-7C855.68,430.82,856.64,432.22,857.5,433.68Zm-7.82-10.74q1.81,2.05,3.45,4.24c0.25,0.33.52,0.65,0.76,1l0.08,0.12a71.69,71.69,0,0,0-6-7.2c0.14,0.15.3,0.29,0.45,0.44C848.85,422,849.27,422.46,849.68,422.94Zm-8.85-8.48c1,0.77,1.91,1.53,2.83,2.35,0.2,0.18.38,0.38,0.58,0.56,0.7,0.64,1.33,1.33,2,2a70.76,70.76,0,0,0-6.78-6h0C840,413.71,840.38,414.1,840.84,414.46ZM835,410.22c1.45,0.94,2.86,1.94,4.23,3a69.84,69.84,0,0,0-8.57-5.56l0.21,0.11C832.32,408.54,833.7,409.35,835,410.22Zm-18.86-12.94c0.4,0.49.83,1,1.22,1.47q1.64,2.11,3.16,4.32c0.87,0.31,1.7.68,2.55,1,1.36,0.54,2.7,1.12,4,1.75,0.86,0.41,1.72.82,2.55,1.26l0.44,0.23a69,69,0,0,0-9.54-4.26,88,88,0,0,0-6.56-8.43h0C814.76,395.5,815.46,396.39,816.18,397.27Zm-7.48-8.1c0.56,0.53,1.14,1,1.68,1.6,0.73,0.73,1.42,1.51,2.12,2.27,0.47,0.51,1,1,1.42,1.52a88.51,88.51,0,0,0-7.38-7.43h0C807.3,387.81,808,388.5,808.7,389.18Zm-8.42-7.1c0.49,0.36,1,.72,1.47,1.09q2.33,1.8,4.55,3.76a88.63,88.63,0,0,0-7.13-5.64C799.54,381.56,799.92,381.81,800.29,382.08Zm-7.65-5.1c0.7,0.41,1.39.83,2.08,1.26s1.24,0.81,1.86,1.22l0.78,0.55a88.4,88.4,0,0,0-7.54-4.63l0.47,0.25C791.06,376.06,791.85,376.52,792.63,377Zm-8.73-4.55,1.61,0.75c0.88,0.42,1.75.86,2.62,1.3l0.6,0.32a87.71,87.71,0,0,0-8.59-4l0.7,0.28C781.86,371.55,782.89,372,783.9,372.43Zm-9.69-3.69L775,369c1.48,0.48,3,1,4.41,1.57l0.15,0.06a86.5,86.5,0,0,0-9.11-2.93l0.36,0.08C771.94,368.07,773.08,368.39,774.21,368.75Zm-11-2.65c0.36,0.06.73,0.11,1.09,0.17,1.34,0.25,2.66.6,4,.91q-3.64-.86-7.35-1.4C761.7,365.89,762.47,366,763.22,366.1Zm-20-1.05,1.39-.1c1.43-.07,2.86-0.12,4.3-0.12l0.74,0c2.06,0,4.12.13,6.16,0.3l1.86,0.18,0.78,0.11a83.51,83.51,0,0,0-9.54-.61c-2.61,0-5.2.15-7.77,0.38Zm-9.55,1.2c0.74-.14,1.48-0.28,2.23-0.39s1.5-.21,2.25-0.3l2.05-.25c-2.4.25-4.77,0.61-7.11,1.06Zm-7.12,1.6,0.37-.09c1.53-.41,3.07-0.78,4.62-1.1l0.41-.08c-2.26.46-4.5,1-6.71,1.68C725.71,368.12,726.13,368,726.58,367.85Zm-8.75,2.94c0.43-.17.86-0.32,1.29-0.48,0.86-.33,1.72-0.64,2.58-0.94,0.6-.2,1.2-0.37,1.8-0.56-2.13.67-4.23,1.41-6.3,2.25Zm-41.09,17.39c0.56,0,1.1.06,1.65,0.07,1.81,0,3.61.1,5.39,0.26,2,0.18,4,.41,6,0.74a78.52,78.52,0,0,0-13-1.07c-2.45,0-4.86.14-7.24,0.37l1-.08C672.56,388.29,674.63,388.17,676.74,388.17Zm-11.31.89c0.64-.1,1.28-0.18,1.92-0.26l1.35-.16q-3.24.36-6.39,1l1.16-.22C664.11,389.29,664.76,389.17,665.42,389.06Zm-7.62,1.62c1.19-.32,2.4-0.6,3.61-0.87-2,.43-3.93,1-5.86,1.54,0.61-.19,1.21-0.4,1.83-0.57Zm0.79,28.24,0,0Zm-6.17-26.55,0.81-.3,0.89-.28c-1.35.44-2.65,1-4,1.48C650.92,393,651.65,392.65,652.42,392.38ZM647.57,426a49.37,49.37,0,0,0-4,3.44l-0.13.14,0.1-.12A47.13,47.13,0,0,1,647.57,426Zm6.67-4.61c-1.34.77-2.75,1.43-4,2.32C651.51,422.78,652.91,422.12,654.25,421.36Zm-22.72,52.28c-0.07-.3-0.12-0.61-0.18-0.91C631.39,473,631.46,473.34,631.52,473.64Zm-0.82-17.37c0-.34.12-0.66,0.17-1C630.82,455.61,630.75,455.94,630.7,456.27Zm1.32-6.33c0.11-.41.16-0.84,0.28-1.24v0.23C632.19,449.27,632.12,449.61,632,449.95Zm2.4,32.58-0.14-.33Zm0.26-40c0.16-.36.34-0.7,0.51-1.06C635,441.8,634.84,442.14,634.68,442.5Zm3.82-6.79a0.1,0.1,0,0,0-.1.1s0,0,0,0,0.17-.19.24-0.3v0.06C638.5,435.61,638.5,435.61,638.5,435.71Zm0.78,55.4c-0.29-.42-0.56-0.85-0.84-1.27C638.72,490.27,639,490.7,639.28,491.11Zm5.12,6.18c0.32,0.32.62,0.64,0.94,0.94Zm7.07,6c0.19,0.12.38,0.26,0.57,0.38s0.26,0.19.38,0.28C652.1,503.76,651.79,503.54,651.47,503.32Zm8,4.51c0.45,0.21.89,0.4,1.33,0.59C660.33,508.23,659.89,508,659.45,507.83Zm9,3,0.86,0.2c0.12,0,.24,0,0.37.08C669.25,511,668.85,510.92,668.44,510.83Zm138,0.6,0.12,0Zm15.32-6.15-0.63.18c-0.31.1-.52,0.1-0.83,0.21s-0.41.1-.62,0.1a19.05,19.05,0,0,1-2.38.41l-2.17.31a29.1,29.1,0,0,1-4.24.21H690.47a25.19,25.19,0,0,1-2.79-.1,9.44,9.44,0,0,1-1.65-.1c-1.45-.1-2.79-0.31-4.13-0.52-0.31-.1-0.72-0.21-1-0.31l-3.1-.62c-1.34-.41-2.69-0.83-4-1.34a1.1,1.1,0,0,0-.52-0.21c-1.24-.52-2.38-1-3.62-1.65a9.62,9.62,0,0,1-1-.52c-1.14-.62-2.27-1.24-3.41-2l-1.55-.93a12.62,12.62,0,0,0-1.45-1,20,20,0,0,0-1.76-1.34,18.12,18.12,0,0,0-1.45-1.24l-1.24-1.24c-0.83-.72-1.55-1.45-2.27-2.17-0.41-.41-0.72-0.83-1.14-1.24-0.72-.93-1.45-1.86-2.27-2.79a7.16,7.16,0,0,1-.62-0.93,26.29,26.29,0,0,1-2.69-3.93,4.19,4.19,0,0,0-.52-0.93c-0.52-1-1.14-2.17-1.65-3.31a11.18,11.18,0,0,1-.83-2,10.47,10.47,0,0,1-.72-1.55c-0.21-.72-0.52-1.55-0.72-2.38-0.21-.41-0.31-1-0.52-1.55a3.05,3.05,0,0,1-.21-1,27.92,27.92,0,0,1-.93-4.24,3,3,0,0,1-.21-0.93V464a15.8,15.8,0,0,1-.31-2.17c0-.52-0.1-0.93-0.1-1.45v-0.1a14.57,14.57,0,0,1-.1-2.07v-3c0.1-.93.21-1.86,0.31-2.69a5.45,5.45,0,0,1,.1-1.34c0.1-1.24.31-2.48,0.52-3.72a0.1,0.1,0,0,0,.1-0.1c0.21-1.34.62-2.58,0.93-3.82,0.1-.31.21-0.72,0.31-1,0.31-.83.52-1.55,0.83-2.27,2.79-6.61,10.13-16.22,10.13-16.22a51.38,51.38,0,0,1,8.22-6.63,45,45,0,0,1,27.48-.35l5.89,1.75,2.47,0.77,5.45-6.75c1.17-1.41,2.4-2.76,3.66-4.09a42.46,42.46,0,0,1,4.77-4.22,57.75,57.75,0,0,1,36.3-12.78c20.86,0,40.59,11.33,51.59,29.54l2.81,4.74,5.24,1.34c18.49,5,31.66,22.16,32,41.63a43.85,43.85,0,0,1-.44,7,30.78,30.78,0,0,1-.72,3.78A42,42,0,0,1,821.79,505.27Zm25,14.46q-1,1-2,1.87-0.72.65-1.46,1.28c-0.7.59-1.41,1.17-2.13,1.73-0.5.39-1,.78-1.51,1.16s-0.88.62-1.32,0.92a68,68,0,0,0,9.48-8.06Zm7.35-8.44c-0.32.43-.66,0.85-1,1.27-0.62.8-1.24,1.6-1.89,2.37-0.39.47-.81,0.92-1.21,1.38-0.58.65-1.16,1.29-1.76,1.91a68.66,68.66,0,0,0,7.88-9.89l-0.11.17C855.47,509.45,854.84,510.39,854.18,511.3Zm7-12c-0.57,1.25-1.17,2.48-1.82,3.68l-0.16.31q-1.13,2.09-2.4,4.09c-0.11.17-.23,0.34-0.34,0.51a68.82,68.82,0,0,0,5.85-11.27c-0.19.49-.38,1-0.59,1.45S861.4,498.9,861.22,499.31ZM866,484.85c-0.37,1.76-.82,3.49-1.33,5.2-0.16.53-.34,1.06-0.51,1.58q-0.67,2.09-1.46,4.12l0,0a69.17,69.17,0,0,0,3.57-12.32c-0.07.35-.1,0.72-0.18,1.07C866.06,484.65,866,484.75,866,484.85Zm1.45-11.58c-0.06,1.33-.17,2.64-0.3,3.94-0.06.59-.09,1.19-0.17,1.78-0.15,1.17-.37,2.31-0.57,3.46A70.59,70.59,0,0,0,867.54,469a71.38,71.38,0,0,0-1-10.73l0,0.19c0.11,0.65.17,1.32,0.26,2,0.21,1.51.38,3,.49,4.57,0.1,1.33.2,2.66,0.22,4S867.52,471.85,867.46,473.27Z" transform="translate(-514.59 -226.6)"/><path class="cls-13" d="M723.17,506.75l-0.4,2.12a2.51,2.51,0,0,0,2.65,2.91,10.27,10.27,0,0,0-2.12.26,5.85,5.85,0,0,0-2.12.79l-3.71,2-1.32-.13L714.7,512l-2.38-4.1a4.85,4.85,0,0,0,.4-0.93l-0.13-.26h-22.1a19.65,19.65,0,0,1-2.78-.13,8.13,8.13,0,0,1-1.72-.13,38.47,38.47,0,0,1-4.1-.53,2.5,2.5,0,0,0-1.06-.26c-0.93-.26-2-0.4-3-0.66-1.32-.4-2.65-0.79-4.1-1.32a0.7,0.7,0,0,0-.4-0.26c-1.32-.53-2.38-1.06-3.71-1.59a3.89,3.89,0,0,0-1.06-.53c-1.06-.66-2.25-1.19-3.31-2-0.53-.26-1.06-0.66-1.59-0.93s-0.93-.66-1.46-1.06-1.19-.93-1.72-1.32a14,14,0,0,0-1.46-1.19,12.46,12.46,0,0,0-1.32-1.32l-1.19.79c-1.85,1.72-3.57,5.29-4.76,9.26a50.76,50.76,0,0,0-2,17.86c0.4,1.19,1.59,1.72,3.31,1.85L652.64,534a71,71,0,0,0,26.6,5h22.63c0.13-3.31.4-6.62,0.66-9.92h48.3a10.11,10.11,0,0,0,4.37-1.06l25.93-13.76a1.26,1.26,0,0,0,.13-2.25,1,1,0,0,0-.66-0.26H781a3.69,3.69,0,0,0,3.57-2.91l0.4-2.12h-61.8Zm-19.72,12.31a5.74,5.74,0,0,1,.13-0.66,3.12,3.12,0,0,1,.66.66h-0.79Z" transform="translate(-514.59 -226.6)"/><path class="cls-11" d="M770.77,504.43H715.94a9.57,9.57,0,0,0-4.46,1.1L685.55,519.2a1.39,1.39,0,0,0,.65,2.63H741a9.57,9.57,0,0,0,4.46-1.1l25.93-13.67A1.39,1.39,0,0,0,770.77,504.43Z" transform="translate(-514.59 -226.6)"/><path class="cls-14" d="M736.58,513.41H724.08a2.18,2.18,0,0,0-1,.25l-5.91,3.11a0.32,0.32,0,0,0,.15.6H729.8a2.18,2.18,0,0,0,1-.25l5.91-3.11A0.32,0.32,0,0,0,736.58,513.41Z" transform="translate(-514.59 -226.6)"/><path class="cls-11" d="M778.15,460.2H722.69a3.71,3.71,0,0,0-3.64,2.92l-6,38.46a2.55,2.55,0,0,0,2.72,2.92h55.46a3.71,3.71,0,0,0,3.64-2.92l6-38.46A2.55,2.55,0,0,0,778.15,460.2Z" transform="translate(-514.59 -226.6)"/><path class="cls-14" d="M776.2,462.79H723.83a3.3,3.3,0,0,0-3.24,2.6l-5,32.19a2.27,2.27,0,0,0,2.42,2.6h52.37a3.3,3.3,0,0,0,3.24-2.6l5-32.19A2.27,2.27,0,0,0,776.2,462.79Z" transform="translate(-514.59 -226.6)"/><path class="cls-15" d="M669.65,611.11c-2.82,17.06-9.63,38.74-17.44,64.09l-1.07,4.48-4.27,2.41-5.94-1.65-0.48-3,2.13-4c2.88-16.07,6.19-34.59,4.44-57.52-1.68-18-4.37-37.75-5.19-55.3l29.41,1.91C672.07,582.08,672.87,591.69,669.65,611.11Z" transform="translate(-514.59 -226.6)"/><path class="cls-16" d="M669.65,611.11c-2.82,17.06-9.63,38.74-17.44,64.09l-1.07,4.48-4.27,2.41-5.94-1.65-0.48-3,2.13-4c2.88-16.07,6.19-34.59,4.44-57.52-1.68-18-4.37-37.75-5.19-55.3l29.41,1.91C672.07,582.08,672.87,591.69,669.65,611.11Z" transform="translate(-514.59 -226.6)"/><path class="cls-17" d="M645.76,680.78a7.47,7.47,0,0,0,5.09-1.32,2.24,2.24,0,0,0,.56-1.12c6.25,4.6,20.49,6.6,13.2,9.45a33.78,33.78,0,0,1-8.9,1.2,10,10,0,0,0-6.73-3.3l-4.31.36-3.1,8-0.86-.13,0.34-8.21c-1.61-.12-3.13-1.26-3.15-2.62a8,8,0,0,1,2.54-5.61A11.34,11.34,0,0,0,645.76,680.78Z" transform="translate(-514.59 -226.6)"/><path class="cls-15" d="M696.88,608.95c-0.31,17.29-3.88,39.73-7.91,65.95l-0.41,4.59-3.88,3-6.12-.77-0.92-2.91,1.53-4.23c0.51-16.32,1.08-35.12-4-57.55-4.28-17.55-9.83-36.71-13.2-53.95l29.38-2.4C695,579.87,697.24,589.26,696.88,608.95Z" transform="translate(-514.59 -226.6)"/><path class="cls-18" d="M696.88,608.95c-0.31,17.29-3.88,39.73-7.91,65.95l-0.41,4.59-3.88,3-6.12-.77-0.92-2.91,1.53-4.23c0.51-16.32,1.08-35.12-4-57.55-4.28-17.55-9.83-36.71-13.2-53.95l29.38-2.4C695,579.87,697.24,589.26,696.88,608.95Z" transform="translate(-514.59 -226.6)"/><path class="cls-19" d="M704.16,516.09l-4.79-.66-3,1.53c-15,1.33-31.37,2.75-39.63.61-6.68-4.13-11.17-9.95-14.64-16.58l8.26-13.26,11.32,19.64,32.85,4.49a12,12,0,0,1,7.24-1.84,11.7,11.7,0,0,1,3.88,2.86C708,515.42,706.15,515.88,704.16,516.09Z" transform="translate(-514.59 -226.6)"/><path class="cls-20" d="M704.16,516.09l-4.79-.66-3,1.53c-15,1.33-31.37,2.75-39.63.61-6.68-4.13-11.17-9.95-14.64-16.58l8.26-13.26,11.32,19.64,32.85,4.49a12,12,0,0,1,7.24-1.84,11.7,11.7,0,0,1,3.88,2.86C708,515.42,706.15,515.88,704.16,516.09Z" transform="translate(-514.59 -226.6)"/><path class="cls-21" d="M644.35,611.66c-0.55,11,52.61,2.43,53.73-1.71S695.75,567.7,692,563.9s-49.48-.83-51,2.28C635.79,577.1,645.2,594.66,644.35,611.66Z" transform="translate(-514.59 -226.6)"/><path class="cls-22" d="M693.76,562.84c-2,1.8-14,4.74-23.21,5.67-1,.11-2,0.22-3.05.27-3.16.27-6.32,0.38-9.32,0.44-6.43,0-12.21-.54-15.69-1.85a7.94,7.94,0,0,1-2.45-1.25c2.56-8.72,2.34-30.13,3.32-50.08,0.54-10.9,1.42-21.36,3.32-29a52.13,52.13,0,0,1,13.79-6.32c4.8-1.36,10.08-.33,15.69-1.25a8.75,8.75,0,0,1,3.43.27,62.45,62.45,0,0,1,7.85,2.56c3.32,1.36,6,2.62,6,2.62C699.42,489.61,686.84,539.41,693.76,562.84Z" transform="translate(-514.59 -226.6)"/><path class="cls-19" d="M665.22,478c1.26,3.49,11.51,4.4,16.58,2.46-5.05-2.08-3.41-6.18-2.72-9l-12.58.25C667.44,473.61,665.69,474.27,665.22,478Z" transform="translate(-514.59 -226.6)"/><path class="cls-23" d="M665.22,478c1.26,3.49,11.51,4.4,16.58,2.46-5.05-2.08-3.41-6.18-2.72-9l-12.58.25C667.44,473.61,665.69,474.27,665.22,478Z" transform="translate(-514.59 -226.6)"/><path class="cls-15" d="M680.4,474.38a9.07,9.07,0,0,1-3.43.3c-1-.05-2.05-0.17-3.16-0.31s-2.55-.37-3.83-0.56l-1.16-.55a16.46,16.46,0,0,1-6-4.26,7.22,7.22,0,0,1-1-1.73,48.43,48.43,0,0,1,3.89-17.68c7.91-.83,15.35-0.8,21.17,2a30.27,30.27,0,0,1-.1,7.31,32.32,32.32,0,0,1-3.6,10.86A38.52,38.52,0,0,1,680.4,474.38Z" transform="translate(-514.59 -226.6)"/><path class="cls-24" d="M680.4,474.38a9.07,9.07,0,0,1-3.43.3c-1-.05-2.05-0.17-3.16-0.31s-2.55-.37-3.83-0.56l-1.16-.55a16.46,16.46,0,0,1-6-4.26,7.22,7.22,0,0,1-1-1.73,48.43,48.43,0,0,1,3.89-17.68c7.91-.83,15.35-0.8,21.17,2a30.27,30.27,0,0,1-.1,7.31,32.32,32.32,0,0,1-3.6,10.86A38.52,38.52,0,0,1,680.4,474.38Z" transform="translate(-514.59 -226.6)"/><path class="cls-25" d="M679.83,485.51c-0.76,9-38,11-24.66-7.95,8.48-12-4.49-30.64,13-34.48,0.05,0,.06,0,0.12,0a2.24,2.24,0,0,1,.65-0.28c3.38-1.11,10.15-1.27,14.44.86,4.32,1.26,9.5,5.74,9.95,6.37,0.72,1.33-2.85,5.28-6,8.58a1.29,1.29,0,0,1-.55.35h-0.05a11.64,11.64,0,0,0-3.14-.4c-6.66.24,0.33,9-6.66,16.14C671.67,480,680.63,476.48,679.83,485.51Z" transform="translate(-514.59 -226.6)"/><path class="cls-11" d="M686.75,458.92a5.33,5.33,0,0,1-3.14-.4A11.64,11.64,0,0,1,686.75,458.92Z" transform="translate(-514.59 -226.6)"/><path class="cls-19" d="M748.91,516.09l-4.79-.66-3,1.53c-15,1.33-31.37,2.75-39.63.61-6.68-4.13-11.17-9.95-14.64-16.58l8.26-13.26,11.32,19.64,32.85,4.49a12,12,0,0,1,7.24-1.84,11.7,11.7,0,0,1,3.88,2.86C752.79,515.42,750.9,515.88,748.91,516.09Z" transform="translate(-514.59 -226.6)"/><path class="cls-26" d="M748.91,516.09l-4.79-.66-3,1.53c-15,1.33-31.37,2.75-39.63.61-6.68-4.13-11.17-9.95-14.64-16.58l8.26-13.26,11.32,19.64,32.85,4.49a12,12,0,0,1,7.24-1.84,11.7,11.7,0,0,1,3.88,2.86C752.79,515.42,750.9,515.88,748.91,516.09Z" transform="translate(-514.59 -226.6)"/><path class="cls-22" d="M703,499.73c-2.06,6-11.45,10-11.45,10-3.43-2.69-5.57-6.16-7.77-9.72l9.88-14.93Z" transform="translate(-514.59 -226.6)"/><path class="cls-22" d="M646.68,487c-1.91,7.68-2.78,18.15-3.32,29-1.74-.11-2.94-0.65-3.32-1.85C639,505.79,642.1,491.46,646.68,487Z" transform="translate(-514.59 -226.6)"/><path class="cls-17" d="M683.4,681.35a7.47,7.47,0,0,0,4.84-2.05,2.24,2.24,0,0,0,.39-1.19c6.85,3.64,21.24,3.54,14.43,7.42a33.78,33.78,0,0,1-8.63,2.48,10,10,0,0,0-7.14-2.29l-4.22,1-1.9,8.34h-0.87l-0.86-8.18c-1.61.12-3.28-.79-3.5-2.13a8,8,0,0,1,1.7-5.92A11.34,11.34,0,0,0,683.4,681.35Z" transform="translate(-514.59 -226.6)"/><polygon class="cls-22" points="68.04 77.95 68.04 95.7 76.12 95.7 76.12 77.95 84.17 77.95 72.08 57.02 60 77.95 68.04 77.95"/><polygon class="cls-22" points="102.14 74.77 102.14 57.02 110.22 57.02 110.22 74.77 118.26 74.77 106.18 95.7 94.09 74.77 102.14 74.77"/><path class="cls-27" d="M844.68,234.49H824a5,5,0,0,1-4.6-3l-1.21-2.69a3.79,3.79,0,0,0-3.45-2.23h-15a5,5,0,0,0-2.91.93l-4.06,2.66,1.91,1.58V262a5,5,0,0,0,5,5h42.71l1.31,1.56,3.67-2.37,0.15-.1,0.11-.07v0a5,5,0,0,0,2.07-4.05V239.54A5,5,0,0,0,844.68,234.49Z" transform="translate(-514.59 -226.6)"/><path class="cls-28" d="M845.57,242.26v22.51a5,5,0,0,1-5,5h-45a5,5,0,0,1-5-5v-30.4a5,5,0,0,1,5-5h15a3.79,3.79,0,0,1,3.45,2.23l1.21,2.69a5,5,0,0,0,4.6,3h20.71A5,5,0,0,1,845.57,242.26Z" transform="translate(-514.59 -226.6)"/><path class="cls-29" d="M941.56,317.27a27,27,0,1,0,27,27A26.94,26.94,0,0,0,941.56,317.27Zm0,36.82a9.83,9.83,0,1,1,9.83-9.83A9.86,9.86,0,0,1,941.56,354.09Z" transform="translate(-514.59 -226.6)"/><path class="cls-30" d="M941.56,334.42a9.83,9.83,0,1,0,9.83,9.83A9.81,9.81,0,0,0,941.56,334.42Zm0,17.53a7.7,7.7,0,1,1,7.7-7.7A7.68,7.68,0,0,1,941.56,352Z" transform="translate(-514.59 -226.6)"/><rect class="cls-10" x="3.92" y="218.43" width="48.84" height="35.91" rx="5.29" ry="5.29"/><rect class="cls-8" x="7.48" y="221.92" width="41.73" height="28.92" rx="2.94" ry="2.94"/><path class="cls-10" d="M540.1,462.19h-6a2.84,2.84,0,0,1-2.84-2.84h0a2.84,2.84,0,0,1,2.84-2.84h6a2.84,2.84,0,0,1,2.84,2.84h0A2.84,2.84,0,0,1,540.1,462.19Z" transform="translate(-514.59 -226.6)"/><path class="cls-10" d="M547,470.44h-12.9a2.84,2.84,0,0,1-2.84-2.84h0a2.84,2.84,0,0,1,2.84-2.84H547a2.84,2.84,0,0,1,2.84,2.84h0A2.84,2.84,0,0,1,547,470.44Z" transform="translate(-514.59 -226.6)"/><path class="cls-11" d="M27.94,214.51h0.8a1.56,1.56,0,0,1,1.56,1.56v2.36a0,0,0,0,1,0,0H26.38a0,0,0,0,1,0,0v-2.36A1.56,1.56,0,0,1,27.94,214.51Z"/><path class="cls-11" d="M21.43,214.51h0.8a1.56,1.56,0,0,1,1.56,1.56v2.36a0,0,0,0,1,0,0H19.88a0,0,0,0,1,0,0v-2.36A1.56,1.56,0,0,1,21.43,214.51Z"/><path class="cls-11" d="M14.93,214.51h0.8a1.56,1.56,0,0,1,1.56,1.56v2.36a0,0,0,0,1,0,0H13.37a0,0,0,0,1,0,0v-2.36A1.56,1.56,0,0,1,14.93,214.51Z"/><path class="cls-11" d="M547.48,441.11h3.92a0,0,0,0,1,0,0v2.36a1.56,1.56,0,0,1-1.56,1.56H549a1.56,1.56,0,0,1-1.56-1.56v-2.36A0,0,0,0,1,547.48,441.11Z" transform="translate(584.3 659.54) rotate(180)"/><path class="cls-11" d="M554,441.11h3.92a0,0,0,0,1,0,0v2.36a1.56,1.56,0,0,1-1.56,1.56h-0.8a1.56,1.56,0,0,1-1.56-1.56v-2.36a0,0,0,0,1,0,0Z" transform="translate(597.31 659.54) rotate(180)"/><path class="cls-11" d="M26.38,254.34H30.3a0,0,0,0,1,0,0v2.36a1.56,1.56,0,0,1-1.56,1.56h-0.8a1.56,1.56,0,0,1-1.56-1.56v-2.36a0,0,0,0,1,0,0Z"/><path class="cls-11" d="M19.88,254.34H23.8a0,0,0,0,1,0,0v2.36a1.56,1.56,0,0,1-1.56,1.56h-0.8a1.56,1.56,0,0,1-1.56-1.56v-2.36A0,0,0,0,1,19.88,254.34Z"/><path class="cls-11" d="M13.37,254.34h3.92a0,0,0,0,1,0,0v2.36a1.56,1.56,0,0,1-1.56,1.56h-0.8a1.56,1.56,0,0,1-1.56-1.56v-2.36a0,0,0,0,1,0,0Z"/><path class="cls-11" d="M549,480.94h0.8a1.56,1.56,0,0,1,1.56,1.56v2.36a0,0,0,0,1,0,0h-3.92a0,0,0,0,1,0,0V482.5A1.56,1.56,0,0,1,549,480.94Z" transform="translate(584.3 739.21) rotate(180)"/><path class="cls-11" d="M555.55,480.94h0.8a1.56,1.56,0,0,1,1.56,1.56v2.36a0,0,0,0,1,0,0H554a0,0,0,0,1,0,0V482.5a1.56,1.56,0,0,1,1.56-1.56Z" transform="translate(597.31 739.21) rotate(180)"/><path class="cls-11" d="M568.92,461h0.8a1.56,1.56,0,0,1,1.56,1.56v2.36a0,0,0,0,1,0,0h-3.92a0,0,0,0,1,0,0v-2.36A1.56,1.56,0,0,1,568.92,461Z" transform="translate(517.71 -332.94) rotate(90)"/><path class="cls-11" d="M568.92,454.52h0.8a1.56,1.56,0,0,1,1.56,1.56v2.36a0,0,0,0,1,0,0h-3.92a0,0,0,0,1,0,0v-2.36A1.56,1.56,0,0,1,568.92,454.52Z" transform="translate(511.21 -339.44) rotate(90)"/><path class="cls-11" d="M567.36,467.53h3.92a0,0,0,0,1,0,0v2.36a1.56,1.56,0,0,1-1.56,1.56h-0.8a1.56,1.56,0,0,1-1.56-1.56v-2.36A0,0,0,0,1,567.36,467.53Z" transform="translate(-414.77 812.21) rotate(-90)"/><path class="cls-11" d="M514.59,461h3.92a0,0,0,0,1,0,0v2.36a1.56,1.56,0,0,1-1.56,1.56h-0.8a1.56,1.56,0,0,1-1.56-1.56V461A0,0,0,0,1,514.59,461Z" transform="translate(464.95 -280.17) rotate(90)"/><path class="cls-11" d="M514.59,454.52h3.92a0,0,0,0,1,0,0v2.36a1.56,1.56,0,0,1-1.56,1.56h-0.8a1.56,1.56,0,0,1-1.56-1.56v-2.36A0,0,0,0,1,514.59,454.52Z" transform="translate(458.44 -286.68) rotate(90)"/><path class="cls-11" d="M516.15,467.53H517a1.56,1.56,0,0,1,1.56,1.56v2.36a0,0,0,0,1,0,0h-3.92a0,0,0,0,1,0,0v-2.36A1.56,1.56,0,0,1,516.15,467.53Z" transform="translate(-467.53 759.45) rotate(-90)"/><path class="cls-31" d="M567.36,475.65v-4.19h2.36a1.56,1.56,0,0,0,1.56-1.56v-0.8a1.56,1.56,0,0,0-1.56-1.56h-2.36v-2.58h2.36a1.56,1.56,0,0,0,1.56-1.56v-0.8a1.56,1.56,0,0,0-1.56-1.56h-2.36v-2.58h2.36a1.56,1.56,0,0,0,1.56-1.56v-0.8a1.56,1.56,0,0,0-1.56-1.56h-2.36v-4.19a5.29,5.29,0,0,0-5.29-5.29h-4.15v-2.36a1.56,1.56,0,0,0-1.56-1.56h-0.8a1.56,1.56,0,0,0-1.56,1.56V445h-2.58v-2.36a1.56,1.56,0,0,0-1.56-1.56H549a1.56,1.56,0,0,0-1.56,1.56V445H544.9v-2.36a1.56,1.56,0,0,0-1.56-1.56h-0.8a1.56,1.56,0,0,0-1.56,1.56V445h-2.58v-2.36a1.56,1.56,0,0,0-1.56-1.56H536a1.56,1.56,0,0,0-1.56,1.56V445h-2.58v-2.36a1.56,1.56,0,0,0-1.56-1.56h-0.8a1.56,1.56,0,0,0-1.56,1.56V445h-4.15a5.29,5.29,0,0,0-5.29,5.29v4.19h-2.36a1.56,1.56,0,0,0-1.56,1.56v0.8a1.56,1.56,0,0,0,1.56,1.56h2.36V461h-2.36a1.56,1.56,0,0,0-1.56,1.56v0.8a1.56,1.56,0,0,0,1.56,1.56h2.36v2.58h-2.36a1.56,1.56,0,0,0-1.56,1.56v0.8a1.56,1.56,0,0,0,1.56,1.56h2.36v4.19a5.29,5.29,0,0,0,5.29,5.29H528v2.36a1.56,1.56,0,0,0,1.56,1.56h0.8a1.56,1.56,0,0,0,1.56-1.56v-2.36h2.58v2.36a1.56,1.56,0,0,0,1.56,1.56h0.8a1.56,1.56,0,0,0,1.56-1.56v-2.36H541v2.36a1.56,1.56,0,0,0,1.56,1.56h0.8a1.56,1.56,0,0,0,1.56-1.56v-2.36h2.58v2.36a1.56,1.56,0,0,0,1.56,1.56h0.8a1.56,1.56,0,0,0,1.56-1.56v-2.36H554v2.36a1.56,1.56,0,0,0,1.56,1.56h0.8a1.56,1.56,0,0,0,1.56-1.56v-2.36h4.15A5.29,5.29,0,0,0,567.36,475.65Z" transform="translate(-514.59 -226.6)"/><path class="cls-30" d="M682.94,303v67.75a3.28,3.28,0,0,1-3.31,3.31,3.36,3.36,0,0,1-3.31-3.31V306.29H663.75a6.58,6.58,0,0,1-5.82,3.44,6.75,6.75,0,0,1,0-13.5,6.57,6.57,0,0,1,5.82,3.44h15.88A3.28,3.28,0,0,1,682.94,303Z" transform="translate(-514.59 -226.6)"/><path class="cls-30" d="M777.42,253.62a6.78,6.78,0,0,1-6.75,6.75,6.58,6.58,0,0,1-5.82-3.44H745.26v87.33a3.28,3.28,0,0,1-3.31,3.31,3.36,3.36,0,0,1-3.31-3.31V253.62a3.36,3.36,0,0,1,3.31-3.31h22.89a6.58,6.58,0,0,1,5.82-3.44A6.78,6.78,0,0,1,777.42,253.62Z" transform="translate(-514.59 -226.6)"/><path class="cls-30" d="M949,388.06a6.58,6.58,0,0,1-3.44,5.82v22.89a3.28,3.28,0,0,1-3.31,3.31H881.16a3.31,3.31,0,0,1,0-6.62H939V393.88a6.58,6.58,0,0,1-3.44-5.82A6.75,6.75,0,1,1,949,388.06Z" transform="translate(-514.59 -226.6)"/><path class="cls-30" d="M615.19,401.82a3.28,3.28,0,0,1-3.31,3.31H547.31v12.7a6.22,6.22,0,0,1,3.44,5.69,6.78,6.78,0,0,1-6.75,6.75,6.66,6.66,0,0,1-6.62-6.75,6.35,6.35,0,0,1,3.31-5.69v-16a3.36,3.36,0,0,1,3.31-3.31h67.88A3.28,3.28,0,0,1,615.19,401.82Z" transform="translate(-514.59 -226.6)"/><path class="cls-15" d="M917.45,482.16a13.27,13.27,0,0,0,6.11,2.28c3.77,4.68,34.58,23.74,40.49,24.71,3.71,1.08,21.6,1.16,23.16-1.64a23.34,23.34,0,0,1-4.69-11.82l-14.34,3.64L962,496l-26.35-14.06-5-2.71L928,477.76c0.06-2.37-.86-4.43-1.52-6.43-1.37-.83-1.63-0.51-2.57.29,0.17,1.4.26,2.06-.8,3-2.34-.74-4.26-5.05-4.66-4.88-1.26.8-2,3.23-2.4,5.74A11.26,11.26,0,0,0,917.45,482.16Z" transform="translate(-514.59 -226.6)"/><path class="cls-32" d="M917.45,482.16a13.27,13.27,0,0,0,6.11,2.28c3.77,4.68,34.58,23.74,40.49,24.71,3.71,1.08,21.6,1.16,23.16-1.64a23.34,23.34,0,0,1-4.69-11.82l-14.34,3.64L962,496l-26.35-14.06-5-2.71L928,477.76c0.06-2.37-.86-4.43-1.52-6.43-1.37-.83-1.63-0.51-2.57.29,0.17,1.4.26,2.06-.8,3-2.34-.74-4.26-5.05-4.66-4.88-1.26.8-2,3.23-2.4,5.74A11.26,11.26,0,0,0,917.45,482.16Z" transform="translate(-514.59 -226.6)"/><path class="cls-8" d="M984.25,495.08l-10.19,1.81c-0.33,3.47-.58,10.12,1.37,14.22,5.71-.67,13.77.2,21-1.25Z" transform="translate(-514.59 -226.6)"/><path class="cls-10" d="M913.24,551.74a8.57,8.57,0,0,1-1.73,1.38l4-2.4a8.57,8.57,0,0,0,1.73-1.38l2-2.13-4,2.4Z" transform="translate(-514.59 -226.6)"/><path class="cls-10" d="M896.85,502.27q-0.43,0-.85.06l-0.09,0-0.28,0c-0.18,0-.37.05-0.55,0.1l-0.2.06-0.55.17-0.36.11-0.14.07a8.53,8.53,0,0,0-1.25.61l-4,2.4a8.55,8.55,0,0,1,1.25-.61l0.5-.18,0.55-.17q0.37-.09.75-0.16l0.28,0a8.75,8.75,0,0,1,1.14-.08H896l4-2.4h-3.15Z" transform="translate(-514.59 -226.6)"/><path class="cls-10" d="M947.11,549l-4,2.4,0.05,3a9,9,0,0,1-.05,1.11c0,0.08,0,.16,0,0.24a8.85,8.85,0,0,1-.16.88c0,0.06,0,.12,0,0.18a8.78,8.78,0,0,1-.32,1c0,0.1-.09.2-0.13,0.3s-0.19.42-.3,0.62-0.2.36-.31,0.53-0.17.27-.26,0.41a8.76,8.76,0,0,1-1,1.23l-0.23.21a8.7,8.7,0,0,1-1.33,1l4-2.4a8.69,8.69,0,0,0,1.33-1l0.23-.21a8.74,8.74,0,0,0,1-1.23l0.08-.09c0.07-.1.12-0.21,0.19-0.32s0.21-.34.31-0.52l0.1-.17c0.07-.15.13-0.31,0.2-0.46s0.09-.19.13-0.29l0-.1q0.15-.39.26-0.8l0-.08c0-.06,0-0.12,0-0.17s0.09-.35.12-0.52,0-.24,0-0.36,0-.16,0-0.23,0-.11,0-0.17q0-.39,0-0.79s0-.1,0-0.15Z" transform="translate(-514.59 -226.6)"/><path class="cls-10" d="M944.52,537.59c-0.56.23-1.15,0.43-1.73,0.62s-1,.34-1.56.47q-1,.27-2.12.44c-0.26,0-.52.1-0.79,0.14a24.87,24.87,0,0,1-3.23.22c-0.74,0-1.46,0-2.18-.11l-0.94-.11c-0.48-.06-1-0.13-1.43-0.22l-1-.19c-0.45-.1-0.88-0.22-1.32-0.34s-0.69-.19-1-0.31-0.77-.27-1.15-0.42-0.82-.32-1.21-0.5-0.63-.3-0.95-0.46q-0.79-.4-1.56-0.84l-0.75-.45a25.81,25.81,0,0,1-3-2.2c-0.27-.23-0.53-0.47-0.78-0.71s-0.6-.56-0.89-0.85-0.55-.59-0.82-0.89-0.55-.62-0.81-0.94-0.49-.64-0.73-1-0.49-.67-0.72-1-0.43-.68-0.64-1-0.42-.71-0.62-1.08-0.25-.5-0.37-0.75a25.71,25.71,0,0,1-1.43-3.47c-0.05-.17-0.09-0.34-0.14-0.51-0.21-.71-0.4-1.43-0.55-2.16-0.08-.4-0.14-0.8-0.2-1.21s-0.14-.85-0.18-1.28c-0.08-.74-0.14-1.49-0.15-2.26a25.56,25.56,0,0,1,.15-3.15c0-.23.06-0.45,0.09-0.68a25.12,25.12,0,0,1,.46-2.48c0-.17.07-0.35,0.12-0.53a24.82,24.82,0,0,1,.89-2.75c0.11-.28.24-0.55,0.36-0.82,0.26-.61.55-1.21,0.86-1.8s0.57-1,.88-1.49,0.56-.91.87-1.34,0.43-.56.64-0.84q0.59-.76,1.24-1.47c0.24-.26.49-0.53,0.74-0.78,0.47-.47,1-0.92,1.49-1.35,0.24-.2.47-0.41,0.71-0.61a24.44,24.44,0,0,1,2.41-1.68l-4,2.4a24.44,24.44,0,0,0-2.41,1.68c-0.25.19-.47,0.41-0.71,0.61-0.51.43-1,.88-1.49,1.35-0.25.25-.5,0.51-0.74,0.78-0.43.47-.85,1-1.24,1.47-0.22.28-.44,0.55-0.64,0.84s-0.23.29-.34,0.44-0.35.61-.53,0.91c-0.31.49-.61,1-0.88,1.49-0.08.16-.19,0.3-0.27,0.46-0.22.43-.39,0.89-0.59,1.34-0.12.28-.25,0.54-0.36,0.82,0,0.09-.08.17-0.11,0.26q-0.42,1.11-.73,2.26c0,0.08,0,.15-0.05.23s-0.08.35-.12,0.53c-0.11.47-.23,0.95-0.32,1.43s-0.09.7-.14,1-0.06.45-.09,0.68,0,0.31-.06.47q-0.1,1.11-.09,2.25,0,0.21,0,.42,0,1,.11,1.93c0,0.11,0,.22,0,0.32,0,0.43.12,0.85,0.18,1.27s0.07,0.63.13,0.93c0,0.09.05,0.18,0.07,0.28,0.15,0.73.34,1.45,0.55,2.15,0,0.15.07,0.31,0.12,0.46l0,0.06a25.64,25.64,0,0,0,1.43,3.47c0.06,0.12.09,0.25,0.15,0.37s0.15,0.26.22,0.39c0.2,0.37.41,0.72,0.62,1.08s0.42,0.69.64,1,0.47,0.68.72,1,0.48,0.65.73,1,0.53,0.63.8,0.93,0.54,0.6.82,0.89,0.59,0.57.89,0.85,0.37,0.38.57,0.55l0.21,0.16a25.76,25.76,0,0,0,3,2.2c0.09,0.06.16,0.13,0.25,0.18s0.34,0.17.5,0.27q0.76,0.45,1.56.84c0.18,0.09.35,0.2,0.53,0.29l0.42,0.17c0.4,0.18.81,0.34,1.21,0.5,0.24,0.09.47,0.21,0.71,0.29l0.43,0.13c0.34,0.11.68,0.21,1,.31s0.5,0.16.76,0.23l0.56,0.11,1,0.19c0.22,0,.43.1,0.65,0.13s0.52,0.05.77,0.09l0.94,0.11,0.48,0.05q0.85,0.06,1.7.06h0.58q1.22,0,2.4-.17l0.25,0c0.27,0,.52-0.09.79-0.14,0.52-.09,1.05-0.16,1.56-0.27,0.19,0,.37-0.12.56-0.17,0.53-.14,1-0.3,1.55-0.47,0.34-.11.69-0.19,1-0.31s0.47-.21.71-0.31l0.68-.3a24.29,24.29,0,0,0,2.56-1.32l4-2.4a24.33,24.33,0,0,1-2.56,1.32Z" transform="translate(-514.59 -226.6)"/><path class="cls-10" d="M903.48,479.16a8.71,8.71,0,0,1,2.2-.3,8.81,8.81,0,0,1,1.61.16l0.17,0a8.82,8.82,0,0,1,1.44.43l0.21,0.09a8.87,8.87,0,0,1,1.34.71c0.14,0.09.27,0.2,0.41,0.3a9,9,0,0,1,1.11.9l2.12,2.1c1.36-.64,2.72-1.23,4.14-1.75l4-2.4-0.44.16c-1.26.47-2.48,1-3.7,1.58l-2.12-2.1-0.45-.42c-0.21-.18-0.44-0.33-0.66-0.49s-0.26-.21-0.4-0.3l-0.13-.09a8.86,8.86,0,0,0-.91-0.49l-0.3-.12-0.21-.08-0.31-.13q-0.39-.13-0.78-0.23l-0.36-.07-0.17,0-0.24,0q-0.38-.06-0.77-0.09l-0.6,0h-0.2q-0.42,0-.84.06a8.67,8.67,0,0,0-.92.16l-0.24.07-0.24.07c-0.21.06-.42,0.11-0.62,0.19a8.58,8.58,0,0,0-1.41.69l-4,2.4a8.55,8.55,0,0,1,2-.87Z" transform="translate(-514.59 -226.6)"/><path class="cls-10" d="M972.43,538.68c0-.2,0-0.4,0-0.59a9.08,9.08,0,0,0-.13-0.9l0-.08c0-.06,0-0.11,0-0.17-0.06-.26-0.12-0.52-0.2-0.77s-0.12-.29-0.18-0.43-0.15-.39-0.24-0.58-0.09-.24-0.15-0.36-0.25-.41-0.38-0.62-0.17-.3-0.27-0.44a9,9,0,0,0-1.07-1.28l-2.12-2.1q0.55-1.22,1-2.47c0-.12.11-0.24,0.15-0.37,0.17-.44.32-0.89,0.47-1.34h0l-4,2.4c-0.18.58-.4,1.15-0.62,1.71-0.32.83-.67,1.66-1,2.47l2.12,2.1a9,9,0,0,1,1.07,1.28c0.1,0.14.18,0.29,0.27,0.44a9,9,0,0,1,.53,1c0.09,0.19.16,0.38,0.24,0.58a9.16,9.16,0,0,1,.38,1.21c0,0.06,0,.11,0,0.17a9.12,9.12,0,0,1,.18,1.58s0,0.09,0,.13a9,9,0,0,1-.13,1.65v0a8.84,8.84,0,0,1-.45,1.63l0,0.08a8.66,8.66,0,0,1-.66,1.31l-0.16.26a8.56,8.56,0,0,1-1,1.32l-4.12,4.26a8.76,8.76,0,0,1-1.72,1.37l4-2.4a8.75,8.75,0,0,0,1.72-1.37l4.12-4.26a8.61,8.61,0,0,0,1-1.17l0.09-.15,0.16-.27c0.11-.19.24-0.37,0.34-0.57s0.23-.49.32-0.74l0-.08,0,0q0.15-.39.26-0.8t0.17-.78h0v0c0-.25.08-0.5,0.1-0.75s0-.53,0-0.8c0,0,0-.07,0-0.1S972.43,538.72,972.43,538.68Z" transform="translate(-514.59 -226.6)"/><path class="cls-10" d="M945.84,479.45l-0.05-3q0-.34,0-0.68t-0.13-.89c0-.05,0-0.1,0-0.15s0-.16-0.06-0.24-0.1-.43-0.16-0.63-0.15-.35-0.22-0.53-0.15-.38-0.24-0.57-0.07-.19-0.12-0.28-0.22-.33-0.32-0.5-0.3-.5-0.47-0.74-0.36-.44-0.55-0.65-0.39-.44-0.6-0.64-0.12-.14-0.19-0.2-0.38-.28-0.57-0.42-0.32-.26-0.5-0.37l-0.16-.12a9,9,0,0,0-.92-0.5l-0.21-.09-0.2-.08-0.42-.17q-0.38-.13-0.78-0.23l-0.27-.06-0.17,0-0.33-.07q-0.38-.06-0.77-0.09l-0.6,0H930.6q-0.43,0-.85.06l-0.09,0-0.28,0c-0.19,0-.37.06-0.56,0.1l-0.2.06-0.55.17-0.36.11-0.15.07a8.58,8.58,0,0,0-1.25.61l-4,2.4a8.56,8.56,0,0,1,1.25-.61l0.51-.18,0.55-.17q0.37-.09.75-0.16l0.28,0a8.85,8.85,0,0,1,1.15-.08h6a8.76,8.76,0,0,1,1.69.17l0.17,0a8.81,8.81,0,0,1,1.47.46l0.2,0.08a9,9,0,0,1,1.29.7c0.17,0.11.33,0.24,0.5,0.37a9.15,9.15,0,0,1,.76.62c0.21,0.2.41,0.42,0.6,0.63s0.38,0.42.55,0.65,0.32,0.49.47,0.74,0.31,0.51.44,0.78,0.16,0.38.24,0.57a9,9,0,0,1,.38,1.16c0,0.08,0,.16.06,0.24a9,9,0,0,1,.2,1.72l0.05,3c1.41,0.51,2.82,1.1,4.15,1.75l4-2.4-0.45-.21C948.34,480.42,947.09,479.9,945.84,479.45Z" transform="translate(-514.59 -226.6)"/><path class="cls-10" d="M980.86,518.19q0-.39,0-0.79s0-.1,0-0.15l-0.11-6.06q0-.34,0-0.68t-0.13-.89c0-.05,0-0.1,0-0.15s0-.16-0.06-0.24-0.1-.43-0.16-0.63-0.15-.35-0.22-0.53-0.15-.38-0.24-0.57-0.07-.19-0.12-0.28-0.22-.33-0.32-0.5-0.3-.5-0.47-0.74-0.36-.44-0.55-0.65-0.39-.43-0.6-0.63-0.12-.14-0.19-0.2-0.38-.28-0.57-0.42-0.32-.25-0.5-0.37l-0.16-.12a9,9,0,0,0-.92-0.5L975.3,503l-0.2-.08-0.41-.17q-0.38-.14-0.78-0.23l-0.27-.05-0.17,0-0.33-.07q-0.38-.06-0.77-0.09l-0.6,0h-2.95a40.5,40.5,0,0,0-1.8-4.16l2-2.1a8.87,8.87,0,0,0,.94-1.16l0.1-.17,0.17-.28c0.11-.18.23-0.36,0.33-0.55s0.23-.5.33-0.76l0-.07,0,0q0.15-.4.26-0.8t0.17-.78h0v0c0-.25.08-0.5,0.1-0.75s0-.53,0-0.79c0,0,0-.07,0-0.1s0-.09,0-0.13c0-.2,0-0.39,0-0.59a9.06,9.06,0,0,0-.13-0.9l0-.08c0-.06,0-0.11,0-0.17-0.06-.26-0.12-0.51-0.2-0.76s-0.12-.29-0.18-0.44-0.15-.38-0.23-0.57-0.09-.24-0.14-0.35-0.26-.42-0.38-0.62-0.17-.3-0.27-0.44a9.07,9.07,0,0,0-1.07-1.28l-4.27-4.29-0.41-.38c-0.22-.2-0.47-0.35-0.71-0.52s-0.26-.21-0.4-0.3l-0.11-.08a9,9,0,0,0-.93-0.5l-0.32-.13-0.21-.09-0.29-.12q-0.39-.14-0.79-0.24l-0.37-.07-0.17,0-0.24,0q-0.39-.06-0.78-0.09l-0.6,0H958q-0.42,0-.84.06a8.74,8.74,0,0,0-.93.16l-0.24.07-0.24.07c-0.21.06-.42,0.11-0.62,0.19a8.53,8.53,0,0,0-1.41.69l-4,2.4a8.54,8.54,0,0,1,2-.87l0.24-.07a8.73,8.73,0,0,1,2.21-.3,8.88,8.88,0,0,1,1.61.16l0.17,0a8.93,8.93,0,0,1,1.45.43l0.21,0.09a9,9,0,0,1,1.36.71c0.14,0.09.27,0.2,0.4,0.3a9.16,9.16,0,0,1,1.11.9l4.27,4.29a9.08,9.08,0,0,1,1.07,1.28c0.1,0.14.18,0.29,0.27,0.44a9,9,0,0,1,.53,1c0.09,0.19.16,0.38,0.23,0.57a9.07,9.07,0,0,1,.38,1.2c0,0.06,0,.11,0,0.17a9.09,9.09,0,0,1,.18,1.57s0,0.08,0,.13a9,9,0,0,1-.13,1.65v0a8.9,8.9,0,0,1-.45,1.63l0,0.07a8.8,8.8,0,0,1-.66,1.31l-0.17.28a8.81,8.81,0,0,1-1,1.32l-2,2.1a40.53,40.53,0,0,1,1.8,4.16h2.95a8.74,8.74,0,0,1,1.69.17l0.17,0a8.84,8.84,0,0,1,1.47.46l0.2,0.08a9,9,0,0,1,1.29.7c0.17,0.11.33,0.24,0.5,0.37a9.15,9.15,0,0,1,.76.62c0.21,0.2.41,0.42,0.6,0.63s0.38,0.42.55,0.65,0.32,0.49.47,0.74,0.31,0.51.44,0.78,0.16,0.38.23,0.57a9,9,0,0,1,.38,1.16c0,0.08,0,.16.06,0.24a9,9,0,0,1,.2,1.72l0.11,6.06a9,9,0,0,1-.05,1.11c0,0.08,0,.16,0,0.24a8.82,8.82,0,0,1-.16.88l0,0.18a8.7,8.7,0,0,1-.32,1c0,0.1-.09.2-0.13,0.3s-0.19.42-.3,0.62-0.2.36-.31,0.53-0.17.27-.26,0.4a8.72,8.72,0,0,1-1,1.22l-0.23.21a8.67,8.67,0,0,1-1.33,1h0l4-2.4a8.67,8.67,0,0,0,1.32-1l0.23-.21a8.71,8.71,0,0,0,1-1.22l0.08-.09c0.07-.1.12-0.21,0.18-0.31s0.22-.35.31-0.53l0.1-.17c0.07-.15.13-0.3,0.2-0.45s0.09-.2.13-0.3l0-.1q0.15-.39.26-0.79l0-.07,0-.18c0-.17.08-0.34,0.11-0.51s0-.24,0-0.36,0-.16,0-0.24S980.86,518.25,980.86,518.19Z" transform="translate(-514.59 -226.6)"/><path class="cls-11" d="M967.81,504.66a9.11,9.11,0,0,1,9,8.93l0.11,6.06a8.7,8.7,0,0,1-8.68,8.91H965.3a39.41,39.41,0,0,1-1.65,4.18l2.12,2.1a9,9,0,0,1,.23,12.63l-4.12,4.26a8.68,8.68,0,0,1-6.23,2.62,8.93,8.93,0,0,1-6.3-2.62l-2.12-2.13a29.9,29.9,0,0,1-4.09,1.75l0.05,3a8.72,8.72,0,0,1-8.68,8.93h-6a9.08,9.08,0,0,1-9-8.93l-0.05-3a33.23,33.23,0,0,1-4.2-1.75l-2,2.13a8.54,8.54,0,0,1-6.18,2.62,8.93,8.93,0,0,1-6.3-2.62l-4.32-4.26a9,9,0,0,1-.23-12.63l2.07-2.1a40.91,40.91,0,0,1-1.8-4.18h-2.95a9,9,0,0,1-9-8.91l-0.11-6.06a8.68,8.68,0,0,1,8.66-8.93H896a39,39,0,0,1,1.65-4.16l-2.15-2.1a9,9,0,0,1-.23-12.63l4.17-4.29a8.61,8.61,0,0,1,6.2-2.62,8.87,8.87,0,0,1,6.28,2.62l2.12,2.1c1.36-.64,2.72-1.23,4.14-1.75l-0.05-3a8.69,8.69,0,0,1,8.68-8.93h6a9.11,9.11,0,0,1,9,8.93l0.05,3c1.41,0.51,2.82,1.1,4.15,1.75l2-2.1a8.61,8.61,0,0,1,6.21-2.62,9,9,0,0,1,6.32,2.62l4.27,4.29a9,9,0,0,1,.23,12.63l-2,2.1a40.51,40.51,0,0,1,1.8,4.16h2.95Zm-36.68,37.22a24.59,24.59,0,0,0,24.55-25.26,25.72,25.72,0,0,0-25.47-25.28,24.62,24.62,0,0,0-24.55,25.28A25.71,25.71,0,0,0,931.13,541.88Z" transform="translate(-514.59 -226.6)"/><path class="cls-15" d="M1023.43,674.86s0.28,4.37-.93,5.78,11.26,1.49,11.26,1.49-3.55-6.48-2-9.32S1023.43,674.86,1023.43,674.86Z" transform="translate(-514.59 -226.6)"/><path class="cls-8" d="M1009.65,690.33l24.27-1.89c1.56-2.67,1.21-5.32-.62-8a21.79,21.79,0,0,1-11.09-.8c-3,2.86-7.53,5.28-12.8,7.5C1007.72,688,1008.12,689.13,1009.65,690.33Z" transform="translate(-514.59 -226.6)"/><rect class="cls-27" x="1009.65" y="689.38" width="24.38" height="1.04" transform="translate(-565.05 -145.23) rotate(-4.45)"/><path class="cls-21" d="M1059.42,560.61a13.64,13.64,0,0,0-1.22,2.63c-1.62,7-19.72,35.34-24.87,50-4.63,14.79-3.47,37.55-.94,62.84a17.3,17.3,0,0,1-10.06.58c-5-25.55-12.66-57.43-10.23-65.25a257,257,0,0,1,15.45-54.5l0.85-3,1.32-4.64,5.11,2,18.15,6.95Z" transform="translate(-514.59 -226.6)"/><path class="cls-15" d="M1085.45,669.73s2,3.87,1.51,5.65,10.9-3.23,10.9-3.23-5.88-4.47-5.64-7.69S1085.45,669.73,1085.45,669.73Z" transform="translate(-514.59 -226.6)"/><path class="cls-8" d="M1079.16,689.47l21.39-11.61c0.33-3.07-1.06-5.35-3.8-7a21.79,21.79,0,0,1-10.45,3.78c-1.54,3.82-4.73,7.89-8.64,12.06C1076.47,688.17,1077.29,689,1079.16,689.47Z" transform="translate(-514.59 -226.6)"/><rect class="cls-27" x="1077.94" y="683.6" width="24.38" height="1.04" transform="translate(-708.92 376.41) rotate(-28.5)"/><path class="cls-21" d="M1070.09,552.4c0,1,1.35.29,1.63,1.23,4.45,14.81-3.61,40.31-2.34,55.77,1.8,15.39,12.13,35.7,24.75,57.77a17.3,17.3,0,0,1-9,4.63c-15-21.29-35-47.29-35.93-55.42a257,257,0,0,1-8.1-56.07l-0.45-3.08-0.69-4.78,5.47-.29,19.41-1.05Z" transform="translate(-514.59 -226.6)"/><path class="cls-8" d="M1072.27,552.34c2.13,6-46.43,14.68-48.79,10.76-4.54-21.38-9.7-23.62-23.17-42.26a0.05,0.05,0,0,0,0-.06c-2.21-3.06-4.47-6.34-6.83-9.95-0.51-.79-1-1.61-1.58-2.46q-3.79-6-7.79-13.21c3.47-1.92,6.76-3.82,10-5.5a78.12,78.12,0,0,1,11.15-5.11c4.68-1.66,8.47-3.75,16.33-2.77C1038.39,487.18,1047.65,526.55,1072.27,552.34Z" transform="translate(-514.59 -226.6)"/><path class="cls-19" d="M987.16,483.42l12.46-6.51c1.12,4.79,2.62,6.62,7.28,7,3,6.56-13.61,20.78-14.83,6.83C994.79,487.47,990.7,486.25,987.16,483.42Z" transform="translate(-514.59 -226.6)"/><path class="cls-33" d="M987.16,483.42l12.46-6.51c1.12,4.79,2.62,6.62,7.28,7,3,6.56-13.61,20.78-14.83,6.83C994.79,487.47,990.7,486.25,987.16,483.42Z" transform="translate(-514.59 -226.6)"/><path class="cls-15" d="M987,490.13c1.94,0.67,8.29-5.48,14.5-12.22L991.94,457l-18.21,8.14C973.43,477.09,983.31,489.87,987,490.13Z" transform="translate(-514.59 -226.6)"/><path class="cls-34" d="M987,490.13c1.94,0.67,8.29-5.48,14.5-12.22L991.94,457l-18.21,8.14C973.43,477.09,983.31,489.87,987,490.13Z" transform="translate(-514.59 -226.6)"/><path class="cls-35" d="M969.35,466.75c-1.6,2.9,3,7.37,6.22,9.11a17.05,17.05,0,0,0,8.44-7.45c2,2.4,5,5.77,4.47,7.63a4.76,4.76,0,0,0,3.55-.85c-0.84-1.7-1.08-3.37-.13-4.69,0.62-.81.79-0.88,2.09-0.79,1.62,0.17,1.91,1.87,1.25,3.33-1.69,3.33,3.05,4.55,5,6.21a8.49,8.49,0,0,0,2.86-6.14c-0.41-5.58-.21-7.36-5.88-14.91C987.43,449.48,972.27,461.73,969.35,466.75Z" transform="translate(-514.59 -226.6)"/><path class="cls-15" d="M963.58,545.57a13.27,13.27,0,0,0,5.5-3.51c6-.2,39.76-13.36,44.09-17.51,3.1-2.32,13.91-16.56,12.61-19.5a23.34,23.34,0,0,1-12.27-3.36l-5.71,13.64-6.39,2.95-27.08,12.6-5.15,2.34-2.79,1.29c-1.86-1.47-4.05-2-6-2.65-1.49.6-1.39,1-1.32,2.23,1.22,0.7,1.8,1,1.94,2.46-2,1.43-6.6.37-6.7,0.79-0.12,1.49,1.4,3.51,3.15,5.37A11.26,11.26,0,0,0,963.58,545.57Z" transform="translate(-514.59 -226.6)"/><path class="cls-36" d="M963.58,545.57a13.27,13.27,0,0,0,5.5-3.51c6-.2,39.76-13.36,44.09-17.51,3.1-2.32,13.91-16.56,12.61-19.5a23.34,23.34,0,0,1-12.27-3.36l-5.71,13.64-6.39,2.95-27.08,12.6-5.15,2.34-2.79,1.29c-1.86-1.47-4.05-2-6-2.65-1.49.6-1.39,1-1.32,2.23,1.22,0.7,1.8,1,1.94,2.46-2,1.43-6.6.37-6.7,0.79-0.12,1.49,1.4,3.51,3.15,5.37A11.26,11.26,0,0,0,963.58,545.57Z" transform="translate(-514.59 -226.6)"/><path class="cls-10" d="M869.61,644a7.47,7.47,0,0,1-1.51,1.21l3.45-2.09a7.47,7.47,0,0,0,1.51-1.21l1.78-1.86-3.45,2.09Z" transform="translate(-514.59 -226.6)"/><path class="cls-10" d="M855.31,600.85q-0.37,0-.74.05H854.5l-0.24,0-0.48.08-0.17.05-0.48.15-0.31.1-0.13.06a7.44,7.44,0,0,0-1.09.53L848.15,604a7.47,7.47,0,0,1,1.09-.53l0.44-.16,0.48-.15q0.32-.08.65-0.14l0.24,0a7.62,7.62,0,0,1,1-.07h2.57l3.45-2.09h-2.75Z" transform="translate(-514.59 -226.6)"/><path class="cls-10" d="M899.14,641.57l-3.45,2.09,0,2.62a7.85,7.85,0,0,1,0,1c0,0.07,0,.14,0,0.21a7.68,7.68,0,0,1-.14.77l0,0.15a7.63,7.63,0,0,1-.28.85l-0.11.26c-0.08.18-.17,0.37-0.26,0.54s-0.18.31-.27,0.46l-0.23.35a7.64,7.64,0,0,1-.91,1.07l-0.2.18a7.59,7.59,0,0,1-1.16.88l3.45-2.09a7.57,7.57,0,0,0,1.16-.88l0.2-.18a7.62,7.62,0,0,0,.91-1.07l0.07-.08c0.06-.09.11-0.19,0.16-0.28s0.19-.3.27-0.46l0.09-.15c0.07-.13.12-0.27,0.18-0.4l0.11-.26,0-.09q0.13-.34.22-0.7v-0.07l0-.15c0-.15.07-0.3,0.1-0.46s0-.21,0-0.32,0-.14,0-0.2,0-.1,0-0.15q0-.34,0-0.69s0-.09,0-0.13Z" transform="translate(-514.59 -226.6)"/><path class="cls-10" d="M896.89,631.65c-0.49.2-1,.37-1.51,0.54s-0.9.29-1.36,0.41-1.22.28-1.85,0.39c-0.23,0-.46.09-0.69,0.12a21.69,21.69,0,0,1-2.82.19c-0.64,0-1.27,0-1.9-.1l-0.82-.09c-0.42-.05-0.83-0.12-1.24-0.19l-0.83-.17c-0.39-.09-0.77-0.19-1.15-0.3l-0.89-.27c-0.34-.11-0.67-0.24-1-0.37s-0.71-.28-1.06-0.43l-0.83-.4q-0.69-.34-1.36-0.73l-0.65-.4a22.53,22.53,0,0,1-2.6-1.92c-0.23-.2-0.46-0.41-0.68-0.62s-0.52-.49-0.77-0.75-0.48-.51-0.71-0.78-0.48-.54-0.7-0.82-0.43-.56-0.64-0.84-0.43-.58-0.63-0.88-0.38-.6-0.56-0.9-0.37-.62-0.54-0.94-0.22-.44-0.33-0.66a22.4,22.4,0,0,1-1.25-3c0-.14-0.08-0.3-0.12-0.44-0.19-.62-0.35-1.24-0.48-1.88-0.07-.35-0.12-0.7-0.18-1.05s-0.12-.74-0.16-1.11c-0.07-.65-0.12-1.3-0.13-2a22.29,22.29,0,0,1,.13-2.74c0-.2.05-0.39,0.08-0.59a21.9,21.9,0,0,1,.4-2.16c0-.15.06-0.31,0.1-0.46a21.65,21.65,0,0,1,.78-2.4c0.1-.24.21-0.48,0.31-0.72,0.23-.53.48-1.06,0.75-1.57s0.5-.87.77-1.3,0.49-.79.76-1.17,0.37-.49.56-0.73q0.52-.66,1.08-1.28c0.21-.23.42-0.46,0.64-0.68,0.41-.41.85-0.8,1.3-1.18,0.21-.18.41-0.36,0.62-0.53a21.3,21.3,0,0,1,2.1-1.47l-3.45,2.09a21.3,21.3,0,0,0-2.1,1.47c-0.21.17-.41,0.35-0.62,0.53-0.45.38-.88,0.77-1.3,1.18-0.22.22-.43,0.45-0.64,0.68-0.38.41-.74,0.84-1.08,1.28-0.19.24-.38,0.48-0.56,0.73s-0.2.25-.29,0.38-0.3.53-.47,0.79c-0.27.43-.53,0.85-0.77,1.3-0.07.14-.17,0.26-0.23,0.4-0.19.38-.34,0.78-0.51,1.17-0.1.24-.22,0.47-0.31,0.72,0,0.08-.07.15-0.1,0.23q-0.36,1-.63,2c0,0.07,0,.14,0,0.2s-0.07.31-.1,0.46c-0.1.41-.2,0.83-0.28,1.25s-0.08.61-.12,0.91-0.06.39-.08,0.59,0,0.27-.05.41q-0.08,1-.08,2,0,0.18,0,.37,0,0.85.09,1.69c0,0.1,0,.19,0,0.28,0,0.37.1,0.74,0.16,1.11s0.07,0.55.12,0.82c0,0.08,0,.16.06,0.24,0.13,0.64.3,1.26,0.48,1.88,0,0.13.06,0.27,0.1,0.4l0,0a22.35,22.35,0,0,0,1.25,3c0.05,0.1.08,0.22,0.13,0.32s0.13,0.22.19,0.34c0.17,0.32.35,0.63,0.54,0.94s0.36,0.61.56,0.9,0.41,0.59.62,0.88,0.42,0.57.64,0.84,0.46,0.55.7,0.81,0.47,0.53.71,0.78,0.51,0.5.77,0.75,0.33,0.33.5,0.48l0.18,0.14a22.46,22.46,0,0,0,2.6,1.92l0.22,0.16c0.14,0.09.29,0.15,0.44,0.24q0.67,0.39,1.36.74c0.16,0.08.3,0.18,0.46,0.25l0.36,0.15c0.35,0.16.7,0.29,1.06,0.43s0.41,0.18.62,0.25l0.38,0.11,0.89,0.27c0.22,0.06.44,0.14,0.66,0.2l0.49,0.1,0.84,0.17,0.56,0.11c0.22,0,.45,0,0.67.08l0.82,0.09,0.41,0q0.74,0,1.49.05h0.51q1.06,0,2.1-.15l0.22,0c0.23,0,.46-0.08.69-0.12,0.46-.08.92-0.14,1.36-0.24,0.17,0,.32-0.11.49-0.15,0.46-.12.91-0.26,1.36-0.41,0.29-.1.6-0.16,0.89-0.27s0.41-.18.62-0.27l0.6-.26a21.19,21.19,0,0,0,2.23-1.15l3.45-2.09a21.23,21.23,0,0,1-2.23,1.15Z" transform="translate(-514.59 -226.6)"/><path class="cls-10" d="M861.09,580.71a7.59,7.59,0,0,1,1.92-.26,7.67,7.67,0,0,1,1.4.14l0.15,0a7.7,7.7,0,0,1,1.26.38l0.18,0.07a7.74,7.74,0,0,1,1.17.62c0.12,0.08.24,0.18,0.35,0.26a7.82,7.82,0,0,1,1,.79l1.85,1.84c1.19-.56,2.37-1.07,3.61-1.52L877.4,581l-0.38.14c-1.1.41-2.16,0.88-3.22,1.38l-1.85-1.84-0.39-.36c-0.18-.16-0.38-0.29-0.58-0.43s-0.23-.18-0.35-0.26l-0.11-.08a7.75,7.75,0,0,0-.79-0.43l-0.26-.11-0.18-.07-0.27-.11q-0.34-.12-0.68-0.2l-0.31-.06-0.15,0-0.21,0-0.67-.08-0.52,0H866.3q-0.37,0-.73.05a7.58,7.58,0,0,0-.81.14l-0.21.06-0.21.06c-0.18.05-.36,0.1-0.54,0.16a7.47,7.47,0,0,0-1.23.6l-3.45,2.09a7.46,7.46,0,0,1,1.77-.76Z" transform="translate(-514.59 -226.6)"/><path class="cls-10" d="M921.22,632.6c0-.17,0-0.35,0-0.52a7.92,7.92,0,0,0-.11-0.79l0-.07c0-.05,0-0.1,0-0.15-0.05-.23-0.1-0.45-0.17-0.68s-0.11-.25-0.16-0.38-0.13-.34-0.21-0.5-0.08-.21-0.13-0.31-0.22-.36-0.33-0.54-0.15-.26-0.24-0.39a7.88,7.88,0,0,0-.93-1.12L917,625.34q0.48-1.06.9-2.16c0-.11.09-0.21,0.13-0.32,0.14-.39.28-0.78,0.41-1.17h0L915,623.78c-0.16.51-.35,1-0.54,1.49-0.28.73-.58,1.45-0.9,2.15l1.85,1.84a7.88,7.88,0,0,1,.93,1.12c0.09,0.12.16,0.26,0.24,0.38a7.89,7.89,0,0,1,.46.85c0.08,0.17.14,0.33,0.21,0.5a8,8,0,0,1,.33,1.06l0,0.15a8,8,0,0,1,.16,1.37s0,0.08,0,.12a7.9,7.9,0,0,1-.11,1.44h0a7.71,7.71,0,0,1-.39,1.42l0,0.07a7.56,7.56,0,0,1-.58,1.14l-0.14.23a7.48,7.48,0,0,1-.91,1.15L912,644a7.64,7.64,0,0,1-1.5,1.19l3.45-2.09a7.63,7.63,0,0,0,1.5-1.19l3.59-3.72a7.52,7.52,0,0,0,.84-1L920,637l0.14-.23c0.1-.16.21-0.33,0.29-0.5s0.2-.43.28-0.64l0-.07v0q0.13-.34.22-0.7t0.15-.68h0v0c0-.22.07-0.43,0.09-0.65s0-.46,0-0.69c0,0,0-.06,0-0.09S921.23,632.64,921.22,632.6Z" transform="translate(-514.59 -226.6)"/><path class="cls-10" d="M898,581l0-2.57q0-.3,0-0.59t-0.11-.78s0-.09,0-0.13,0-.14-0.05-0.21-0.08-.37-0.14-0.55-0.13-.31-0.19-0.46-0.13-.33-0.21-0.5-0.06-.17-0.1-0.24-0.19-.29-0.28-0.44-0.26-.44-0.41-0.65-0.31-.38-0.48-0.57-0.34-.38-0.52-0.55-0.11-.12-0.17-0.18-0.33-.24-0.49-0.37-0.28-.22-0.43-0.32l-0.14-.1a7.87,7.87,0,0,0-.8-0.43l-0.19-.08-0.18-.07-0.36-.15q-0.33-.12-0.68-0.2l-0.24,0-0.14,0-0.28-.06q-0.33-.05-0.67-0.08l-0.52,0h-5.39q-0.38,0-.74.05h-0.08l-0.24,0-0.49.09-0.17.05-0.48.15-0.32.1-0.13.06a7.47,7.47,0,0,0-1.09.53l-3.45,2.09a7.48,7.48,0,0,1,1.09-.53l0.44-.16,0.48-.15q0.32-.08.65-0.14l0.24,0a7.72,7.72,0,0,1,1-.07h5.21a7.63,7.63,0,0,1,1.47.15l0.15,0a7.69,7.69,0,0,1,1.28.4l0.18,0.07a7.86,7.86,0,0,1,1.12.61c0.15,0.1.29,0.21,0.43,0.32a8,8,0,0,1,.66.54c0.19,0.17.35,0.36,0.52,0.55s0.33,0.37.48,0.57,0.28,0.42.41,0.64,0.27,0.44.38,0.68,0.14,0.33.21,0.5a7.85,7.85,0,0,1,.33,1c0,0.07,0,.14.05,0.21a7.86,7.86,0,0,1,.18,1.5l0,2.57c1.23,0.45,2.46,1,3.62,1.52l3.45-2.09-0.39-.19C900.22,581.8,899.13,581.35,898,581Z" transform="translate(-514.59 -226.6)"/><path class="cls-10" d="M928.58,614.74q0-.34,0-0.69s0-.09,0-0.13l-0.1-5.28q0-.3,0-0.59t-0.11-.78s0-.09,0-0.13,0-.14-0.05-0.21-0.08-.37-0.14-0.55-0.13-.31-0.19-0.46-0.13-.33-0.21-0.5-0.06-.17-0.1-0.24-0.19-.29-0.28-0.44-0.26-.44-0.41-0.64-0.31-.38-0.48-0.57-0.34-.38-0.52-0.55-0.11-.12-0.17-0.18-0.33-.24-0.5-0.37-0.28-.22-0.43-0.32l-0.14-.1a7.88,7.88,0,0,0-.8-0.43l-0.19-.08-0.18-.07-0.36-.15q-0.33-.12-0.68-0.2l-0.24,0-0.15,0-0.28-.06q-0.33-.05-0.67-0.08l-0.52,0h-2.57a35.34,35.34,0,0,0-1.57-3.63l1.78-1.84a7.73,7.73,0,0,0,.82-1l0.09-.15,0.14-.25c0.1-.16.2-0.32,0.28-0.48s0.2-.44.29-0.66l0-.06v0q0.13-.35.23-0.7t0.15-.68h0v0c0-.22.07-0.44,0.09-0.66s0-.46,0-0.69c0,0,0-.06,0-0.09s0-.08,0-0.11,0-.34,0-0.52a7.87,7.87,0,0,0-.11-0.78l0-.07,0-.15c-0.05-.22-0.1-0.45-0.17-0.67s-0.11-.25-0.16-0.38-0.13-.33-0.2-0.5-0.08-.21-0.13-0.31-0.22-.36-0.33-0.54-0.15-.26-0.24-0.38a7.91,7.91,0,0,0-.93-1.12l-3.73-3.74-0.36-.33c-0.2-.17-0.41-0.31-0.62-0.45s-0.23-.18-0.35-0.26l-0.09-.07a7.84,7.84,0,0,0-.81-0.44l-0.28-.11-0.19-.08-0.26-.1q-0.34-.12-0.69-0.21l-0.32-.06-0.15,0-0.21,0q-0.34-.05-0.68-0.08l-0.52,0h-0.17q-0.37,0-.73.05a7.61,7.61,0,0,0-.81.14l-0.21.06-0.21.06c-0.18.05-.37,0.1-0.54,0.16a7.45,7.45,0,0,0-1.23.6l-3.45,2.09a7.44,7.44,0,0,1,1.77-.76l0.21-.06a7.61,7.61,0,0,1,1.93-.26,7.74,7.74,0,0,1,1.41.14l0.15,0a7.79,7.79,0,0,1,1.26.38l0.19,0.08a7.88,7.88,0,0,1,1.18.62c0.12,0.08.23,0.17,0.35,0.26a8,8,0,0,1,1,.78l3.73,3.74a7.92,7.92,0,0,1,.93,1.12c0.09,0.12.16,0.25,0.23,0.38a7.87,7.87,0,0,1,.46.85c0.07,0.16.14,0.33,0.2,0.5a7.89,7.89,0,0,1,.33,1c0,0.05,0,.1,0,0.15a7.9,7.9,0,0,1,.16,1.37s0,0.07,0,.11a7.86,7.86,0,0,1-.11,1.44h0a7.76,7.76,0,0,1-.39,1.42l0,0.06a7.68,7.68,0,0,1-.57,1.14l-0.15.25a7.68,7.68,0,0,1-.91,1.15l-1.78,1.84a35.34,35.34,0,0,1,1.57,3.63h2.57a7.63,7.63,0,0,1,1.47.15l0.14,0a7.71,7.71,0,0,1,1.28.4l0.17,0.07a7.88,7.88,0,0,1,1.12.61c0.15,0.1.29,0.21,0.43,0.32a8,8,0,0,1,.66.54c0.19,0.17.35,0.36,0.52,0.55s0.33,0.37.48,0.57,0.28,0.42.41,0.64,0.27,0.45.38,0.68,0.14,0.33.2,0.5a7.86,7.86,0,0,1,.33,1c0,0.07,0,.14.05,0.21a7.86,7.86,0,0,1,.18,1.5l0.1,5.28a7.8,7.8,0,0,1,0,1c0,0.07,0,.14,0,0.21a7.69,7.69,0,0,1-.14.77l0,0.15a7.58,7.58,0,0,1-.27.84l-0.11.26c-0.08.18-.17,0.37-0.26,0.54s-0.18.31-.27,0.46l-0.23.35a7.6,7.6,0,0,1-.91,1.07l-0.2.18a7.55,7.55,0,0,1-1.16.88h0l3.45-2.09a7.56,7.56,0,0,0,1.16-.88l0.2-.18a7.59,7.59,0,0,0,.91-1.07l0.07-.08c0.06-.09.1-0.18,0.16-0.27s0.19-.3.27-0.46l0.09-.15c0.06-.13.12-0.26,0.17-0.4l0.11-.26,0-.09q0.13-.34.22-0.69V616l0-.16c0-.15.07-0.3,0.1-0.45s0-.21,0-0.32,0-.14,0-0.21S928.57,614.79,928.58,614.74Z" transform="translate(-514.59 -226.6)"/><path class="cls-11" d="M917.2,602.94a7.94,7.94,0,0,1,7.85,7.79l0.1,5.28a7.58,7.58,0,0,1-7.57,7.77H915a34.37,34.37,0,0,1-1.44,3.65l1.85,1.84a7.84,7.84,0,0,1,.2,11L912,644a7.57,7.57,0,0,1-5.43,2.28,7.79,7.79,0,0,1-5.5-2.28l-1.85-1.86a26.08,26.08,0,0,1-3.56,1.52l0,2.62a7.6,7.6,0,0,1-7.57,7.79H883a7.92,7.92,0,0,1-7.85-7.79l0-2.62a29,29,0,0,1-3.66-1.52L869.61,644a7.45,7.45,0,0,1-5.39,2.28,7.79,7.79,0,0,1-5.49-2.28L855,640.28a7.88,7.88,0,0,1-.2-11l1.81-1.84a35.69,35.69,0,0,1-1.57-3.65h-2.57a7.89,7.89,0,0,1-7.83-7.77l-0.1-5.28a7.57,7.57,0,0,1,7.55-7.79h2.57a34,34,0,0,1,1.44-3.63l-1.87-1.84a7.88,7.88,0,0,1-.2-11l3.63-3.74a7.51,7.51,0,0,1,5.41-2.28,7.73,7.73,0,0,1,5.47,2.28l1.85,1.84c1.19-.56,2.37-1.07,3.61-1.52l0-2.57a7.57,7.57,0,0,1,7.57-7.79h5.21a8,8,0,0,1,7.86,7.79l0,2.57c1.23,0.45,2.46,1,3.62,1.52l1.78-1.84a7.51,7.51,0,0,1,5.41-2.28,7.85,7.85,0,0,1,5.51,2.28l3.73,3.74a7.84,7.84,0,0,1,.2,11l-1.78,1.84a35.35,35.35,0,0,1,1.57,3.63h2.57Zm-32,32.45a21.44,21.44,0,0,0,21.41-22,22.43,22.43,0,0,0-22.21-22,21.47,21.47,0,0,0-21.41,22A22.42,22.42,0,0,0,885.21,635.4Z" transform="translate(-514.59 -226.6)"/></g></g></g></svg>