<svg id="Layer_1" data-name="Layer 1" xmlns="http://www.w3.org/2000/svg" xmlns:xlink="http://www.w3.org/1999/xlink" viewBox="0 0 3104.77 2250"><defs><style>.cls-1{opacity:0.5;fill:url(#Безымянный_градиент_71);}.cls-2{fill:#75a1de;}.cls-3{fill:#fff;}.cls-4{opacity:0.8;}.cls-5{fill:#f37168;}.cls-6{fill:#cce2ff;}.cls-14,.cls-7{fill:#99bbeb;}.cls-8{fill:#9bd6e8;}.cls-9{fill:#3a384d;}.cls-10{fill:#f09959;}.cls-11{fill:#e38540;}.cls-12{fill:#7a4e34;}.cls-13{fill:#d54a41;}.cls-14{opacity:0.2;}.cls-15{fill:#2e2d3d;}.cls-16{fill:#d5e1e8;}.cls-17{fill:#bdccd4;}.cls-18{fill:#2e5b9a;}.cls-19{fill:#6791c9;}.cls-20{fill:#f2e5de;}.cls-21{fill:#303c60;}.cls-22{fill:#74b570;}.cls-23{fill:#9cd499;}</style><linearGradient id="Безымянный_градиент_71" x1="2496.64" y1="2765.58" x2="4491.16" y2="771.06" gradientUnits="userSpaceOnUse"><stop offset="0" stop-color="#4659c1"/><stop offset="1" stop-color="#3ad0de"/></linearGradient></defs><title>CX_deployer-step-1</title><path class="cls-1" d="M4848.94,2453.89c281-268.28,348.18-816,87.87-1196.86-217-317.42-616.61-643.94-1120.2-739.12S2871.82,422.84,2681,548.58c-156.14,102.9-83.56,246.21-34.59,368,65.37,162.57,75,291.65-193.91,527.82-307,269.59-390.07,370.8-405.45,631.49-12.52,212,164.5,497.22,396.77,538.08,323.36,56.89,443.38-93.38,759.74-194.68,253.78-81.27,429.8-43.27,659.89,112.48S4436.51,2847.59,4848.94,2453.89Z" transform="translate(-2027.09 -450)"/><path class="cls-2" d="M3879.5,1133.48a365.43,365.43,0,0,0,2.28-40.62c0-7.25-.24-14.44-0.66-21.58L3814,1049.55a295.07,295.07,0,0,0-23.77-80.43l44.51-54.77a362.71,362.71,0,0,0-35.26-51.25L3732.34,885a298.3,298.3,0,0,0-66.46-51.09l3.82-70.53a359.13,359.13,0,0,0-58.6-20.77l-41.45,57.21a298.5,298.5,0,0,0-83.81-2.2l-38.38-59.32a359.08,359.08,0,0,0-59.63,17.62l0.09,70.64a297.8,297.8,0,0,0-69.07,47.51L3253,848.66A363.3,363.3,0,0,0,3215.05,898L3256.62,955a295.06,295.06,0,0,0-28,79.05l-68.17,18.14a365.64,365.64,0,0,0-2.28,40.62c0,7.25.24,14.44,0.66,21.58l67.13,21.72a295.07,295.07,0,0,0,23.77,80.43l-44.51,54.77a362.52,362.52,0,0,0,35.26,51.25l67.13-21.91a298.31,298.31,0,0,0,66.46,51.08l-3.82,70.53a359.1,359.1,0,0,0,58.6,20.77l41.46-57.21a298.49,298.49,0,0,0,83.81,2.2l38.38,59.32a359.07,359.07,0,0,0,59.63-17.62l-0.09-70.64a297.79,297.79,0,0,0,69.07-47.51l65.86,25.41a363.22,363.22,0,0,0,37.93-49.32l-41.56-57.06a295,295,0,0,0,28-79.05ZM3520,1234.76a141.91,141.91,0,1,1,141.91-141.91A141.91,141.91,0,0,1,3520,1234.76Z" transform="translate(-2027.09 -450)"/><path class="cls-3" d="M3713.52,1254.7a5.3,5.3,0,0,1-4.08-8.7,240.08,240.08,0,0,0,42.3-231.25,5.3,5.3,0,0,1,10-3.46,250.7,250.7,0,0,1-44.17,241.48A5.3,5.3,0,0,1,3713.52,1254.7Z" transform="translate(-2027.09 -450)"/><path class="cls-3" d="M3693,919.75a5.29,5.29,0,0,1-3.64-1.44,238.28,238.28,0,0,0-82.51-50.84,5.3,5.3,0,1,1,3.62-10,248.85,248.85,0,0,1,86.17,53.09A5.3,5.3,0,0,1,3693,919.75Z" transform="translate(-2027.09 -450)"/><path class="cls-3" d="M3464.92,860.61a5.3,5.3,0,0,1-1.29-10.45,251.27,251.27,0,0,1,61.45-7.6,5.3,5.3,0,0,1,0,10.61,240.64,240.64,0,0,0-58.85,7.28A5.31,5.31,0,0,1,3464.92,860.61Z" transform="translate(-2027.09 -450)"/><path class="cls-2" d="M2738.9,2032a253.27,253.27,0,0,0,1.58-28.14c0-5-.16-10-0.46-14.95l-46.49-15a204.38,204.38,0,0,0-16.46-55.71l30.83-37.94a251.11,251.11,0,0,0-24.42-35.5l-46.5,15.17a206.64,206.64,0,0,0-46-35.38l2.64-48.85a248.78,248.78,0,0,0-40.59-14.39l-28.71,39.62a206.78,206.78,0,0,0-58-1.52l-26.58-41.09a248.7,248.7,0,0,0-41.3,12.21l0.06,48.93a206.26,206.26,0,0,0-47.84,32.91l-45.62-17.6a251.64,251.64,0,0,0-26.27,34.16l28.79,39.52a204.36,204.36,0,0,0-19.41,54.75l-47.22,12.56a253.27,253.27,0,0,0-1.58,28.14c0,5,.17,10,0.46,14.95l46.49,15a204.36,204.36,0,0,0,16.46,55.71l-30.83,37.94a251.19,251.19,0,0,0,24.42,35.5l46.5-15.17a206.63,206.63,0,0,0,46,35.38l-2.64,48.86a248.77,248.77,0,0,0,40.59,14.39l28.71-39.62a206.74,206.74,0,0,0,58,1.52l26.58,41.09a248.59,248.59,0,0,0,41.3-12.21l-0.06-48.93a206.24,206.24,0,0,0,47.84-32.91l45.62,17.6a251.58,251.58,0,0,0,26.27-34.16l-28.79-39.52a204.37,204.37,0,0,0,19.41-54.75Zm-249,70.16a98.29,98.29,0,1,1,98.29-98.29A98.29,98.29,0,0,1,2489.87,2102.2Z" transform="translate(-2027.09 -450)"/><path class="cls-3" d="M2623.94,2117.64a5.3,5.3,0,0,1-4.08-8.7,164.66,164.66,0,0,0,29-158.6,5.3,5.3,0,0,1,10-3.45A175.27,175.27,0,0,1,2628,2115.72,5.3,5.3,0,0,1,2623.94,2117.64Z" transform="translate(-2027.09 -450)"/><path class="cls-3" d="M2609.71,1885.64a5.29,5.29,0,0,1-3.64-1.44,163.43,163.43,0,0,0-56.59-34.87,5.3,5.3,0,1,1,3.62-10,174,174,0,0,1,60.25,37.12A5.3,5.3,0,0,1,2609.71,1885.64Z" transform="translate(-2027.09 -450)"/><path class="cls-3" d="M2451.74,1844.67a5.3,5.3,0,0,1-1.29-10.45,175.66,175.66,0,0,1,43-5.31,5.3,5.3,0,1,1,0,10.61,165.08,165.08,0,0,0-40.36,5A5.29,5.29,0,0,1,2451.74,1844.67Z" transform="translate(-2027.09 -450)"/><path class="cls-2" d="M4096.17,1403.74q0-4.11-.23-8.17l34.83-28a185.55,185.55,0,0,0-12.66-40l-45-3.4a149.66,149.66,0,0,0-38.93-41.31l-0.15-44.82a185.66,185.66,0,0,0-39.88-15.39l-30.74,33.08a149.6,149.6,0,0,0-55.28,4.34l-35.25-27.92a186.73,186.73,0,0,0-37.29,21.62l6.67,44.44a149.15,149.15,0,0,0-31.4,45.83L3767,1354.2a186.72,186.72,0,0,0-6.48,42.27l38.62,22.33a147.9,147.9,0,0,0,16.52,54.58l-19.34,40.5a188,188,0,0,0,28.42,30.92l41.42-16.22a148,148,0,0,0,54.61,21.67l19.52,40.19c2.33,0.09,4.66.14,7,.14a188,188,0,0,0,34.25-3.14l13.16-42.57a148.7,148.7,0,0,0,51.39-29.83l43.53,9.78a187.26,187.26,0,0,0,23.19-34.25l-25.23-37.06A148.61,148.61,0,0,0,4096.17,1403.74Zm-150.5,65.59a62.7,62.7,0,1,1,62.7-62.7A62.7,62.7,0,0,1,3945.67,1469.33Z" transform="translate(-2027.09 -450)"/><g class="cls-4"><path class="cls-2" d="M4675.79,1042.5H4621.9a37.78,37.78,0,0,1-37.74-37.74V950.87a37.78,37.78,0,0,1,37.74-37.74h53.89a37.78,37.78,0,0,1,37.74,37.74v53.89A37.78,37.78,0,0,1,4675.79,1042.5ZM4621.9,928A22.91,22.91,0,0,0,4599,950.87v53.89a22.91,22.91,0,0,0,22.89,22.89h53.89a22.91,22.91,0,0,0,22.89-22.89V950.87A22.91,22.91,0,0,0,4675.79,928H4621.9Z" transform="translate(-2027.09 -450)"/></g><g class="cls-4"><path class="cls-2" d="M4422.22,1042.5h-53.89a37.78,37.78,0,0,1-37.74-37.74V950.87a37.78,37.78,0,0,1,37.74-37.74h53.89A37.78,37.78,0,0,1,4460,950.87v53.89A37.78,37.78,0,0,1,4422.22,1042.5ZM4368.33,928a22.91,22.91,0,0,0-22.89,22.89v53.89a22.91,22.91,0,0,0,22.89,22.89h53.89a22.91,22.91,0,0,0,22.89-22.89V950.87A22.91,22.91,0,0,0,4422.22,928h-53.89Z" transform="translate(-2027.09 -450)"/></g><path class="cls-5" d="M4398.64,1011.13h-0.31a6.36,6.36,0,0,1-4.74-2.49l-38.73-50.52a6.37,6.37,0,0,1,10.1-7.74l34.16,44.56,89.18-95.55a6.37,6.37,0,0,1,9.31,8.69l-94.31,101A6.37,6.37,0,0,1,4398.64,1011.13Z" transform="translate(-2027.09 -450)"/><path class="cls-6" d="M4853.93,2434.25c-220.62-10.78-971.15,7.49-1199.41,14.61s-493.21-9.4-630.84-33.7-933.18,2.07-897.08,67.39,354.46,29.22,715.47,55.48,1173-3.28,1356.1,0,351.09-6.56,587.11-19.69S4981.82,2440.5,4853.93,2434.25Z" transform="translate(-2027.09 -450)"/><rect class="cls-7" x="110.6" y="618.26" width="461.19" height="755.92"/><rect class="cls-3" x="134.75" y="633.66" width="421.87" height="711.7"/><path class="cls-8" d="M2288,1369.06c15.88-34.16,42.75-45.1,86.89-45.1,52.55,0,79.83,19,87.57,46.75C2368.38,1372,2288,1369.06,2288,1369.06Z" transform="translate(-2027.09 -450)"/><path class="cls-9" d="M2356.56,1157.81c-22.24,6.24-21.27,18.74-28.68,30.34s-23.52,19.34-25.46,27.07,5,23.85-3.22,32.87-11,13.53-7.73,22.56,10.31,23.2,11,25.14,9.67,15.47,20.62,17.4,31.58,5.16,41.89,9.67,43.47-5.78,61.87-5.13,30.94-12.92,29.65-21.94,13.57-27.07,13.53-42.54c0-16.61-19.34-29-24.49-40s0.64-30.29-18.69-41.75c-12.22-7.24-20.62-6.59-30.29-9.82S2370.74,1153.83,2356.56,1157.81Z" transform="translate(-2027.09 -450)"/><path class="cls-10" d="M2383.63,1351.22c-5,7.43-8.72,7.73-14.18,0-4.34-6.15-12.89-20.12-12.89-27.21v-70.76a12.93,12.93,0,0,1,12.89-12.89h14.18a12.93,12.93,0,0,1,12.89,12.89V1324C2396.52,1331.1,2388.14,1344.56,2383.63,1351.22Z" transform="translate(-2027.09 -450)"/><path class="cls-11" d="M2383.63,1240.37h-14.18a12.93,12.93,0,0,0-12.89,12.89v63.13c15.92,5.07,30.45-5,40-16.36v-46.77A12.93,12.93,0,0,0,2383.63,1240.37Z" transform="translate(-2027.09 -450)"/><ellipse class="cls-10" cx="349.45" cy="791.08" rx="42.86" ry="58.4"/><path class="cls-9" d="M2396.52,1194.6c-27.07,45.76-67,41.25-67,41.25s1-60.59,32.71-63.81,50.43,9.52,56.88,30.54,0,34.88,0,34.88a55.65,55.65,0,0,1-15.47-20.95A150.45,150.45,0,0,1,2396.52,1194.6Z" transform="translate(-2027.09 -450)"/><ellipse class="cls-10" cx="2327.88" cy="1245.02" rx="11.28" ry="16.92" transform="translate(-2336.11 669.1) rotate(-25.41)"/><ellipse class="cls-10" cx="2423.27" cy="1245.02" rx="16.92" ry="11.28" transform="translate(-1768.07 2449.82) rotate(-64.59)"/><path class="cls-3" d="M2392.65,1272.76s-7.21,9.35-16.11,9.35-16.11-9.35-16.11-9.35h32.23Z" transform="translate(-2027.09 -450)"/><path class="cls-7" d="M2427.56,1461.7H2319.32a12.59,12.59,0,1,1,0-25.17h108.24A12.59,12.59,0,1,1,2427.56,1461.7Z" transform="translate(-2027.09 -450)"/><path class="cls-7" d="M2447.38,1500.37H2299.51a12.59,12.59,0,1,1,0-25.17h147.87A12.59,12.59,0,0,1,2447.38,1500.37Z" transform="translate(-2027.09 -450)"/><path class="cls-7" d="M2553.29,1639.44h-359.7a7.3,7.3,0,0,1,0-14.61h359.7A7.3,7.3,0,1,1,2553.29,1639.44Z" transform="translate(-2027.09 -450)"/><path class="cls-7" d="M2553.29,1673.38h-359.7a7.3,7.3,0,1,1,0-14.61h359.7A7.3,7.3,0,1,1,2553.29,1673.38Z" transform="translate(-2027.09 -450)"/><path class="cls-7" d="M2553.29,1707.32h-359.7a7.3,7.3,0,0,1,0-14.61h359.7A7.3,7.3,0,1,1,2553.29,1707.32Z" transform="translate(-2027.09 -450)"/><path class="cls-7" d="M2503,1377.45H2243.9a13.05,13.05,0,0,1-13-13V1125.63a13.05,13.05,0,0,1,13-13H2503a13.05,13.05,0,0,1,13,13v238.78A13.05,13.05,0,0,1,2503,1377.45ZM2243.9,1123.2a2.46,2.46,0,0,0-2.43,2.43v238.78a2.46,2.46,0,0,0,2.43,2.43H2503a2.46,2.46,0,0,0,2.43-2.43V1125.63a2.46,2.46,0,0,0-2.43-2.43H2243.9Z" transform="translate(-2027.09 -450)"/><polygon class="cls-7" points="254.2 1083.2 261.7 1098.4 278.47 1100.84 266.34 1112.67 269.2 1129.38 254.2 1121.49 239.2 1129.38 242.06 1112.67 229.93 1100.84 246.7 1098.4 254.2 1083.2"/><polygon class="cls-7" points="315.64 1083.2 323.14 1098.4 339.91 1100.84 327.77 1112.67 330.64 1129.38 315.64 1121.49 300.63 1129.38 303.5 1112.67 291.36 1100.84 308.14 1098.4 315.64 1083.2"/><polygon class="cls-7" points="377.07 1083.2 384.57 1098.4 401.35 1100.84 389.21 1112.67 392.08 1129.38 377.07 1121.49 362.07 1129.38 364.94 1112.67 352.8 1100.84 369.57 1098.4 377.07 1083.2"/><polygon class="cls-7" points="438.51 1083.2 446.01 1098.4 462.79 1100.84 450.65 1112.67 453.51 1129.38 438.51 1121.49 423.51 1129.38 426.38 1112.67 414.24 1100.84 431.01 1098.4 438.51 1083.2"/><rect class="cls-7" x="1138.77" y="618.26" width="461.19" height="755.92"/><rect class="cls-3" x="1162.92" y="633.66" width="421.88" height="711.7"/><path class="cls-12" d="M3336.24,1237.23c0,33.86,20.39,88.49,68.48,86.73s58.73-53.83,60.59-68.52S3336.24,1237.23,3336.24,1237.23Z" transform="translate(-2027.09 -450)"/><path class="cls-13" d="M3316.2,1369.06c15.88-34.16,42.75-45.1,86.88-45.1,52.55,0,79.83,19,87.57,46.75C3396.55,1372,3316.2,1369.06,3316.2,1369.06Z" transform="translate(-2027.09 -450)"/><path class="cls-10" d="M3411.8,1351.22c-5,7.43-8.72,7.73-14.18,0-4.34-6.15-12.89-20.12-12.89-27.21v-70.76a12.93,12.93,0,0,1,12.89-12.89h14.18a12.93,12.93,0,0,1,12.89,12.89V1324C3424.69,1331.1,3416.31,1344.56,3411.8,1351.22Z" transform="translate(-2027.09 -450)"/><path class="cls-11" d="M3411.8,1240.37h-14.18a12.93,12.93,0,0,0-12.89,12.89v63.13c15.92,5.07,30.45-5,40-16.36v-46.77A12.93,12.93,0,0,0,3411.8,1240.37Z" transform="translate(-2027.09 -450)"/><ellipse class="cls-10" cx="1377.62" cy="791.08" rx="42.86" ry="58.4"/><path class="cls-12" d="M3428.27,1196.69c-5.09,18-16.25,17.75-31.82,23.65s-23,11.83-28.09,23.32c-6.49,14.65,2.95,57.37,2.95,57.37s-39.41-29.49-34.85-75.86,31.9-64.34,57.64-64.34,35.52,15.68,35.52,15.68,13.71,0.06,26.67,15.41c17.42,20.64,12.06,70.77,0,88.73s-20.11,23.59-19.84,22.79,11.26-42.05,5.36-67.55S3428.27,1196.69,3428.27,1196.69Z" transform="translate(-2027.09 -450)"/><path class="cls-3" d="M3420.82,1272.76s-7.21,9.35-16.11,9.35-16.11-9.35-16.11-9.35h32.23Z" transform="translate(-2027.09 -450)"/><path class="cls-7" d="M3455.73,1461.7H3347.49a12.59,12.59,0,1,1,0-25.17h108.24A12.59,12.59,0,1,1,3455.73,1461.7Z" transform="translate(-2027.09 -450)"/><path class="cls-7" d="M3475.55,1500.37H3327.68a12.59,12.59,0,0,1,0-25.17h147.88A12.59,12.59,0,0,1,3475.55,1500.37Z" transform="translate(-2027.09 -450)"/><path class="cls-7" d="M3581.46,1639.44h-359.7a7.3,7.3,0,0,1,0-14.61h359.7A7.3,7.3,0,0,1,3581.46,1639.44Z" transform="translate(-2027.09 -450)"/><path class="cls-7" d="M3581.46,1673.38h-359.7a7.3,7.3,0,0,1,0-14.61h359.7A7.3,7.3,0,0,1,3581.46,1673.38Z" transform="translate(-2027.09 -450)"/><path class="cls-7" d="M3581.46,1707.32h-359.7a7.3,7.3,0,0,1,0-14.61h359.7A7.3,7.3,0,0,1,3581.46,1707.32Z" transform="translate(-2027.09 -450)"/><path class="cls-7" d="M3531.16,1377.45H3272.07a13.05,13.05,0,0,1-13-13V1125.63a13.05,13.05,0,0,1,13-13h259.08a13.05,13.05,0,0,1,13,13v238.78A13.05,13.05,0,0,1,3531.16,1377.45ZM3272.07,1123.2a2.46,2.46,0,0,0-2.43,2.43v238.78a2.46,2.46,0,0,0,2.43,2.43h259.08a2.46,2.46,0,0,0,2.43-2.43V1125.63a2.46,2.46,0,0,0-2.43-2.43H3272.07Z" transform="translate(-2027.09 -450)"/><polygon class="cls-7" points="1282.37 1083.2 1289.87 1098.4 1306.64 1100.84 1294.51 1112.67 1297.37 1129.38 1282.37 1121.49 1267.37 1129.38 1270.23 1112.67 1258.1 1100.84 1274.87 1098.4 1282.37 1083.2"/><polygon class="cls-7" points="1343.81 1083.2 1351.31 1098.4 1368.08 1100.84 1355.94 1112.67 1358.81 1129.38 1343.81 1121.49 1328.81 1129.38 1331.67 1112.67 1319.53 1100.84 1336.31 1098.4 1343.81 1083.2"/><polygon class="cls-7" points="1405.24 1083.2 1412.75 1098.4 1429.52 1100.84 1417.38 1112.67 1420.25 1129.38 1405.24 1121.49 1390.24 1129.38 1393.11 1112.67 1380.97 1100.84 1397.74 1098.4 1405.24 1083.2"/><polygon class="cls-7" points="1466.68 1083.2 1474.18 1098.4 1490.96 1100.84 1478.82 1112.67 1481.68 1129.38 1466.68 1121.49 1451.68 1129.38 1454.55 1112.67 1442.41 1100.84 1459.18 1098.4 1466.68 1083.2"/><polygon class="cls-14" points="1190.62 1366.61 462.79 1366.61 514.27 621.07 1216.86 621.07 1190.62 1366.61"/><rect class="cls-7" x="539.24" y="479.98" width="629.91" height="1032.47"/><rect class="cls-3" x="572.23" y="501.02" width="576.22" height="972.08"/><path class="cls-15" d="M2833.72,1155.2c-0.4-1.21-10.49-59.11-11.7-81.63s36.19-25.74,36.19-25.74,30.56-16.49,52.68-8,37.17,22.65,47.22,40.34-8.84,72.83-8.84,72.83Z" transform="translate(-2027.09 -450)"/><path class="cls-16" d="M2764.39,1341.24c-0.14-1,2.58-23.74,2.68-24.66,5.09-48,64.24-61.48,123.26-61.48,69.35,0,116.39,12.69,123.9,62.55,0.22,1.46,4.22,24.31,4,25.84C2889.73,1345.26,2764.39,1341.24,2764.39,1341.24Z" transform="translate(-2027.09 -450)"/><path class="cls-10" d="M2902.25,1292.34c-6.87,10.14-11.91,10.56-19.37,0-5.93-8.4-25.73-27.56-25.73-37.24l8.13-96.56a17.66,17.66,0,0,1,17.61-17.61h19.37a17.66,17.66,0,0,1,17.61,17.61l3.78,96.56C2923.63,1264.78,2908.41,1283.25,2902.25,1292.34Z" transform="translate(-2027.09 -450)"/><path class="cls-11" d="M2902.25,1140.93h-19.37a17.66,17.66,0,0,0-17.61,17.61l-7.05,85.66c21.75,6.92,51.11-7.15,64.1-22.65l-2.46-63A17.66,17.66,0,0,0,2902.25,1140.93Z" transform="translate(-2027.09 -450)"/><path class="cls-17" d="M2826.1,1262.14l31,57.39s16.62-13.67,18.23-11-2.95,36.51-2.95,36.51,37,0.5,38.6-1.11-7.51-36.75-3.75-36.75,15,10.19,15,10.19l34.67-55.24-7.62-1.86-56.8,30.56L2831.81,1261Z" transform="translate(-2027.09 -450)"/><polygon class="cls-13" points="834.52 838.58 857.58 854.06 850.43 895.12 881.53 893.39 873.76 856.03 892.87 838.58 883.89 830.12 843.5 830.12 834.52 838.58"/><path class="cls-16" d="M2858.75,1234l-28.52,27.14s29.06,51.67,30.66,51.67,24.66-28.49,24.66-28.49l14.76-.26,23.31,24.46,27.09-47.92-27.63-29.28s-23.59,45.57-27.88,46.64-4.32,1.61-7.79-1.07S2858.75,1234,2858.75,1234Z" transform="translate(-2027.09 -450)"/><ellipse class="cls-10" cx="865.48" cy="691.91" rx="58.54" ry="79.77"/><ellipse class="cls-10" cx="2826.1" cy="1147.29" rx="15.41" ry="23.11" transform="translate(-2246 873.39) rotate(-25.41)"/><ellipse class="cls-10" cx="2956.38" cy="1147.29" rx="23.11" ry="15.41" transform="translate(-1375.41 2875.55) rotate(-64.59)"/><path class="cls-3" d="M2918.53,1174.64s-11.63,18.83-26,18.83-26-18.83-26-18.83h51.94Z" transform="translate(-2027.09 -450)"/><path class="cls-15" d="M2858.22,1087.65c24.13-16.89,35-14.07,53.08,13.67s39.81,28.23,39.81,28.23l2.82-28.77s-27-52.14-63.14-45.3-56.76,39.41-56.76,39.41-1.76,61,3.29,63.13,5.63-19.7,9.25-24.13-3.62-25.33,1.21-35S2858.22,1087.65,2858.22,1087.65Z" transform="translate(-2027.09 -450)"/><path class="cls-15" d="M2935.82,1119c8.42,9.22,5.23,45.84,9.65,45.44s6-35,4.83-38.6S2935.82,1119,2935.82,1119Z" transform="translate(-2027.09 -450)"/><path class="cls-7" d="M3022.78,1467.37h-268.9a17.19,17.19,0,1,1,0-34.38h268.9A17.19,17.19,0,1,1,3022.78,1467.37Z" transform="translate(-2027.09 -450)"/><path class="cls-7" d="M2989.32,1520.18h-202a17.19,17.19,0,1,1,0-34.38h202A17.19,17.19,0,0,1,2989.32,1520.18Z" transform="translate(-2027.09 -450)"/><path class="cls-7" d="M3134,1710.13h-491.3a10,10,0,1,1,0-19.95H3134A10,10,0,1,1,3134,1710.13Z" transform="translate(-2027.09 -450)"/><path class="cls-7" d="M3134,1756.49h-491.3a10,10,0,0,1,0-20H3134A10,10,0,1,1,3134,1756.49Z" transform="translate(-2027.09 -450)"/><path class="cls-7" d="M3134,1802.85h-491.3a10,10,0,0,1,0-20H3134A10,10,0,1,1,3134,1802.85Z" transform="translate(-2027.09 -450)"/><path class="cls-7" d="M3065.26,1350.35H2711.4a15.89,15.89,0,0,1-15.87-15.87V1008.34a15.89,15.89,0,0,1,15.87-15.87h353.87a15.89,15.89,0,0,1,15.87,15.87v326.14A15.89,15.89,0,0,1,3065.26,1350.35ZM2711.4,1003.08a5.27,5.27,0,0,0-5.26,5.26v326.14a5.27,5.27,0,0,0,5.26,5.26h353.87a5.27,5.27,0,0,0,5.26-5.26V1008.34a5.27,5.27,0,0,0-5.26-5.26H2711.4Z" transform="translate(-2027.09 -450)"/><polygon class="cls-7" points="692.75 1115.03 702.99 1135.79 725.9 1139.12 709.33 1155.28 713.24 1178.09 692.75 1167.32 672.26 1178.09 676.17 1155.28 659.6 1139.12 682.5 1135.79 692.75 1115.03"/><polygon class="cls-7" points="776.66 1115.03 786.91 1135.79 809.82 1139.12 793.24 1155.28 797.15 1178.09 776.66 1167.32 756.17 1178.09 760.09 1155.28 743.51 1139.12 766.42 1135.79 776.66 1115.03"/><polygon class="cls-7" points="860.58 1115.03 870.82 1135.79 893.73 1139.12 877.15 1155.28 881.07 1178.09 860.58 1167.32 840.09 1178.09 844 1155.28 827.42 1139.12 850.33 1135.79 860.58 1115.03"/><polygon class="cls-7" points="944.49 1115.03 954.74 1135.79 977.64 1139.12 961.07 1155.28 964.98 1178.09 944.49 1167.32 924 1178.09 927.91 1155.28 911.34 1139.12 934.25 1135.79 944.49 1115.03"/><polygon class="cls-7" points="1029.74 1115.03 1039.98 1135.79 1062.89 1139.12 1046.32 1155.28 1050.23 1178.09 1029.74 1167.32 1009.25 1178.09 1013.16 1155.28 996.58 1139.12 1019.49 1135.79 1029.74 1115.03"/><rect class="cls-18" x="1363.71" y="1448.49" width="825.91" height="30.78" rx="8.29" ry="8.29"/><path class="cls-10" d="M4416,1486c11,38.61-15.8,78.4-45.26,86.76s-50.49-17.88-61.45-56.49,4.05-76.69,33.52-85S4405.08,1447.41,4416,1486Z" transform="translate(-2027.09 -450)"/><path class="cls-10" d="M4250.83,2234.23s75.52,117.29,85.72,122.39,35.7,6.38,26.14,25.5-13.39,94.35-22.31,98.17-85.42,12.75-73.95,0,18.53-6.37,24.32-29.32,13.92-66.3,3.09-75.22-77.13-89.25-77.13-89.25Z" transform="translate(-2027.09 -450)"/><path class="cls-10" d="M3870.73,2284.6s-91.8,151.3-108.8,164.9-73.1,34-27.2,37.4,68-15.3,96.9-23.8,64.6-13.6,51-35.7-8-70.35,21.37-100.95S3870.73,2284.6,3870.73,2284.6Z" transform="translate(-2027.09 -450)"/><path class="cls-19" d="M4339.2,1933.75s-227.25-5.94-317.35,68c-52.7,79.9-180.19,315.65-190.1,341.63,6.8,6.8,45,19.07,62.05,17.37,50.15-59.8,116.44-111.49,142.8-158.4,32.49-57.8,42.5-86.7,95.2-91.8s171.7-22.1,207.4-22.1S4339.2,1933.75,4339.2,1933.75Z" transform="translate(-2027.09 -450)"/><polygon class="cls-18" points="2510.29 2037.31 2498.38 2037.31 2412.95 1680.92 2439.16 1680.92 2510.29 2037.31"/><polygon class="cls-18" points="2153.45 2037.31 2165.36 2037.31 2263.38 1668.32 2237.18 1668.32 2153.45 2037.31"/><path class="cls-2" d="M4468.67,1918.19L4336.55,1941s-175.58,1.61-255.83,16.56c-73,13.6-83.78,96.56,0,210.8,47.59,64.89,87.83,116.66,170.11,175,20.93-15.37,28.94-21.18,34.72-58.16-6-8.16-21.37-59.27-26.16-69.27-45.51-95.14-106.26-129.73-107.1-139.1,10.2-16.57,270.18,86.39,321.87,25.82C4523.51,2044.85,4468.67,1918.19,4468.67,1918.19Z" transform="translate(-2027.09 -450)"/><path class="cls-5" d="M4474.16,1619.07c-34.8-4.88-70.24,1.73-103.38,25.73-29,29.52-61.74,78.21-59.73,158.52,2.55,102-15.78,108.55,3.34,136.59,79.76,32.94,216.18,174.46,184.06,22.74-23.26-109.86,51-191.74-8.91-313.6C4484.66,1639.13,4478.57,1629.52,4474.16,1619.07Z" transform="translate(-2027.09 -450)"/><path class="cls-13" d="M4311,1841.7c-1.55,53.17-9.06,68.84-3.32,85.51,32.52,3.32,92,16.33,106.86,37.14,17,23.8,34,27.2,26.07,9.63s-28.9-42.5,3.4-128.07,47.6-143.37,15.87-202.87Z" transform="translate(-2027.09 -450)"/><path class="cls-10" d="M4474.16,1619.07c-21.43-50.72-26.69-107.72-26.69-107.72l-56.1,16.57s31.87,71.4,1.27,96.9a292.46,292.46,0,0,0-21.87,20C4403.92,1620.8,4439.36,1614.19,4474.16,1619.07Z" transform="translate(-2027.09 -450)"/><path class="cls-11" d="M4449.16,1524.87c-3.32-3-7.48-6.65-11.85-10.51l-45.76,13.52-0.1.25c1.11,2.53,12.76,29.72,14.29,55.88,13.64-8.27,28.57-21.76,45.64-45.32C4450.46,1533.46,4449.73,1528.8,4449.16,1524.87Z" transform="translate(-2027.09 -450)"/><path class="cls-10" d="M4434.72,1635c-57.78,20.21-51.37,81.07-104.54,170.84-27.52,46.46-53.08,45.77-53.08,45.77a1231.23,1231.23,0,0,1-142.6-9c-48.88-6-52,8.58-18,20.73,68.57,24.51,139.72,50.9,197.1,44.53s155.5-152.76,160.56-190.86C4481.15,1664.3,4463.81,1624.85,4434.72,1635Z" transform="translate(-2027.09 -450)"/><path class="cls-18" d="M4405,2145.77q-5.39,0-11-.14c-47.09-1.16-79.14-7.68-104.9-12.91-30.07-6.11-46.64-9.48-65.91-.27a14.85,14.85,0,0,1-12.81-26.8c28.25-13.5,51.91-8.69,84.64-2,24.61,5,55.24,11.23,99.71,12.33,49.77,1.24,80.12-6.14,95.5-23.2,13.7-15.2,17.71-40.73,12.62-80.36-1.74-13.56-3.49-24.84-5-34.8-4.34-28.08-7.21-46.63-3.66-75.3,3.3-26.63,12.12-62.1,32.54-130.87a14.85,14.85,0,0,1,28.47,8.46C4517,1908,4519,1920.51,4527.1,1973c1.57,10.13,3.34,21.61,5.13,35.55,6.28,48.87-.08,81.93-20,104C4491.68,2135.4,4458.35,2145.77,4405,2145.77Z" transform="translate(-2027.09 -450)"/><path class="cls-13" d="M3877,2412.12c-60.91,29.79-93.7,46.86-113.22,45.23-4.61-.38-8.43-0.86-11.64-1.35-21.72,12.84-56.4,28-17.38,30.9,45.9,3.4,68-15.3,96.9-23.8s64.6-13.6,51-35.7A46.5,46.5,0,0,1,3877,2412.12Z" transform="translate(-2027.09 -450)"/><path class="cls-13" d="M4343.19,2359.11c-1.49,48.23-8.12,96-37.61,105a49.57,49.57,0,0,1-21.25,1.9c-4.64,5.74-10.3,5.8-17.9,14.24-11.47,12.75,65,3.83,73.95,0s12.75-79,22.31-98.17C4370.54,2366.41,4354.73,2362.75,4343.19,2359.11Z" transform="translate(-2027.09 -450)"/><path class="cls-2" d="M4108.56,1902.7H3915a14.85,14.85,0,0,1-13.47-8.59l-78.2-168.3a14.85,14.85,0,1,1,26.94-12.52L3924.53,1873h184A14.85,14.85,0,1,1,4108.56,1902.7Z" transform="translate(-2027.09 -450)"/><path class="cls-10" d="M4149,1844.29c-39.1-.57-77.88-23.87-97.15-20.47s-82.17,47-74.23,48.73,57.8-24.15,59.5-24.54,12.47,17.9,39.1,24.62,0.19-20,82.75,5C4212.69,1893.82,4149,1844.29,4149,1844.29Z" transform="translate(-2027.09 -450)"/><path class="cls-20" d="M4468.4,1572.78l5.75,46.29s-50.6,3-75.78,17.18-62.34,55.1-62.34,55.1l30.36-52.26,4.37-33.43Z" transform="translate(-2027.09 -450)"/><path class="cls-20" d="M4446.87,1629.45c-37.58-7-55,26.63-79.33,81.6s-66,121.73-74.23,130.33-139.4,0-139.4,0-4,38,0,42.5,26.63,4,26.63,4,9.07,7.24,17.57,13,80.47,16.5,113.9,14.8,64-4.53,68.57-9.63,95.77-145.63,101.43-196.07S4466.05,1633,4446.87,1629.45Z" transform="translate(-2027.09 -450)"/><path class="cls-21" d="M4336,1398.25c-71.08,3.4-59.93,110.33-59.93,110.33s18.46,5.7,57.14-.68c-3-11.47-1.7-40.8-1.7-40.8s4.49,23.8,10.2,38.25c8.18,3.75,17.43.42,33.15-3.37,8.08,34,30.89,48.33,46.52,53.24,17.26,5.43,35.54,11.9,55.94,1.7s9.18-114.47-1.65-135.43c-16.26-31.47-43.29-59.64-90-44.77C4362.22,1384.18,4336,1398.25,4336,1398.25Z" transform="translate(-2027.09 -450)"/><path class="cls-21" d="M4459.65,1525.24l29.06,42.44s-32.21,80.47,61.46,116.92c73.36,28.55,64.72,78.86,31.57,129.45s19.83,94.77,19.83,94.77,8.08-56,79.35-66.62c97.18-14.42,124.7-144.9,52.11-210.14-60.07-54-78.34-9.28-119-57.73s-117.41-15.72-117.41-15.72l-28.13-41Z" transform="translate(-2027.09 -450)"/><path class="cls-21" d="M4766.47,1763.5a2.59,2.59,0,0,1-2.27-3.83c24.44-44.66,4.5-98.76-5.53-113.42-1.06-1.55-2.07-3.13-3.14-4.79-9.85-15.38-22.12-34.52-87.55-46.3-15.76-2.84-28.52-12.2-42-22.12-27.9-20.48-59.53-43.7-128.25-12.08a2.58,2.58,0,1,1-2.16-4.69c71.48-32.9,104.41-8.73,133.47,12.6,13,9.55,25.3,18.58,39.89,21.2,67.66,12.18,80.59,32.38,91,48.6,1,1.63,2,3.17,3.05,4.66,10.51,15.36,31.4,72,5.8,118.82A2.59,2.59,0,0,1,4766.47,1763.5Z" transform="translate(-2027.09 -450)"/><path class="cls-21" d="M4444.13,1568.73a102.21,102.21,0,0,1-15.09-1.21c-24.87-3.73-58.23-17.86-60.84-97.21a2.58,2.58,0,0,1,5.17-.17c1.08,32.71,7.57,56.91,19.29,71.93,8.9,11.41,20.71,17.87,37.16,20.34,23,3.45,38.27-.8,45.33-12.63a2.59,2.59,0,0,1,4.44,2.65C4473.09,1563.27,4461.2,1568.73,4444.13,1568.73Z" transform="translate(-2027.09 -450)"/><polygon class="cls-18" points="1450.35 2037.31 1469.45 2037.31 1543.74 1469.45 1501.73 1469.45 1450.35 2037.31"/><polygon class="cls-18" points="2098.36 2037.31 2079.27 2037.31 2004.98 1469.45 2046.99 1469.45 2098.36 2037.31"/><path class="cls-22" d="M4874.35,2008c33,30.17,18.67,60.33-5.75,116.36s-28.73,262.88-28.73,262.88l20.11-2.87s-2.87-212.6,24.42-270.06,38.79-86.19,63.21-67.52S4874.35,2008,4874.35,2008Z" transform="translate(-2027.09 -450)"/><path class="cls-23" d="M4856.2,1968.92c4-17.88,27.84-37.22,59.71-53.63-4.74,26.37-19.93,69.48-4.21,78.32,21.2,11.93,2.07-48.27,10.25-81.35a393.67,393.67,0,0,1,99.06-32.49l-0.13.36c-18.67,47.4-43.1,66.08-33,73.26,7.57,5.4,32.21-49.35,64.74-77.42,24.42-1.3,45.09,2,57.31,11.69,18.89,15,31.57,28.22,12.57,73.77-10.86,7.76-24.91,13.32-41.25,15-43.09,4.31-63.21,5.75-33,20.11,14.77,7,39.53-.4,59.61-4.92-6.51,12-14.52,25.58-24.25,41.05a152.48,152.48,0,0,1-20.19,25.69c-13.89,2.66-26,2.69-32.41-.06-20.11-8.62-71.83-35.91-84.75-24.42-12.65,11.25,95.78,18.37,88.26,47-52.56,30.28-112.7,15.87-123.33-11.93C4896.83,2031.52,4844.11,2022.73,4856.2,1968.92Z" transform="translate(-2027.09 -450)"/><path class="cls-22" d="M4964.84,2173.18c-57.46-43.1-116.36-2.87-146.52,43.09s-8.62,149.4-8.62,149.4,11.49,0,11.49-4.31-31.6-122.1,43.1-175.25c46.73-33.25,80.44-17.24,84.75-1.44s-18.67,44.53-18.67,44.53Z" transform="translate(-2027.09 -450)"/><path class="cls-23" d="M4832.69,2084.59c57.46,0,76.14,89.06,60.33,140.78s-37.35,148-37.35,148L4841.31,2359s54.59-135,41.66-195.37-44.53-70.39-50.28-70.39S4832.69,2084.59,4832.69,2084.59Z" transform="translate(-2027.09 -450)"/><path class="cls-22" d="M4880.88,2225.77a41.63,41.63,0,0,1,15.13-12.71,113.32,113.32,0,0,1-3,12.31c-7.2,23.56-15.59,56.37-22.59,85.1l-3.13-18.1c-0.36-2.07-.64-4.31-0.83-6.68A556.89,556.89,0,0,0,4880.88,2225.77Z" transform="translate(-2027.09 -450)"/><path class="cls-23" d="M4896.59,2226.2c109.17-46,51.66-109,147.9-67.39,6.78,2.93,15,10.33,23.31,20.54a71.66,71.66,0,0,1-30.5,2.45c-28.73-4.31-18.67,18.67,28.73,24.42a106.43,106.43,0,0,1,22.21,4.69c22.58,43.38,32.76,100.45-15,120.29-9.42,3.91-21.06,6.14-34,7-14.75-11.72,3.6-79.55-19.14-70.19-21.83,9,6.84,58.15,2.91,70.53-21.55-.39-45.4-3.91-68.2-9.56-9-5.06-15.91-11.84-18-20.75-7.18-30.17,40.22-48.84,41.66-74.7,1.32-23.77-17.37,52.3-66.91,63.49C4866.72,2276.08,4845.56,2247.69,4896.59,2226.2Z" transform="translate(-2027.09 -450)"/><path class="cls-23" d="M4818.8,2144.92c11.49-24.42-18.67-30.17-17.24-11.49,1.27,16.55,1.41,56.77-15.56,67.72-29.27-3.17-69.09-15-99.19-32.94a12.2,12.2,0,0,1,1.27-7.49c12.93-25.86,96.25-47.4,70.39-56-20.59-6.86-56.68,33.65-85.75,54.06-17.46-13.25-29.16-29-29.16-46.68,0-23.87,29-50.88,66.5-63.79,16.88,1.7,32.55,10.93,57,24.8,36.17,20.5,27.81-12.64-6.39-32.31,29.53,1.53,59,14.14,80.68,44.28,0,0-2.05,12.88,11.58,32.81,37.19,54.36-5.73,86.1-57,84C4798.81,2187.58,4810.86,2161.8,4818.8,2144.92Z" transform="translate(-2027.09 -450)"/><path class="cls-22" d="M4961.39,2170.74c28.09,21.71,59.3,47.09,97.61,64.33s30.65,73.42,30.65,73.42,5.75-48.52-26.18-65.12-53-36.39-77.26-40.22-37.67-7.66-37.67-7.66,7.66-15.32,3.19-21.07S4961.39,2170.74,4961.39,2170.74Z" transform="translate(-2027.09 -450)"/><path class="cls-22" d="M5099.86,1915.83c-102.8,27.45-178.14,93.22-192.18,109.18s-14,20.43-14,20.43l10.85,20.43,5.11-2.55s-8.3-17.24,13.41-39.59c37.44-38.54,83-69,114.29-82.36S5099.86,1915.83,5099.86,1915.83Z" transform="translate(-2027.09 -450)"/><path class="cls-2" d="M4813.21,2344h45.07a47.67,47.67,0,0,1,47.67,47.67v93.13a0,0,0,0,1,0,0h-140.4a0,0,0,0,1,0,0v-93.13A47.66,47.66,0,0,1,4813.21,2344Z" transform="translate(7644.41 4378.84) rotate(180)"/><rect class="cls-3" x="2738.46" y="1910.15" width="140.4" height="9.88"/><rect class="cls-3" x="2738.46" y="1928.17" width="140.4" height="5.81"/><rect class="cls-2" x="2242.07" y="2308.77" width="59.12" height="53.21" rx="12.08" ry="12.08" transform="translate(2516.18 4220.75) rotate(180)"/><rect class="cls-2" x="2134.58" y="2308.77" width="59.12" height="53.21" rx="12.08" ry="12.08" transform="translate(2301.2 4220.75) rotate(180)"/><rect class="cls-2" x="2027.09" y="2308.77" width="59.12" height="53.21" rx="12.08" ry="12.08" transform="translate(2086.21 4220.75) rotate(180)"/><path class="cls-2" d="M5054.92,1327.05h35a12.08,12.08,0,0,1,12.08,12.08v29.06a12.08,12.08,0,0,1-12.08,12.08h-35a12.08,12.08,0,0,1-12.08-12.08v-29.06A12.07,12.07,0,0,1,5054.92,1327.05Z" transform="translate(4398.98 -4168.76) rotate(90)"/><path class="cls-2" d="M5054.92,1434.54h35a12.08,12.08,0,0,1,12.08,12.08v29.06a12.08,12.08,0,0,1-12.08,12.08h-35a12.08,12.08,0,0,1-12.08-12.08v-29.06A12.07,12.07,0,0,1,5054.92,1434.54Z" transform="translate(4506.47 -4061.26) rotate(90)"/><path class="cls-2" d="M5054.92,1542h35a12.08,12.08,0,0,1,12.08,12.08v29.06a12.08,12.08,0,0,1-12.08,12.08h-35a12.08,12.08,0,0,1-12.08-12.08v-29.06A12.07,12.07,0,0,1,5054.92,1542Z" transform="translate(4613.97 -3953.77) rotate(90)"/></svg>