<svg id="Background_Complete" data-name="Background Complete" xmlns="http://www.w3.org/2000/svg" viewBox="0 0 683.6 411.59"><defs><style>.cls-1{fill:#fafafa;}.cls-2{fill:#e0e0e0;}.cls-3{fill:#e8505b;}.cls-4{opacity:0.3;}.cls-5{fill:#f5f5f5;}.cls-6{fill:#ebebeb;}.cls-7{fill:#fff;}.cls-8{fill:#263238;}.cls-9{fill:#455a64;}.cls-10{fill:#ffbe9d;}.cls-11{fill:#eb996e;}.cls-12{fill:#b78876;}.cls-13{fill:#aa6550;}</style></defs><title>CX_deployer-step-3</title><path class="cls-1" d="M441.42,419.33v25.36h4v2.75h-4v17h-74.3V449h5.5V445.6h-5.5v-5h-2.45v-2.29h2.91V419.33h73.84Z" transform="translate(-35.02 -53.47)"/><polygon class="cls-2" points="351.83 365.93 351.83 410.65 332.1 410.65 332.1 395.21 337.61 395.21 337.61 392.13 332.1 392.23 332.1 387.19 329.61 387.19 329.65 384.58 332.56 384.51 332.56 365.86 351.83 365.93"/><ellipse class="cls-2" cx="380.46" cy="393.6" rx="30.03" ry="0.28"/><ellipse class="cls-2" cx="380.46" cy="391.02" rx="30.03" ry="0.28"/><ellipse class="cls-2" cx="376.6" cy="384.09" rx="30.03" ry="0.28"/><ellipse class="cls-2" cx="376.23" cy="402.98" rx="30.03" ry="0.28"/><path class="cls-3" d="M346.48,402.85l-1.63,30.05a2,2,0,0,1-2,1.92l-54.08.4a2,2,0,0,1-2-2l-0.17-23.39a2,2,0,0,1,2-2l33.26,0a2,2,0,0,0,1.43-.59L329,401.4a2,2,0,0,1,1.42-.59l14-.1A2,2,0,0,1,346.48,402.85Z" transform="translate(-35.02 -53.47)"/><g class="cls-4"><path d="M346.48,402.85l-1.63,30.05a2,2,0,0,1-2,1.92l-54.08.4a2,2,0,0,1-2-2l-0.17-23.39a2,2,0,0,1,2-2l33.26,0a2,2,0,0,0,1.43-.59L329,401.4a2,2,0,0,1,1.42-.59l14-.1A2,2,0,0,1,346.48,402.85Z" transform="translate(-35.02 -53.47)"/></g><rect class="cls-5" x="286.64" y="404.01" width="59.09" height="35.31" transform="translate(600.42 787.53) rotate(179.58)"/><path class="cls-6" d="M350.32,406.93l-4.24,36.85a1.3,1.3,0,0,1-1.29,1.16l-57.58.42a1.3,1.3,0,0,1-1.31-1.19l-3.17-36.8A1.3,1.3,0,0,1,284,406l65-.48A1.3,1.3,0,0,1,350.32,406.93Z" transform="translate(-35.02 -53.47)"/><path class="cls-2" d="M362.39,397.18l-1.63,30.05a2,2,0,0,1-2,1.92l-54.08.4a2,2,0,0,1-2-2l-0.17-23.39a2,2,0,0,1,2-2l33.26,0a2,2,0,0,0,1.43-.59l5.74-5.74a2,2,0,0,1,1.42-.59l14-.1A2,2,0,0,1,362.39,397.18Z" transform="translate(-35.02 -53.47)"/><rect class="cls-5" x="302.55" y="398.34" width="59.09" height="35.31" transform="translate(632.2 776.07) rotate(179.58)"/><path class="cls-2" d="M366.22,401.26L362,438.11a1.3,1.3,0,0,1-1.29,1.16l-57.58.42a1.3,1.3,0,0,1-1.31-1.19l-3.17-36.8a1.3,1.3,0,0,1,1.29-1.42l65-.48A1.3,1.3,0,0,1,366.22,401.26Z" transform="translate(-35.02 -53.47)"/><path class="cls-6" d="M380.32,404.21l-1.63,30.05a2,2,0,0,1-2,1.92l-54.08.4a2,2,0,0,1-2-2l-0.17-23.39a2,2,0,0,1,2-2l33.26,0a2,2,0,0,0,1.43-.59l5.74-5.74a2,2,0,0,1,1.42-.59l14-.1A2,2,0,0,1,380.32,404.21Z" transform="translate(-35.02 -53.47)"/><rect class="cls-1" x="320.48" y="405.38" width="59.09" height="35.31" transform="translate(668.11 790.02) rotate(179.58)"/><path class="cls-6" d="M384.15,408.3l-4.24,36.85a1.3,1.3,0,0,1-1.29,1.16l-57.58.42a1.3,1.3,0,0,1-1.31-1.19l-3.17-36.8a1.3,1.3,0,0,1,1.29-1.42l65-.48A1.3,1.3,0,0,1,384.15,408.3Z" transform="translate(-35.02 -53.47)"/><path class="cls-5" d="M316.56,413.31v51.12h73.74V413.31H316.56Zm24.07,9.2a3.77,3.77,0,0,1,3.77-3.77h18.05a3.77,3.77,0,1,1,0,7.55H344.41A3.77,3.77,0,0,1,340.63,422.5Z" transform="translate(-35.02 -53.47)"/><path class="cls-2" d="M276.81,413.31v51.12h39.75V413.31H276.81Z" transform="translate(-35.02 -53.47)"/><rect class="cls-2" x="24.36" y="56.35" width="101.45" height="105.75"/><rect class="cls-1" x="17.49" y="56.35" width="101.45" height="105.75"/><path class="cls-2" d="M154,215.6H52.48V109.79H154V215.6Zm-101.45-.06H153.93V109.85H52.54V215.54Z" transform="translate(-35.02 -53.47)"/><rect class="cls-1" x="31.13" y="70.56" width="74.17" height="77.32"/><path class="cls-2" d="M66.15,201.87A12.11,12.11,0,0,1,64.32,204c-1.18,1.25-2.85,2.94-4.72,4.78s-3.58,3.48-4.85,4.64a11.79,11.79,0,0,1-2.14,1.79,11.83,11.83,0,0,1,1.82-2.12c1.18-1.25,2.85-2.95,4.73-4.79s3.59-3.48,4.85-4.65A11.6,11.6,0,0,1,66.15,201.87Z" transform="translate(-35.02 -53.47)"/><path class="cls-2" d="M140.32,201.68a12.11,12.11,0,0,1,2.13,1.83c1.25,1.18,2.94,2.85,4.78,4.72s3.48,3.58,4.64,4.85a11.8,11.8,0,0,1,1.79,2.14,11.83,11.83,0,0,1-2.12-1.82c-1.25-1.18-2.95-2.85-4.79-4.73s-3.48-3.59-4.65-4.85A11.6,11.6,0,0,1,140.32,201.68Z" transform="translate(-35.02 -53.47)"/><path class="cls-2" d="M140.12,124.24a12.11,12.11,0,0,1,1.83-2.13c1.18-1.25,2.85-2.94,4.71-4.78s3.58-3.48,4.85-4.64a11.81,11.81,0,0,1,2.14-1.79,11.82,11.82,0,0,1-1.82,2.12c-1.18,1.25-2.85,2.95-4.73,4.79s-3.59,3.48-4.85,4.65A11.6,11.6,0,0,1,140.12,124.24Z" transform="translate(-35.02 -53.47)"/><path class="cls-2" d="M65.94,124.43a12.11,12.11,0,0,1-2.13-1.83c-1.25-1.18-2.94-2.85-4.78-4.71s-3.48-3.58-4.64-4.85a11.8,11.8,0,0,1-1.79-2.14,11.83,11.83,0,0,1,2.12,1.82c1.25,1.18,2.95,2.85,4.79,4.73S63,121,64.17,122.3A11.6,11.6,0,0,1,65.94,124.43Z" transform="translate(-35.02 -53.47)"/><path class="cls-2" d="M140.12,201.36a3.54,3.54,0,0,1,0-.38l0-1.08,0-4.17c0-3.66,0-9-.08-15.76L139.83,124l0.29,0.29-74,0h0l0.33-.33c0,28.38,0,54.93,0,77.32l-0.28-.28,53.56,0.14,15,0.07,4,0,1,0,0.36,0-0.33,0-1,0-3.93,0-15,.07-53.74.14H65.87v-0.28c0-22.39,0-48.94,0-77.32v-0.33h0.34l74,0h0.29V124c-0.06,23.17-.11,42.53-0.15,56.12,0,6.74-.06,12-0.08,15.69l0,4.12,0,1A2.58,2.58,0,0,1,140.12,201.36Z" transform="translate(-35.02 -53.47)"/><rect class="cls-6" x="55.84" y="96.85" width="24.75" height="24.75"/><rect class="cls-2" x="665.63" y="116.08" width="8.57" height="42.66" transform="translate(-35.74 -49.88) rotate(-0.31)"/><rect class="cls-6" x="591.32" y="116.23" width="22.2" height="23.55" transform="translate(-35.69 -50.25) rotate(-0.31)"/><rect class="cls-5" x="613.41" y="116.11" width="22.2" height="23.55" transform="translate(-35.69 -50.13) rotate(-0.31)"/><path class="cls-2" d="M591.29,122.79q22.13,0.18,44.29-.2a0.24,0.24,0,0,0,0-.47c-14.75-.08-29.54,0-44.29.27a0.2,0.2,0,0,0,0,.4h0Z" transform="translate(-35.02 -53.47)"/><rect class="cls-6" x="577.46" y="139.43" width="40.33" height="19.19" transform="translate(-35.81 -50.27) rotate(-0.31)"/><rect class="cls-5" x="617.61" y="139.22" width="40.33" height="19.19" transform="translate(-35.81 -50.05) rotate(-0.31)"/><path class="cls-2" d="M577.44,144.88c26.79,0.3,53.68,0,80.47-.4a0.24,0.24,0,0,0,0-.47c-26.8-.14-53.68-0.13-80.47.46a0.2,0.2,0,0,0,0,.4h0Z" transform="translate(-35.02 -53.47)"/><rect class="cls-2" x="527.34" y="105.26" width="156.26" height="6.88"/><rect class="cls-2" x="552.92" y="108.56" width="6.34" height="23.46"/><rect class="cls-2" x="647.62" y="108.56" width="6.34" height="23.46"/><rect class="cls-6" x="674.04" y="100.17" width="8.57" height="58.67" transform="translate(-35.7 -49.84) rotate(-0.31)"/><rect class="cls-5" x="682.66" y="111.11" width="13.32" height="47.54" transform="matrix(1, -0.01, 0.01, 1, -35.73, -49.77)"/><ellipse class="cls-2" cx="654.08" cy="66.76" rx="6.66" ry="0.23"/><ellipse class="cls-2" cx="654.08" cy="64.76" rx="6.66" ry="0.23"/><ellipse class="cls-2" cx="654.08" cy="97.99" rx="6.66" ry="0.23"/><ellipse class="cls-2" cx="654.08" cy="95.99" rx="6.66" ry="0.23"/><ellipse class="cls-2" cx="654.3" cy="80.92" rx="0.23" ry="10.71"/><rect class="cls-6" x="660.89" y="69.27" width="14.5" height="35.88"/><path class="cls-1" d="M703.56,149.33a3.11,3.11,0,0,1-3.24-3.23,2.8,2.8,0,0,1,1.17-2.42l0.33,0.45a2.33,2.33,0,0,0-1,2,2.69,2.69,0,0,0,5.38,0,2.33,2.33,0,0,0-1-2l0.33-.45a2.83,2.83,0,0,1,1.17,2.42A3.12,3.12,0,0,1,703.56,149.33Z" transform="translate(-35.02 -53.47)"/><path class="cls-1" d="M706,142.79l-0.49-.28a3.71,3.71,0,0,0,.77-2.3c0-1.35-.48-1.88-1.2-1.88-1.86,0-.49,4.23-3,4.23-1,0-1.75-.81-1.75-2.42a3.92,3.92,0,0,1,.62-2.19l0.49,0.28a3.28,3.28,0,0,0-.57,1.92c0,1.25.51,1.8,1.2,1.8,1.92,0,.56-4.23,3-4.23,1,0,1.75.89,1.75,2.52A4,4,0,0,1,706,142.79Z" transform="translate(-35.02 -53.47)"/><path class="cls-1" d="M706,136.94l-0.49-.28a3.71,3.71,0,0,0,.77-2.3c0-1.34-.48-1.88-1.2-1.88-1.86,0-.49,4.23-3,4.23-1,0-1.75-.81-1.75-2.42a3.92,3.92,0,0,1,.62-2.19l0.49,0.28a3.29,3.29,0,0,0-.57,1.92c0,1.25.51,1.8,1.2,1.8,1.92,0,.56-4.23,3-4.23,1,0,1.75.89,1.75,2.52A4,4,0,0,1,706,136.94Z" transform="translate(-35.02 -53.47)"/><circle class="cls-2" cx="643.03" cy="56.7" r="2.46"/><rect class="cls-2" x="642.26" y="63.47" width="1.52" height="34.9"/><rect class="cls-6" x="560.11" y="310.17" width="72.57" height="5.63"/><rect class="cls-2" x="612.75" y="310.17" width="19.93" height="5.63"/><path class="cls-5" d="M585.92,369.28v25.36h-4v2.75h4v17h74.3V398.91h-5.5v-3.36h5.5v-5h2.45v-2.29h-2.9V369.28H585.92Z" transform="translate(-35.02 -53.47)"/><polygon class="cls-2" points="605.47 315.88 605.47 360.6 625.2 360.6 625.2 345.16 619.7 345.16 619.7 342.08 625.2 342.08 625.2 337.03 627.65 337.03 627.65 334.45 624.74 334.45 624.74 315.8 605.47 315.88"/><ellipse class="cls-2" cx="576.85" cy="343.55" rx="30.03" ry="0.28"/><ellipse class="cls-2" cx="576.85" cy="340.97" rx="30.03" ry="0.28"/><ellipse class="cls-2" cx="580.71" cy="334.04" rx="30.03" ry="0.28"/><ellipse class="cls-2" cx="581.08" cy="352.93" rx="30.03" ry="0.28"/><path class="cls-5" d="M594.35,419.73v25.36h-4v2.75h4v17h74.3V449.36h-5.5V446h5.5v-5h2.45v-2.29h-2.9V419.73H594.35Z" transform="translate(-35.02 -53.47)"/><polygon class="cls-2" points="613.9 366.33 613.9 411.05 633.63 411.05 633.63 395.61 628.13 395.61 628.13 392.53 633.63 392.63 633.63 387.59 636.13 387.59 636.08 384.98 633.17 384.91 633.17 366.25 613.9 366.33"/><ellipse class="cls-2" cx="585.28" cy="394" rx="30.03" ry="0.28"/><ellipse class="cls-2" cx="585.28" cy="391.42" rx="30.03" ry="0.28"/><ellipse class="cls-2" cx="589.13" cy="384.49" rx="30.03" ry="0.28"/><ellipse class="cls-2" cx="589.51" cy="403.38" rx="30.03" ry="0.28"/><path class="cls-5" d="M593.27,318.57v25.36h-4v2.75h4v17h74.3V348.2h-5.5v-3.36h5.5v-5H670V337.5h-2.9V318.57H593.27Z" transform="translate(-35.02 -53.47)"/><polygon class="cls-2" points="612.82 265.17 612.82 309.89 632.55 309.89 632.55 294.45 627.05 294.45 627.05 291.37 632.55 291.47 632.55 286.43 635.05 286.43 635 283.82 632.09 283.75 632.09 265.1 612.82 265.17"/><ellipse class="cls-2" cx="584.2" cy="292.84" rx="30.03" ry="0.28"/><ellipse class="cls-2" cx="584.2" cy="290.26" rx="30.03" ry="0.28"/><ellipse class="cls-2" cx="588.06" cy="283.33" rx="30.03" ry="0.28"/><ellipse class="cls-2" cx="588.43" cy="302.22" rx="30.03" ry="0.28"/><rect class="cls-6" x="555.25" y="360.62" width="72.57" height="5.63"/><rect class="cls-2" x="607.89" y="360.62" width="19.93" height="5.63"/><rect class="cls-7" x="105.47" y="0.26" width="488.22" height="294.49"/><path class="cls-8" d="M628.71,348.22c0-1.64-.08-114.06-0.2-294.49l0.2,0.2L140.52,54h0l0.26-.26c0,104.33,0,203.89,0,294.49l-0.24-.24,488.22,0.24-488.22.24h-0.24v-0.24c0-90.6,0-190.16,0-294.49V53.47h0.3l488.18,0.06h0.2v0.2C628.79,234.16,628.71,346.58,628.71,348.22Z" transform="translate(-35.02 -53.47)"/><path class="cls-2" d="M204.36,103.69s-2.63,24,.75,37.17l32.09-1.4s-6.88-23.69-2.65-34.19Z" transform="translate(-35.02 -53.47)"/><path class="cls-3" d="M204.12,103.71s0.22,25.93,1.54,33.84L238.18,136s-2.86-25.49-1.76-32.3h-32.3Z" transform="translate(-35.02 -53.47)"/><ellipse class="cls-7" cx="220.61" cy="115.25" rx="10.93" ry="0.26" transform="translate(-41.54 -40.02) rotate(-3.44)"/><ellipse class="cls-7" cx="220.62" cy="120.75" rx="10.93" ry="0.26" transform="translate(-41.87 -40.01) rotate(-3.44)"/><ellipse class="cls-7" cx="219.79" cy="125.86" rx="6.23" ry="0.26" transform="translate(-42.18 -40.05) rotate(-3.44)"/><path class="cls-3" d="M203.56,142.48s0.22,25.93,1.54,33.84l32.52-1.54s-2.86-25.49-1.76-32.3h-32.3Z" transform="translate(-35.02 -53.47)"/><ellipse class="cls-7" cx="220.05" cy="154.03" rx="10.93" ry="0.26" transform="translate(-43.87 -39.98) rotate(-3.44)"/><ellipse class="cls-7" cx="220.06" cy="159.52" rx="10.93" ry="0.26" transform="translate(-44.2 -39.97) rotate(-3.44)"/><ellipse class="cls-7" cx="219.23" cy="164.63" rx="6.23" ry="0.26" transform="translate(-44.51 -40.01) rotate(-3.44)"/><path class="cls-8" d="M203.56,186.4s0.22,25.93,1.54,33.84l32.52-1.54s-2.86-25.49-1.76-32.3h-32.3Z" transform="translate(-35.02 -53.47)"/><ellipse class="cls-7" cx="220.05" cy="197.94" rx="10.93" ry="0.26" transform="translate(-46.51 -39.9) rotate(-3.44)"/><ellipse class="cls-7" cx="220.06" cy="203.43" rx="10.93" ry="0.26" transform="translate(-46.84 -39.89) rotate(-3.44)"/><ellipse class="cls-7" cx="219.23" cy="208.54" rx="6.23" ry="0.26" transform="translate(-47.14 -39.93) rotate(-3.44)"/><path class="cls-9" d="M199.77,237.76s0.22,25.93,1.54,33.84l32.52-1.54s-2.86-25.49-1.76-32.3h-32.3Z" transform="translate(-35.02 -53.47)"/><ellipse class="cls-7" cx="216.26" cy="249.31" rx="10.93" ry="0.26" transform="translate(-49.6 -40.04) rotate(-3.44)"/><ellipse class="cls-7" cx="216.27" cy="254.8" rx="10.93" ry="0.26" transform="translate(-49.93 -40.03) rotate(-3.44)"/><ellipse class="cls-7" cx="215.43" cy="259.91" rx="6.23" ry="0.26" transform="translate(-50.23 -40.07) rotate(-3.44)"/><path class="cls-8" d="M242.88,238s0.22,25.93,1.54,33.84l32.52-1.54s-2.86-25.49-1.76-32.3h-32.3Z" transform="translate(-35.02 -53.47)"/><ellipse class="cls-7" cx="259.37" cy="249.53" rx="10.93" ry="0.26" transform="translate(-49.53 -37.45) rotate(-3.44)"/><ellipse class="cls-7" cx="259.37" cy="255.02" rx="10.93" ry="0.26" transform="translate(-49.86 -37.44) rotate(-3.44)"/><ellipse class="cls-7" cx="258.54" cy="260.13" rx="6.23" ry="0.26" transform="translate(-50.17 -37.48) rotate(-3.44)"/><path class="cls-3" d="M278.94,239.84s0.22,25.93,1.54,33.84L313,272.15s-2.86-25.49-1.76-32.3h-32.3Z" transform="translate(-35.02 -53.47)"/><ellipse class="cls-7" cx="295.43" cy="251.39" rx="10.93" ry="0.26" transform="translate(-49.58 -35.28) rotate(-3.44)"/><ellipse class="cls-7" cx="295.43" cy="256.88" rx="10.93" ry="0.26" transform="translate(-49.91 -35.27) rotate(-3.44)"/><ellipse class="cls-7" cx="294.6" cy="261.99" rx="6.23" ry="0.26" transform="translate(-50.22 -35.31) rotate(-3.44)"/><path class="cls-9" d="M236.8,284.18S237,310.11,238.34,318l32.52-1.54S268,291,269.1,284.18H236.8Z" transform="translate(-35.02 -53.47)"/><ellipse class="cls-7" cx="253.29" cy="295.73" rx="10.93" ry="0.26" transform="translate(-52.32 -37.73) rotate(-3.44)"/><ellipse class="cls-7" cx="253.3" cy="301.22" rx="10.93" ry="0.26" transform="translate(-52.65 -37.72) rotate(-3.44)"/><ellipse class="cls-7" cx="252.47" cy="306.33" rx="6.23" ry="0.26" transform="translate(-52.96 -37.76) rotate(-3.44)"/><path class="cls-8" d="M341.18,224.63s0.22,25.93,1.54,33.84l32.52-1.54s-2.86-25.49-1.76-32.3h-32.3Z" transform="translate(-35.02 -53.47)"/><ellipse class="cls-7" cx="357.67" cy="236.17" rx="10.93" ry="0.26" transform="translate(-48.55 -31.57) rotate(-3.44)"/><ellipse class="cls-7" cx="357.68" cy="241.67" rx="10.93" ry="0.26" transform="translate(-48.88 -31.56) rotate(-3.44)"/><ellipse class="cls-7" cx="356.84" cy="246.78" rx="6.23" ry="0.26" transform="translate(-49.19 -31.6) rotate(-3.44)"/><path class="cls-9" d="M411.78,285.49s0.22,25.93,1.54,33.84l32.52-1.54s-2.86-25.49-1.76-32.3h-32.3Z" transform="translate(-35.02 -53.47)"/><ellipse class="cls-7" cx="428.27" cy="297.04" rx="10.93" ry="0.26" transform="translate(-52.08 -27.22) rotate(-3.44)"/><ellipse class="cls-7" cx="428.28" cy="302.53" rx="10.93" ry="0.26" transform="translate(-52.41 -27.21) rotate(-3.44)"/><ellipse class="cls-7" cx="427.45" cy="307.64" rx="6.23" ry="0.26" transform="translate(-52.72 -27.25) rotate(-3.44)"/><path class="cls-9" d="M451.92,286s0.22,25.93,1.54,33.84L486,318.35s-2.86-25.49-1.76-32.3h-32.3Z" transform="translate(-35.02 -53.47)"/><ellipse class="cls-7" cx="468.41" cy="297.59" rx="10.93" ry="0.26" transform="translate(-52.04 -24.81) rotate(-3.44)"/><ellipse class="cls-7" cx="468.42" cy="303.09" rx="10.93" ry="0.26" transform="translate(-52.37 -24.8) rotate(-3.44)"/><ellipse class="cls-7" cx="467.58" cy="308.2" rx="6.23" ry="0.26" transform="translate(-52.68 -24.84) rotate(-3.44)"/><path class="cls-8" d="M492.06,286.6s0.22,25.93,1.54,33.84l32.52-1.54s-2.86-25.49-1.76-32.3h-32.3Z" transform="translate(-35.02 -53.47)"/><ellipse class="cls-7" cx="508.55" cy="298.15" rx="10.93" ry="0.26" transform="translate(-52 -22.4) rotate(-3.44)"/><ellipse class="cls-7" cx="508.55" cy="303.64" rx="10.93" ry="0.26" transform="translate(-52.33 -22.39) rotate(-3.44)"/><ellipse class="cls-7" cx="507.72" cy="308.75" rx="6.23" ry="0.26" transform="translate(-52.64 -22.43) rotate(-3.44)"/><path class="cls-9" d="M540.31,285.08s0.22,25.93,1.54,33.84l32.52-1.54s-2.86-25.49-1.76-32.3h-32.3Z" transform="translate(-35.02 -53.47)"/><ellipse class="cls-7" cx="556.8" cy="296.63" rx="10.93" ry="0.26" transform="translate(-51.82 -19.51) rotate(-3.44)"/><ellipse class="cls-7" cx="556.81" cy="302.12" rx="10.93" ry="0.26" transform="translate(-52.15 -19.5) rotate(-3.44)"/><ellipse class="cls-7" cx="555.98" cy="307.23" rx="6.23" ry="0.26" transform="translate(-52.46 -19.54) rotate(-3.44)"/><path class="cls-9" d="M575.29,288.83s0.22,25.93,1.54,33.84l32.52-1.54s-2.86-25.49-1.76-32.3h-32.3Z" transform="translate(-35.02 -53.47)"/><ellipse class="cls-7" cx="591.78" cy="300.37" rx="10.93" ry="0.26" transform="translate(-51.99 -17.4) rotate(-3.44)"/><ellipse class="cls-7" cx="591.79" cy="305.87" rx="10.93" ry="0.26" transform="translate(-52.31 -17.39) rotate(-3.44)"/><ellipse class="cls-7" cx="590.96" cy="310.98" rx="6.23" ry="0.26" transform="translate(-52.62 -17.43) rotate(-3.44)"/><path class="cls-9" d="M411.64,238.37s0.22,25.93,1.54,33.84l32.52-1.54s-2.86-25.49-1.76-32.3h-32.3Z" transform="translate(-35.02 -53.47)"/><ellipse class="cls-7" cx="428.13" cy="249.92" rx="10.93" ry="0.26" transform="translate(-49.25 -27.32) rotate(-3.44)"/><ellipse class="cls-7" cx="428.13" cy="255.41" rx="10.93" ry="0.26" transform="translate(-49.58 -27.31) rotate(-3.44)"/><ellipse class="cls-7" cx="427.3" cy="260.52" rx="6.23" ry="0.26" transform="translate(-49.89 -27.35) rotate(-3.44)"/><path class="cls-3" d="M454.09,238.5s0.22,25.93,1.54,33.84l32.52-1.54s-2.86-25.49-1.76-32.3h-32.3Z" transform="translate(-35.02 -53.47)"/><ellipse class="cls-7" cx="470.58" cy="250.04" rx="10.93" ry="0.26" transform="translate(-49.18 -24.77) rotate(-3.44)"/><ellipse class="cls-7" cx="470.59" cy="255.54" rx="10.93" ry="0.26" transform="translate(-49.51 -24.76) rotate(-3.44)"/><ellipse class="cls-7" cx="469.76" cy="260.65" rx="6.23" ry="0.26" transform="translate(-49.82 -24.8) rotate(-3.44)"/><path class="cls-9" d="M537.77,238.51s0.22,25.93,1.54,33.84l32.52-1.54s-2.86-25.49-1.76-32.3h-32.3Z" transform="translate(-35.02 -53.47)"/><ellipse class="cls-7" cx="554.26" cy="250.06" rx="10.93" ry="0.26" transform="translate(-49.03 -19.74) rotate(-3.44)"/><ellipse class="cls-7" cx="554.27" cy="255.55" rx="10.93" ry="0.26" transform="translate(-49.36 -19.73) rotate(-3.44)"/><ellipse class="cls-7" cx="553.43" cy="260.66" rx="6.23" ry="0.26" transform="translate(-49.67 -19.78) rotate(-3.44)"/><path class="cls-8" d="M254,186.4s0.22,25.93,1.54,33.84l32.52-1.54s-2.86-25.49-1.76-32.3H254Z" transform="translate(-35.02 -53.47)"/><ellipse class="cls-7" cx="270.54" cy="197.94" rx="10.93" ry="0.26" transform="translate(-46.41 -36.87) rotate(-3.44)"/><ellipse class="cls-7" cx="270.55" cy="203.43" rx="10.93" ry="0.26" transform="translate(-46.74 -36.86) rotate(-3.44)"/><ellipse class="cls-7" cx="269.71" cy="208.54" rx="6.23" ry="0.26" transform="translate(-47.05 -36.9) rotate(-3.44)"/><path class="cls-3" d="M241.13,103.71s0.22,25.93,1.54,33.84L275.19,136s-2.86-25.49-1.76-32.3h-32.3Z" transform="translate(-35.02 -53.47)"/><ellipse class="cls-7" cx="257.62" cy="115.25" rx="10.93" ry="0.26" transform="translate(-41.47 -37.8) rotate(-3.44)"/><ellipse class="cls-7" cx="257.63" cy="120.75" rx="10.93" ry="0.26" transform="translate(-41.8 -37.79) rotate(-3.44)"/><ellipse class="cls-7" cx="256.79" cy="125.86" rx="6.23" ry="0.26" transform="translate(-42.11 -37.83) rotate(-3.44)"/><path class="cls-3" d="M241.84,142.62s0.22,25.93,1.54,33.84l32.52-1.54s-2.86-25.49-1.76-32.3h-32.3Z" transform="translate(-35.02 -53.47)"/><ellipse class="cls-7" cx="258.33" cy="154.17" rx="10.93" ry="0.26" transform="translate(-43.81 -37.69) rotate(-3.44)"/><ellipse class="cls-7" cx="258.34" cy="159.66" rx="10.93" ry="0.26" transform="translate(-44.14 -37.67) rotate(-3.44)"/><ellipse class="cls-7" cx="257.5" cy="164.77" rx="6.23" ry="0.26" transform="translate(-44.45 -37.71) rotate(-3.44)"/><path class="cls-3" d="M281.66,103.71s0.22,25.93,1.54,33.84L315.72,136s-2.86-25.49-1.76-32.3h-32.3Z" transform="translate(-35.02 -53.47)"/><ellipse class="cls-7" cx="298.15" cy="115.25" rx="10.93" ry="0.26" transform="translate(-41.4 -35.36) rotate(-3.44)"/><ellipse class="cls-7" cx="298.15" cy="120.75" rx="10.93" ry="0.26" transform="translate(-41.73 -35.35) rotate(-3.44)"/><ellipse class="cls-7" cx="297.32" cy="125.86" rx="6.23" ry="0.26" transform="translate(-42.04 -35.39) rotate(-3.44)"/><path class="cls-3" d="M322.19,103.71s0.22,25.93,1.54,33.84L356.25,136s-2.86-25.49-1.76-32.3h-32.3Z" transform="translate(-35.02 -53.47)"/><ellipse class="cls-7" cx="338.68" cy="115.25" rx="10.93" ry="0.26" transform="translate(-41.33 -32.93) rotate(-3.44)"/><ellipse class="cls-7" cx="338.68" cy="120.75" rx="10.93" ry="0.26" transform="translate(-41.66 -32.92) rotate(-3.44)"/><ellipse class="cls-7" cx="337.85" cy="125.86" rx="6.23" ry="0.26" transform="translate(-41.97 -32.96) rotate(-3.44)"/><path class="cls-3" d="M362.72,103.71s0.22,25.93,1.54,33.84L396.78,136s-2.86-25.49-1.76-32.3h-32.3Z" transform="translate(-35.02 -53.47)"/><ellipse class="cls-7" cx="379.21" cy="115.25" rx="10.93" ry="0.26" transform="translate(-41.25 -30.5) rotate(-3.44)"/><ellipse class="cls-7" cx="379.21" cy="120.75" rx="10.93" ry="0.26" transform="translate(-41.58 -30.49) rotate(-3.44)"/><ellipse class="cls-7" cx="378.38" cy="125.86" rx="6.23" ry="0.26" transform="translate(-41.89 -30.53) rotate(-3.44)"/><path class="cls-3" d="M416.89,109.45s0.22,25.93,1.54,33.84L451,141.75s-2.86-25.49-1.76-32.3h-32.3Z" transform="translate(-35.02 -53.47)"/><ellipse class="cls-7" cx="433.38" cy="121" rx="10.93" ry="0.26" transform="translate(-41.5 -27.24) rotate(-3.44)"/><ellipse class="cls-7" cx="433.39" cy="126.49" rx="10.93" ry="0.26" transform="translate(-41.83 -27.22) rotate(-3.44)"/><ellipse class="cls-7" cx="432.55" cy="131.6" rx="6.23" ry="0.26" transform="translate(-42.14 -27.26) rotate(-3.44)"/><path class="cls-3" d="M453.18,110s0.22,25.93,1.54,33.84l32.52-1.54s-2.86-25.49-1.76-32.3h-32.3Z" transform="translate(-35.02 -53.47)"/><ellipse class="cls-7" cx="469.67" cy="121.55" rx="10.93" ry="0.26" transform="translate(-41.47 -25.05) rotate(-3.44)"/><ellipse class="cls-7" cx="469.67" cy="127.04" rx="10.93" ry="0.26" transform="translate(-41.8 -25.05) rotate(-3.44)"/><ellipse class="cls-7" cx="468.84" cy="132.15" rx="6.23" ry="0.26" transform="translate(-42.11 -25.08) rotate(-3.44)"/><path class="cls-3" d="M493.26,111.17s0.22,25.93,1.54,33.84l32.52-1.54s-2.86-25.49-1.76-32.3h-32.3Z" transform="translate(-35.02 -53.47)"/><ellipse class="cls-7" cx="509.75" cy="122.71" rx="10.93" ry="0.26" transform="translate(-41.47 -22.65) rotate(-3.44)"/><ellipse class="cls-7" cx="509.75" cy="128.21" rx="10.93" ry="0.26" transform="translate(-41.8 -22.64) rotate(-3.44)"/><ellipse class="cls-7" cx="508.92" cy="133.31" rx="6.23" ry="0.26" transform="translate(-42.1 -22.68) rotate(-3.44)"/><path class="cls-3" d="M540.89,109.82s0.22,25.93,1.54,33.84L575,142.12s-2.86-25.49-1.76-32.3h-32.3Z" transform="translate(-35.02 -53.47)"/><ellipse class="cls-7" cx="557.38" cy="121.37" rx="10.93" ry="0.26" transform="translate(-41.3 -19.79) rotate(-3.44)"/><ellipse class="cls-7" cx="557.39" cy="126.86" rx="10.93" ry="0.26" transform="translate(-41.63 -19.78) rotate(-3.44)"/><ellipse class="cls-7" cx="556.56" cy="131.97" rx="6.23" ry="0.26" transform="translate(-41.94 -19.82) rotate(-3.44)"/><path class="cls-3" d="M544.85,152.09s0.22,25.93,1.54,33.84l32.52-1.54s-2.86-25.49-1.76-32.3h-32.3Z" transform="translate(-35.02 -53.47)"/><ellipse class="cls-7" cx="561.34" cy="163.64" rx="10.93" ry="0.26" transform="translate(-43.83 -19.47) rotate(-3.44)"/><ellipse class="cls-7" cx="561.35" cy="169.13" rx="10.93" ry="0.26" transform="translate(-44.16 -19.47) rotate(-3.44)"/><ellipse class="cls-7" cx="560.52" cy="174.24" rx="6.23" ry="0.26" transform="translate(-44.47 -19.5) rotate(-3.44)"/><path class="cls-9" d="M569.47,113.45s0.22,25.93,1.54,33.84l32.52-1.54s-2.86-25.49-1.76-32.3h-32.3Z" transform="translate(-35.02 -53.47)"/><ellipse class="cls-7" cx="585.96" cy="124.99" rx="10.93" ry="0.26" transform="translate(-41.47 -18.07) rotate(-3.44)"/><ellipse class="cls-7" cx="585.96" cy="130.49" rx="10.93" ry="0.26" transform="translate(-41.8 -18.06) rotate(-3.44)"/><ellipse class="cls-7" cx="585.13" cy="135.6" rx="6.23" ry="0.26" transform="translate(-42.1 -18.1) rotate(-3.44)"/><path class="cls-9" d="M425.68,130.62s0.22,25.93,1.54,33.84l32.52-1.54s-2.86-25.49-1.76-32.3h-32.3Z" transform="translate(-35.02 -53.47)"/><ellipse class="cls-7" cx="442.17" cy="142.17" rx="10.93" ry="0.26" transform="translate(-42.76 -26.67) rotate(-3.44)"/><ellipse class="cls-7" cx="442.17" cy="147.66" rx="10.93" ry="0.26" transform="translate(-43.09 -26.66) rotate(-3.44)"/><ellipse class="cls-7" cx="441.34" cy="152.77" rx="6.23" ry="0.26" transform="translate(-43.39 -26.7) rotate(-3.44)"/><path class="cls-3" d="M421.59,188.17s0.22,25.93,1.54,33.84l32.52-1.54s-2.86-25.49-1.76-32.3h-32.3Z" transform="translate(-35.02 -53.47)"/><ellipse class="cls-7" cx="438.07" cy="199.71" rx="10.93" ry="0.26" transform="translate(-46.22 -26.81) rotate(-3.44)"/><ellipse class="cls-7" cx="438.08" cy="205.21" rx="10.93" ry="0.26" transform="translate(-46.55 -26.8) rotate(-3.44)"/><ellipse class="cls-7" cx="437.25" cy="210.32" rx="6.23" ry="0.26" transform="translate(-46.86 -26.84) rotate(-3.44)"/><path class="cls-6" d="M319.66,131.85s2.63,24-.75,37.17l-32.09-1.4s6.88-23.69,2.65-34.19Z" transform="translate(-35.02 -53.47)"/><path class="cls-9" d="M286.65,127.77s-2,27.24-3.78,32.73l29.23,3.08,4.39-4.18s3.11-24,2.67-30.84Z" transform="translate(-35.02 -53.47)"/><polygon class="cls-8" points="277.74 105.71 277.08 110.1 281.48 105.93 277.74 105.71"/><path class="cls-7" d="M313.09,141.53a22.47,22.47,0,0,1-3.27-.39L301.95,140l-7.88-1a22.42,22.42,0,0,1-3.26-.48,19.18,19.18,0,0,1,3.3.11c2,0.15,4.83.42,7.92,0.83s5.86,0.88,7.86,1.26A19.16,19.16,0,0,1,313.09,141.53Z" transform="translate(-35.02 -53.47)"/><path class="cls-7" d="M311.81,147.53a18,18,0,0,1-3.16-.11c-1.95-.14-4.63-0.4-7.59-0.78s-5.62-.79-7.54-1.13a17.94,17.94,0,0,1-3.09-.68,20.18,20.18,0,0,1,3.14.31l7.55,1,7.56,0.93A20.17,20.17,0,0,1,311.81,147.53Z" transform="translate(-35.02 -53.47)"/><ellipse class="cls-7" cx="300.2" cy="151.74" rx="0.26" ry="9.88" transform="translate(74.84 375.61) rotate(-82.35)"/><path class="cls-9" d="M217.14,160.59s-2,27.24-3.78,32.73l29.23,3.08,4.39-4.18s3.11-24,2.67-30.84Z" transform="translate(-35.02 -53.47)"/><polygon class="cls-8" points="208.23 138.53 207.57 142.93 211.97 138.75 208.23 138.53"/><path class="cls-7" d="M243.58,174.35a22.43,22.43,0,0,1-3.27-.39l-7.87-1.11-7.88-1a22.44,22.44,0,0,1-3.26-.48,19.16,19.16,0,0,1,3.3.11c2,0.15,4.83.42,7.92,0.83s5.86,0.88,7.86,1.26A19.17,19.17,0,0,1,243.58,174.35Z" transform="translate(-35.02 -53.47)"/><path class="cls-7" d="M242.31,180.36a17.94,17.94,0,0,1-3.16-.11c-1.95-.14-4.63-0.4-7.58-0.78s-5.62-.79-7.54-1.13a18,18,0,0,1-3.09-.68,20.17,20.17,0,0,1,3.14.31l7.55,1,7.56,0.93A20.19,20.19,0,0,1,242.31,180.36Z" transform="translate(-35.02 -53.47)"/><ellipse class="cls-7" cx="230.69" cy="184.57" rx="0.26" ry="9.88" transform="translate(-17.95 335.18) rotate(-82.35)"/><rect class="cls-3" x="126.97" y="55.54" width="24.42" height="5.58"/><rect class="cls-8" x="126.97" y="188.85" width="24.42" height="5.58"/><rect class="cls-8" x="126.97" y="233.96" width="24.42" height="5.58"/><rect class="cls-2" x="220.16" y="22.58" width="84.3" height="5.58"/><rect class="cls-2" x="388.07" y="22.58" width="84.3" height="5.58"/><rect class="cls-2" x="513.24" y="22.58" width="40.26" height="5.58"/><path class="cls-8" d="M599.28,100c0,0.14-98.84.26-220.73,0.26S157.8,100.13,157.8,100s98.82-.26,220.75-0.26S599.28,99.84,599.28,100Z" transform="translate(-35.02 -53.47)"/><path class="cls-8" d="M599.28,232.68c0,0.14-98.84.26-220.73,0.26s-220.75-.12-220.75-0.26,98.82-.26,220.75-0.26S599.28,232.54,599.28,232.68Z" transform="translate(-35.02 -53.47)"/><path class="cls-8" d="M599.28,323.76c0,0.14-98.84.26-220.73,0.26s-220.75-.12-220.75-0.26,98.82-.26,220.75-0.26S599.28,323.62,599.28,323.76Z" transform="translate(-35.02 -53.47)"/><path class="cls-8" d="M599.28,279.36c0,0.14-98.84.26-220.73,0.26s-220.75-.12-220.75-0.26,98.82-.26,220.75-0.26S599.28,279.21,599.28,279.36Z" transform="translate(-35.02 -53.47)"/><path class="cls-8" d="M195.22,325c-0.14,0-.26-56.4-0.26-125.95s0.12-126,.26-126,0.26,56.38.26,126S195.36,325,195.22,325Z" transform="translate(-35.02 -53.47)"/><path class="cls-8" d="M399.19,326.27c-0.14,0-.26-56.3-0.26-125.74s0.12-125.76.26-125.76,0.26,56.29.26,125.76S399.33,326.27,399.19,326.27Z" transform="translate(-35.02 -53.47)"/><path class="cls-8" d="M531.28,327.59c-0.14,0-.26-56.31-0.26-125.76s0.12-125.77.26-125.77,0.26,56.3.26,125.77S531.43,327.59,531.28,327.59Z" transform="translate(-35.02 -53.47)"/><path class="cls-8" d="M450.15,182.62l0.4,0.14,1.15,0.47a22.32,22.32,0,0,1,4.08,2.51,23.7,23.7,0,0,1,5.16,5.53,26.25,26.25,0,0,1,2.28,4.16,25.93,25.93,0,0,1,1.53,5.1,23.65,23.65,0,0,1-1.05,12.05A26.2,26.2,0,0,1,455.74,224a25.43,25.43,0,0,1-14.19,5.71,27.8,27.8,0,0,1-16.06-3.44,27.28,27.28,0,0,1-11.11-12.09A23.8,23.8,0,0,1,412.57,199a24,24,0,0,1,6.7-12.13,20.75,20.75,0,0,1,5.18-3.67,22.46,22.46,0,0,1,5.52-2,34.51,34.51,0,0,1,10-.63,62.9,62.9,0,0,1,7.5,1c2,0.39,3.61.75,4.67,1l1.21,0.3,0.41,0.12-0.42-.07-1.22-.25c-1.07-.22-2.65-0.55-4.69-0.9a65.64,65.64,0,0,0-7.48-.92,34.55,34.55,0,0,0-9.9.69,22.17,22.17,0,0,0-5.42,2,20.4,20.4,0,0,0-5.06,3.62A23.65,23.65,0,0,0,413,199.07a23.35,23.35,0,0,0,1.8,14.85,26.82,26.82,0,0,0,10.91,11.86,27.34,27.34,0,0,0,15.76,3.38,25,25,0,0,0,13.93-5.57,25.82,25.82,0,0,0,7.84-11.16,23.34,23.34,0,0,0,1.1-11.84,25.75,25.75,0,0,0-1.47-5,26.19,26.19,0,0,0-2.21-4.13,23.68,23.68,0,0,0-9-8.11l-1.13-.52Z" transform="translate(-35.02 -53.47)"/><ellipse class="cls-8" cx="469.75" cy="178.5" rx="11.63" ry="0.26" transform="translate(-43.99 277.82) rotate(-38.51)"/><path class="cls-8" d="M476.45,186.35a6.3,6.3,0,0,1-1.28.18l-3.52.31c-3,.24-7.1.53-11.68,0.82l-0.38,0,0.11-.36,0.13-.43a45.62,45.62,0,0,1,5-10.94c0.83-1.3,1.56-2.31,2.09-3a6.15,6.15,0,0,1,.88-1,7.13,7.13,0,0,1-.71,1.13c-0.48.71-1.16,1.75-1.94,3.07a50.71,50.71,0,0,0-4.85,10.9l-0.13.43-0.27-.33c4.58-.29,8.71-0.52,11.69-0.66l3.53-.14A6.3,6.3,0,0,1,476.45,186.35Z" transform="translate(-35.02 -53.47)"/><path class="cls-8" d="M589,248.76s0.31-.76.87-2.12a38.89,38.89,0,0,0,1.87-5.93,37.31,37.31,0,0,0-12.07-37.06,38.89,38.89,0,0,0-5-3.69c-1.25-.77-2-1.16-1.95-1.2a2.54,2.54,0,0,1,.55.24c0.34,0.18.87,0.41,1.51,0.79a34.38,34.38,0,0,1,5.14,3.59,37,37,0,0,1,12.19,37.43,34.38,34.38,0,0,1-2,5.93c-0.29.68-.58,1.18-0.75,1.53A2.55,2.55,0,0,1,589,248.76Z" transform="translate(-35.02 -53.47)"/><path class="cls-8" d="M598.22,243.09a23.32,23.32,0,0,1-2.64,2.3l-3,2.39-1.76,1.4a3.79,3.79,0,0,1-2.27,1.14,1.45,1.45,0,0,1-1.17-.8,4.93,4.93,0,0,1-.41-1.18l-0.55-2.17-0.91-3.69a23.34,23.34,0,0,1-.71-3.43,23.31,23.31,0,0,1,1.07,3.34l1,3.66,0.58,2.17c0.18,0.73.44,1.56,1.12,1.59a3.51,3.51,0,0,0,1.92-1l1.77-1.37,3-2.3A23.35,23.35,0,0,1,598.22,243.09Z" transform="translate(-35.02 -53.47)"/><ellipse class="cls-8" cx="321.01" cy="188.01" rx="23.04" ry="0.26" transform="translate(-71.46 31.47) rotate(-14.27)"/><ellipse class="cls-8" cx="325.25" cy="194.47" rx="25.48" ry="0.26" transform="translate(-75.28 40.97) rotate(-15.57)"/><ellipse class="cls-8" cx="330.26" cy="202.01" rx="24.13" ry="0.26" transform="translate(-72.98 29) rotate(-13.47)"/><polygon class="cls-6" points="263.3 234.49 271.25 276.5 350.68 261.47 336.87 220.56 263.3 234.49"/><rect class="cls-7" x="299.52" y="280.82" width="76.56" height="37.88" transform="translate(-84.88 14.59) rotate(-10.72)"/><path class="cls-8" d="M378.94,311.25s-0.06-.23-0.15-0.67l-0.39-1.94-1.45-7.43-5.24-27.14,0.23,0.15-75.21,14.31h0l0.21-.3,7,37.22-0.29-.2,54-10.11,15.61-2.89,4.18-.76,1.09-.19,0.38-.06-0.35.08-1.05.21-4.12.81-15.53,3-54.14,10.37-0.24,0,0-.24-7.06-37.22,0-.26,0.26,0h0l75.23-14.17,0.19,0,0,0.19,5.06,27.3,1.35,7.4,0.34,1.92C378.91,311,378.94,311.25,378.94,311.25Z" transform="translate(-35.02 -53.47)"/><rect class="cls-7" x="307.49" y="292.92" width="21.17" height="21.17" transform="translate(-85.92 10.99) rotate(-10.72)"/><path class="cls-8" d="M330.44,311.93a2.89,2.89,0,0,1-.1-0.4l-0.24-1.13-0.86-4.24-3-15,0.26,0.18-20.79,4L306,295h0v0.07l0,0.09,0,0.18,0.07,0.36,0.13,0.71,0.27,1.41,0.52,2.78,1,5.38,1.83,9.82-0.26-.18,15-2.73,4.26-.75L330,312l0.41-.05-0.35.09-1.09.23-4.19.85-15.13,3-0.22,0,0-.22-1.88-9.81-1-5.38L306,297.95l-0.27-1.41-0.13-.71-0.07-.36,0-.18,0-.09v-0.07h0l0.21-.31,20.8-3.9,0.22,0,0,0.22,2.75,15.17,0.74,4.21,0.18,1.1A1.79,1.79,0,0,1,330.44,311.93Z" transform="translate(-35.02 -53.47)"/><path class="cls-8" d="M330.44,311.93s-0.12-.54-0.41-1.49a7.35,7.35,0,0,0-2.2-3.5l0,0a7.75,7.75,0,0,0-2.58-1.57,8.07,8.07,0,0,0-3.5-.4l-0.46,0,0.25-.4a5.27,5.27,0,0,0,.19-5,4.72,4.72,0,0,0-1.85-2.07,5,5,0,0,0-2.82-.66A5.33,5.33,0,0,0,314,298a4.56,4.56,0,0,0-1.61,2.62,5.33,5.33,0,0,0,1.71,5.2l0.25,0.2-0.27.16a9.06,9.06,0,0,0-3.14,3.2,9.64,9.64,0,0,0-1.2,3.27,13,13,0,0,0-.08,3.06,3.16,3.16,0,0,1-.18-0.79,8.63,8.63,0,0,1,0-2.31,9.56,9.56,0,0,1,1.14-3.41,9.3,9.3,0,0,1,3.22-3.4l0,0.36a5.76,5.76,0,0,1-1.92-5.65,5.06,5.06,0,0,1,1.78-2.92,5.82,5.82,0,0,1,3.35-1.25,5.46,5.46,0,0,1,3.11.74,5.21,5.21,0,0,1,2,2.3,5.72,5.72,0,0,1-.26,5.45l-0.21-.35a8.4,8.4,0,0,1,3.68.48,8,8,0,0,1,2.67,1.7l0,0a7.2,7.2,0,0,1,2.18,3.72,7.82,7.82,0,0,1,.22,1.14A1.29,1.29,0,0,1,330.44,311.93Z" transform="translate(-35.02 -53.47)"/><path class="cls-7" d="M334.44,290.4l18-3.41" transform="translate(-35.02 -53.47)"/><ellipse class="cls-8" cx="343.46" cy="288.69" rx="9.18" ry="0.26" transform="translate(-82.72 15.45) rotate(-10.72)"/><path class="cls-7" d="M335.23,294.59l3.64-.69" transform="translate(-35.02 -53.47)"/><ellipse class="cls-8" cx="337.06" cy="294.24" rx="1.85" ry="0.26" transform="translate(-83.87 14.36) rotate(-10.72)"/><ellipse class="cls-8" cx="352.74" cy="298.82" rx="16.41" ry="0.26" transform="translate(-84.45 17.35) rotate(-10.72)"/><ellipse class="cls-8" cx="353.52" cy="302.45" rx="16.5" ry="0.26" transform="translate(-85.11 17.56) rotate(-10.72)"/><path class="cls-8" d="M370,303.68a6,6,0,0,1-1.23.34l-3.4.73c-2.88.59-6.86,1.38-11.26,2.21s-8.39,1.56-11.29,2.06l-3.43.57a6,6,0,0,1-1.27.14,6,6,0,0,1,1.23-.34l3.4-.73c2.88-.59,6.86-1.38,11.26-2.21s8.39-1.56,11.28-2.06l3.43-.57A6,6,0,0,1,370,303.68Z" transform="translate(-35.02 -53.47)"/><path class="cls-3" d="M337.19,286.31a0.77,0.77,0,0,1,.2-0.12l0.61-.31a20.73,20.73,0,0,1,2.43-1A22.32,22.32,0,0,1,350,284a20.44,20.44,0,0,1,6.41,1.85,8.8,8.8,0,0,1,3,2.32,4.47,4.47,0,0,1,.9,3.88,6.56,6.56,0,0,1-2.47,3.4,20.46,20.46,0,0,1-3.73,2.21,34.72,34.72,0,0,1-8.58,2.94,20.7,20.7,0,0,1-9.07-.12,13.27,13.27,0,0,1-4-1.66,6.64,6.64,0,0,1-2.74-3.18,4.67,4.67,0,0,1,.44-4,9.68,9.68,0,0,1,2.56-2.75,25.14,25.14,0,0,1,5.86-3.19,25.85,25.85,0,0,1,9.45-1.68,23.62,23.62,0,0,1,2.61.19l0.67,0.11,0.23,0.05H351.2l-0.68-.06c-0.59,0-1.47-.1-2.6-0.1a26.61,26.61,0,0,0-9.32,1.82,25.11,25.11,0,0,0-5.73,3.18,9.29,9.29,0,0,0-2.42,2.64,4.21,4.21,0,0,0-.39,3.57,6.17,6.17,0,0,0,2.56,2.93,12.82,12.82,0,0,0,3.88,1.58,20.3,20.3,0,0,0,8.84.1,34.53,34.53,0,0,0,8.45-2.89,20.1,20.1,0,0,0,3.65-2.14,6.1,6.1,0,0,0,2.31-3.12,4,4,0,0,0-.79-3.48,8.4,8.4,0,0,0-2.79-2.22,20.31,20.31,0,0,0-6.26-1.86,22.8,22.8,0,0,0-9.44.72c-1.08.33-1.9,0.64-2.45,0.88l-0.62.26Z" transform="translate(-35.02 -53.47)"/><ellipse class="cls-3" cx="364.27" cy="281.29" rx="7.1" ry="0.26" transform="translate(-130.84 239.4) rotate(-39.12)"/><path class="cls-3" d="M365.51,284.86a39.82,39.82,0,0,1-6.24,1.55l-0.75.15-0.4.08,0.1-.39a13.44,13.44,0,0,1,2.26-5.21c0.13,0.07-1,2.25-1.76,5.33l-0.3-.31,0.75-.16A39.82,39.82,0,0,1,365.51,284.86Z" transform="translate(-35.02 -53.47)"/><ellipse class="cls-3" cx="344.35" cy="290.93" rx="10.06" ry="0.26" transform="matrix(0.99, -0.15, 0.15, 0.99, -75.18, 2.15)"/><circle class="cls-3" cx="327.2" cy="282.27" r="4.62" transform="translate(-81.81 12.31) rotate(-10.72)"/><path class="cls-8" d="M327.19,286.92a4.64,4.64,0,0,1-.85-9.21,4.64,4.64,0,0,1,5.43,3.7h0A4.65,4.65,0,0,1,327.19,286.92Zm0-9.24a4.64,4.64,0,0,0-.86.08,4.59,4.59,0,1,0,5.37,3.66h0A4.6,4.6,0,0,0,327.2,277.68Z" transform="translate(-35.02 -53.47)"/><path class="cls-3" d="M83.49,353.78c-7.67-11.74-7.38-28.89,1.79-39.5,2.84-3.29,6.82-6.16,11.16-5.79s8,4.19,9.37,8.43,0.88,8.85.09,13.23c-1.11,6.14-3,12.42-7.23,17s-9.69,9.63-15.17,6.64" transform="translate(-35.02 -53.47)"/><path class="cls-3" d="M86.91,409.88A17.54,17.54,0,0,1,91.8,390c1.76-1.44,4.07-2.55,6.27-2s3.75,2.88,4.06,5.19A14.44,14.44,0,0,1,101,400c-1.13,3.06-2.66,6.13-5.26,8.09s-6.26,3.81-8.81,1.77" transform="translate(-35.02 -53.47)"/><path class="cls-3" d="M68.4,405.85a25.38,25.38,0,0,0-12.79-26.78c-2.92-1.52-6.52-2.42-9.47-.95s-4.47,5.19-4.23,8.56,1.86,6.47,3.64,9.33c2.5,4,5.57,7.91,9.84,9.92s10,3.56,13-.08" transform="translate(-35.02 -53.47)"/><path class="cls-3" d="M69.73,377.72c3.67-11.86-2.56-26.23-12.94-33-3.22-2.11-7.3-3.58-10.9-2.21S40.09,348,40,351.93s1.4,7.74,3.14,11.28c2.44,5,5.55,9.85,10.29,12.69s12.4,5.69,16.33,1.81" transform="translate(-35.02 -53.47)"/><path class="cls-8" d="M77.11,435.66a2.58,2.58,0,0,1-.12-0.57l-0.25-1.65-0.17-1.2-0.27-1.41c-0.19-1-.39-2.17-0.72-3.42l-0.48-2-0.62-2.12c-0.4-1.47-1-3-1.53-4.62a89.49,89.49,0,0,0-4.58-10.15,89.49,89.49,0,0,0-5.93-9.43c-1-1.35-2-2.68-3-3.82L58,393.62l-1.38-1.49c-0.86-1-1.71-1.77-2.45-2.49l-1-1-0.9-.8L51,386.71a2.59,2.59,0,0,1-.41-0.42,2.54,2.54,0,0,1,.48.34l1.31,1,0.94,0.77,1.06,1c0.76,0.7,1.63,1.49,2.52,2.45l1.41,1.48L59.77,395c1,1.14,2,2.46,3.06,3.82a85,85,0,0,1,6,9.46,85,85,0,0,1,4.57,10.23c0.54,1.64,1.11,3.17,1.49,4.66l0.6,2.13,0.45,2c0.31,1.27.49,2.43,0.65,3.45l0.23,1.42,0.12,1.21,0.15,1.67A2.56,2.56,0,0,1,77.11,435.66Z" transform="translate(-35.02 -53.47)"/><path class="cls-8" d="M76.84,437.79a0.84,0.84,0,0,1,0-.24l0.05-.69,0.24-2.63,0.19-1.9c0.05-.7.07-1.46,0.11-2.27,0.06-1.63.22-3.48,0.16-5.53l0-3.22c0-1.12-.12-2.28-0.17-3.48-0.08-2.41-.41-5-0.7-7.66a120.23,120.23,0,0,0-3.64-17.24,120.23,120.23,0,0,0-6.35-16.44c-1.23-2.42-2.35-4.74-3.59-6.81-0.61-1-1.15-2.07-1.75-3L59.63,364c-1.07-1.75-2.21-3.22-3.15-4.55-0.48-.66-0.91-1.29-1.33-1.84L54,356.07,52.32,354l-0.42-.55a0.84,0.84,0,0,1-.13-0.2,0.82,0.82,0,0,1,.17.16l0.46,0.52,1.71,2,1.23,1.47c0.44,0.55.88,1.17,1.37,1.82,1,1.32,2.13,2.78,3.22,4.52l1.78,2.7c0.61,0.94,1.17,2,1.79,3,1.27,2.07,2.41,4.39,3.65,6.81a117,117,0,0,1,6.41,16.5,117,117,0,0,1,3.61,17.32c0.28,2.71.59,5.28,0.66,7.7,0,1.21.14,2.38,0.15,3.5l0,3.23c0,2.06-.15,3.92-0.23,5.55-0.06.82-.09,1.58-0.16,2.27l-0.23,1.9L77,436.88l-0.1.68A0.82,0.82,0,0,1,76.84,437.79Z" transform="translate(-35.02 -53.47)"/><path class="cls-8" d="M96.82,322.66a0.87,0.87,0,0,1-.1.22l-0.33.62-1.31,2.34c-0.28.51-.62,1.06-0.95,1.69l-1,2.06L91.92,332c-0.4.85-.78,1.76-1.2,2.72s-0.87,1.94-1.3,3L88.15,341l-0.67,1.74-0.62,1.83-1.28,3.81c-1.63,5.26-3.17,11.12-4.47,17.34s-2.14,12.22-2.8,17.69-1,10.42-1.09,14.59c-0.11,2.08-.13,4-0.13,5.62s0,3.08,0,4.24l0,2.68c0,0.28,0,.51,0,0.7a0.86,0.86,0,0,1,0,.24,0.85,0.85,0,0,1,0-.24l0-.7-0.13-2.68c-0.07-1.17-.09-2.59-0.09-4.25s0-3.55.06-5.63c0.07-4.17.45-9.13,1-14.63s1.5-11.49,2.76-17.74,2.86-12.11,4.52-17.37l1.31-3.82,0.63-1.83,0.68-1.74,1.3-3.3c0.44-1.05.91-2,1.33-3s0.83-1.86,1.24-2.71l1.22-2.36,1.07-2.05c0.34-.62.69-1.17,1-1.67l1.4-2.3,0.37-.59A0.83,0.83,0,0,1,96.82,322.66Z" transform="translate(-35.02 -53.47)"/><path class="cls-8" d="M94.21,394.68a10.39,10.39,0,0,1-.82,1.43c-0.56.9-1.33,2.22-2.23,3.88s-1.9,3.68-2.91,6-2,4.86-2.82,7.61a81.12,81.12,0,0,0-2,7.88c-0.46,2.45-.78,4.68-1,6.57s-0.3,3.41-.34,4.47a10.36,10.36,0,0,1-.13,1.64,10.32,10.32,0,0,1-.06-1.65c0-1.06,0-2.6.19-4.49a66.47,66.47,0,0,1,.86-6.62,68.24,68.24,0,0,1,4.82-15.59,66.5,66.5,0,0,1,3-6c0.95-1.65,1.77-2.95,2.38-3.81A10.3,10.3,0,0,1,94.21,394.68Z" transform="translate(-35.02 -53.47)"/><polygon class="cls-9" points="27.02 376.91 60.73 376.91 56.65 411.33 31.22 411.33 27.02 376.91"/><polygon class="cls-8" points="28.25 407.62 31.12 411.33 56.65 411.33 59.6 407.74 28.25 407.62"/><ellipse class="cls-1" cx="43.79" cy="387.03" rx="15.62" ry="0.25"/><ellipse class="cls-1" cx="43.79" cy="389.32" rx="15.62" ry="0.25"/><ellipse class="cls-1" cx="43.92" cy="391.54" rx="15.07" ry="0.25"/><path class="cls-8" d="M67.19,356.18a1.19,1.19,0,0,1,0,.33l-0.08.93-0.35,3.43c-0.31,2.89-.76,6.89-1.27,11.3l-0.06.49,0,0.15H65.27c-4.33.07-8.23,0.11-11,.12H50.9l-0.9,0a1.13,1.13,0,0,1-.31,0,1.14,1.14,0,0,1,.31,0l0.9,0,3.33-.11c2.81-.07,6.71-0.16,11-0.23l-0.17.15,0.06-.49c0.52-4.41,1-8.4,1.37-11.29L67,357.43l0.14-.93A1.2,1.2,0,0,1,67.19,356.18Z" transform="translate(-35.02 -53.47)"/><path class="cls-8" d="M59.53,345.89a1.26,1.26,0,0,1,0,.34v1l0,3.55c0,3-.12,7.14-0.24,11.72v0.72H59.1a105.19,105.19,0,0,0-11.33-.26c-1.44,0-2.61.1-3.42,0.15l-0.93,0a0.16,0.16,0,1,1,0-.07l0.92-.11c0.8-.08,2-0.18,3.42-0.25a89.46,89.46,0,0,1,11.37.15l-0.18.17v-0.54c0.11-4.57.23-8.72,0.34-11.71l0.14-3.55,0.06-1A1.28,1.28,0,0,1,59.53,345.89Z" transform="translate(-35.02 -53.47)"/><path class="cls-8" d="M50.56,342.38a6,6,0,0,1,.21,1l0.5,2.71c0.44,2.29,1.12,5.44,2.08,8.89l0.1,0.36-0.34-.16L52.7,355a29,29,0,0,0-9-2.63c-1.2-.15-2.17-0.2-2.85-0.23a7,7,0,0,1-1-.06,0.84,0.84,0,0,1,.27,0c0.18,0,.44,0,0.78,0a24.13,24.13,0,0,1,2.87.12,27.31,27.31,0,0,1,9.11,2.56l0.41,0.2-0.24.2a86.39,86.39,0,0,1-2-8.94c-0.19-1.15-.32-2.09-0.4-2.73A5.66,5.66,0,0,1,50.56,342.38Z" transform="translate(-35.02 -53.47)"/><path class="cls-8" d="M98.15,405.14c0,0.05-1,0-2.55-.11a42.92,42.92,0,0,0-6.13.2l-1.41.17-0.16,0,0-.16c-0.36-2-.67-3.83-0.87-5.12a14.07,14.07,0,0,1-.27-2.08,14.07,14.07,0,0,1,.48,2c0.26,1.28.61,3.07,1,5.1L88,405.07c0.46-.07.93-0.13,1.42-0.18a34.41,34.41,0,0,1,6.18-.1c0.79,0.06,1.42.14,1.86,0.21A2.63,2.63,0,0,1,98.15,405.14Z" transform="translate(-35.02 -53.47)"/><path class="cls-8" d="M101.34,398.82c0,0.05-.94-0.17-2.47-0.35a26.84,26.84,0,0,0-6-.06l-1.06.13-0.18,0,0-.17c-0.21-2.1-.38-4-0.49-5.29a14.49,14.49,0,0,1-.11-2.15,14.51,14.51,0,0,1,.33,2.13c0.17,1.33.38,3.18,0.6,5.27l-0.19-.15,1.07-.14a23.25,23.25,0,0,1,6.05.16c0.77,0.12,1.38.27,1.8,0.38A2.48,2.48,0,0,1,101.34,398.82Z" transform="translate(-35.02 -53.47)"/><path class="cls-8" d="M103.62,338.89a1.58,1.58,0,0,1-.33.17l-1,.44-3.65,1.55-12.07,5-0.65.27-0.15.06-0.07-.15-5.1-11.52-1.5-3.48-0.39-1a1.47,1.47,0,0,1-.12-0.34,1.46,1.46,0,0,1,.18.31l0.45,0.93,1.6,3.44L86,346.09,85.8,346l0.65-.27,12.11-4.91,3.69-1.45,1-.38A1.57,1.57,0,0,1,103.62,338.89Z" transform="translate(-35.02 -53.47)"/><path class="cls-8" d="M106.57,324.33a1.52,1.52,0,0,1-.3.22l-0.88.57-3.29,2.05-11,6.69-0.18.11-0.07-.19-0.2-.53-4.6-12.41-1.36-3.78-0.35-1a1.6,1.6,0,0,1-.1-0.37,1.62,1.62,0,0,1,.17.34l0.41,1,1.46,3.74L91,333.13l0.2,0.53-0.25-.09L102,327l3.35-2,0.92-.52A1.53,1.53,0,0,1,106.57,324.33Z" transform="translate(-35.02 -53.47)"/><path class="cls-8" d="M105.61,316.56a4.68,4.68,0,0,1-.72.43c-0.47.26-1.16,0.65-2,1.16a35.55,35.55,0,0,0-6.11,4.78l-0.42.41,0.14-.58c0.15-.6.28-1.24,0.39-1.89a22,22,0,0,0-.48-9,25.7,25.7,0,0,0-.86-2.61,6.3,6.3,0,0,1-.36-0.95,5.37,5.37,0,0,1,.48.9,19.77,19.77,0,0,1,1,2.6,21,21,0,0,1,.58,9.1c-0.11.66-.25,1.31-0.4,1.92l-0.28-.16a32.2,32.2,0,0,1,6.23-4.73c0.85-.49,1.56-0.85,2-1.08A4.09,4.09,0,0,1,105.61,316.56Z" transform="translate(-35.02 -53.47)"/><path class="cls-8" d="M67.15,392.14A4.81,4.81,0,0,1,67,393c-0.12.56-.29,1.36-0.47,2.37a58.23,58.23,0,0,0-.91,8v0.15H65.46l-0.76,0c-3.34.2-6.37,0.37-8.56,0.47l-2.6.1a5.14,5.14,0,0,1-1,0,5.13,5.13,0,0,1,.95-0.12l2.59-.21c2.19-.16,5.21-0.36,8.55-0.57l0.76,0-0.16.16a49.15,49.15,0,0,1,1-8c0.22-1,.42-1.81.58-2.35A4.35,4.35,0,0,1,67.15,392.14Z" transform="translate(-35.02 -53.47)"/><path class="cls-8" d="M60.52,382.64a4.58,4.58,0,0,1-.06.88l-0.27,2.4c-0.25,2-.61,4.84-1,8l0,0.14H59l-1.08.07c-3.42.23-6.51,0.59-8.74,0.88l-2.64.35a5.51,5.51,0,0,1-1,.1,5.29,5.29,0,0,1,1-.23c0.62-.12,1.52-0.29,2.63-0.46,2.23-.35,5.32-0.74,8.75-1l1.09-.07-0.16.15c0.43-3.16.84-6,1.14-8l0.38-2.38A4.61,4.61,0,0,1,60.52,382.64Z" transform="translate(-35.02 -53.47)"/><path class="cls-8" d="M52.73,378.55s-0.16.93-.4,2.43a43.44,43.44,0,0,0-.54,6v0.19l-0.19,0L51,387a52.5,52.5,0,0,0-6.37-.38l-1.94,0a3,3,0,0,1-.71,0,2.8,2.8,0,0,1,.71-0.11c0.46,0,1.12-.1,1.94-0.13a40.9,40.9,0,0,1,6.41.28l0.57,0.07-0.19.16a34.85,34.85,0,0,1,.65-6c0.15-.75.3-1.35,0.41-1.76A2.48,2.48,0,0,1,52.73,378.55Z" transform="translate(-35.02 -53.47)"/><path class="cls-8" d="M97.13,388a29.64,29.64,0,0,1-1.5,3.42A29.64,29.64,0,0,1,94,394.83,25.37,25.37,0,0,1,97.13,388Z" transform="translate(-35.02 -53.47)"/><path class="cls-8" d="M101.37,392.53a35,35,0,0,0-3.83.78,35,35,0,0,0-3.6,1.53A10.67,10.67,0,0,1,101.37,392.53Z" transform="translate(-35.02 -53.47)"/><path class="cls-3" d="M684.72,428.33c4.17-2.15,9.07-2.43,13.7-1.67,2.49,0.41,5.08,1.15,6.77,3s2,5.15.07,6.76a6.49,6.49,0,0,1-4.27,1.08c-3.62,0-7.64-.68-10.53,1.5-1.65,1.24-2.75,3.31-4.72,3.92a4.67,4.67,0,0,1-5.13-2.28,8,8,0,0,1-.58-5.89A9,9,0,0,1,684.72,428.33Z" transform="translate(-35.02 -53.47)"/><path class="cls-3" d="M675.17,409.9c2.55,3.64,7.5,2.43,9.8.21s3.27-5.44,4.15-8.51c2-7,4.05-14.38,2.55-21.52a12,12,0,0,0-2.75-5.85,6.25,6.25,0,0,0-5.92-2c-2.5.66-4,3.11-5.17,5.43a51.3,51.3,0,0,0-5.07,22c0,3.55.41,7.26,2.41,10.19" transform="translate(-35.02 -53.47)"/><path class="cls-3" d="M668.18,415.12c2.77-3.28,3.29-8.07,2.06-12.19A23.49,23.49,0,0,0,663,392.46a38.87,38.87,0,0,0-12.93-7.63,13.78,13.78,0,0,0-5.81-1,6.1,6.1,0,0,0-4.88,3c-1.36,2.59-.06,5.74,1.35,8.31A98.54,98.54,0,0,0,649.25,408c2.54,3.28,5.46,6.52,9.34,8s7.91,1.31,10-1.38" transform="translate(-35.02 -53.47)"/><path class="cls-8" d="M675,464.8a7.92,7.92,0,0,0,.23-1.65l0.44-4.51a65.19,65.19,0,0,1,1-6.62,51.09,51.09,0,0,1,2.41-7.81,28.81,28.81,0,0,1,4-7.07,14.9,14.9,0,0,1,5-4.19,14.12,14.12,0,0,1,4.25-1.32,8,8,0,0,0,1.65-.24,7.73,7.73,0,0,0-1.68,0,12.87,12.87,0,0,0-4.43,1.15,14.87,14.87,0,0,0-5.32,4.23,28.14,28.14,0,0,0-4.14,7.21,47.77,47.77,0,0,0-2.39,7.94,56,56,0,0,0-.88,6.7c-0.14,1.92-.2,3.47-0.22,4.54A7.77,7.77,0,0,0,675,464.8Z" transform="translate(-35.02 -53.47)"/><path class="cls-8" d="M675.31,461.33a3.26,3.26,0,0,0,0-.77v-2.19c0-1.9,0-4.66.1-8.06,0.17-6.81.75-14.13,1.89-24.46,1.07-9.71,2.51-21,4-28.36,0.33-1.67.65-3.18,1-4.49s0.55-2.46.79-3.38l0.51-2.13a0.39,0.39,0,1,0-.13,0l-0.64,2.1c-0.28.91-.57,2-0.9,3.36s-0.71,2.81-1.06,4.48a249,249,0,0,0-4.24,26.32C675.52,434,675,443.47,675,450.29c0,3.41,0,6.17.12,8.08l0.13,2.19A3.26,3.26,0,0,0,675.31,461.33Z" transform="translate(-35.02 -53.47)"/><path class="cls-8" d="M675.36,443.16a14.56,14.56,0,0,0,0-2.29c-0.08-1.47-.29-3.6-0.7-6.21a81.91,81.91,0,0,0-2-9,74.14,74.14,0,0,0-3.78-10.71,57,57,0,0,0-11.11-17.3,28.24,28.24,0,0,0-2.61-2.43c-0.4-.34-0.76-0.68-1.12-0.95l-1-.7a14.64,14.64,0,0,0-1.93-1.24,68.41,68.41,0,0,1,6.33,5.64,60.1,60.1,0,0,1,10.84,17.24A84.62,84.62,0,0,1,672,425.78a92,92,0,0,1,2.15,9c0.47,2.58.75,4.69,0.91,6.15A14.83,14.83,0,0,0,675.36,443.16Z" transform="translate(-35.02 -53.47)"/><path class="cls-8" d="M559.57,174.18c0,5.94,7.82,9.79,7.53,15.73-0.13,2.55-1.78,4.78-2.17,7.3-0.53,3.39,1.27,6.66,1.87,10,1.22,7-3,14.12-9.11,17.71s-13.59,4.07-20.55,2.89" transform="translate(-35.02 -53.47)"/><path class="cls-8" d="M511.83,171.19c0.13,3.19-2.06,6-4.26,8.29s-4.64,4.74-5.2,7.88c-1,5.58,4.33,11,3,16.47-0.7,3-3.21,5.26-3.74,8.25s1,5.79,2.81,8.06,4.1,2,5.73,4.47a24,24,0,0,0,7.19,6.82c6,3.57,13.58-1.07,16.57-1.85" transform="translate(-35.02 -53.47)"/><path class="cls-8" d="M560.65,177.64c0.18-2.89-2.43-5.21-5.08-6.35s-5.63-1.64-8-3.33c-2.08-1.5-3.43-3.77-5.17-5.65a17.8,17.8,0,0,0-30.19,7.2c-1.17,4.08-.62,9,2.54,11.81,3.66,3.3,9.27,2.77,14.12,1.94s10.35-1.63,14.28,1.33c2.37,1.79,3.68,4.61,5.08,7.23s3.18,5.31,6,6.36,6.64-.49,6.85-3.45" transform="translate(-35.02 -53.47)"/><path class="cls-10" d="M549.67,176.57l-25.44-7.37c-8.19-1.15-14,8.78-14.8,17-0.89,9.14-1.62,20.34-.77,27.22,1.71,13.82,12.19,15.93,12.19,15.93s-0.12,4-.26,8.93a14.77,14.77,0,0,0,14.05,15.18h0a14.77,14.77,0,0,0,15.44-13.8l3.75-58.05A4.84,4.84,0,0,0,549.67,176.57Z" transform="translate(-35.02 -53.47)"/><path class="cls-8" d="M511.19,196.25a1.76,1.76,0,0,0,1.64,1.84,1.69,1.69,0,0,0,1.87-1.53,1.76,1.76,0,0,0-1.64-1.84A1.69,1.69,0,0,0,511.19,196.25Z" transform="translate(-35.02 -53.47)"/><path class="cls-8" d="M511.22,193.42c0.21,0.24,1.58-.71,3.48-0.63s3.25,1.07,3.47.84a1.19,1.19,0,0,0-.69-1,4.84,4.84,0,0,0-2.77-1,4.65,4.65,0,0,0-2.78.79A1.12,1.12,0,0,0,511.22,193.42Z" transform="translate(-35.02 -53.47)"/><path class="cls-8" d="M529.69,196.75a1.76,1.76,0,0,0,1.64,1.84,1.69,1.69,0,0,0,1.87-1.53,1.76,1.76,0,0,0-1.64-1.84A1.69,1.69,0,0,0,529.69,196.75Z" transform="translate(-35.02 -53.47)"/><path class="cls-8" d="M529.86,194.41c0.21,0.24,1.58-.71,3.48-0.63s3.25,1.07,3.47.84a1.19,1.19,0,0,0-.7-1,4.84,4.84,0,0,0-2.77-1,4.65,4.65,0,0,0-2.78.79A1.12,1.12,0,0,0,529.86,194.41Z" transform="translate(-35.02 -53.47)"/><path class="cls-8" d="M522.49,208.25a12.57,12.57,0,0,0-3.06-.66,1.06,1.06,0,0,1-1-.51,2.47,2.47,0,0,1,.37-1.42l1.56-3.64c2.17-5.18,3.76-9.45,3.55-9.54s-2.14,4-4.31,9.23l-1.5,3.66a2.81,2.81,0,0,0-.32,1.89,1.22,1.22,0,0,0,.77.74,3.28,3.28,0,0,0,.82.14A12.34,12.34,0,0,0,522.49,208.25Z" transform="translate(-35.02 -53.47)"/><path class="cls-11" d="M520.84,229.36a33.24,33.24,0,0,0,18.39-4.09c-0.16,0-5.38,9.39-18.51,7.53Z" transform="translate(-35.02 -53.47)"/><path class="cls-3" d="M523.14,212.85a3.42,3.42,0,0,1,3.11-1.16,3.12,3.12,0,0,1,2.12,1.23,2,2,0,0,1,.07,2.27,2.3,2.3,0,0,1-2.51.54,7.19,7.19,0,0,1-2.38-1.53,2.1,2.1,0,0,1-.52-0.58,0.63,0.63,0,0,1,0-.71" transform="translate(-35.02 -53.47)"/><path class="cls-8" d="M528,209.75c-0.31,0-.38,2-2.2,3.43s-4,1.1-4,1.39a1.66,1.66,0,0,0,1.4.47,5.13,5.13,0,0,0,3.35-1,4.47,4.47,0,0,0,1.71-2.88A1.42,1.42,0,0,0,528,209.75Z" transform="translate(-35.02 -53.47)"/><path class="cls-8" d="M529.12,191.06c0.17,0.52,2.07.34,4.29,0.69s4,1,4.31.56c0.14-.22-0.16-0.71-0.87-1.24a7.55,7.55,0,0,0-6.55-1C529.47,190.42,529,190.82,529.12,191.06Z" transform="translate(-35.02 -53.47)"/><path class="cls-8" d="M512.11,188c0.32,0.44,1.64,0,3.21.07s2.89,0.39,3.21-.05a1,1,0,0,0-.62-1.08,4.65,4.65,0,0,0-5.18,0A1,1,0,0,0,512.11,188Z" transform="translate(-35.02 -53.47)"/><path class="cls-8" d="M553.57,224c-3.81.64-4.08-1.29-6.82-4a12.42,12.42,0,0,1-3.46-10.6c0.54-3.36,2.47-6.74,1.4-10-1.41-4.28-7.29-5.77-8.73-10-0.83-2.48.08-5.32-.88-7.76s-3.24-3.67-5.52-4.58-4.75-1.57-6.64-3.14-3-4.46-1.69-6.54A130.33,130.33,0,0,1,551,175.69c2.22,0.91,4.54,2,5.8,4s1.18,4.88,1,7.41l-2.92,37" transform="translate(-35.02 -53.47)"/><path class="cls-8" d="M563.12,196.28a10.56,10.56,0,0,1,20.09-3c1.79,3.94,1,8.65-.94,12.53-2.27,4.62-6.75,8.76-11.88,8.36-4.83-.37-8.58-4.75-9.83-9.42s-0.52-9.63.21-14.41" transform="translate(-35.02 -53.47)"/><path class="cls-9" d="M565.21,215.19a2.43,2.43,0,0,0,.75-0.77,6.76,6.76,0,0,0,1.11-2.72,13.17,13.17,0,0,0,0-4.35c-0.23-1.63-.72-3.34-1.06-5.15a12.79,12.79,0,0,1-.14-5.1c0.33-1.52,1.09-2.8,1.45-4a5.23,5.23,0,0,0,.18-2.94,1.74,1.74,0,0,0-.51-1s0.16,0.35.28,1a5.45,5.45,0,0,1-.35,2.75,34.84,34.84,0,0,0-1.59,4,12.78,12.78,0,0,0,.09,5.33c0.35,1.85.85,3.56,1.1,5.12a13.73,13.73,0,0,1,.11,4.19A8.66,8.66,0,0,1,565.21,215.19Z" transform="translate(-35.02 -53.47)"/><path class="cls-9" d="M565.94,198.69a6.69,6.69,0,0,0,2,2.13,12.07,12.07,0,0,0,13.58.68,6.69,6.69,0,0,0,2.24-1.92c-0.07-.08-0.88.71-2.45,1.55a12.57,12.57,0,0,1-13.12-.65C566.75,199.48,566,198.62,565.94,198.69Z" transform="translate(-35.02 -53.47)"/><path class="cls-9" d="M566.55,200.87a6.28,6.28,0,0,0,1.1,2.2,15.05,15.05,0,0,0,9.77,6.31,6.28,6.28,0,0,0,2.45.1,23.09,23.09,0,0,0-2.37-.51,17.12,17.12,0,0,1-9.51-6.14A23.1,23.1,0,0,0,566.55,200.87Z" transform="translate(-35.02 -53.47)"/><path class="cls-9" d="M562.48,219.71a0.64,0.64,0,0,0,.16-0.17A4.86,4.86,0,0,0,563,219a7.31,7.31,0,0,0,1-2.37,8.46,8.46,0,0,0-.09-4.07,7.76,7.76,0,0,0-3.06-4.41c-1.59-1.2-3.69-2.07-5-3.95a4.13,4.13,0,0,1-.64-3.25,18.4,18.4,0,0,1,1.31-3.53,10.27,10.27,0,0,0,.09-8.21,9,9,0,0,0-2.68-3.56,10.9,10.9,0,0,0-4.16-1.88c-1.48-.39-3-0.63-4.32-1.09a8.49,8.49,0,0,1-3.58-2.11,6.06,6.06,0,0,1-1.47-3.66,30.93,30.93,0,0,0-.52-4,13.78,13.78,0,0,0-3.5-6.62,10.87,10.87,0,0,0-5.75-3.09,8.68,8.68,0,0,0-5.34.63,8.4,8.4,0,0,0-3.16,2.56,7.12,7.12,0,0,0-1.15,2.3,3.65,3.65,0,0,0-.16.88,8.76,8.76,0,0,1,1.5-3,8.29,8.29,0,0,1,8.23-2.92,10.49,10.49,0,0,1,5.47,3,13.34,13.34,0,0,1,3.32,6.4,31,31,0,0,1,.49,4,6.63,6.63,0,0,0,1.6,4,9,9,0,0,0,3.83,2.28c1.43,0.48,2.91.73,4.36,1.11a10.34,10.34,0,0,1,3.94,1.77,8.42,8.42,0,0,1,2.5,3.32,9.72,9.72,0,0,1-.06,7.77,18.59,18.59,0,0,0-1.32,3.65,4.65,4.65,0,0,0,.75,3.63c1.44,2,3.6,2.86,5.15,4a7.44,7.44,0,0,1,3,4.15,8.37,8.37,0,0,1,.19,3.93A9.23,9.23,0,0,1,562.48,219.71Z" transform="translate(-35.02 -53.47)"/><path class="cls-9" d="M562.8,181.3a1.52,1.52,0,0,0,.19-0.63,3,3,0,0,0-.4-1.84,4.68,4.68,0,0,0-2.24-2,7.24,7.24,0,0,0-3.94-.26c-1.45.23-3,.75-4.61,1a6.09,6.09,0,0,1-4.95-.94c-1.43-1.16-2.1-3.11-2.79-5a20.53,20.53,0,0,0-3-5.76,19,19,0,0,0-10.19-7.06,10.91,10.91,0,0,0-5.5,0,8.55,8.55,0,0,0-4.11,2.47,6.35,6.35,0,0,0-1.64,3.59,6.26,6.26,0,0,0,.36,3,4.76,4.76,0,0,0,1,1.6,1.94,1.94,0,0,0,.49.43,6.68,6.68,0,0,1-1.26-2.11,6.18,6.18,0,0,1-.25-2.84,6,6,0,0,1,1.62-3.35,8.17,8.17,0,0,1,3.92-2.27,10.48,10.48,0,0,1,5.23.09,18.67,18.67,0,0,1,9.84,6.89,20.17,20.17,0,0,1,2.92,5.6c0.7,1.92,1.39,4,3,5.28a5.23,5.23,0,0,0,2.68,1.11,9.3,9.3,0,0,0,2.7-.1c1.71-.3,3.2-0.85,4.6-1.09a7,7,0,0,1,3.74.15,4.5,4.5,0,0,1,2.16,1.78,3,3,0,0,1,.48,1.71C562.85,181.08,562.76,181.29,562.8,181.3Z" transform="translate(-35.02 -53.47)"/><path class="cls-10" d="M452.21,289s-7.62-11.9-8.95-12.9-13.15-5.1-14.14-4.77-15.19,3-13.53,4.66,11.56-.34,11.56-0.34l1.34,0.64s-8.55,1.51-10.34,2.58-1,3,.53,2.82,9-1.75,9.44-1.46-8.07,2.14-9,2.7c-1.23.75-1.31,3,.25,2.82,0.92-.08,8.95-2.29,8.95-2.29s-6.35,2.57-6.93,3.14a1.18,1.18,0,0,0,1.22,2c0.95-.23,5.43-2.45,6.7-2.75,0,0,1.19.3,2.31,2.69,0.52,1.11,2.93,8.08,7.13,7.92,3.71-.14,7.41,2.86,7.41,2.86Z" transform="translate(-35.02 -53.47)"/><path class="cls-11" d="M415.62,276a6.58,6.58,0,0,0,2.61.67,15.32,15.32,0,0,0,2.93.07c1.09-.14,2.27-0.33,3.52-0.52l2.65-.43h-0.16a38.3,38.3,0,0,0,6.17,1.82,38.28,38.28,0,0,0-6-2.43l-0.07,0h-0.09l-2.63.4-3.48.57a18.89,18.89,0,0,1-2.84.07C416.64,276.15,415.65,275.93,415.62,276Z" transform="translate(-35.02 -53.47)"/><path class="cls-3" d="M520.6,246s-8.07,4.89-11,10.93-18.45,46.54-18.45,46.54L452.2,284.17l-9.76,16.66L479.13,330a24.18,24.18,0,0,0,16.32,3.35h0c8.78-1.32,13.09-1.53,16.1-9.87l9.76-27-2.08-49.53" transform="translate(-35.02 -53.47)"/><g class="cls-4"><path d="M509.67,269.66c-9,13-10.46,19.14-11.41,34.92-0.32,5.24,0,10.89,3.12,15.08,1.15,1.53,3.37,2.83,4.84,1.61s0.41-3.39-.06-5.2c-2.79-10.61-3.79-18.78-1.8-28.12s1.47-9.18,5.31-17.91" transform="translate(-35.02 -53.47)"/></g><path class="cls-8" d="M495.82,319.68a36.71,36.71,0,0,0-4.89-16.21,8.9,8.9,0,0,1,1.46,2.07,26.29,26.29,0,0,1,3.5,11.62A8.9,8.9,0,0,1,495.82,319.68Z" transform="translate(-35.02 -53.47)"/><path class="cls-3" d="M508.7,366.67L503,464.49h93.24s-2.76-49-6.23-69.93c-3.63-37-15.17-42.48-23.27-60.33l4.57-86.56-19.73-9.13L550.78,234l-30.64,3.71s-0.9,9.21-.9,9.21-2.81,8.13-4.4,12.33c-4.94,13-11.7,28.62-10.7,40,0.45,5.16,7.53,39.54,7.53,39.54l-2.74,27.78Z" transform="translate(-35.02 -53.47)"/><path class="cls-8" d="M516,254.55a4.49,4.49,0,0,1-.24.75l-0.79,2.12c-0.7,1.84-1.78,4.47-3.12,7.73s-2.92,7.13-4.34,11.55a83.58,83.58,0,0,0-3.33,14.69,47.83,47.83,0,0,0,.16,15c0.79,4.57,2,8.58,2.81,12s1.32,6.23,1.64,8.18l0.29,2.25a4.5,4.5,0,0,1,.07.79,4.5,4.5,0,0,1-.17-0.77l-0.39-2.23c-0.38-1.93-.92-4.72-1.8-8.12s-2.1-7.42-2.92-12a47.51,47.51,0,0,1-.21-15.14A81.57,81.57,0,0,1,507,276.55c1.45-4.43,3.09-8.3,4.46-11.54l3.27-7.66,0.88-2.09A4.53,4.53,0,0,1,516,254.55Z" transform="translate(-35.02 -53.47)"/><g class="cls-4"><path d="M512.2,344.5c-1,4.79,2.9,9.5,7.48,11.2s9.66,1.15,14.51.58l33.84-4c1.78-.21,3.87-0.62,4.63-2.25a4.09,4.09,0,0,0,0-2.89,10.83,10.83,0,0,0-5.69-6.28,24,24,0,0,0-8.41-2.1c-11.65-1.17-23.35.9-34.87,3" transform="translate(-35.02 -53.47)"/></g><path class="cls-10" d="M485.81,327.35l8.6,0.78,3.77,1.9s-0.9-1-1.68-2a30.37,30.37,0,0,0-3.82-3.17l-6.41-.66s-3.59-.27-3.82-2.75l4.89-.47s-5.07-.35-5-2.89l3.71-.66a1.16,1.16,0,0,1-1.17-1.35L495.15,315l9.77,6.93,9.44,8.35,2.12,0.09L517.23,344s-8.38-1-10.66-2.16-12.44-10.3-12.44-10.3-5.32-.47-6.79-1.74A3.88,3.88,0,0,1,485.81,327.35Z" transform="translate(-35.02 -53.47)"/><path class="cls-11" d="M519.3,344.2h-0.13l-0.39,0-1.54-.17c-1.35-.16-3.32-0.41-5.83-0.84a34.2,34.2,0,0,1-4.14-.91,7,7,0,0,1-2.13-1.18q-1-.74-2.05-1.59c-2.78-2.25-5.84-4.9-9.16-7.86l0.11,0.05a29,29,0,0,1-4.81-.83,9.08,9.08,0,0,1-1.22-.43,4.44,4.44,0,0,1-.6-0.31l-0.28-.2-0.25-.23a5.2,5.2,0,0,1-.86-1,3.27,3.27,0,0,1-.5-1.33l0-.25,0.27,0,8.6,0.77h0l0,0,3.77,1.9-0.28.37-1.2-1.39-0.6-.7a8.09,8.09,0,0,0-.65-0.64c-0.94-.82-2-1.6-3-2.36l0.11,0-3.85-.39-2-.2c-0.33,0-.67-0.06-1-0.12a7.07,7.07,0,0,1-1-.24,4.58,4.58,0,0,1-1.7-.92,2.65,2.65,0,0,1-.9-1.75l0-.24,0.23,0,4.89-.47v0.47a11.13,11.13,0,0,1-3.14-.71,4.33,4.33,0,0,1-1.39-.86,2.05,2.05,0,0,1-.64-1.56v-0.19l0.19,0,3.93-.57v0.46a2,2,0,0,1-1.09-.48,1.41,1.41,0,0,1-.42-1.14v-0.19l0.19,0L495,314.71h0.08l0.07,0,9.76,7h0l9.41,8.39-0.08,0,8.71,0.48,2.31,0.15,0.59,0,0.2,0h-0.8L523,330.7l-8.71-.36h0l0,0L504.72,322h0l-9.79-6.91,0.15,0L485,316.35l0.2-.21a1,1,0,0,0,.28.77,1.51,1.51,0,0,0,.82.36l1.68,0.21-1.66.24-3.93.57,0.2-.22a1.58,1.58,0,0,0,.5,1.2,3.88,3.88,0,0,0,1.24.76,10.69,10.69,0,0,0,3,.67v0.47l-4.89.47,0.22-.26a2.16,2.16,0,0,0,.74,1.43,4.11,4.11,0,0,0,1.52.82,6.61,6.61,0,0,0,.95.23c0.31,0.05.64,0.07,1,.11l2,0.2,3.85,0.4h0.06l0.05,0c1.06,0.77,2.08,1.55,3,2.4a8.46,8.46,0,0,1,.69.68l0.61,0.71,1.18,1.38,0.77,0.9-1-.53-3.76-1.91,0.08,0-8.6-.79,0.24-.23a2.92,2.92,0,0,0,.43,1.13,4.78,4.78,0,0,0,.79,1,4.91,4.91,0,0,0,2.17,1.08,28.72,28.72,0,0,0,4.73.84h0.07l0,0c3.3,3,6.34,5.64,9.09,7.9q1,0.85,2,1.6a6.72,6.72,0,0,0,2,1.16,34.9,34.9,0,0,0,4.09,1c2.5,0.46,4.47.74,5.81,0.94l1.53,0.23,0.39,0.06Z" transform="translate(-35.02 -53.47)"/><path class="cls-11" d="M499.81,325.19a8.84,8.84,0,0,1-1.75-1.09c-1-.72-2.47-1.75-4-2.91l-0.43-.32,0.15,0c-1.82.07-3.44,0.11-4.61,0.12a7.75,7.75,0,0,1-1.89-.08,7.76,7.76,0,0,1,1.87-.24c1.17-.09,2.78-0.19,4.6-0.27h0.08l0.07,0.05,0.43,0.32c1.56,1.16,2.95,2.23,3.94,3A8.85,8.85,0,0,1,499.81,325.19Z" transform="translate(-35.02 -53.47)"/><path class="cls-11" d="M498.72,320.63a7.77,7.77,0,0,1-1.6-1c-1-.66-2.28-1.61-3.74-2.7l0.17,0L493,317c-1.94.2-3.7,0.36-5,.44a8.94,8.94,0,0,1-2.08,0,9,9,0,0,1,2-.38c1.27-.17,3-0.38,5-0.58l0.57-.06h0.09l0.07,0.06c1.45,1.09,2.74,2.08,3.65,2.82A7.77,7.77,0,0,1,498.72,320.63Z" transform="translate(-35.02 -53.47)"/><path class="cls-3" d="M587.88,335.76a24.2,24.2,0,0,0,3.72-16.45l-7.45-43.78c-0.85-7.32-1.89-17.31-7-22.66-3.49-3.67-7.73-6.88-11.9-6.84l-8.94,25.36,3.36,49-45.36,8.12v19.88s34.66-1.14,53.94-1.67a24.18,24.18,0,0,0,19.58-11h0Z" transform="translate(-35.02 -53.47)"/><path class="cls-8" d="M587.88,335.76a2.35,2.35,0,0,1-.2.33L587,337a25.23,25.23,0,0,1-2.91,3.3,24.54,24.54,0,0,1-5.75,4,24.27,24.27,0,0,1-9,2.48c-13.86.54-33.16,1.12-55,1.82h-0.27v-0.27c0-4.2,0-8.61,0-13.09q0-3.43,0-6.79v-0.22l0.21,0,45.37-8.07-0.17.23-2.87-27.16-0.76-7.52-0.18-2c0-.45,0-0.68,0-0.68s0,0.23.11,0.67l0.25,2,0.88,7.51,3,27.14,0,0.2-0.19,0-45.35,8.17,0.21-.26q0,3.36,0,6.79c0,4.48,0,8.89,0,13.09l-0.27-.26,55-1.65a24.14,24.14,0,0,0,8.89-2.38,24.78,24.78,0,0,0,5.74-3.9,27.39,27.39,0,0,0,3-3.23l0.67-.92A2.35,2.35,0,0,1,587.88,335.76Z" transform="translate(-35.02 -53.47)"/><path class="cls-8" d="M570.33,247.68c0,0.1-1.53.69-3.78,2.14a26.7,26.7,0,0,0-3.7,2.88,27.09,27.09,0,0,0-6.51,9.36,26.7,26.7,0,0,0-1.42,4.47c-0.57,2.62-.58,4.3-0.68,4.29a5.07,5.07,0,0,1,0-1.18,9.94,9.94,0,0,1,.09-1.38,16.51,16.51,0,0,1,.26-1.81,24.42,24.42,0,0,1,1.33-4.58,25.9,25.9,0,0,1,6.63-9.53,24.42,24.42,0,0,1,3.83-2.84,16.49,16.49,0,0,1,1.61-.88,9.93,9.93,0,0,1,1.26-.57A5.07,5.07,0,0,1,570.33,247.68Z" transform="translate(-35.02 -53.47)"/><path class="cls-8" d="M551.72,238.41a3.53,3.53,0,0,1-1.1.76,34.76,34.76,0,0,1-3.36,1.36c-2.85,1.08-6.61,3-10.9,4.86a33.28,33.28,0,0,1-11.57,3,17.4,17.4,0,0,1-3.64-.19,9,9,0,0,1-1-.2,0.88,0.88,0,0,1-.33-0.11,32,32,0,0,0,4.91.13,35.69,35.69,0,0,0,11.39-3.13c4.26-1.85,8.07-3.72,11-4.72,1.45-.51,2.63-0.85,3.41-1.2S551.69,238.37,551.72,238.41Z" transform="translate(-35.02 -53.47)"/><polygon class="cls-3" points="407.42 260.62 402.92 225.28 372.15 226.8 374.29 262.26 407.42 260.62"/><path class="cls-10" d="M446.63,287.67a2.84,2.84,0,0,1-3.31.05c-1-.59-1.82-1.52-2.8-2.18-2.93-2-7.09-1.44-9.92-3.57a1.13,1.13,0,0,1-.58-1.24,1.23,1.23,0,0,1,1.21-.47L443,280.36" transform="translate(-35.02 -53.47)"/><path class="cls-11" d="M443,280.36a4.71,4.71,0,0,0-1.27-.14c-0.82,0-2-.09-3.46-0.13l-5.13-.11-1.48,0a2.32,2.32,0,0,0-1.72.39,1,1,0,0,0-.17,1.1,2,2,0,0,0,.6.75,7.68,7.68,0,0,0,1.49.88c2.13,0.94,4.29,1.09,6.1,1.64a8.84,8.84,0,0,1,2.42,1.05c0.69,0.45,1.27,1,1.86,1.46a4.13,4.13,0,0,0,3.31,1.11,1.48,1.48,0,0,0,1.11-.66,3.43,3.43,0,0,1-1.15.4,4,4,0,0,1-3-1.22c-0.55-.46-1.11-1-1.84-1.56a9.11,9.11,0,0,0-2.56-1.19c-1.87-.6-4-0.77-6-1.65a7.2,7.2,0,0,1-1.35-.79c-0.38-.3-0.58-0.71-0.37-0.87a2,2,0,0,1,1.24-.2h1.48l5.13,0c1.46,0,2.64,0,3.46-.08A4.7,4.7,0,0,0,443,280.36Z" transform="translate(-35.02 -53.47)"/><path class="cls-7" d="M433.93,290.66a3.44,3.44,0,0,1-.87.43,21.69,21.69,0,0,1-2.51.88,10.92,10.92,0,0,1-3.95.43,7.44,7.44,0,0,1-2.31-.58,9.73,9.73,0,0,1-2.1-1.39,1.91,1.91,0,0,0-1-.4,1.4,1.4,0,0,0-.94.37,8,8,0,0,0-1.3,1.81,2.45,2.45,0,0,1-1.84,1.24,2.65,2.65,0,0,1-1.82-.65,4.48,4.48,0,0,1-1.3-2.36,3.06,3.06,0,0,1-.16-1,4.16,4.16,0,0,1,.35.9,4.63,4.63,0,0,0,1.34,2.13,2.3,2.3,0,0,0,1.55.51,2,2,0,0,0,1.47-1.07A8,8,0,0,1,419.9,290a1.9,1.9,0,0,1,1.29-.5,2.4,2.4,0,0,1,1.3.49,9.68,9.68,0,0,0,2,1.36,7.15,7.15,0,0,0,2.15.57,11.24,11.24,0,0,0,3.81-.31C432.6,291.08,433.9,290.57,433.93,290.66Z" transform="translate(-35.02 -53.47)"/><ellipse class="cls-7" cx="424.98" cy="296.4" rx="10.41" ry="0.26" transform="translate(-47.64 -34.5) rotate(-2.52)"/><path class="cls-7" d="M433.25,301a10.75,10.75,0,0,1-2.34.61c-1.46.31-3.49,0.68-5.73,1s-4.3.6-5.78,0.74a10.76,10.76,0,0,1-2.42.12,11.6,11.6,0,0,1,2.37-.48l5.75-.89,5.75-.88A11.62,11.62,0,0,1,433.25,301Z" transform="translate(-35.02 -53.47)"/><path class="cls-1" d="M555.15,291.08a2.39,2.39,0,0,1-.43.39l-1.28,1c-1.13.87-2.77,2.14-4.92,3.53a29.53,29.53,0,0,1-8.17,3.77,17.18,17.18,0,0,1-10.94-.37c-3.69-1.49-6.54-4-9.28-5.93a20.58,20.58,0,0,0-7.93-3.84,10.24,10.24,0,0,0-5.87.29,16.05,16.05,0,0,0-1.95,1,5.89,5.89,0,0,1,1.87-1.21,10.14,10.14,0,0,1,6-.47,20.53,20.53,0,0,1,8.13,3.81c2.77,1.92,5.61,4.39,9.19,5.84a16.88,16.88,0,0,0,10.62.39,30.14,30.14,0,0,0,8.09-3.62c2.16-1.34,3.83-2.55,5-3.38l1.34-.95A2.39,2.39,0,0,1,555.15,291.08Z" transform="translate(-35.02 -53.47)"/><path class="cls-1" d="M583.65,271.31c0,0.09-1.54-.36-4-0.73a34.83,34.83,0,0,0-4.42-.35,34.1,34.1,0,0,0-10.71,1.55,34.84,34.84,0,0,0-4.14,1.59c-2.3,1.06-3.62,1.93-3.67,1.85a4.53,4.53,0,0,1,.89-0.67,22.9,22.9,0,0,1,2.62-1.51,30.32,30.32,0,0,1,4.16-1.72,31.67,31.67,0,0,1,10.86-1.57,30.33,30.33,0,0,1,4.47.47,22.91,22.91,0,0,1,2.94.71A4.54,4.54,0,0,1,583.65,271.31Z" transform="translate(-35.02 -53.47)"/><path class="cls-1" d="M589.25,307.63a10.68,10.68,0,0,0-4.64.5,27,27,0,0,0-4.62,2.19,21.72,21.72,0,0,1-5.87,2.47,16.77,16.77,0,0,1-11.3-1.56,15.37,15.37,0,0,1-2.88-2,5.38,5.38,0,0,1-.88-0.93,25,25,0,0,0,3.93,2.6,17,17,0,0,0,11,1.38,22.27,22.27,0,0,0,5.75-2.38,25.05,25.05,0,0,1,4.74-2.12,9.62,9.62,0,0,1,3.49-.42A3.46,3.46,0,0,1,589.25,307.63Z" transform="translate(-35.02 -53.47)"/><path class="cls-1" d="M548.32,347.43c-0.09,0,.57-1.32,1.15-3.53a20.85,20.85,0,0,0-2.84-17c-1.27-1.9-2.31-2.9-2.24-3a3.39,3.39,0,0,1,.77.66,17,17,0,0,1,1.77,2.1,19.8,19.8,0,0,1,2.9,17.34,17,17,0,0,1-1,2.56A3.39,3.39,0,0,1,548.32,347.43Z" transform="translate(-35.02 -53.47)"/><path class="cls-1" d="M509.94,266.53a5.56,5.56,0,0,0-3.54-2A2.73,2.73,0,0,1,509.94,266.53Z" transform="translate(-35.02 -53.47)"/><path class="cls-1" d="M563.22,245.08c0,0.06-.75-0.1-2.09,0a12.22,12.22,0,0,0-5.27,2,21.93,21.93,0,0,0-3.09,2.41c-1,1-2.06,2.08-3.14,3.27-2.15,2.34-4.54,5.11-8,6.77a20.7,20.7,0,0,1-10.28,1.84,35.3,35.3,0,0,1-8.39-1.65c-2.32-.73-4.15-1.45-5.41-1.95l-1.44-.6a2.16,2.16,0,0,1-.49-0.24,2.16,2.16,0,0,1,.53.14l1.48,0.5c1.28,0.44,3.13,1.11,5.45,1.79a36.55,36.55,0,0,0,8.3,1.52,20.53,20.53,0,0,0,10-1.83c3.3-1.6,5.66-4.31,7.84-6.63,1.09-1.18,2.14-2.29,3.2-3.26a21.59,21.59,0,0,1,3.19-2.41,11.9,11.9,0,0,1,5.45-1.85,7.36,7.36,0,0,1,1.57.06A2.15,2.15,0,0,1,563.22,245.08Z" transform="translate(-35.02 -53.47)"/><path class="cls-1" d="M549.92,235.91a5.37,5.37,0,0,1-1.08.54c-0.71.32-1.75,0.74-3.05,1.22a76.3,76.3,0,0,1-21.18,4.46c-1.39.09-2.51,0.12-3.29,0.12a5.36,5.36,0,0,1-1.21-.06,5.4,5.4,0,0,1,1.2-.15c0.77-.06,1.89-0.15,3.26-0.28a94.57,94.57,0,0,0,21.09-4.44c1.31-.43,2.37-0.8,3.1-1.06A5.4,5.4,0,0,1,549.92,235.91Z" transform="translate(-35.02 -53.47)"/><path class="cls-1" d="M468.93,321.75a0.65,0.65,0,0,1-.11-0.27,4.82,4.82,0,0,1-.19-0.83,9,9,0,0,1,.11-3.11,16.64,16.64,0,0,1,1.59-4.33c0.79-1.55,1.83-3.14,2.82-4.85a18.79,18.79,0,0,0,2.17-5.06,10.46,10.46,0,0,0,.09-4.45,14.9,14.9,0,0,0-1.48-3.88,3.4,3.4,0,0,1,.68.91,9.93,9.93,0,0,1,1.15,2.89,10.41,10.41,0,0,1,0,4.63,18.35,18.35,0,0,1-2.19,5.21c-1,1.73-2.05,3.3-2.85,4.81a17.52,17.52,0,0,0-1.65,4.19A11.9,11.9,0,0,0,468.93,321.75Z" transform="translate(-35.02 -53.47)"/><path class="cls-1" d="M581.76,360a4.3,4.3,0,0,1-.69-0.35,20.1,20.1,0,0,0-2-1,22.38,22.38,0,0,0-7.83-1.72,38.18,38.18,0,0,0-11.82,1.49c-4.35,1.19-9,3.08-13.91,4.79a46.28,46.28,0,0,1-14.45,3,34.45,34.45,0,0,1-11.88-1.95,33,33,0,0,1-7.28-3.61c-0.8-.54-1.4-1-1.79-1.3a4.23,4.23,0,0,1-.59-0.5s0.86,0.62,2.49,1.62a35,35,0,0,0,19,5.24,46.62,46.62,0,0,0,14.29-3c4.93-1.7,9.55-3.59,14-4.76a37.68,37.68,0,0,1,12-1.4,21.64,21.64,0,0,1,7.89,1.9,15.72,15.72,0,0,1,1.93,1.08A4.25,4.25,0,0,1,581.76,360Z" transform="translate(-35.02 -53.47)"/><path class="cls-1" d="M588.83,396.77a14.1,14.1,0,0,1-2.74,2,22.5,22.5,0,0,1-8.76,2.77,32.28,32.28,0,0,1-6.38.08,43.52,43.52,0,0,1-7.2-1.31c-5-1.29-10.24-3.46-15.82-5.4s-11.1-3.31-16.22-3.28a27,27,0,0,0-7.14,1c-2.19.6-4.21,1.3-6.12,1.73a12.41,12.41,0,0,1-9.05-.78,6.54,6.54,0,0,1-1.94-1.6,4,4,0,0,1-.49-0.73s0.19,0.24.57,0.66a6.89,6.89,0,0,0,2,1.49,12.37,12.37,0,0,0,8.87.6c1.88-.44,3.88-1.16,6.09-1.78a27.11,27.11,0,0,1,7.26-1c5.2-.05,10.79,1.31,16.39,3.27s10.82,4.13,15.77,5.43a43.88,43.88,0,0,0,7.12,1.34,32.52,32.52,0,0,0,6.3,0,23.07,23.07,0,0,0,8.7-2.58,13.56,13.56,0,0,0,1.24-.73,9.29,9.29,0,0,0,.87-0.59A5.49,5.49,0,0,1,588.83,396.77Z" transform="translate(-35.02 -53.47)"/><path class="cls-1" d="M593.38,426.24l-0.22-.11-0.6-.36a24.41,24.41,0,0,0-2.37-1.27,29.31,29.31,0,0,0-9.51-2.51,49,49,0,0,0-14.57,1c-5.42,1.08-11.24,2.91-17.47,4.42a74.58,74.58,0,0,1-9.21,1.67,62.5,62.5,0,0,1-23.29-1.88,58.57,58.57,0,0,1-9.33-3.42c-1.07-.48-1.87-0.92-2.42-1.21l-0.62-.34a0.83,0.83,0,0,1-.2-0.13l0.23,0.08,0.64,0.29c0.56,0.26,1.37.67,2.45,1.12a64,64,0,0,0,23.84,5.33,62.75,62.75,0,0,0,8.65-.36,75.43,75.43,0,0,0,9.15-1.67c6.2-1.5,12-3.32,17.5-4.38a48.36,48.36,0,0,1,14.71-.86,28.42,28.42,0,0,1,9.56,2.69A17.94,17.94,0,0,1,593.38,426.24Z" transform="translate(-35.02 -53.47)"/><path class="cls-1" d="M541.07,323.32c0,0.1-1.74-.85-4.67-1.86a37.06,37.06,0,0,0-5.25-1.38,36.93,36.93,0,0,0-13.23,0,37,37,0,0,0-5.26,1.34c-2.93,1-4.63,1.92-4.68,1.83a6.74,6.74,0,0,1,1.17-.69,13.84,13.84,0,0,1,1.43-.69c0.57-.24,1.21-0.55,2-0.8a33.6,33.6,0,0,1,5.3-1.47,35.07,35.07,0,0,1,13.4,0,33.6,33.6,0,0,1,5.28,1.51c0.74,0.25,1.38.56,1.95,0.81a13.82,13.82,0,0,1,1.43.7A6.75,6.75,0,0,1,541.07,323.32Z" transform="translate(-35.02 -53.47)"/><path class="cls-1" d="M593.67,457.34l-0.21-.1-0.6-.33c-0.26-.15-0.59-0.32-1-0.52s-0.85-.42-1.37-0.64a32.65,32.65,0,0,0-9.29-2.46,56.47,56.47,0,0,0-14.27.29c-5.36.66-11.18,1.9-17.4,2.62a102.93,102.93,0,0,1-31.88-1.29,95.53,95.53,0,0,1-9.4-2.36c-1.1-.32-1.93-0.63-2.5-0.82l-0.65-.23-0.21-.1,0.23,0,0.66,0.18c0.58,0.16,1.42.43,2.53,0.73,2.2,0.62,5.41,1.43,9.42,2.19a106.16,106.16,0,0,0,31.75,1.13c6.18-.72,12-1.94,17.4-2.58a55.49,55.49,0,0,1,14.38-.18,31.42,31.42,0,0,1,9.32,2.64c0.52,0.24,1,.47,1.36.69s0.71,0.39,1,.56l0.58,0.37A0.79,0.79,0,0,1,593.67,457.34Z" transform="translate(-35.02 -53.47)"/><path class="cls-8" d="M196.66,464.5l2-91.36-71-5.92s-3.78,36.57-3.69,41.46c0,2.33,10.7,25.08,10.7,25.08l-0.11,30.74h62.06Z" transform="translate(-35.02 -53.47)"/><path class="cls-9" d="M172.55,384a7.36,7.36,0,0,1-.59,1.32c-0.42.83-1,2-1.9,3.46a39.22,39.22,0,0,1-8.24,10.07,23.45,23.45,0,0,1-11.77,5.4,16.54,16.54,0,0,1-4,.07,9.75,9.75,0,0,1-1.06-.16,1,1,0,0,1-.36-0.1,26.33,26.33,0,0,0,5.33-.17,24.14,24.14,0,0,0,11.49-5.43,42.16,42.16,0,0,0,8.26-9.86c0.88-1.4,1.56-2.56,2-3.36A8.09,8.09,0,0,1,172.55,384Z" transform="translate(-35.02 -53.47)"/><path class="cls-12" d="M146.12,233.09l32,8.34,1.09-27.91s13.53-1.52,14.27-14.95-0.27-44.39-.27-44.39h0a46.75,46.75,0,0,0-47.18,3.9L144,159.52Z" transform="translate(-35.02 -53.47)"/><path class="cls-13" d="M179.28,213.32A31.28,31.28,0,0,1,162,207.6s3.73,9.85,17.19,9.21Z" transform="translate(-35.02 -53.47)"/><path class="cls-12" d="M145.06,173.51c-0.22-.11-9.12-3.13-9.22,6.08S145,187,145,186.73,145.06,173.51,145.06,173.51Z" transform="translate(-35.02 -53.47)"/><path class="cls-13" d="M142.25,183.21a2.77,2.77,0,0,0-.43.23,1.6,1.6,0,0,1-1.2,0c-1-.37-1.77-1.92-1.8-3.58a5.29,5.29,0,0,1,.47-2.29,1.85,1.85,0,0,1,1.22-1.22,0.82,0.82,0,0,1,.94.45,4.41,4.41,0,0,1,.11.46,0.45,0.45,0,0,0,.13-0.53,1,1,0,0,0-.36-0.58,1.21,1.21,0,0,0-.88-0.24,2.25,2.25,0,0,0-1.69,1.41,5.44,5.44,0,0,0-.58,2.56c0,1.85,1,3.6,2.3,4a1.72,1.72,0,0,0,1.47-.23A0.55,0.55,0,0,0,142.25,183.21Z" transform="translate(-35.02 -53.47)"/><path class="cls-8" d="M189.39,174.88a1.92,1.92,0,0,1-1.93,1.86,1.84,1.84,0,0,1-1.9-1.81,1.92,1.92,0,0,1,1.93-1.86A1.84,1.84,0,0,1,189.39,174.88Z" transform="translate(-35.02 -53.47)"/><path class="cls-8" d="M189.89,173c-0.25.24-1.66-.9-3.72-1s-3.62.89-3.84,0.62,0.16-.56.84-1a5.27,5.27,0,0,1,3.08-.81,5.06,5.06,0,0,1,2.95,1.09C189.82,172.4,190,172.87,189.89,173Z" transform="translate(-35.02 -53.47)"/><path class="cls-8" d="M169.14,174.74a1.92,1.92,0,0,1-1.93,1.86,1.84,1.84,0,0,1-1.9-1.81,1.92,1.92,0,0,1,1.93-1.86A1.84,1.84,0,0,1,169.14,174.74Z" transform="translate(-35.02 -53.47)"/><path class="cls-8" d="M169.58,172.49c-0.25.24-1.66-.9-3.72-1s-3.62.89-3.84,0.62,0.15-.56.84-1a5.27,5.27,0,0,1,3.08-.81,5.06,5.06,0,0,1,2.95,1.09C169.5,171.92,169.7,172.39,169.58,172.49Z" transform="translate(-35.02 -53.47)"/><path class="cls-8" d="M176.42,188.13a13.69,13.69,0,0,1,3.38-.46,1.16,1.16,0,0,0,1.14-.47,2.69,2.69,0,0,0-.29-1.58l-1.39-4.08c-1.92-5.81-3.29-10.58-3.05-10.65s2,4.57,3.9,10.38l1.32,4.1a3.05,3.05,0,0,1,.19,2.08,1.32,1.32,0,0,1-.9.73,3.59,3.59,0,0,1-.9.09A13.44,13.44,0,0,1,176.42,188.13Z" transform="translate(-35.02 -53.47)"/><path class="cls-8" d="M170.45,164.42c-0.23.55-2.28,0.2-4.71,0.39s-4.42.77-4.72,0.25c-0.13-.25.23-0.76,1-1.27a8.22,8.22,0,0,1,7.19-.48C170.12,163.7,170.55,164.16,170.45,164.42Z" transform="translate(-35.02 -53.47)"/><path class="cls-8" d="M189.39,167c-0.38.45-1.79-.09-3.5-0.19s-3.17.18-3.49-.32c-0.14-.24.11-0.7,0.76-1.12a5.07,5.07,0,0,1,5.62.41C189.38,166.25,189.56,166.74,189.39,167Z" transform="translate(-35.02 -53.47)"/><path class="cls-8" d="M200.15,146a5,5,0,0,0-1.64-4.51,3.52,3.52,0,0,0-4.57.15,4.11,4.11,0,0,0-3.32-5.13c-2.19-.23-4.13,1.34-6.27,1.83a10,10,0,0,1-6.24-1c-2-.89-3.77-2.07-5.75-2.89a17.2,17.2,0,0,0-22.41,9.15c-2.9-1-6.3.31-8.22,2.72a12.52,12.52,0,0,0-2.29,8.74,28,28,0,0,0,1.28,6.1c0,0.17,0,.34,0,0.51-0.18,7.4.29,16.11,3.44,16.29,5.49,0.32,4.62-10.09,4.62-10.09,6.86-2.32,4.77-12.53,6.53-14s5.43-4.87,19.24,2.95c5.36,3,12.66,3.26,16.67,2.53l0.35-.06h0.08l0.12,0a12.73,12.73,0,0,0,3.69-1.38,7.16,7.16,0,0,0,3.13-3.19,3.92,3.92,0,0,0-.59-4.24A8.62,8.62,0,0,0,200.15,146Z" transform="translate(-35.02 -53.47)"/><path class="cls-13" d="M177.5,194.54a9.25,9.25,0,0,1-1.3,2.3,3.12,3.12,0,0,1-2.27,1.19,2.8,2.8,0,0,1-2.31-1.39,4.47,4.47,0,0,1-.54-2.72c0.07-.85.51-1.84,1.35-1.91a2.12,2.12,0,0,1,1,.27l4.36,2" transform="translate(-35.02 -53.47)"/><path class="cls-8" d="M175.58,198.11a6.42,6.42,0,0,1-2.35-.39,3.38,3.38,0,0,1-1.72-1.7,3.56,3.56,0,0,1,.07-2.9,3.18,3.18,0,0,1,.41-0.65c0.18-.18.15-0.17,0.34-0.13s0.46,0.21.7,0.31l0.72,0.33c0.93,0.42,1.78.8,2.49,1.1a8.08,8.08,0,0,0,2.38.83,8.09,8.09,0,0,0-2.14-1.34c-0.68-.37-1.5-0.79-2.42-1.25l-0.7-.35a8,8,0,0,0-.8-0.37,1,1,0,0,0-.66,0,1.22,1.22,0,0,0-.51.37,3.81,3.81,0,0,0-.53.82,4.16,4.16,0,0,0,0,3.55,3.79,3.79,0,0,0,2.17,1.92,3.58,3.58,0,0,0,1.92.16A1,1,0,0,0,175.58,198.11Z" transform="translate(-35.02 -53.47)"/><path class="cls-9" d="M154.47,152.57a8.11,8.11,0,0,1,.06-1.63,6.35,6.35,0,0,1,2.26-3.69,8.56,8.56,0,0,1,6.14-1.74,26.37,26.37,0,0,1,7.79,2.09c1.35,0.51,2.69,1,4,1.35a21.21,21.21,0,0,0,10.57.06,20.57,20.57,0,0,0,4.22-1.58c0.48-.24.83-0.45,1.07-0.6a1.73,1.73,0,0,0,.35-0.24s-0.53.27-1.49,0.7a22.83,22.83,0,0,1-4.22,1.45,21.78,21.78,0,0,1-6.56.5,21.24,21.24,0,0,1-3.84-.66c-1.31-.35-2.63-0.84-4-1.35a26,26,0,0,0-7.91-2.09,8.77,8.77,0,0,0-6.34,1.89,6.36,6.36,0,0,0-2.23,3.87A3.71,3.71,0,0,0,154.47,152.57Z" transform="translate(-35.02 -53.47)"/><path class="cls-9" d="M143.05,174.83a1.06,1.06,0,0,0,.19-0.28c0.12-.19.27-0.47,0.45-0.84a17.27,17.27,0,0,0,1.21-3.29,18.43,18.43,0,0,0,.57-5.18,46.17,46.17,0,0,0-.93-6.29,12.25,12.25,0,0,1,.25-6.18,6.26,6.26,0,0,1,1.39-2.29,4.71,4.71,0,0,1,2-1.18,4.41,4.41,0,0,1,3.31.23,6.34,6.34,0,0,1,1,.77,2.57,2.57,0,0,0-.92-0.9,4.47,4.47,0,0,0-3.47-.36,4.94,4.94,0,0,0-2.14,1.22,6.51,6.51,0,0,0-1.5,2.39,12.38,12.38,0,0,0-.3,6.37,49.68,49.68,0,0,1,1,6.25,19,19,0,0,1-.48,5.1,20.09,20.09,0,0,1-1.08,3.3A12.48,12.48,0,0,0,143.05,174.83Z" transform="translate(-35.02 -53.47)"/><path class="cls-9" d="M153.23,151.43a2.81,2.81,0,0,0,0-.54c0-.39,0-0.9,0-1.54a17.88,17.88,0,0,1,.86-5.56,9.88,9.88,0,0,1,1.94-3.31,7,7,0,0,1,3.7-2.23,9.11,9.11,0,0,1,4.8.4,22.26,22.26,0,0,1,4.72,2.39,39.81,39.81,0,0,0,4.66,2.66,14.6,14.6,0,0,0,4.87,1.2,15.54,15.54,0,0,0,4.52-.36,17.39,17.39,0,0,0,3.72-1.35,14.93,14.93,0,0,0,4.48-3.51,9.37,9.37,0,0,0,.93-1.24,2.72,2.72,0,0,0,.28-0.46,2.8,2.8,0,0,0-.35.42,11.7,11.7,0,0,1-1,1.18,15.48,15.48,0,0,1-4.49,3.36,17.47,17.47,0,0,1-3.66,1.28,15.38,15.38,0,0,1-4.43.32,14.36,14.36,0,0,1-4.74-1.19,40.39,40.39,0,0,1-4.61-2.64,22.36,22.36,0,0,0-4.8-2.42,9.43,9.43,0,0,0-5-.39,7.25,7.25,0,0,0-3.87,2.36,10.07,10.07,0,0,0-2,3.44,17.09,17.09,0,0,0-.75,5.65c0,0.67,0,1.19.07,1.55A2.73,2.73,0,0,0,153.23,151.43Z" transform="translate(-35.02 -53.47)"/><path class="cls-12" d="M213.77,269.49l40.45-45.42,5.74-8s14-17.31,15.13-19.15c1.31-2.12,2.65-2,3.39-1.46,1.17,0.83,1.1,2.87,0,4.72-0.37.64-6.59,10.51-6.59,10.51a27.51,27.51,0,0,1,3.58-1.49c2.62-.95,6.72.12,10.19,2.43s4.23,3.26,3.4,4.64a2.06,2.06,0,0,1-1.52.91,5.87,5.87,0,0,1-3.33-.79c-6.85-4.09-8.5-1.38-8.5-1.38l-0.92,1s5.13-.3,7.23,2.44a3.91,3.91,0,0,1,.68,1.35,5.21,5.21,0,0,1-.25,9,2.17,2.17,0,0,1-2.47,0,2.77,2.77,0,0,1-.63-1.23,4.2,4.2,0,0,0-.27-0.69l-2.52,2.65s-6,5.64-8.29,8.39l-35.72,44.62c-4.64,6.74-11.67,12.31-18.32,7.55h0C207,284.92,207.63,275.92,213.77,269.49Z" transform="translate(-35.02 -53.47)"/><path class="cls-12" d="M256.27,224.4a3,3,0,0,0,3.53.25c1.13-.57,2-1.51,3.12-2.17,3.25-2,7.67-1.11,10.82-3.22a1.21,1.21,0,0,0,.7-1.29,1.32,1.32,0,0,0-1.26-.57l-12.55-.61" transform="translate(-35.02 -53.47)"/><path class="cls-13" d="M260.64,216.8a5,5,0,0,1,1.36-.07c0.88,0,2.14,0,3.71.07L271.2,217l1.59,0.07a2.49,2.49,0,0,1,1.81.52,1.06,1.06,0,0,1,.12,1.18,2.17,2.17,0,0,1-.69.76,8.22,8.22,0,0,1-1.64.85c-2.33.88-4.66,0.9-6.62,1.38a9.46,9.46,0,0,0-2.66,1c-0.76.44-1.42,1-2.07,1.45a4.42,4.42,0,0,1-3.61,1,1.59,1.59,0,0,1-1.15-.77,3.67,3.67,0,0,0,1.2.5,4.28,4.28,0,0,0,3.26-1.12c0.61-.46,1.25-1,2.07-1.55a9.76,9.76,0,0,1,2.81-1.11c2-.53,4.36-0.58,6.52-1.41a7.71,7.71,0,0,0,1.49-.77c0.43-.3.66-0.72,0.45-0.91a2.1,2.1,0,0,0-1.31-.29l-1.59-.09-5.48-.35c-1.56-.11-2.82-0.21-3.69-0.29A5,5,0,0,1,260.64,216.8Z" transform="translate(-35.02 -53.47)"/><path class="cls-13" d="M274.82,216a5.18,5.18,0,0,1,1.83-1.51,4,4,0,0,1,2.5-.18,10.25,10.25,0,0,1,2.92,1.27,16.32,16.32,0,0,0,3,1.49,5.27,5.27,0,0,0,2.73.25,2.06,2.06,0,0,0,1.47-1.12,1.21,1.21,0,0,0,.15-0.66,4.39,4.39,0,0,0-.31.57,1.94,1.94,0,0,1-1.37.89,5.22,5.22,0,0,1-2.52-.33,18,18,0,0,1-2.86-1.49,10,10,0,0,0-3.07-1.29,4.19,4.19,0,0,0-2.72.3,3.73,3.73,0,0,0-1.4,1.2A1.29,1.29,0,0,0,274.82,216Z" transform="translate(-35.02 -53.47)"/><path class="cls-13" d="M278.91,199.43a13.06,13.06,0,0,0-1.25,2l-2.89,4.78-3,4.74a13.06,13.06,0,0,0-1.18,2,10.4,10.4,0,0,0,1.45-1.82c0.84-1.16,1.94-2.81,3.08-4.68s2.12-3.59,2.78-4.86A10.43,10.43,0,0,0,278.91,199.43Z" transform="translate(-35.02 -53.47)"/><path class="cls-13" d="M275.68,219.63a2.82,2.82,0,0,0,.71.13,2.15,2.15,0,0,1,1.57.87,1.15,1.15,0,0,1,0,1.14,6.15,6.15,0,0,1-.89,1.22,2.6,2.6,0,0,0-.73,1.7,2.21,2.21,0,0,0,1,1.72,2.51,2.51,0,0,0,2,.29,3.15,3.15,0,0,0,1.59-.93,10.2,10.2,0,0,0,1.53-2.56,6,6,0,0,0,.51-1.95,1.35,1.35,0,0,0-.1-0.73s0,0.26-.07.71a7.11,7.11,0,0,1-.63,1.83,10.94,10.94,0,0,1-1.55,2.41,2.49,2.49,0,0,1-3,.54,1.78,1.78,0,0,1-.82-1.35,2.22,2.22,0,0,1,.61-1.42,6.13,6.13,0,0,0,.91-1.34,1.5,1.5,0,0,0-.08-1.47,2.25,2.25,0,0,0-1.83-.88A1.88,1.88,0,0,0,275.68,219.63Z" transform="translate(-35.02 -53.47)"/><path class="cls-13" d="M279.37,226.31a0.88,0.88,0,0,0-.29.59,2,2,0,0,0,.52,1.73,2.69,2.69,0,0,0,2.59.67,4.4,4.4,0,0,0,2.59-2,5.33,5.33,0,0,0,.79-3.17,5.09,5.09,0,0,0-.89-2.52,4.82,4.82,0,0,0-1.26-1.27,1.38,1.38,0,0,0-.59-0.29,8.39,8.39,0,0,1,1.58,1.73,5,5,0,0,1,.74,2.36,5.08,5.08,0,0,1-.76,2.9,4.1,4.1,0,0,1-2.3,1.84,2.39,2.39,0,0,1-2.25-.49,1.92,1.92,0,0,1-.57-1.48C279.28,226.53,279.4,226.33,279.37,226.31Z" transform="translate(-35.02 -53.47)"/><path class="cls-13" d="M268.43,228.71a1.89,1.89,0,0,0-1-.57,4.38,4.38,0,0,0-2.84,0l0.27,0.3a13,13,0,0,0,.6-1.46,10,10,0,0,0,.52-5.41,25.21,25.21,0,0,1-1,5.26c-0.17.51-.37,1-0.56,1.42l-0.22.48,0.49-.18a4.59,4.59,0,0,1,2.61-.12C268,228.56,268.4,228.76,268.43,228.71Z" transform="translate(-35.02 -53.47)"/><path class="cls-13" d="M279.07,211.94a2.68,2.68,0,0,0,2,2.93c0.06-.12-0.65-0.54-1.19-1.34S279.21,211.93,279.07,211.94Z" transform="translate(-35.02 -53.47)"/><path class="cls-3" d="M173.5,228.45L211,265.58l27.48-28.27,5.23-2.29,6.92-7,16,18-33.92,44.36A31.76,31.76,0,0,1,215.15,302h0a31.76,31.76,0,0,1-29.86-8.15l-28.88-28.3" transform="translate(-35.02 -53.47)"/><path class="cls-8" d="M214.65,287.14a25.73,25.73,0,0,1-.08-3.24,54.88,54.88,0,0,0-.61-7.74,45.68,45.68,0,0,0-1.9-7.52,29.55,29.55,0,0,1-1-3.07,2.84,2.84,0,0,1,.43.76c0.25,0.5.58,1.25,0.94,2.18a36.63,36.63,0,0,1,2.06,7.57,42.17,42.17,0,0,1,.46,7.83c0,1-.09,1.81-0.15,2.37A2.85,2.85,0,0,1,214.65,287.14Z" transform="translate(-35.02 -53.47)"/><g class="cls-4"><path d="M184.93,240.63c5.94,5.67,7.42,13,10.73,20.51,3.9,8.84,10.92,17.44,13.62,26.72a13.88,13.88,0,0,1,.11,8.52c-1,2.72-3.83,6-6.71,6.18l-6-1.59Z" transform="translate(-35.02 -53.47)"/></g><ellipse class="cls-8" cx="251.53" cy="246.32" rx="0.26" ry="12.2" transform="translate(-133.48 154.78) rotate(-38.19)"/><polygon class="cls-9" points="208.71 276.94 197.76 310.32 226.68 297.2 236.06 266.67 208.71 276.94"/><path class="cls-3" d="M145.4,209.09l-4.23,10.24S135.68,231,129.54,239c-6.66,8.66-8.25,36.67-8.25,36.67l6.32,85.94-2.16,4.19c-1,1.92-.48,8.91,1.68,9l71.23,3.31c1.72,0.08,2.86-5.95,2.77-7.67l-5.74-103.8L183.84,238.3l-3.71-5.55-0.09-7-24.78-7.67a15.7,15.7,0,0,1-9.86-9h0Z" transform="translate(-35.02 -53.47)"/><g class="cls-4"><path d="M129,341.38c10.82,6.9,21.74,13.85,33.76,18.33s25.61,6.21,38,2.75l-0.39-8.94-68.07-18.89Z" transform="translate(-35.02 -53.47)"/></g><path class="cls-3" d="M148.49,241.31S129,239.63,125,264s2.46,77.13,4.34,77.57c0,0,34.85,14.88,71.12,18.42l25.45-4.67-3-24.18-18.73,1s-0.82-4.67-7.88-6.64c-10.18-2.84-30.65-7.56-30.65-7.56s0.91-24.27,1.1-31.38,2.66-38-13.59-43.81" transform="translate(-35.02 -53.47)"/><path class="cls-8" d="M183.84,238.3a4.69,4.69,0,0,1,.36.73l0.93,2.12,3.32,7.83,4.86,11.64,1.4,3.37a18.38,18.38,0,0,1,1.2,3.65,23.3,23.3,0,0,1,.41,4l0.22,4c0.64,10.94,1.22,20.85,1.5,28,0.14,3.59.22,6.49,0.25,8.5q0,1.45,0,2.31a4.67,4.67,0,0,1,0,.81,4.7,4.7,0,0,1-.07-0.8l-0.11-2.31-0.41-8.49-1.65-28-0.22-4.05a23,23,0,0,0-.39-3.88,18,18,0,0,0-1.16-3.56l-1.38-3.37-4.76-11.68-3.17-7.89-0.84-2.16A4.7,4.7,0,0,1,183.84,238.3Z" transform="translate(-35.02 -53.47)"/><path class="cls-8" d="M179.89,225.71a5.52,5.52,0,0,1-.22,1c-0.17.67-.44,1.64-0.85,2.85a50.18,50.18,0,0,1-4.41,9.58l-0.14.23-0.21-.17a40.88,40.88,0,0,0-10.71-6c-3.43-1.41-6.77-2.62-9.7-4a36.64,36.64,0,0,1-7.37-4.42,20.59,20.59,0,0,1-4-4.16,11.85,11.85,0,0,1-.85-1.33,2.17,2.17,0,0,1-.25-0.49c0.05,0,.41.64,1.26,1.7a22.23,22.23,0,0,0,4.1,4,38,38,0,0,0,7.34,4.27c2.91,1.35,6.25,2.54,9.7,4a40,40,0,0,1,10.8,6.11l-0.35.06a54.94,54.94,0,0,0,4.55-9.43c0.44-1.19.76-2.15,1-2.8A6.08,6.08,0,0,1,179.89,225.71Z" transform="translate(-35.02 -53.47)"/><path class="cls-8" d="M153.1,242.69s0.46,0.17,1.35.53c0.43,0.2,1,.49,1.57.84a16.74,16.74,0,0,1,2,1.47,19.61,19.61,0,0,1,4.2,5.38,35.5,35.5,0,0,1,3.16,8.74c1.61,6.81,2,15.39,1.58,25.18l-1.12,33.07-0.16-.21c6.21,1.44,12.77,3,19.62,4.68,3.42,0.85,6.92,1.73,10.46,2.69a13.21,13.21,0,0,1,8.62,6.93l-0.23-.14,18.73-1h0.23l0,0.23,3,24.18,0,0.24-0.24,0-23.68,4.34-1.77.32H200.4c-6.53-.7-12.95-1.63-19.21-2.86s-12.39-2.66-18.34-4.29a291.14,291.14,0,0,1-33.64-11.3h0a0.78,0.78,0,0,1-.19-0.11,0.74,0.74,0,0,1-.09-0.11,1,1,0,0,1-.12-0.2,3.72,3.72,0,0,1-.17-0.39c-0.09-.26-0.17-0.51-0.24-0.77-0.14-.51-0.26-1-0.37-1.53-0.22-1-.41-2-0.58-3.06-0.34-2-.64-4.05-0.91-6.05-0.53-4-1-7.93-1.34-11.76-0.74-7.68-1.24-15-1.52-21.93s-0.33-13.43-.08-19.45a79.33,79.33,0,0,1,2.05-16.49,28,28,0,0,1,6.24-11.85,20.91,20.91,0,0,1,8.3-5.49,22,22,0,0,1,6.09-1.27,15.19,15.19,0,0,1,1.6,0,4.58,4.58,0,0,1,.54,0h-0.54c-0.36,0-.9,0-1.6.07a22.5,22.5,0,0,0-6,1.34,20.85,20.85,0,0,0-8.19,5.5A27.83,27.83,0,0,0,126,260a79.44,79.44,0,0,0-2,16.42c-0.23,6-.16,12.52.13,19.42s0.81,14.23,1.56,21.9c0.38,3.83.82,7.75,1.36,11.75,0.27,2,.57,4,0.91,6,0.17,1,.36,2,0.58,3,0.11,0.51.23,1,.36,1.51,0.07,0.25.14,0.49,0.23,0.73a3.34,3.34,0,0,0,.14.33,0.61,0.61,0,0,0,.08.13l0,0s0,0,0,0a0.27,0.27,0,0,0,0,.12l0.07-.11A292.14,292.14,0,0,0,163,352.56c5.94,1.62,12.06,3,18.31,4.27s12.66,2.16,19.16,2.85h-0.07l1.77-.32L225.83,355l-0.21.29-3-24.19,0.26,0.22-18.73,1H204l-0.08-.15a12.74,12.74,0,0,0-8.3-6.67c-3.54-1-7-1.85-10.45-2.7-6.84-1.7-13.4-3.26-19.6-4.72l-0.17,0v-0.17l1.21-33.06c0.48-9.77.1-18.32-1.48-25.11A35.55,35.55,0,0,0,162,251a19.66,19.66,0,0,0-4.12-5.38,17.06,17.06,0,0,0-1.93-1.49c-0.61-.35-1.12-0.65-1.55-0.86C153.55,242.9,153.1,242.69,153.1,242.69Z" transform="translate(-35.02 -53.47)"/><ellipse class="cls-8" cx="203.61" cy="346.01" rx="11.38" ry="0.26" transform="translate(-190.89 471.29) rotate(-85.97)"/><path class="cls-8" d="M149.82,331a2.35,2.35,0,0,1,.23-0.8,12.59,12.59,0,0,1,1-2,19.79,19.79,0,0,1,5.16-5.4,38.93,38.93,0,0,1,6.47-3.72,16.6,16.6,0,0,1,2.85-1.18,19.81,19.81,0,0,1-2.69,1.51,50.93,50.93,0,0,0-6.32,3.81,22.06,22.06,0,0,0-5.16,5.18C150.32,329.92,149.9,331,149.82,331Z" transform="translate(-35.02 -53.47)"/><path class="cls-8" d="M178.37,365.77a1.8,1.8,0,0,1-.49.11l-1.41.23c-1.22.2-3,.4-5.21,0.58s-4.85.28-7.78,0.26-6.15-.22-9.51-0.59-6.54-1-9.4-1.58-5.41-1.34-7.51-2-3.8-1.28-4.94-1.75l-1.32-.54a1.8,1.8,0,0,1-.45-0.22,1.82,1.82,0,0,1,.48.12l1.35,0.45c1.16,0.41,2.87,1,5,1.58s4.66,1.28,7.51,1.9,6,1.14,9.36,1.53,6.54,0.56,9.46.63,5.54,0,7.74-.15,4-.28,5.21-0.41l1.42-.13A1.82,1.82,0,0,1,178.37,365.77Z" transform="translate(-35.02 -53.47)"/><path class="cls-12" d="M265.9,326.84c-0.75-1.07-2-.9-3.06-0.14l-3.54,2.35a14.92,14.92,0,0,1-3.13,1.31l-1.5.27a11.49,11.49,0,0,1-8.49-1.81l-0.6-.41s9.68-2.2,11.16-3.46l0,0a2,2,0,0,0-1.74-3.45l-12.21,1.87A25,25,0,0,0,231.76,328c-3.07,2.27-8.28,5.67-8.6,5.63l2.12,18.49,3.46-.86,6.33,0.55a22.62,22.62,0,0,0,12.35-2.44c2.36-1.22,4.55-2.43,4.78-2.84a35,35,0,0,0,1.46-4.61s2.4-1.49,2.49-2.51a16.28,16.28,0,0,0-.19-2.87s6.13-3.64,7.73-4.9C266.54,329.35,266.58,327.81,265.9,326.84Z" transform="translate(-35.02 -53.47)"/><path class="cls-13" d="M248.77,340.13a18.17,18.17,0,0,0,7.47-3.7c-0.07-.1-1.64.91-3.7,1.93S248.73,340,248.77,340.13Z" transform="translate(-35.02 -53.47)"/><path class="cls-13" d="M250.07,343.68a5.88,5.88,0,0,0,3.95-2A77.45,77.45,0,0,1,250.07,343.68Z" transform="translate(-35.02 -53.47)"/><path class="cls-13" d="M243.73,327.33a7.06,7.06,0,0,0,1.47,1,19.86,19.86,0,0,0,3.94,1.88,13.85,13.85,0,0,0,4.31.72,5.82,5.82,0,0,0,1.8-.17,23.3,23.3,0,0,1-6-.93,27.16,27.16,0,0,1-3.93-1.75A9.46,9.46,0,0,0,243.73,327.33Z" transform="translate(-35.02 -53.47)"/><g class="cls-4"><path d="M144,222.51c2.74,4.57,6.89,8,11.3,11.05a106.08,106.08,0,0,0,14,7.67c2.21,1.06,4.55,2.15,7,1.95a3.19,3.19,0,0,0,1.85-.65,4,4,0,0,0,1.05-2.52,81.87,81.87,0,0,0,.72-14.3,51.5,51.5,0,0,1-5.73,13.45s-3.86-3.35-15.78-8.17C146.27,226.1,144,222.51,144,222.51Z" transform="translate(-35.02 -53.47)"/></g><ellipse class="cls-9" cx="158.46" cy="417.55" rx="0.26" ry="16.21" transform="translate(-39.16 -51.88) rotate(-0.57)"/><path class="cls-8" d="M715,464.81c0,0.14-152.23.26-340,.26s-340-.12-340-0.26,152.19-.26,340-0.26S715,464.66,715,464.81Z" transform="translate(-35.02 -53.47)"/></svg>