<svg id="Ñëîé_1" data-name="Ñëîé 1" xmlns="http://www.w3.org/2000/svg" viewBox="0 0 1978.97 1209.57"><defs><style>.cls-1{fill:#d3c5ed;}.cls-2{fill:#f0e6ff;}.cls-3{fill:#aa5fff;}.cls-4{fill:#2a0055;}.cls-5{fill:#fff;}.cls-6{fill:#ff5c5c;}.cls-7{fill:#00c9b9;}.cls-8{fill:#072289;}.cls-9{fill:#ffbfaa;}.cls-10{fill:#f9a5a5;}.cls-11{fill:#9960f4;}</style></defs><title>CX_deployer-step-5</title><rect class="cls-1" x="373.62" y="87.57" width="74.57" height="39.97"/><path class="cls-2" d="M451.66,744.06h-3.22v-4.6h3.22v4.6Zm-17,0H420.86v-4.6h13.79v4.6Zm-27.58,0H393.27v-4.6h13.79v4.6Zm-27.58,0H365.69v-4.6h13.79v4.6Zm-27.58,0H338.11v-4.6H351.9v4.6Zm-27.58,0H310.53v-4.6h13.79v4.6Z" transform="translate(-276.14 -249.88)"/><path class="cls-2" d="M1157.62,520.33V457.48h-33.91a91.54,91.54,0,0,0-3.71-8.9l23.9-24-43.67-43.52-23.94,24a91.49,91.49,0,0,0-8.48-3.51V367.68h-61.65v33.85A91.54,91.54,0,0,0,995.73,406l-24.46-23.49-42.71,44.46L953,450.39q-1.61,3.54-2.91,7.24H916.21v61.65h33.91a91.58,91.58,0,0,0,4.75,11l-24,25.28,44.29,43.72,25.07-26.4q2.84,1.23,5.78,2.28V612h61.65V575.23q4.24-1.5,8.28-3.4l25.76,25.63,43.06-45L1120.11,528q1.78-3.73,3.22-7.63h34.28Z" transform="translate(-276.14 -249.88)"/><path class="cls-3" d="M2069.76,1459.45H561V542.81H2052.38a2.3,2.3,0,0,1,0,4.6H565.63v907.44H2065.16V1222.31a2.3,2.3,0,1,1,4.6,0v237.14Z" transform="translate(-276.14 -249.88)"/><path class="cls-3" d="M2067.46,920.65a2.3,2.3,0,0,1-2.3-2.3V573.13a2.3,2.3,0,1,1,4.6,0V918.35A2.3,2.3,0,0,1,2067.46,920.65Z" transform="translate(-276.14 -249.88)"/><polygon class="cls-2" points="1750.87 945.54 1750.87 1206.28 246.74 1206.28 246.74 294.24 1750.87 294.24 1750.87 786 1750.87 945.54"/><path class="cls-4" d="M2029.31,1458.46H520.58V541.82H2029.31v494.06a2.3,2.3,0,0,1-4.6,0V546.42H525.18v907.44H2024.71V1195.42a2.3,2.3,0,1,1,4.6,0v263Z" transform="translate(-276.14 -249.88)"/><path class="cls-4" d="M522.88,946.86a2.3,2.3,0,0,1-2.3-2.3V544.12a2.3,2.3,0,1,1,4.6,0V944.56A2.3,2.3,0,0,1,522.88,946.86Z" transform="translate(-276.14 -249.88)"/><polygon class="cls-1" points="338.11 399.26 338.11 613.51 408.56 613.51 515.07 613.51 641.95 613.51 641.95 399.26 338.11 399.26"/><path class="cls-3" d="M990.79,1459.45a2.3,2.3,0,0,1-2.3-2.3v-912a2.3,2.3,0,1,1,4.6,0v912A2.3,2.3,0,0,1,990.79,1459.45Z" transform="translate(-276.14 -249.88)"/><path class="cls-3" d="M1544.38,1459.45a2.3,2.3,0,0,1-2.3-2.3V1270.52a2.3,2.3,0,0,1,4.6,0v186.63A2.3,2.3,0,0,1,1544.38,1459.45Z" transform="translate(-276.14 -249.88)"/><path class="cls-3" d="M1544.38,1091.39a2.3,2.3,0,0,1-2.3-2.3v-544a2.3,2.3,0,0,1,4.6,0v544A2.3,2.3,0,0,1,1544.38,1091.39Z" transform="translate(-276.14 -249.88)"/><rect class="cls-5" x="514" y="388.19" width="78.73" height="11.68"/><polygon class="cls-5" points="313.29 378.19 313.29 592.45 383.73 592.45 490.24 592.45 617.13 592.45 617.13 378.19 313.29 378.19"/><path class="cls-3" d="M895.56,844.63H587.12V625.78H895.56V844.63ZM591.72,840H891V630.37H591.72V840Z" transform="translate(-276.14 -249.88)"/><polygon class="cls-4" points="355.97 487.71 377.27 426 419.88 426 429.43 456.85 465.43 456.85 485.26 493.22 552.12 463.46 572.68 568.85 355.97 487.71"/><polygon class="cls-3" points="343.77 499.45 343.77 541.67 572.68 568.85 527.98 482.75 454.19 489.75 388.17 443.92 343.77 499.45"/><polygon class="cls-6" points="343.77 469.48 343.77 568.85 572.68 568.85 511.52 532.39 452.05 526.95 398.05 481.84 343.77 469.48"/><rect class="cls-3" x="482.09" y="401.79" width="16.3" height="16.3"/><rect class="cls-6" x="482.09" y="427.61" width="16.3" height="16.3"/><rect class="cls-7" x="513.39" y="429.52" width="73.25" height="12.48"/><circle class="cls-5" cx="398.05" cy="481.84" r="10.04"/><circle class="cls-5" cx="452.05" cy="524.09" r="10.04"/><circle class="cls-5" cx="510.82" cy="531.13" r="10.04"/><rect class="cls-6" x="513.39" y="403.7" width="73.25" height="12.48"/><polygon class="cls-1" points="1370.45 950.01 1370.45 1164.27 1440.9 1164.27 1547.41 1164.27 1674.29 1164.27 1674.29 950.01 1370.45 950.01"/><polygon class="cls-5" points="1345.63 924.42 1345.63 1138.67 1416.08 1138.67 1522.59 1138.67 1649.47 1138.67 1649.47 924.42 1345.63 924.42"/><path class="cls-3" d="M1927.9,1390.86H1619.47V1172H1927.9v218.85Zm-303.84-4.6h299.24V1176.6H1624.06v209.66Z" transform="translate(-276.14 -249.88)"/><polygon class="cls-5" points="315.58 944.11 310.99 944.11 310.99 934.91 320.18 934.91 320.18 939.51 315.58 939.51 315.58 944.11"/><path class="cls-5" d="M591.72,1381.09h-4.6v-13.36h4.6v13.36Zm0-26.73h-4.6V1341h4.6v13.36Zm0-26.73h-4.6v-13.36h4.6v13.36Zm0-26.73h-4.6v-13.36h4.6v13.36Zm0-26.73h-4.6v-13.36h4.6v13.36Zm0-26.73h-4.6v-13.36h4.6v13.36Zm0-26.73h-4.6v-13.36h4.6v13.36Z" transform="translate(-276.14 -249.88)"/><polygon class="cls-5" points="320.18 1153.77 310.99 1153.77 310.99 1144.57 315.58 1144.57 315.58 1149.17 320.18 1149.17 320.18 1153.77"/><path class="cls-5" d="M872.55,1403.65H858.74v-4.6h13.81v4.6Zm-27.62,0H831.12v-4.6h13.81v4.6Zm-27.62,0H803.5v-4.6h13.81v4.6Zm-27.62,0H775.87v-4.6h13.81v4.6Zm-27.62,0H748.25v-4.6h13.81v4.6Zm-27.62,0H720.62v-4.6h13.81v4.6Zm-27.62,0H693v-4.6h13.81v4.6Zm-27.62,0H665.38v-4.6h13.81v4.6Zm-27.62,0H637.75v-4.6h13.81v4.6Zm-27.62,0H610.13v-4.6h13.81v4.6Z" transform="translate(-276.14 -249.88)"/><polygon class="cls-5" points="619.42 1153.77 610.23 1153.77 610.23 1149.17 614.83 1149.17 614.83 1144.57 619.42 1144.57 619.42 1153.77"/><path class="cls-5" d="M895.56,1381.09H891v-13.36h4.6v13.36Zm0-26.73H891V1341h4.6v13.36Zm0-26.73H891v-13.36h4.6v13.36Zm0-26.73H891v-13.36h4.6v13.36Zm0-26.73H891v-13.36h4.6v13.36Zm0-26.73H891v-13.36h4.6v13.36Zm0-26.73H891v-13.36h4.6v13.36Z" transform="translate(-276.14 -249.88)"/><polygon class="cls-5" points="619.42 944.11 614.83 944.11 614.83 939.51 610.23 939.51 610.23 934.91 619.42 934.91 619.42 944.11"/><path class="cls-5" d="M872.55,1189.39H858.74v-4.6h13.81v4.6Zm-27.62,0H831.12v-4.6h13.81v4.6Zm-27.62,0H803.5v-4.6h13.81v4.6Zm-27.62,0H775.87v-4.6h13.81v4.6Zm-27.62,0H748.25v-4.6h13.81v4.6Zm-27.62,0H720.62v-4.6h13.81v4.6Zm-27.62,0H693v-4.6h13.81v4.6Zm-27.62,0H665.38v-4.6h13.81v4.6Zm-27.62,0H637.75v-4.6h13.81v4.6Zm-27.62,0H610.13v-4.6h13.81v4.6Z" transform="translate(-276.14 -249.88)"/><path class="cls-3" d="M1885.71,1306.82h-224V1194.33h224v112.49Zm-219.45-4.6h214.85V1198.93H1666.26v103.29Z" transform="translate(-276.14 -249.88)"/><rect class="cls-7" x="1411.92" y="989.1" width="12.48" height="47.51"/><rect class="cls-6" x="1439.38" y="966.5" width="12.48" height="70.1"/><rect class="cls-6" x="1466.84" y="1004.67" width="12.48" height="31.93"/><rect class="cls-8" x="1494.3" y="972.74" width="12.48" height="63.86"/><rect class="cls-6" x="1521.77" y="956.51" width="12.48" height="80.09"/><rect class="cls-6" x="1549.23" y="992.71" width="12.48" height="43.89"/><rect class="cls-7" x="1576.69" y="972.74" width="12.48" height="63.86"/><rect class="cls-3" x="1392.9" y="1072.24" width="18.72" height="18.72"/><rect class="cls-6" x="1392.9" y="1101.9" width="18.72" height="18.72"/><rect class="cls-7" x="1437.51" y="1079.3" width="165.05" height="4.6"/><rect class="cls-3" x="1437.51" y="1108.96" width="165.05" height="4.6"/><polygon class="cls-1" points="847.39 399.26 847.39 613.51 917.84 613.51 1024.34 613.51 1151.23 613.51 1151.23 399.26 847.39 399.26"/><polygon class="cls-5" points="827.87 378.19 827.87 592.45 898.32 592.45 1004.83 592.45 1131.71 592.45 1131.71 378.19 827.87 378.19"/><path class="cls-3" d="M1410.14,844.63H1101.71V625.78h308.44V844.63ZM1106.3,840h299.24V630.37H1106.3V840Z" transform="translate(-276.14 -249.88)"/><path class="cls-4" d="M1200.12,730.23l-48.22-27.9A69,69,0,0,1,1211.4,668v55.71A12.91,12.91,0,0,0,1200.12,730.23Z" transform="translate(-276.14 -249.88)"/><path class="cls-7" d="M1211.4,805.43a68.72,68.72,0,0,1-59.5-103.09l48.22,27.9a12.78,12.78,0,0,0-1.72,6.48,13,13,0,0,0,13,13,12.77,12.77,0,0,0,6.48-1.72l27.91,48.22A68.73,68.73,0,0,1,1211.4,805.43Z" transform="translate(-276.14 -249.88)"/><path class="cls-3" d="M1245.79,796.21L1217.88,748a12.9,12.9,0,0,0,6.52-11.28h55.71A69,69,0,0,1,1245.79,796.21Z" transform="translate(-276.14 -249.88)"/><path class="cls-6" d="M1280.11,736.72H1224.4a12.91,12.91,0,0,0-4.18-9.55l37.84-40.89A68.93,68.93,0,0,1,1280.11,736.72Z" transform="translate(-276.14 -249.88)"/><path class="cls-4" d="M1220.22,727.17a12.79,12.79,0,0,0-8.82-3.45V668a68.5,68.5,0,0,1,46.67,18.28Z" transform="translate(-276.14 -249.88)"/><path class="cls-3" d="M1377.09,772.14h-67.23a2.3,2.3,0,1,1,0-4.6h67.23A2.3,2.3,0,1,1,1377.09,772.14Z" transform="translate(-276.14 -249.88)"/><path class="cls-4" d="M1377.09,789.13h-67.23a2.3,2.3,0,1,1,0-4.6h67.23A2.3,2.3,0,1,1,1377.09,789.13Z" transform="translate(-276.14 -249.88)"/><path class="cls-5" d="M1334.52,803.83h0Z" transform="translate(-276.14 -249.88)"/><path class="cls-6" d="M1377.09,806.13h-42.57a2.3,2.3,0,1,1,0-4.6h42.57A2.3,2.3,0,0,1,1377.09,806.13Z" transform="translate(-276.14 -249.88)"/><path class="cls-3" d="M1377.09,708.37h-67.23a2.3,2.3,0,1,1,0-4.6h67.23A2.3,2.3,0,1,1,1377.09,708.37Z" transform="translate(-276.14 -249.88)"/><path class="cls-4" d="M1377.09,691.38h-42.57a2.3,2.3,0,1,1,0-4.6h42.57A2.3,2.3,0,1,1,1377.09,691.38Z" transform="translate(-276.14 -249.88)"/><path class="cls-7" d="M1377.09,674.38h-67.23a2.3,2.3,0,1,1,0-4.6h67.23A2.3,2.3,0,0,1,1377.09,674.38Z" transform="translate(-276.14 -249.88)"/><polygon class="cls-1" points="337.19 668.47 337.19 882.72 407.64 882.72 514.15 882.72 641.03 882.72 641.03 668.47 337.19 668.47"/><polygon class="cls-5" points="313.29 642.55 313.29 856.8 383.73 856.8 490.24 856.8 617.13 856.8 617.13 642.55 313.29 642.55"/><path class="cls-3" d="M895.56,1109H587.12V890.13H895.56V1109Zm-303.84-4.6H891V894.73H591.72v209.66Z" transform="translate(-276.14 -249.88)"/><polygon class="cls-1" points="1369.53 668.47 1369.53 882.72 1439.98 882.72 1546.49 882.72 1673.37 882.72 1673.37 668.47 1369.53 668.47"/><polygon class="cls-5" points="1345.63 642.55 1345.63 856.8 1416.08 856.8 1522.59 856.8 1649.47 856.8 1649.47 642.55 1345.63 642.55"/><path class="cls-3" d="M1927.9,1109H1619.47V890.13H1927.9V1109Zm-303.84-4.6h299.24V894.73H1624.06v209.66Z" transform="translate(-276.14 -249.88)"/><polygon class="cls-5" points="824.17 651.02 819.58 651.02 819.58 641.82 828.77 641.82 828.77 646.42 824.17 646.42 824.17 651.02"/><path class="cls-5" d="M1100.31,1088h-4.6v-13.36h4.6V1088Zm0-26.73h-4.6v-13.36h4.6v13.36Zm0-26.73h-4.6v-13.36h4.6v13.36Zm0-26.73h-4.6V994.45h4.6v13.36Zm0-26.73h-4.6V967.72h4.6v13.36Zm0-26.73h-4.6V941h4.6v13.36Zm0-26.73h-4.6V914.26h4.6v13.36Z" transform="translate(-276.14 -249.88)"/><polygon class="cls-5" points="828.77 860.67 819.58 860.67 819.58 851.48 824.17 851.48 824.17 856.08 828.77 856.08 828.77 860.67"/><path class="cls-5" d="M1381.14,1110.56h-13.81V1106h13.81v4.6Zm-27.62,0h-13.81V1106h13.81v4.6Zm-27.62,0h-13.81V1106h13.81v4.6Zm-27.62,0h-13.81V1106h13.81v4.6Zm-27.62,0h-13.81V1106h13.81v4.6Zm-27.62,0h-13.81V1106H1243v4.6Zm-27.62,0h-13.81V1106h13.81v4.6Zm-27.62,0H1174V1106h13.81v4.6Zm-27.62,0h-13.81V1106h13.81v4.6Zm-27.62,0h-13.81V1106h13.81v4.6Z" transform="translate(-276.14 -249.88)"/><polygon class="cls-5" points="1128.01 860.67 1118.82 860.67 1118.82 856.08 1123.42 856.08 1123.42 851.48 1128.01 851.48 1128.01 860.67"/><path class="cls-5" d="M1404.15,1088h-4.6v-13.36h4.6V1088Zm0-26.73h-4.6v-13.36h4.6v13.36Zm0-26.73h-4.6v-13.36h4.6v13.36Zm0-26.73h-4.6V994.45h4.6v13.36Zm0-26.73h-4.6V967.72h4.6v13.36Zm0-26.73h-4.6V941h4.6v13.36Zm0-26.73h-4.6V914.26h4.6v13.36Z" transform="translate(-276.14 -249.88)"/><polygon class="cls-5" points="1128.01 651.02 1123.42 651.02 1123.42 646.42 1118.82 646.42 1118.82 641.82 1128.01 641.82 1128.01 651.02"/><path class="cls-5" d="M1381.14,896.3h-13.81v-4.6h13.81v4.6Zm-27.62,0h-13.81v-4.6h13.81v4.6Zm-27.62,0h-13.81v-4.6h13.81v4.6Zm-27.62,0h-13.81v-4.6h13.81v4.6Zm-27.62,0h-13.81v-4.6h13.81v4.6Zm-27.62,0h-13.81v-4.6H1243v4.6Zm-27.62,0h-13.81v-4.6h13.81v4.6Zm-27.62,0H1174v-4.6h13.81v4.6Zm-27.62,0h-13.81v-4.6h13.81v4.6Zm-27.62,0h-13.81v-4.6h13.81v4.6Z" transform="translate(-276.14 -249.88)"/><polygon class="cls-5" points="825.9 944.11 821.3 944.11 821.3 934.91 830.49 934.91 830.49 939.51 825.9 939.51 825.9 944.11"/><path class="cls-5" d="M1102,1381.09h-4.6v-13.36h4.6v13.36Zm0-26.73h-4.6V1341h4.6v13.36Zm0-26.73h-4.6v-13.36h4.6v13.36Zm0-26.73h-4.6v-13.36h4.6v13.36Zm0-26.73h-4.6v-13.36h4.6v13.36Zm0-26.73h-4.6v-13.36h4.6v13.36Zm0-26.73h-4.6v-13.36h4.6v13.36Z" transform="translate(-276.14 -249.88)"/><polygon class="cls-5" points="830.49 1153.77 821.3 1153.77 821.3 1144.57 825.9 1144.57 825.9 1149.17 830.49 1149.17 830.49 1153.77"/><path class="cls-5" d="M1382.87,1403.65h-13.81v-4.6h13.81v4.6Zm-27.62,0h-13.81v-4.6h13.81v4.6Zm-27.62,0h-13.81v-4.6h13.81v4.6Zm-27.62,0h-13.81v-4.6H1300v4.6Zm-27.62,0h-13.81v-4.6h13.81v4.6Zm-27.62,0h-13.81v-4.6h13.81v4.6Zm-27.62,0h-13.81v-4.6h13.81v4.6Zm-27.62,0h-13.81v-4.6h13.81v4.6Zm-27.62,0h-13.81v-4.6h13.81v4.6Zm-27.62,0h-13.81v-4.6h13.81v4.6Z" transform="translate(-276.14 -249.88)"/><polygon class="cls-5" points="1129.74 1153.77 1120.54 1153.77 1120.54 1149.17 1125.14 1149.17 1125.14 1144.57 1129.74 1144.57 1129.74 1153.77"/><path class="cls-5" d="M1405.87,1381.09h-4.6v-13.36h4.6v13.36Zm0-26.73h-4.6V1341h4.6v13.36Zm0-26.73h-4.6v-13.36h4.6v13.36Zm0-26.73h-4.6v-13.36h4.6v13.36Zm0-26.73h-4.6v-13.36h4.6v13.36Zm0-26.73h-4.6v-13.36h4.6v13.36Zm0-26.73h-4.6v-13.36h4.6v13.36Z" transform="translate(-276.14 -249.88)"/><polygon class="cls-5" points="1129.74 944.11 1125.14 944.11 1125.14 939.51 1120.54 939.51 1120.54 934.91 1129.74 934.91 1129.74 944.11"/><path class="cls-5" d="M1382.87,1189.39h-13.81v-4.6h13.81v4.6Zm-27.62,0h-13.81v-4.6h13.81v4.6Zm-27.62,0h-13.81v-4.6h13.81v4.6Zm-27.62,0h-13.81v-4.6H1300v4.6Zm-27.62,0h-13.81v-4.6h13.81v4.6Zm-27.62,0h-13.81v-4.6h13.81v4.6Zm-27.62,0h-13.81v-4.6h13.81v4.6Zm-27.62,0h-13.81v-4.6h13.81v4.6Zm-27.62,0h-13.81v-4.6h13.81v4.6Zm-27.62,0h-13.81v-4.6h13.81v4.6Z" transform="translate(-276.14 -249.88)"/><polygon class="cls-5" points="1347.93 369.25 1343.33 369.25 1343.33 360.06 1352.53 360.06 1352.53 364.65 1347.93 364.65 1347.93 369.25"/><path class="cls-5" d="M1624.06,806.23h-4.6V792.87h4.6v13.36Zm0-26.73h-4.6V766.14h4.6V779.5Zm0-26.73h-4.6V739.41h4.6v13.36Zm0-26.73h-4.6V712.68h4.6V726Zm0-26.73h-4.6V686h4.6v13.36Zm0-26.73h-4.6V659.22h4.6v13.36Zm0-26.73h-4.6V632.5h4.6v13.36Z" transform="translate(-276.14 -249.88)"/><polygon class="cls-5" points="1352.53 578.91 1343.33 578.91 1343.33 569.71 1347.93 569.71 1347.93 574.31 1352.53 574.31 1352.53 578.91"/><path class="cls-5" d="M1904.9,828.79h-13.81v-4.6h13.81v4.6Zm-27.62,0h-13.81v-4.6h13.81v4.6Zm-27.62,0h-13.81v-4.6h13.81v4.6Zm-27.62,0h-13.81v-4.6H1822v4.6Zm-27.62,0h-13.81v-4.6h13.81v4.6Zm-27.62,0H1753v-4.6h13.81v4.6Zm-27.62,0h-13.81v-4.6h13.81v4.6Zm-27.62,0h-13.81v-4.6h13.81v4.6Zm-27.62,0H1670.1v-4.6h13.81v4.6Zm-27.62,0h-13.81v-4.6h13.81v4.6Z" transform="translate(-276.14 -249.88)"/><polygon class="cls-5" points="1651.77 578.91 1642.57 578.91 1642.57 574.31 1647.17 574.31 1647.17 569.71 1651.77 569.71 1651.77 578.91"/><path class="cls-5" d="M1927.9,806.23h-4.6V792.87h4.6v13.36Zm0-26.73h-4.6V766.14h4.6V779.5Zm0-26.73h-4.6V739.41h4.6v13.36Zm0-26.73h-4.6V712.68h4.6V726Zm0-26.73h-4.6V686h4.6v13.36Zm0-26.73h-4.6V659.22h4.6v13.36Zm0-26.73h-4.6V632.5h4.6v13.36Z" transform="translate(-276.14 -249.88)"/><polygon class="cls-5" points="1651.77 369.25 1647.17 369.25 1647.17 364.65 1642.57 364.65 1642.57 360.06 1651.77 360.06 1651.77 369.25"/><path class="cls-5" d="M1904.9,614.53h-13.81v-4.6h13.81v4.6Zm-27.62,0h-13.81v-4.6h13.81v4.6Zm-27.62,0h-13.81v-4.6h13.81v4.6Zm-27.62,0h-13.81v-4.6H1822v4.6Zm-27.62,0h-13.81v-4.6h13.81v4.6Zm-27.62,0H1753v-4.6h13.81v4.6Zm-27.62,0h-13.81v-4.6h13.81v4.6Zm-27.62,0h-13.81v-4.6h13.81v4.6Zm-27.62,0H1670.1v-4.6h13.81v4.6Zm-27.62,0h-13.81v-4.6h13.81v4.6Z" transform="translate(-276.14 -249.88)"/><path class="cls-1" d="M1798.51,1017.69v-37.4h-20.18a54.48,54.48,0,0,0-2.21-5.3l14.22-14.27-26-25.9-14.25,14.29a54.52,54.52,0,0,0-5-2.09V926.85h-36.69V947a54.44,54.44,0,0,0-6.21,2.64l-14.55-14-25.42,26.46,14.53,14q-1,2.11-1.73,4.31h-20.15v36.69H1675a54.51,54.51,0,0,0,2.83,6.56l-14.29,15,26.36,26,14.92-15.71q1.69,0.73,3.44,1.36v21.93H1745v-21.9q2.52-.89,4.93-2l15.33,15.25,25.63-26.77-14.68-14.6q1.06-2.22,1.92-4.54h20.4Z" transform="translate(-276.14 -249.88)"/><circle class="cls-2" cx="1450.54" cy="748.8" r="30.3"/><path class="cls-1" d="M1892.69,933.56h-67.23a2.3,2.3,0,1,1,0-4.6h67.23A2.3,2.3,0,0,1,1892.69,933.56Z" transform="translate(-276.14 -249.88)"/><path class="cls-2" d="M1892.69,950.55h-67.23a2.3,2.3,0,1,1,0-4.6h67.23A2.3,2.3,0,0,1,1892.69,950.55Z" transform="translate(-276.14 -249.88)"/><path class="cls-1" d="M1892.69,967.54h-42.57a2.3,2.3,0,1,1,0-4.6h42.57A2.3,2.3,0,0,1,1892.69,967.54Z" transform="translate(-276.14 -249.88)"/><path class="cls-1" d="M854.19,933.56H787a2.3,2.3,0,0,1,0-4.6h67.23A2.3,2.3,0,0,1,854.19,933.56Z" transform="translate(-276.14 -249.88)"/><path class="cls-2" d="M854.19,950.55H787a2.3,2.3,0,0,1,0-4.6h67.23A2.3,2.3,0,0,1,854.19,950.55Z" transform="translate(-276.14 -249.88)"/><path class="cls-1" d="M854.19,967.54H811.62a2.3,2.3,0,0,1,0-4.6h42.57A2.3,2.3,0,0,1,854.19,967.54Z" transform="translate(-276.14 -249.88)"/><path class="cls-1" d="M1892.69,1031.49h-37.52a2.3,2.3,0,1,1,0-4.6h37.52A2.3,2.3,0,1,1,1892.69,1031.49Z" transform="translate(-276.14 -249.88)"/><path class="cls-2" d="M1892.69,1048.48h-67.23a2.3,2.3,0,1,1,0-4.6h67.23A2.3,2.3,0,1,1,1892.69,1048.48Z" transform="translate(-276.14 -249.88)"/><path class="cls-1" d="M1892.69,1065.47h-54.07a2.3,2.3,0,1,1,0-4.6h54.07A2.3,2.3,0,1,1,1892.69,1065.47Z" transform="translate(-276.14 -249.88)"/><path class="cls-2" d="M766.83,1014.48a10.09,10.09,0,0,1,5.37,8.7c0,4.84-3.75,8.89-8.77,10a9.8,9.8,0,0,1,3.54,7.57c-0.08,5.62-5.32,10.09-11.58,10.09h-1.2a9.6,9.6,0,0,1,2.09,5.87c0,5.65-5.31,10.28-11.6,10.28h-48a12.32,12.32,0,0,1-5.4-1.23l-0.15-.08c-0.33-.16-0.64-0.34-1-0.54l-0.47-.29c-0.53-.32-1.08-0.63-1.64-0.91a30.66,30.66,0,0,0-6.11-2.34q-0.85-.23-1.72-0.41c-0.64-.14-1.29-0.25-1.95-0.35a35.43,35.43,0,0,0-5.3-.4H647.59s0-61.33,0-61.33H668.2a22.81,22.81,0,0,0,6.9-1.06,23.39,23.39,0,0,0,7.47-4,25.19,25.19,0,0,0,3.34-3.18,26.61,26.61,0,0,0,4.45-7.07,25.2,25.2,0,0,0,1.76-6.12,32.42,32.42,0,0,0-.09-8.57c-0.18-1.58-.4-3.16-0.59-4.72-0.1-.88-0.2-1.76-0.27-2.64a7,7,0,0,1,7.12-7.45,15.21,15.21,0,0,1,14.83,11.25c0.31,1.18.55,2.31,0.77,3.44a52.81,52.81,0,0,1,.14,18.72l-0.52,3a3.14,3.14,0,0,0,3.32,3.48h48.08c6.28,0,11.61,4.62,11.59,10.26C776.5,1009.52,772.3,1013.75,766.83,1014.48Z" transform="translate(-276.14 -249.88)"/><path class="cls-1" d="M676.76,997.15v65.14a4.55,4.55,0,0,1-1.83,3.61,5.18,5.18,0,0,1-3.16,1.05H643.31a5.11,5.11,0,0,1-3.87-1.72,4.46,4.46,0,0,1-.83-1.39,3.12,3.12,0,0,1-.11-0.33,4.4,4.4,0,0,1-.17-1.23V997.15a4.26,4.26,0,0,1,.14-1.09,4.93,4.93,0,0,1,4.84-3.57h28.46a4.87,4.87,0,0,1,5,4.2A4.08,4.08,0,0,1,676.76,997.15Z" transform="translate(-276.14 -249.88)"/><rect class="cls-1" x="1177.52" y="215.84" width="406.81" height="113.08"/><polygon class="cls-5" points="1168.22 186.72 1558.89 186.72 1558.89 299.8 1152.08 299.8 1152.08 201.89 1168.22 186.72"/><path class="cls-6" d="M1837.33,552H1425.92V451.77a2.3,2.3,0,0,1,4.6,0v95.62h402.22V438.91H1444.35a2.3,2.3,0,0,1,0-4.6h393V552Z" transform="translate(-276.14 -249.88)"/><polygon class="cls-3" points="1221.03 214.02 1229.46 231.11 1248.32 233.85 1234.67 247.15 1237.89 265.93 1221.03 257.06 1204.16 265.93 1207.38 247.15 1193.74 233.85 1212.6 231.11 1221.03 214.02"/><polygon class="cls-3" points="1290.02 214.02 1298.45 231.11 1317.3 233.85 1303.66 247.15 1306.88 265.93 1290.02 257.06 1273.15 265.93 1276.37 247.15 1262.73 233.85 1281.58 231.11 1290.02 214.02"/><polygon class="cls-3" points="1359 214.02 1367.43 231.11 1386.29 233.85 1372.64 247.15 1375.87 265.93 1359 257.06 1342.13 265.93 1345.36 247.15 1331.71 233.85 1350.57 231.11 1359 214.02"/><polygon class="cls-3" points="1427.98 214.02 1436.42 231.11 1455.27 233.85 1441.63 247.15 1444.85 265.93 1427.98 257.06 1411.12 265.93 1414.34 247.15 1400.7 233.85 1419.55 231.11 1427.98 214.02"/><polygon class="cls-2" points="1496.97 214.02 1505.4 231.11 1524.26 233.85 1510.61 247.15 1513.84 265.93 1496.97 257.06 1480.1 265.93 1483.33 247.15 1469.68 233.85 1488.54 231.11 1496.97 214.02"/><circle class="cls-5" cx="458.23" cy="375.12" r="18.91"/><path class="cls-3" d="M734.36,646.22A21.21,21.21,0,1,1,755.57,625,21.24,21.24,0,0,1,734.36,646.22Zm0-37.83A16.61,16.61,0,1,0,751,625,16.63,16.63,0,0,0,734.36,608.39Z" transform="translate(-276.14 -249.88)"/><rect class="cls-5" x="971.5" y="732.29" width="4.6" height="37.92"/><rect class="cls-5" x="954.83" y="748.95" width="37.92" height="4.6"/><rect class="cls-5" x="1495.25" y="450.52" width="4.6" height="37.92"/><rect class="cls-5" x="1478.59" y="467.18" width="37.92" height="4.6"/><rect class="cls-5" x="462.91" y="1025.38" width="4.6" height="37.92"/><rect class="cls-5" x="446.24" y="1042.04" width="37.92" height="4.6"/><rect class="cls-2" x="973.22" y="1025.38" width="4.6" height="37.92"/><path class="cls-5" d="M1170.09,931.71l-116.2,524.45Z" transform="translate(-276.14 -249.88)"/><path class="cls-4" d="M1053.89,1458.46a2.27,2.27,0,0,1-.5-0.06,2.3,2.3,0,0,1-1.75-2.74l116.2-524.45a2.3,2.3,0,0,1,4.49,1l-116.2,524.45A2.3,2.3,0,0,1,1053.89,1458.46Z" transform="translate(-276.14 -249.88)"/><path class="cls-5" d="M1044.32,931.71l-116.2,524.45Z" transform="translate(-276.14 -249.88)"/><path class="cls-4" d="M928.12,1458.46a2.27,2.27,0,0,1-.5-0.06,2.3,2.3,0,0,1-1.75-2.74l116.2-524.45a2.3,2.3,0,0,1,4.49,1l-116.2,524.45A2.3,2.3,0,0,1,928.12,1458.46Z" transform="translate(-276.14 -249.88)"/><path class="cls-5" d="M1008.39,992.26h0Z" transform="translate(-276.14 -249.88)"/><path class="cls-4" d="M1175.56,994.56H1008.39a2.3,2.3,0,0,1,0-4.6h167.17A2.3,2.3,0,0,1,1175.56,994.56Z" transform="translate(-276.14 -249.88)"/><path class="cls-5" d="M988,1092.71h0Z" transform="translate(-276.14 -249.88)"/><path class="cls-4" d="M1155.14,1095H988a2.3,2.3,0,0,1,0-4.6h167.17A2.3,2.3,0,0,1,1155.14,1095Z" transform="translate(-276.14 -249.88)"/><path class="cls-5" d="M965.85,1193.16h0Z" transform="translate(-276.14 -249.88)"/><path class="cls-4" d="M1133,1195.46H965.85a2.3,2.3,0,0,1,0-4.6H1133A2.3,2.3,0,0,1,1133,1195.46Z" transform="translate(-276.14 -249.88)"/><path class="cls-5" d="M1012.56,1286.44h0Z" transform="translate(-276.14 -249.88)"/><path class="cls-4" d="M1111.59,1288.74h-99a2.3,2.3,0,0,1,0-4.6h99A2.3,2.3,0,1,1,1111.59,1288.74Z" transform="translate(-276.14 -249.88)"/><path class="cls-5" d="M944.42,1286.44h0Z" transform="translate(-276.14 -249.88)"/><path class="cls-4" d="M1012.56,1288.74H944.42a2.3,2.3,0,0,1,0-4.6h68.14A2.3,2.3,0,0,1,1012.56,1288.74Z" transform="translate(-276.14 -249.88)"/><path class="cls-5" d="M917.85,1394.07h0Z" transform="translate(-276.14 -249.88)"/><path class="cls-4" d="M1085,1396.37H917.85a2.3,2.3,0,0,1,0-4.6H1085A2.3,2.3,0,0,1,1085,1396.37Z" transform="translate(-276.14 -249.88)"/><polygon class="cls-7" points="837.82 941.85 776.13 941.85 775.66 895.98 811.28 896.3 837.97 924.5 837.82 941.85"/><path class="cls-4" d="M1114.1,1176.07h0l-32.88,0-8.88-7.87a1.69,1.69,0,0,1,2.24-2.53l7.93,7,31.6,0A1.69,1.69,0,0,1,1114.1,1176.07Z" transform="translate(-276.14 -249.88)"/><path class="cls-4" d="M1100.68,1166h-0.06l-6-.2a1.69,1.69,0,0,1,.11-3.38l6,0.2A1.69,1.69,0,0,1,1100.68,1166Z" transform="translate(-276.14 -249.88)"/><path class="cls-4" d="M1094.08,1159.12h0l-5.46-.06a1.69,1.69,0,0,1,0-3.38h0l5.46,0.06A1.69,1.69,0,0,1,1094.08,1159.12Z" transform="translate(-276.14 -249.88)"/><path class="cls-4" d="M1124.8,1027.43c-5.45-11-16.67-12-27.62-12.17a191.46,191.46,0,0,0-22.49,1.13c-9,.91-18.08,2.13-27,3.85l-46.36-1-0.61,29.62H976.81l10.79,39.76c1.25,3.23,14.83.58,17.7,0.43,22.84-1.16,43.85-7.54,65.59-14.61l-21,72,43.61,0.67,2.33-6.92,20.55-61.07C1121.61,1063.47,1133.06,1044,1124.8,1027.43Z" transform="translate(-276.14 -249.88)"/><polygon class="cls-9" points="713.82 974.38 713.82 1000.01 684.23 1000.01 684.23 972.42 713.82 974.38"/><polygon class="cls-7" points="670.12 1034.38 717.4 1034.38 717.4 987.57 680.12 987.57 670.12 1017.02 670.12 1034.38"/><path class="cls-9" d="M1016.36,883.23h0c-7.11,10.9-21,12-29.41,2.33l-2-2.33v-42.4h31.42v42.4Z" transform="translate(-276.14 -249.88)"/><path class="cls-5" d="M1000.78,893.85a20,20,0,0,1-15.1-7.19l-2-2.33a1.69,1.69,0,0,1,2.56-2.21l2,2.33a16.51,16.51,0,0,0,13.58,6,17.19,17.19,0,0,0,13.14-8.14,1.69,1.69,0,1,1,2.83,1.84,20.54,20.54,0,0,1-15.74,9.66Q1001.41,893.85,1000.78,893.85Z" transform="translate(-276.14 -249.88)"/><path class="cls-9" d="M981.44,820.82h43.61a0,0,0,0,1,0,0v40.42a5.38,5.38,0,0,1-5.38,5.38H981.44a0,0,0,0,1,0,0v-45.8A0,0,0,0,1,981.44,820.82Z" transform="translate(-445.43 7.73) rotate(-13.5)"/><path class="cls-4" d="M1018,806.56s-9.63-11-13.88-3.86c0,0-15.69-3-18.42,5.67,0,0-15.13-4.57-19.88,9.39,0,0-6.21,11.41,3.89,17.58,0,0-4.57,10.35,5.15,12.23,0,0,.67,10.56,9.21,9.25,0,0,9.17-.2,13-4.42,0,0,6.5-.53,2.4-6.65a11,11,0,0,0,1.11-.26c2.42-.69,7.94-2.94,7.39-9,0,0,11.54-6.59,7.27-11.18,0,0,7.86-1.41,7.06-7.08C1022.29,818.23,1026.71,805.72,1018,806.56Z" transform="translate(-276.14 -249.88)"/><path class="cls-9" d="M1014.8,850.64h0c-3.66.88-7.43-1.8-8.44-6l-0.65-2.69c-1-4.18,1.15-8.27,4.8-9.15h0c3.66-.88,7.43,1.8,8.44,6l0.65,2.69C1020.61,845.67,1018.46,849.77,1014.8,850.64Z" transform="translate(-276.14 -249.88)"/><path class="cls-4" d="M1015.31,845a1.68,1.68,0,0,1-.89-0.26l-5.37-3.35a1.69,1.69,0,1,1,1.79-2.87l5.37,3.35A1.69,1.69,0,0,1,1015.31,845Z" transform="translate(-276.14 -249.88)"/><path class="cls-9" d="M1036.05,1004.81l-90.54-.33a20,20,0,0,1-16.94-20.41L929.76,926l42.79,0.93L968.14,967,1039.49,984Z" transform="translate(-276.14 -249.88)"/><polygon class="cls-4" points="719.02 990.76 673.7 990.76 676.47 767.03 728.19 767.03 719.02 990.76"/><path class="cls-6" d="M1047.69,1020.24l-95.09,4.21-8.81-115.89c-0.6-7.95,3.79-15.27,10.49-17.5l31-10.29a45.9,45.9,0,0,1,29,0l31,10.29c6.7,2.22,11.09,9.54,10.48,17.48Z" transform="translate(-276.14 -249.88)"/><path class="cls-7" d="M995.15,1226.49H949.84a1.69,1.69,0,0,1,0-3.38h45.32A1.69,1.69,0,1,1,995.15,1226.49Z" transform="translate(-276.14 -249.88)"/><path class="cls-7" d="M951.09,1141a1.69,1.69,0,0,1-.8-3.18c8.34-4.47,13.83-13.82,14.32-24.39l0.52-11.19H951.57a1.69,1.69,0,1,1,0-3.38h17.09L968,1113.6c-0.54,11.76-6.71,22.18-16.1,27.21A1.68,1.68,0,0,1,951.09,1141Z" transform="translate(-276.14 -249.88)"/><polygon class="cls-9" points="824.15 553.42 786.99 610.44 770.25 640.76 806.86 656.45 822.2 628.11 850.98 558.99 824.15 553.42"/><path class="cls-6" d="M963.21,888.6h0c-21.5,4-38.44,21.1-42.7,43.14l-3.26,16.87L948.12,961l25.45-53.72Z" transform="translate(-276.14 -249.88)"/><path class="cls-6" d="M1057.4,943.54a19.38,19.38,0,0,1-27.75-7.33,55.67,55.67,0,0,1-3.71-42.23l21.7-25,44.06,29.93-28.76,38.71a16.55,16.55,0,0,1-5.54,5.88h0Z" transform="translate(-276.14 -249.88)"/><path class="cls-5" d="M1000.88,1071.67a1.69,1.69,0,0,1-.59-0.11,25.72,25.72,0,0,1-15.56-16.44l-1.78-5.56a1.69,1.69,0,0,1,3.22-1l1.78,5.56a22.37,22.37,0,0,0,13.52,14.31A1.69,1.69,0,0,1,1000.88,1071.67Z" transform="translate(-276.14 -249.88)"/><path class="cls-5" d="M1000.88,1089.82a1.69,1.69,0,0,1-1.69-1.69V1070a1.69,1.69,0,0,1,3.38,0v18.15A1.69,1.69,0,0,1,1000.88,1089.82Z" transform="translate(-276.14 -249.88)"/><path class="cls-4" d="M1000.65,1002a1.68,1.68,0,0,1-1.33-.65l-38.18-48.86a1.69,1.69,0,1,1,2.66-2.08L1002,999.26A1.69,1.69,0,0,1,1000.65,1002Z" transform="translate(-276.14 -249.88)"/><path class="cls-4" d="M1011.75,975.36a1.69,1.69,0,0,1-1.33-.65L1002,964a1.69,1.69,0,0,1,2.66-2.08l8.39,10.73A1.69,1.69,0,0,1,1011.75,975.36Z" transform="translate(-276.14 -249.88)"/><path class="cls-5" d="M948.12,962.71a1.69,1.69,0,0,1-1.69-1.69V934.75a1.69,1.69,0,0,1,3.38,0V961A1.69,1.69,0,0,1,948.12,962.71Z" transform="translate(-276.14 -249.88)"/><path class="cls-4" d="M971.18,1274.52H946.25a1.69,1.69,0,0,1,0-3.38h22.36l5.27-19h19.66a1.69,1.69,0,1,1,0,3.38H976.45Z" transform="translate(-276.14 -249.88)"/><path class="cls-4" d="M957.33,1255.24h-0.06l-6-.2a1.69,1.69,0,0,1-1.63-1.74,1.71,1.71,0,0,1,1.74-1.63l6,0.2A1.69,1.69,0,0,1,957.33,1255.24Z" transform="translate(-276.14 -249.88)"/><path class="cls-4" d="M953.85,1262h0l-5.46-.06a1.69,1.69,0,0,1-1.67-1.71,1.65,1.65,0,0,1,1.71-1.67l5.46,0.06A1.69,1.69,0,0,1,953.85,1262Z" transform="translate(-276.14 -249.88)"/><path class="cls-9" d="M1098.23,806.47l2.05-19.51a5.1,5.1,0,0,1,5.88-3.39l1.6,0.35,7.4-12a8.06,8.06,0,0,1,8.57-3.73l10.72,2.36a6.75,6.75,0,0,1,4.67,9.14l-12.57,30.57Z" transform="translate(-276.14 -249.88)"/><path class="cls-5" d="M959,1037.47a1.69,1.69,0,0,1-.13-3.37l67.45-5.39a1.69,1.69,0,0,1,.27,3.37l-67.45,5.39H959Z" transform="translate(-276.14 -249.88)"/><path class="cls-4" d="M986.53,868a5.56,5.56,0,0,1-3.8-1.81,1.69,1.69,0,1,1,2.34-2.43,2.3,2.3,0,0,0,1.49.86,0.53,0.53,0,0,0,.35-0.16l1.29,1.08,1.34,1a3.86,3.86,0,0,1-2.71,1.4h-0.3Z" transform="translate(-276.14 -249.88)"/><path class="cls-4" d="M1016.36,869.39a1.69,1.69,0,0,1-.77-0.19l-8.14-4.18a1.69,1.69,0,0,1,1.54-3l8.14,4.18A1.69,1.69,0,0,1,1016.36,869.39Z" transform="translate(-276.14 -249.88)"/><path class="cls-5" d="M1070.88,1076.18a1.69,1.69,0,0,1-.78-3.18l16.39-8.58a1.69,1.69,0,1,1,1.57,3l-16.39,8.58A1.68,1.68,0,0,1,1070.88,1076.18Z" transform="translate(-276.14 -249.88)"/><rect class="cls-2" x="1002.9" y="1060.25" width="157.48" height="145.45"/><polygon class="cls-9" points="1185.63 1139.91 1202.7 1173.05 1246.18 1173.05 1224.59 1128.41 1185.63 1139.91"/><polygon class="cls-6" points="1197.26 1160.9 1201.79 1204.22 1276.23 1204.41 1267.43 1186.72 1245.08 1169.58 1245.79 1152.92 1229.72 1152.88 1222.7 1164.47 1197.26 1160.9"/><path class="cls-5" d="M1548.2,1447.8h0l-48.81-.13a1.9,1.9,0,0,1-1.89-1.93,12.84,12.84,0,0,0-3.7-8.28c-3.36-3.38-8.68-5.11-15.81-5.13a1.9,1.9,0,0,1,0-3.8h0c8.23,0,14.47,2.15,18.57,6.32a16.73,16.73,0,0,1,4.56,9l47.09,0.12A1.9,1.9,0,0,1,1548.2,1447.8Z" transform="translate(-276.14 -249.88)"/><path class="cls-5" d="M1526.58,1427.4h0l-11.53,0a1.9,1.9,0,0,1,0-3.8h0l11.53,0A1.9,1.9,0,0,1,1526.58,1427.4Z" transform="translate(-276.14 -249.88)"/><polygon class="cls-9" points="1157.74 1142.38 1154.54 1172.22 1119.85 1172.22 1120.49 1135.74 1157.74 1142.38"/><path class="cls-7" d="M1382.55,1096l-5.24,6.15a39.57,39.57,0,0,0-7.72,30.56l6.22,52.31a14.09,14.09,0,0,0,10.09,12.07l68.3,18.07,4.18-32-48.13-20,0-32.35c0-17.08-11.66-31.71-27.68-34.77h0Z" transform="translate(-276.14 -249.88)"/><path class="cls-4" d="M1411.12,1239l-51.2,71.12h39.51l-9.1,86.07h68.86l24.06-126.89c1.78-9.41-4.48-18.4-13.56-19.47Z" transform="translate(-276.14 -249.88)"/><path class="cls-5" d="M1325.79,1092.41c16.4,24.35,29.94,50.79,32,77.8,9.77-34,1.92-62.55-1.79-77.71l-9.07-2.4Z" transform="translate(-276.14 -249.88)"/><path class="cls-7" d="M1302.54,1097.35l-10.78,139.52,100.36-2.3-4.73-137.22-25.82-4.85-5.8-1.55c3.71,15.16,11.78,45.24,2,79.25-2-27-15.59-53.45-32-77.8h0Z" transform="translate(-276.14 -249.88)"/><polygon class="cls-9" points="1049.66 842.53 1075.48 871.61 1079.86 842.62 1072.34 789.77 1044.76 789.77 1049.66 842.53"/><polygon class="cls-9" points="1104.61 954.93 1070.2 947.09 1061.63 977.33 1086.89 977.33 1104.61 954.93"/><path class="cls-9" d="M1343.31,1039.65h13.44a13.39,13.39,0,0,1,13.39,13.39v36.05a0,0,0,0,1,0,0h-40.22a0,0,0,0,1,0,0V1053A13.39,13.39,0,0,1,1343.31,1039.65Z" transform="translate(2423.92 1878.86) rotate(180)"/><path class="cls-4" d="M1325.54,1045.32a39.47,39.47,0,0,0,17.3,8.1,124.86,124.86,0,0,0,15.07,2.08c4.27,0.31,8.71.64,12.91-.42,2.86-.72,5.52-2.23,6.1-5.53,0.65-3.66-2.21-7.36-5.14-9,0,0,10.37-3.54,2.65-10.37-0.22-.2.84-5.4,0.87-6,0.39-7.55-5.41-12.87-12.48-11.22-13.54,3.16-20.24,19.7-34.43,21.22C1316.45,1035.51,1320.08,1040.87,1325.54,1045.32Z" transform="translate(-276.14 -249.88)"/><path class="cls-4" d="M1352,1024.88s-27.29-12.06-34.19,2.11,5.46,40.1,9.19,43.71,11.2-25.32,11.2-25.32Z" transform="translate(-276.14 -249.88)"/><path class="cls-9" d="M1329.07,1075.53h0a8.13,8.13,0,0,0,7.93-8.32v-3a8.13,8.13,0,0,0-7.93-8.32h0a8.13,8.13,0,0,0-7.93,8.32v3A8.13,8.13,0,0,0,1329.07,1075.53Z" transform="translate(-276.14 -249.88)"/><path class="cls-4" d="M1331.37,1070.19a1.9,1.9,0,0,1-1.45-.67l-4.6-5.43a1.9,1.9,0,0,1,2.9-2.46l4.6,5.43A1.9,1.9,0,0,1,1331.37,1070.19Z" transform="translate(-276.14 -249.88)"/><path class="cls-4" d="M1358.51,1198a1.9,1.9,0,0,1-1.9-1.86l-0.39-20.72a1.9,1.9,0,0,1,3.8-.07l0.39,20.72a1.9,1.9,0,0,1-1.86,1.94h0Z" transform="translate(-276.14 -249.88)"/><polygon class="cls-6" points="1162.32 1170.54 1162.32 1204.43 1113.32 1204.43 1113.32 1170.11 1128.24 1166.09 1131.59 1153.01 1152.52 1153.01 1156.54 1165.79 1162.32 1170.54"/><path class="cls-5" d="M1438.46,1447.82a1.9,1.9,0,0,1-1.61-.88l-2.84-4.49a17.24,17.24,0,0,0-30.5,2l-1.1,2.31a1.9,1.9,0,0,1-1.72,1.08h-11.24a1.9,1.9,0,1,1,0-3.8h10l0.58-1.23a21,21,0,0,1,37.14-2.38l2.84,4.49A1.9,1.9,0,0,1,1438.46,1447.82Z" transform="translate(-276.14 -249.88)"/><path class="cls-5" d="M1427.69,1422.92h-16.81a1.9,1.9,0,1,1,0-3.8h16.81A1.9,1.9,0,1,1,1427.69,1422.92Z" transform="translate(-276.14 -249.88)"/><path class="cls-9" d="M1357.78,1233.17l22.95-31.94a17.2,17.2,0,0,1,13.95-7.3h24.87l-0.72,38.68Z" transform="translate(-276.14 -249.88)"/><path class="cls-4" d="M1367.43,1235a1.9,1.9,0,0,1,0-3.8l49.55-.46,0.65-34.89h-22.94a15.38,15.38,0,0,0-12.4,6.5l-2.21,3.08a1.9,1.9,0,0,1-2,.74l-30.42-6.94-6.24,22a1.9,1.9,0,1,1-3.66-1l6.73-23.75a1.9,1.9,0,0,1,2.25-1.34l30.95,7.06,1.48-2.06a19.19,19.19,0,0,1,15.49-8.09h24.87a1.9,1.9,0,0,1,1.9,1.94l-0.72,38.67a1.9,1.9,0,0,1-1.88,1.86l-51.39.47h0Z" transform="translate(-276.14 -249.88)"/><path class="cls-4" d="M1357.78,1172.11a1.9,1.9,0,0,1-1.59-2.93c6-9.29,10.55-28.32,14.21-43.62,0.63-2.64,1.24-5.19,1.83-7.59l-9.65-8.94a1.9,1.9,0,0,1,.62-3.17l7.06-2.65-8.3-5.71a1.9,1.9,0,1,1,2.15-3.13l11.31,7.77a1.9,1.9,0,0,1-.41,3.35l-7.59,2.84,8.22,7.61a1.9,1.9,0,0,1,.55,1.85c-0.67,2.7-1.37,5.61-2.09,8.64-3.73,15.58-8.36,35-14.71,44.79A1.9,1.9,0,0,1,1357.78,1172.11Z" transform="translate(-276.14 -249.88)"/><path class="cls-4" d="M1351.84,1165.39a1.9,1.9,0,0,1-1.68-1c-8.38-15.62-18.38-33.1-29.09-44.37a1.9,1.9,0,0,1,.6-3l5.9-2.67-5.63-1.57a1.9,1.9,0,0,1-1.38-2l1.4-18.11a1.9,1.9,0,1,1,3.79.29l-1.28,16.56,9.17,2.56a1.9,1.9,0,0,1,.27,3.56l-8.28,3.74c10.32,11.57,19.85,28.26,27.88,43.23A1.9,1.9,0,0,1,1351.84,1165.39Z" transform="translate(-276.14 -249.88)"/><path class="cls-4" d="M1358.12,1177.31a1.9,1.9,0,0,1-1.9-1.79q-0.15-2.58-.34-5.16a1.9,1.9,0,1,1,3.79-.29q0.2,2.61.35,5.23a1.9,1.9,0,0,1-1.79,2h-0.11Z" transform="translate(-276.14 -249.88)"/><path class="cls-5" d="M1271,1174.56a12.42,12.42,0,0,1-6.31-1.5,1.9,1.9,0,0,1,2-3.22c0.19,0.11,3.72,2.13,9.69-.16a1.9,1.9,0,1,1,1.36,3.55A18.86,18.86,0,0,1,1271,1174.56Z" transform="translate(-276.14 -249.88)"/><path class="cls-4" d="M1352.77,1091.06a25.72,25.72,0,0,1-13.75-3.78,1.9,1.9,0,1,1,2-3.23,22.46,22.46,0,0,0,13.58,3.15,1.9,1.9,0,1,1,.25,3.79C1354.16,1091,1353.46,1091.06,1352.77,1091.06Z" transform="translate(-276.14 -249.88)"/><path class="cls-7" d="M1302.54,1097.35l-7.54,2.58a37.36,37.36,0,0,0-21,22.6l-24.83,89.9c-2.26,8.18,3.56,16.36,11.68,16.41l82.32,0.38,16.78-33.1-54.09-6.29,14.29-71.23Z" transform="translate(-276.14 -249.88)"/><path class="cls-5" d="M1359.92,1197.32h-0.16l-75.47-6.42a1.9,1.9,0,0,1,.14-3.79l16.28-.19,7.87-15a1.92,1.92,0,0,1,.41-0.53c0.1-.09,10.18-9.44,11.77-26.89a1.9,1.9,0,1,1,3.79.34c-1.6,17.6-11,27.44-12.74,29.13l-7.76,14.78,56,4.77A1.9,1.9,0,0,1,1359.92,1197.32Z" transform="translate(-276.14 -249.88)"/><path class="cls-5" d="M1351.75,1230.66h-59.36a1.9,1.9,0,1,1,0-3.8h59.36A1.9,1.9,0,1,1,1351.75,1230.66Z" transform="translate(-276.14 -249.88)"/><path class="cls-5" d="M1390.19,1180.55a1.9,1.9,0,0,1-1.9-1.84l-0.42-12.26a1.9,1.9,0,0,1,.09-0.65,81.27,81.27,0,0,0,3.64-32.9l-1.05-11.24a1.9,1.9,0,0,1,3.78-.35l1.05,11.24a85,85,0,0,1-3.7,34.1l0.41,11.92a1.9,1.9,0,0,1-1.83,2h-0.07Z" transform="translate(-276.14 -249.88)"/><polygon class="cls-5" points="1129.47 976.17 1113.63 976.17 1144.53 882.11 1160.36 882.11 1129.47 976.17"/><path class="cls-1" d="M1405.61,1227.95h-15.84a1.9,1.9,0,0,1-1.81-2.49l30.89-94.06a1.9,1.9,0,0,1,1.81-1.31h15.84a1.9,1.9,0,0,1,1.81,2.49l-30.89,94.06A1.9,1.9,0,0,1,1405.61,1227.95Zm-13.21-3.8h11.84l29.64-90.26H1422Z" transform="translate(-276.14 -249.88)"/><path class="cls-4" d="M1291.76,1236.87v23.41c0,27.54,21.27,49.86,47.51,49.86h60.16l53.34,86.07h68.86L1474.76,1314l-38.92-68.21-24.73-6.82Z" transform="translate(-276.14 -249.88)"/><path class="cls-3" d="M1562.48,1227.27H1286a34.91,34.91,0,0,0-11.55,2c-14.55,5.09-25.06,19.51-25.06,36.46v189.9h11.19v-189.9c0-14.71,11.4-26.67,25.42-26.67h276.46c14,0,25.42,12,25.42,26.67v188.17h11.19V1265.69C1599.09,1244.5,1582.67,1227.27,1562.48,1227.27Z" transform="translate(-276.14 -249.88)"/><path class="cls-5" d="M1474.76,1315.95a1.9,1.9,0,0,1-1.65-1l-30.34-53.18a13.83,13.83,0,0,0-11.89-7.1h-57.61a1.9,1.9,0,1,1,0-3.8h57.61a17.63,17.63,0,0,1,15.19,9l30.34,53.18A1.9,1.9,0,0,1,1474.76,1315.95Z" transform="translate(-276.14 -249.88)"/><path class="cls-5" d="M1452.78,1398.1a1.9,1.9,0,0,1-1.62-.9l-53.34-86.06a1.9,1.9,0,0,1,3.23-2l53.34,86.06A1.9,1.9,0,0,1,1452.78,1398.1Z" transform="translate(-276.14 -249.88)"/><path class="cls-7" d="M1507.39,1377h-40.92a1.9,1.9,0,0,1-1.63-.92l-49.49-82.69h-73.41a1.9,1.9,0,1,1,0-3.8h74.49a1.9,1.9,0,0,1,1.63.92l49.49,82.69h39.85A1.9,1.9,0,1,1,1507.39,1377Z" transform="translate(-276.14 -249.88)"/><path class="cls-7" d="M1317.46,1260.51a1.9,1.9,0,0,1,0-3.8c0.2,0,19.68-.27,24.07-10.44a1.9,1.9,0,1,1,3.49,1.51c-5.38,12.45-26.63,12.73-27.53,12.74h0Z" transform="translate(-276.14 -249.88)"/><polygon class="cls-5" points="1129.65 976.17 1160.55 882.11 1283.05 882.11 1252.16 976.17 1129.65 976.17"/><path class="cls-1" d="M1528.3,1227.95a1.9,1.9,0,0,1-1.81-2.49l30.07-91.56H1438.06l-30.46,92.75a1.9,1.9,0,1,1-3.61-1.19l30.89-94.06a1.9,1.9,0,0,1,1.81-1.31h122.51a1.9,1.9,0,0,1,1.81,2.49l-30.89,94.06A1.9,1.9,0,0,1,1528.3,1227.95Z" transform="translate(-276.14 -249.88)"/><path class="cls-3" d="M1528.3,1227.95H1389.77a1.9,1.9,0,1,1,0-3.8H1528.3A1.9,1.9,0,0,1,1528.3,1227.95Z" transform="translate(-276.14 -249.88)"/><path class="cls-5" d="M1497.07,1184.86c-3.84,7.39-11.74,12.86-19.34,12.86-9,0-14.12-7.64-11.5-17.05s12-17.05,21-17.05a12.44,12.44,0,0,1,7.7,2.44Z" transform="translate(-276.14 -249.88)"/><path class="cls-1" d="M1477.73,1199.61a13.7,13.7,0,0,1-11.25-5.24c-2.81-3.7-3.57-8.89-2.08-14.23,2.84-10.17,13.08-18.45,22.84-18.45a14.36,14.36,0,0,1,8.86,2.83,1.9,1.9,0,0,1-2.31,3,10.61,10.61,0,0,0-6.54-2c-8.17,0-16.77,7-19.18,15.66-1.17,4.19-.64,8.16,1.44,10.91a10,10,0,0,0,8.22,3.74c6.77,0,14-4.87,17.65-11.83a1.9,1.9,0,0,1,3.37,1.75C1494.51,1193.91,1485.86,1199.61,1477.73,1199.61Z" transform="translate(-276.14 -249.88)"/><path class="cls-5" d="M1498,1182.94q-0.4,1-.89,1.92Z" transform="translate(-276.14 -249.88)"/><path class="cls-1" d="M1497.07,1186.76a1.9,1.9,0,0,1-1.68-2.78c0.3-.58.57-1.17,0.81-1.76a1.9,1.9,0,1,1,3.52,1.43c-0.28.7-.61,1.4-1,2.08A1.9,1.9,0,0,1,1497.07,1186.76Z" transform="translate(-276.14 -249.88)"/><path class="cls-5" d="M1487.24,1163.6l2.7-8Z" transform="translate(-276.14 -249.88)"/><path class="cls-1" d="M1487.24,1165.51a1.9,1.9,0,0,1-1.8-2.51l2.7-8a1.9,1.9,0,0,1,3.6,1.22l-2.7,8A1.9,1.9,0,0,1,1487.24,1165.51Z" transform="translate(-276.14 -249.88)"/><polygon class="cls-3" points="232.61 1154.83 230.89 1166.02 221.46 1179.59 221.46 1204.94 265.75 1204.94 265.75 1154.83 232.61 1154.83"/><path class="cls-4" d="M529.59,1417h-19.7a1.84,1.84,0,0,1,0-3.68h19.7A1.84,1.84,0,1,1,529.59,1417Z" transform="translate(-276.14 -249.88)"/><path class="cls-4" d="M523.66,1428.06H504a1.84,1.84,0,1,1,0-3.68h19.7A1.84,1.84,0,1,1,523.66,1428.06Z" transform="translate(-276.14 -249.88)"/><path class="cls-4" d="M541.89,1447.76a1.83,1.83,0,0,1-1-.27l-10.85-6.66a23.2,23.2,0,0,0-12.14-3.44,23.63,23.63,0,0,0-18.85,9.6l-1.5-1.07-1.47-1.11,0,0a27.32,27.32,0,0,1,21.8-11.08,26.89,26.89,0,0,1,14.07,4l10.85,6.66A1.84,1.84,0,0,1,541.89,1447.76Z" transform="translate(-276.14 -249.88)"/><polygon class="cls-3" points="161.85 1154.71 148.22 1170.83 125.03 1186.39 125.03 1204.94 190.3 1204.94 190.3 1149.19 161.85 1154.71"/><path class="cls-6" d="M512.78,1020s21.54-17.44,30.05,11.63c-0.5-1.76,12.14-3.9,13.57-3.92,8.21-.11,15.64,5.12,19.94,12.27,5.54,9.21,12.41,28.19,1.3,36.1-1.26.89-11,2.3-10.77,1.63,0,0-10,28.85-41.58,7.21,0,0-32,1.27-28.27-19.46C497,1065.47,481.72,1026.2,512.78,1020Z" transform="translate(-276.14 -249.88)"/><path class="cls-6" d="M512.78,1020s21.54-17.44,30.05,11.63c-0.5-1.76,12.14-3.9,13.57-3.92,8.21-.11,15.64,5.12,19.94,12.27,5.54,9.21,12.41,28.19,1.3,36.1-1.26.89-11,2.3-10.77,1.63,0,0-10,28.85-41.58,7.21,0,0-32,1.27-28.27-19.46C497,1065.47,481.72,1026.2,512.78,1020Z" transform="translate(-276.14 -249.88)"/><path class="cls-7" d="M515.49,1186.2l-15.76,75h0l-23.36,111.1-2.11,10-1.41,6.7-2.11,10-1.83,8.71H429.37q0.55-4.31,1.1-8.71,0.63-5,1.26-10,0.41-3.33.84-6.7,0.62-5,1.25-10c4.91-39.49,10.08-81.32,15.4-116.68,5.64-37.46,11.44-67.65,17.26-80.11l30.48,6.66h0Z" transform="translate(-276.14 -249.88)"/><path class="cls-7" d="M551.78,1244.64c-0.19,4.5-2.06,9.33-2.24,13.35l-5.11,114.29-0.45,10-0.3,6.7-0.45,10-0.39,8.71h-36l-0.42-8.71-0.49-10-0.32-6.7-0.49-10-5.36-111.1h0l-3.82-79.06,1.06,0h0l39.59,1.17c1.22,0,4.72,7.91,5.24,8.93a91.77,91.77,0,0,1,5.66,13.8C551.43,1218.53,552.31,1231.59,551.78,1244.64Z" transform="translate(-276.14 -249.88)"/><path class="cls-9" d="M470.6,1144.56l-2.64,1.7a36.69,36.69,0,0,1-19.85,5.86h0a36.78,36.78,0,0,1-22.92-8.06l-52.43-41.75,14-20.29,43.33,26.48h37Z" transform="translate(-276.14 -249.88)"/><path class="cls-6" d="M470.57,1034.89q-2.13-.2-4.26-0.23c-10.75-.18-23.56,2.2-30.23,11.78-4,5.72-5,14.29-1.18,20.38,4.17,6.66,12.89,8.37,20,8.8a57.35,57.35,0,0,0,45.5-18.34c1-1.12,3.6-3.23,4-4.78,0.85-3.44-5.64-7.07-8.49-8.91A56.48,56.48,0,0,0,470.57,1034.89Z" transform="translate(-276.14 -249.88)"/><path class="cls-4" d="M537.76,1187.08l-72.3-8.39-12.37-50.28-4-5.14a47.11,47.11,0,0,1-10-29.08v-4.92a56,56,0,0,1,4.92-23h0a18,18,0,0,1,16.37-10.76h72.54c10.8,0,19.19,9.7,17.92,20.74Z" transform="translate(-276.14 -249.88)"/><polygon class="cls-5" points="232.23 813.87 198.07 843.1 205.49 813.87 205.49 771.83 232.23 771.83 232.23 813.87"/><rect class="cls-9" x="205.49" y="750.58" width="26.74" height="49.76"/><path class="cls-4" d="M508.36,1065.59H481.62a1.84,1.84,0,0,1,0-3.68h26.74A1.84,1.84,0,0,1,508.36,1065.59Z" transform="translate(-276.14 -249.88)"/><path class="cls-9" d="M512.25,1001.3v10.85c0,17.62-13.89,31.9-31,31.9h0c-11.85,0-21.46-9.88-21.46-22.07v-16.34c0-14,11-25.32,24.62-25.32h7.45C503.11,980.31,512.25,989.71,512.25,1001.3Z" transform="translate(-276.14 -249.88)"/><path class="cls-4" d="M481.49,1046.43a1.84,1.84,0,0,1,0-3.68,28.21,28.21,0,0,0,12.4-2.84,1.84,1.84,0,0,1,1.61,3.31A31.87,31.87,0,0,1,481.49,1046.43Z" transform="translate(-276.14 -249.88)"/><path class="cls-6" d="M517.06,1001.53v21.71c-20.53-7.81-32.35-18.33-36.59-31.23-4.52,9.71-13.57,15.16-25.51,17.88v-3.23c0-12.65,7.91-22.75,19.11-27.29,10.87-4.4,26.32-4.66,35.34,4A25.3,25.3,0,0,1,517.06,1001.53Z" transform="translate(-276.14 -249.88)"/><ellipse class="cls-6" cx="217.12" cy="730.43" rx="15.53" ry="15.97"/><path class="cls-5" d="M508.78,984.66a1.84,1.84,0,0,1-1.22-.47c-8-7.14-20.74-6.81-29.18-4.35a1.84,1.84,0,0,1-1-3.54c9.79-2.84,23.51-3,32.66,5.14A1.84,1.84,0,0,1,508.78,984.66Z" transform="translate(-276.14 -249.88)"/><path class="cls-10" d="M566.88,1067.08a1.86,1.86,0,0,1-.48-0.06c-0.33-.09-8-2.26-8.62-9.91a1.84,1.84,0,1,1,3.67-.29c0.39,5,5.69,6.58,5.92,6.64A1.84,1.84,0,0,1,566.88,1067.08Z" transform="translate(-276.14 -249.88)"/><path class="cls-5" d="M455.89,1115.7a37.57,37.57,0,0,1-14.85-3.09,1.84,1.84,0,1,1,1.48-3.37,32.42,32.42,0,0,0,29.09-1.31,1.84,1.84,0,1,1,1.76,3.23A36.11,36.11,0,0,1,455.89,1115.7Z" transform="translate(-276.14 -249.88)"/><path class="cls-5" d="M498.39,1115.76a35.68,35.68,0,0,1-17.75-4.66,1.84,1.84,0,0,1,2-3.12h0a32.33,32.33,0,0,0,31.57-.06,1.84,1.84,0,1,1,1.76,3.23A36.25,36.25,0,0,1,498.39,1115.76Z" transform="translate(-276.14 -249.88)"/><path class="cls-9" d="M572.81,1138.3l-30.57,60.36H517.53L538.42,1131l-4.33-22.52h35.39l4.61,18.12A16.77,16.77,0,0,1,572.81,1138.3Z" transform="translate(-276.14 -249.88)"/><path class="cls-4" d="M569.48,1108.49H534.09l-10.18-52.95,12.66,0.39a25.43,25.43,0,0,1,24.48,19.44Z" transform="translate(-276.14 -249.88)"/><path class="cls-5" d="M542.24,1200.5H517.53a1.84,1.84,0,0,1,0-3.68h24.71A1.84,1.84,0,1,1,542.24,1200.5Z" transform="translate(-276.14 -249.88)"/><path class="cls-5" d="M472.43,1200.5H460.12a1.84,1.84,0,0,1,0-3.68h12.31A1.84,1.84,0,1,1,472.43,1200.5Z" transform="translate(-276.14 -249.88)"/><path class="cls-4" d="M467.07,1108.84h-37c0.25-5.94.78-11.95,0.82-17.87,0-8.41.09-17.9,5.17-24.93a24.8,24.8,0,0,1,19.69-10.42l6.07-.07Z" transform="translate(-276.14 -249.88)"/><path class="cls-5" d="M534.09,1110.33a1.84,1.84,0,0,1-1.78-1.36l-4.2-15.51a1.84,1.84,0,1,1,3.55-1l4.2,15.51a1.84,1.84,0,0,1-1.3,2.26A1.87,1.87,0,0,1,534.09,1110.33Z" transform="translate(-276.14 -249.88)"/><path class="cls-9" d="M511.53,1028.5h0a9.53,9.53,0,0,1-9.39-9.66v-3.44a9.53,9.53,0,0,1,9.39-9.66h0a9.53,9.53,0,0,1,9.39,9.66v3.44A9.53,9.53,0,0,1,511.53,1028.5Z" transform="translate(-276.14 -249.88)"/><path class="cls-4" d="M508.8,1021.94a1.84,1.84,0,0,1-1.39-3l5.45-6.3a1.84,1.84,0,0,1,2.79,2.41l-5.45,6.3A1.84,1.84,0,0,1,508.8,1021.94Z" transform="translate(-276.14 -249.88)"/><path class="cls-10" d="M536.73,1040.3a1.84,1.84,0,0,1-1.84-1.84c0-3.47,2.43-6.8,7-9.65a1.84,1.84,0,0,1,1.94,3.13c-2.41,1.49-5.29,3.83-5.29,6.51A1.84,1.84,0,0,1,536.73,1040.3Z" transform="translate(-276.14 -249.88)"/><path class="cls-5" d="M476.36,1372.28l-2.11,10H432.57q0.62-5,1.25-10h42.54Z" transform="translate(-276.14 -249.88)"/><polygon class="cls-5" points="268.28 1122.4 267.83 1132.45 229.43 1132.45 228.94 1122.4 268.28 1122.4"/><path class="cls-5" d="M472.84,1389l-2.11,10H430.47q0.63-5,1.26-10h41.11Z" transform="translate(-276.14 -249.88)"/><polygon class="cls-5" points="267.54 1139.14 267.09 1149.19 230.24 1149.19 229.75 1139.14 267.54 1139.14"/><path class="cls-4" d="M468.32,1372.54a1.82,1.82,0,0,1-.42-0.05,1.84,1.84,0,0,1-1.37-2.21l30.39-128.88a1.84,1.84,0,0,1,3.59.85l-30.39,128.88A1.84,1.84,0,0,1,468.32,1372.54Z" transform="translate(-276.14 -249.88)"/><path class="cls-5" d="M499.72,1263a1.84,1.84,0,0,1-1.84-1.75l-1.32-27.34c-2.12-2.22-9.46-11-11.88-28.25a1.84,1.84,0,1,1,3.65-.51c2.58,18.37,11.2,26.53,11.29,26.61l0.55,0.51,0,0.76,1.35,28a1.84,1.84,0,0,1-1.75,1.93h-0.09Z" transform="translate(-276.14 -249.88)"/><path class="cls-4" d="M534.65,1372.54h-0.09a1.84,1.84,0,0,1-1.75-1.93l4.25-84.07a70.92,70.92,0,0,1,9.25-31.37,33.69,33.69,0,0,0,3.37-8,1.84,1.84,0,1,1,3.56.94,37.36,37.36,0,0,1-3.73,8.89,67.21,67.21,0,0,0-8.77,29.73l-4.25,84.07A1.84,1.84,0,0,1,534.65,1372.54Z" transform="translate(-276.14 -249.88)"/><path class="cls-9" d="M392.19,1086.47q0.13-.38.23-0.78c1.16-4.46.53-9.23-.29-13.69-0.5-2.77-1.18-5.73-3.27-7.62-3.18-2.87-8.62-2.34-12.24-.63-2.13,1,1,.43-0.13,2.46-0.28.51-2.59,7-2.12,7l8.19,0.21-9.88-16.18a13.18,13.18,0,0,0-20.52-2.72,17.39,17.39,0,0,0-2,22.47l9.4,13.21a54.88,54.88,0,0,0,18.7,16.55l0.28,0.15,6.74-9.76C387.67,1093.64,390.86,1090.56,392.19,1086.47Z" transform="translate(-276.14 -249.88)"/><path class="cls-4" d="M451.66,1443a8.49,8.49,0,1,1,8.3-8.49A8.41,8.41,0,0,1,451.66,1443Zm0-13.29a4.81,4.81,0,1,0,4.62,4.8A4.72,4.72,0,0,0,451.66,1429.73Z" transform="translate(-276.14 -249.88)"/><path class="cls-4" d="M435.46,1428.79H412.6a1.84,1.84,0,0,1,0-3.68h22.86A1.84,1.84,0,1,1,435.46,1428.79Z" transform="translate(-276.14 -249.88)"/><path class="cls-4" d="M446.88,1419.46H424a1.84,1.84,0,1,1,0-3.68h22.86A1.84,1.84,0,0,1,446.88,1419.46Z" transform="translate(-276.14 -249.88)"/><path class="cls-4" d="M546.07,1132.85h-7.65a1.84,1.84,0,0,1,0-3.68h7.65A1.84,1.84,0,0,1,546.07,1132.85Z" transform="translate(-276.14 -249.88)"/><path class="cls-5" d="M497.37,1156.42a1.84,1.84,0,0,1-.7-0.14l-42.53-17.52a1.84,1.84,0,0,1,1.4-3.41l42.53,17.52A1.84,1.84,0,0,1,497.37,1156.42Z" transform="translate(-276.14 -249.88)"/><path class="cls-5" d="M439.52,1102.57a1.84,1.84,0,0,1-1.82-1.55c-2.92-18.26.29-39.44,14-45.58a1.84,1.84,0,0,1,1.5,3.36c-11.91,5.32-14.52,25.31-11.91,41.64a1.84,1.84,0,0,1-1.53,2.11Z" transform="translate(-276.14 -249.88)"/><path class="cls-3" d="M363.12,1070.59a2.3,2.3,0,0,1-2.3-2.3V452.91A34.25,34.25,0,0,1,395,418.7H702.45a34.25,34.25,0,0,1,34.21,34.21V606.09a2.3,2.3,0,0,1-4.6,0V452.91a29.65,29.65,0,0,0-29.61-29.61H395a29.65,29.65,0,0,0-29.61,29.61v615.39A2.3,2.3,0,0,1,363.12,1070.59Z" transform="translate(-276.14 -249.88)"/><circle class="cls-5" cx="130.92" cy="213.61" r="18.91"/><path class="cls-3" d="M407.06,484.71a21.21,21.21,0,1,1,21.21-21.21A21.24,21.24,0,0,1,407.06,484.71Zm0-37.83a16.61,16.61,0,1,0,16.61,16.61A16.63,16.63,0,0,0,407.06,446.88Z" transform="translate(-276.14 -249.88)"/><circle class="cls-5" cx="416.97" cy="213.61" r="18.91"/><path class="cls-3" d="M693.1,484.71a21.21,21.21,0,1,1,21.21-21.21A21.24,21.24,0,0,1,693.1,484.71Zm0-37.83a16.61,16.61,0,1,0,16.61,16.61A16.63,16.63,0,0,0,693.1,446.88Z" transform="translate(-276.14 -249.88)"/><path class="cls-4" d="M2067.27,1203.06a1.84,1.84,0,0,1-1.81-1.52l-2-11.45a1.84,1.84,0,0,1,3.63-.64l2,11.45a1.84,1.84,0,0,1-1.49,2.14A1.82,1.82,0,0,1,2067.27,1203.06Z" transform="translate(-276.14 -249.88)"/><path class="cls-9" d="M2074.43,1190.13L2062,1167.86l58.27-41.25-13-29.1,38.91-18.32,22.06,49.57a22.58,22.58,0,0,1,.51,17.06,21.74,21.74,0,0,1-11.5,12.31Z" transform="translate(-276.14 -249.88)"/><polygon class="cls-3" points="1852.48 1158.64 1873.19 1176.9 1890.87 1190.77 1890.87 1206.27 1851.89 1206.27 1847.48 1187.2 1846.17 1187.2 1843.84 1206.27 1838.77 1206.27 1834.67 1158.64 1852.48 1158.64"/><path class="cls-5" d="M2165.87,1442.38h-16.61a1.84,1.84,0,0,1-1.41-.65l-15.41-18.18a1.84,1.84,0,0,1,2.81-2.38l14.86,17.53h15.75A1.84,1.84,0,0,1,2165.87,1442.38Z" transform="translate(-276.14 -249.88)"/><path class="cls-4" d="M2052.21,970.92a2.29,2.29,0,0,1,.56.14Z" transform="translate(-276.14 -249.88)"/><path class="cls-9" d="M1787,725.72h41.08a0,0,0,0,1,0,0v22.23a25.9,25.9,0,0,1-25.9,25.9h-0.1A15.08,15.08,0,0,1,1787,758.76v-33A0,0,0,0,1,1787,725.72Z"/><polygon class="cls-3" points="1792.47 1158.64 1785.11 1176.37 1761.03 1190.77 1761.03 1206.28 1798.14 1206.28 1803.53 1187.2 1806.9 1187.2 1811.25 1206.28 1820.4 1206.28 1817.6 1158.64 1792.47 1158.64"/><path class="cls-6" d="M2120,1158.81c10.64,23.2,36.09,48.84,26.92,76.15a52.47,52.47,0,0,0-1.74,5.4c-1.37,6.26.87,157.62,0.87,175.07l-35.84,1.33-40.79-204Z" transform="translate(-276.14 -249.88)"/><path class="cls-6" d="M2056.37,1165.16c-2.46,22.17-2.41,47.09-.4,74.45,3.73,50.7,4.83,110.11,9.2,175.82h32.26l29-248.47Z" transform="translate(-276.14 -249.88)"/><path class="cls-7" d="M2137.09,1076.73l0.14,55,33-13.74-20-41.66c-4.34,2.5,4.85-.44,0,0A112.72,112.72,0,0,1,2137.09,1076.73Z" transform="translate(-276.14 -249.88)"/><path class="cls-9" d="M1926.64,1073l17.48-18.34,54.36,46.56,23.74-20.69,27.66,33.58-40.44,35.24a21,21,0,0,1-15.84,5.12,21.23,21.23,0,0,1-14.63-8.07Z" transform="translate(-276.14 -249.88)"/><polygon class="cls-9" points="1833.43 717.87 1830.55 814.33 1801.55 814.33 1802.54 804.64 1802.54 804.64 1805.02 780.47 1811.44 717.87 1833.43 717.87"/><path class="cls-7" d="M1987,1096.18l46.43,36.79,11.3-9.6,6.82,28.52,0.73,3.05,3.49,14.59,69,0.55,2.85-9.47,0.65-2.14,8.78-29.23,2.95-9.81,5-16.61c0.08-.33.16-0.67,0.23-1a30.93,30.93,0,0,0-7-26.55q-0.71-.82-1.48-1.59c-0.69-.69-1.42-1.36-2.18-2l-9-7.41-1.79-1.48-4.92-4.07-2.14-1.77-12.29-10.15,1.45,12.83-32.35-15.4-7.3,4.38-1.85,1.11-9.22,5.54-1.85,1.11L2034,1068l-2.08,1.25-1.9,1.14-8,4.8-2.66,1.6Z" transform="translate(-276.14 -249.88)"/><path class="cls-5" d="M2137.74,1128.79a1.84,1.84,0,0,1-1.76-2.37l7.24-24.09c0.07-.3.14-0.6,0.2-0.9a28.68,28.68,0,0,0-1.44-16.52,1.84,1.84,0,1,1,3.42-1.36,32.35,32.35,0,0,1,1.62,18.63c-0.08.36-.16,0.71-0.24,1.06l0,0.09-7.25,24.13A1.84,1.84,0,0,1,2137.74,1128.79Z" transform="translate(-276.14 -249.88)"/><polygon class="cls-5" points="1827.87 786 1830.35 810.17 1834.13 792.28 1827.87 786"/><path class="cls-5" d="M2106.24,1363.86h-0.15a1.84,1.84,0,0,1-1.68-2l10.69-128.74a1.84,1.84,0,0,1,.75-1.34,52.82,52.82,0,0,0,12.62-14.14,1.84,1.84,0,0,1,3.18,1.87,56,56,0,0,1-12.94,14.73l-10.62,127.93A1.84,1.84,0,0,1,2106.24,1363.86Z" transform="translate(-276.14 -249.88)"/><path class="cls-4" d="M2080.8,987.38c6.2-.69,5.11,16,7,10.82,0,0,4.95-3.8,17.57,1.8,4,1.79,9.81,2.58,13.56-.25,5.95-4.48,4.38-13.62,2.85-19.9-6.87-28.27-38.58-33.49-60.89-21.46-8.15,4.4-13.29,13.23-5.64,21C2061.69,985.86,2072.09,988.34,2080.8,987.38Z" transform="translate(-276.14 -249.88)"/><path class="cls-4" d="M2081.77,1025.38a1.84,1.84,0,0,1-.22-3.67,23.25,23.25,0,0,0,11.24-4.6A1.84,1.84,0,0,1,2095,1020a26.94,26.94,0,0,1-13,5.33h-0.23Z" transform="translate(-276.14 -249.88)"/><polygon class="cls-5" points="1831 805.77 1802.02 784.53 1796.42 798.14 1831 811.64 1831 805.77"/><path class="cls-9" d="M1945.75,1056.37l-2.6-13.36a19.19,19.19,0,0,0-12.66-9.61h0a0.3,0.3,0,0,0-.35.23l-0.05.25a24.4,24.4,0,0,0,1.55,14.83h0a0.31,0.31,0,0,1-.17.41l-18.24,7a20.79,20.79,0,0,0-9.64,7.56c-4.92,7.07-6.45,13.69-3.72,19.76a0.31,0.31,0,0,0,.21.17c8.38,1.87,18.57,1.39,31.81-3.07a0.3,0.3,0,0,0,.17-0.15l13.7-23.7A0.31,0.31,0,0,0,1945.75,1056.37Z" transform="translate(-276.14 -249.88)"/><path class="cls-5" d="M2044.76,1125.2a1.84,1.84,0,0,1-1-3.39l18.56-12.11a1.84,1.84,0,1,1,2,3.09l-18.57,12.12A1.83,1.83,0,0,1,2044.76,1125.2Z" transform="translate(-276.14 -249.88)"/><path class="cls-5" d="M2054.49,1442.49h-15.06a1.84,1.84,0,1,1,0-3.68h15.06A1.84,1.84,0,1,1,2054.49,1442.49Z" transform="translate(-276.14 -249.88)"/><path class="cls-4" d="M2142.28,1082.63c-18.62,3-38.21,7.63-57.41,8.14a112.75,112.75,0,0,1-13.21-.38c-4.85-.44-10.11-1.38-14.45-3.88a17.69,17.69,0,0,1-4.94-4.1c-7.74-9.38-6.89-24.73-1.38-35,7-13,20-21.43,23.86-36.34,1.78-6.91,6.57-23.74-1-29.34a5.63,5.63,0,0,0-1.32-.77l49.33,15.44s-11.52,32.68,33.61,39.87C2187.71,1041.41,2199.81,1073.49,2142.28,1082.63Z" transform="translate(-276.14 -249.88)"/><path class="cls-9" d="M2075.91,1003.17h0a7.91,7.91,0,0,1-7.8-8v-2.85a7.91,7.91,0,0,1,7.8-8h0a7.91,7.91,0,0,1,7.8,8v2.85A7.91,7.91,0,0,1,2075.91,1003.17Z" transform="translate(-276.14 -249.88)"/><path class="cls-4" d="M2078.45,997.74a1.83,1.83,0,0,1-1.24-.48l-5.09-4.65a1.84,1.84,0,1,1,2.49-2.72l5.09,4.65A1.84,1.84,0,0,1,2078.45,997.74Z" transform="translate(-276.14 -249.88)"/><path class="cls-11" d="M2087.3,990.07a1.84,1.84,0,0,1-.36-3.65,25.41,25.41,0,0,0,9.49-4.56,1.84,1.84,0,0,1,2.32,2.86,29,29,0,0,1-11.08,5.31A1.87,1.87,0,0,1,2087.3,990.07Z" transform="translate(-276.14 -249.88)"/><path class="cls-3" d="M2152.53,978a2.29,2.29,0,0,1-1.54-.59l-14-12.6a2.3,2.3,0,0,1,3.08-3.41l14,12.6A2.3,2.3,0,0,1,2152.53,978Z" transform="translate(-276.14 -249.88)"/><path class="cls-3" d="M2116,939.68a2.3,2.3,0,0,1-2.15-1.49l-6.68-17.83a2.3,2.3,0,0,1,4.3-1.61l6.68,17.83A2.3,2.3,0,0,1,2116,939.68Z" transform="translate(-276.14 -249.88)"/><path class="cls-3" d="M2137.75,942.06a2.3,2.3,0,0,1-1.16-4.29l16.17-9.4a2.3,2.3,0,1,1,2.31,4l-16.17,9.4A2.28,2.28,0,0,1,2137.75,942.06Z" transform="translate(-276.14 -249.88)"/><path class="cls-5" d="M1111.49,520.33V457.48h-33.91a91.57,91.57,0,0,0-3.71-8.9l23.9-24-43.67-43.52-23.94,24a91.49,91.49,0,0,0-8.48-3.51V367.68H960v33.85A91.53,91.53,0,0,0,949.61,406l-24.46-23.49-42.71,44.46,24.41,23.45q-1.61,3.54-2.91,7.24H870.09v61.65H904a91.58,91.58,0,0,0,4.75,11l-24,25.28L929,599.3l25.07-26.4q2.84,1.23,5.78,2.28V612h61.65V575.23q4.24-1.5,8.28-3.4l25.76,25.63,43.06-45L1074,528q1.78-3.73,3.22-7.63h34.28Z" transform="translate(-276.14 -249.88)"/><path class="cls-6" d="M1023.84,614.33H957.59V576.79c-1-.37-1.95-0.75-2.91-1.15l-25.59,26.94-47.57-46.95L906,529.89c-1.32-2.69-2.52-5.47-3.58-8.3h-34.6V455.34h34.54c0.56-1.49,1.15-3,1.77-4.4L879.19,427l45.9-47.78,25,24c2.51-1.2,5.09-2.3,7.7-3.28V365.39H1024V400c1.92,0.72,3.82,1.51,5.68,2.35l24.43-24.51L1101,424.6l-24.38,24.46c0.91,2,1.77,4,2.55,6.12h34.6v67.44h-35c-0.63,1.63-1.32,3.24-2,4.84l25.11,25-46.24,48.3-26.3-26.16c-1.8.81-3.64,1.56-5.49,2.25v37.48Zm-61.65-4.6h57.06V573.61l1.53-.54c2.74-1,5.45-2.08,8.07-3.31l1.46-.68,25.24,25.12,39.88-41.66-24.21-24.09,0.7-1.47c1.16-2.43,2.21-4.93,3.14-7.44l0.55-1.5h33.59V459.78H1076l-0.54-1.53a89.77,89.77,0,0,0-3.61-8.68l-0.7-1.47,23.42-23.5-40.41-40.28-23.46,23.54-1.47-.69c-2.68-1.27-5.46-2.42-8.26-3.42l-1.53-.54V370H962.34v33.18l-1.53.54A89.63,89.63,0,0,0,950.64,408l-1.45.73-24-23-39.53,41.15,23.93,23-0.67,1.48c-1,2.26-2,4.64-2.84,7.06l-0.54,1.53H872.39V517h33.23l0.54,1.53a89.64,89.64,0,0,0,4.63,10.74l0.74,1.45L888,555.53,929,596l24.57-25.87,1.48,0.64c1.85,0.8,3.74,1.55,5.63,2.23l1.53,0.54v36.17Z" transform="translate(-276.14 -249.88)"/><path class="cls-7" d="M990.79,541.59A53.21,53.21,0,1,1,1044,488.39,53.27,53.27,0,0,1,990.79,541.59Zm0-101.82a48.61,48.61,0,1,0,48.61,48.61A48.67,48.67,0,0,0,990.79,439.78Z" transform="translate(-276.14 -249.88)"/><polygon class="cls-2" points="1629.32 62.66 1576.2 62.66 1582.8 136.35 1622.71 136.35 1623.62 126.21 1629.32 62.66"/><path class="cls-1" d="M1882.28,297.89a1.91,1.91,0,0,1-1.9-1.72c0-.19-1.64-18.59,18.59-22,14.77-2.52,16.64-12.93,17.88-19.82,0.21-1.16.39-2.16,0.62-3a1.91,1.91,0,1,1,3.69,1c-0.19.71-.35,1.64-0.55,2.71-1.25,7-3.59,19.93-21,22.9-16.75,2.86-15.5,17.28-15.43,17.9a1.91,1.91,0,0,1-1.71,2.09h-0.19Z" transform="translate(-276.14 -249.88)"/><path class="cls-1" d="M1870.73,300.4a1.91,1.91,0,0,1-1.82-1.35c-1.17-3.85-4.28-6.46-7.57-9.22l-0.93-.78c-5.77-4.89-7.57-10.37-5.52-16.76a1.91,1.91,0,1,1,3.63,1.17c-1.57,4.89-.23,8.8,4.35,12.68l0.92,0.77c3.57,3,7.27,6.1,8.77,11A1.91,1.91,0,0,1,1870.73,300.4Z" transform="translate(-276.14 -249.88)"/><path class="cls-1" d="M1897,362.64a1.91,1.91,0,1,1,0-3.82,19.3,19.3,0,0,0,19.15-16.34l1.22-7.63a6.14,6.14,0,0,0-6.07-7.11H1891.6a1.91,1.91,0,0,1,0-3.82h19.67a10,10,0,0,1,9.83,11.52l-1.22,7.63A23.1,23.1,0,0,1,1897,362.64Z" transform="translate(-276.14 -249.88)"/><path class="cls-5" d="M1438.22,415v0Z" transform="translate(-276.14 -249.88)"/><path class="cls-6" d="M1438.22,417.29a2.3,2.3,0,0,1-2.3-2.3V388.64a2.3,2.3,0,1,1,4.6,0V415A2.3,2.3,0,0,1,1438.22,417.29Z" transform="translate(-276.14 -249.88)"/><path class="cls-5" d="M1411.87,421.12l-34.94-12.26Z" transform="translate(-276.14 -249.88)"/><path class="cls-6" d="M1411.87,423.42a2.3,2.3,0,0,1-.76-0.13L1376.17,411a2.3,2.3,0,1,1,1.52-4.34L1412.63,419A2.3,2.3,0,0,1,1411.87,423.42Z" transform="translate(-276.14 -249.88)"/><path class="cls-3" d="M2063.41,531.92a2.3,2.3,0,0,1-2.12-1.42l-6.13-14.71a2.3,2.3,0,0,1,4.24-1.77l6.13,14.71A2.3,2.3,0,0,1,2063.41,531.92Z" transform="translate(-276.14 -249.88)"/><path class="cls-3" d="M2078.74,547.41a2.3,2.3,0,0,1-.9-4.42l41.07-17.34a2.3,2.3,0,0,1,1.79,4.24l-41.07,17.34A2.3,2.3,0,0,1,2078.74,547.41Z" transform="translate(-276.14 -249.88)"/><path class="cls-7" d="M831.29,398.34a2.3,2.3,0,0,1-1.8-3.72,296,296,0,0,1,104.21-83.2,2.3,2.3,0,1,1,2,4.15,291.41,291.41,0,0,0-102.58,81.9A2.29,2.29,0,0,1,831.29,398.34Z" transform="translate(-276.14 -249.88)"/><path class="cls-7" d="M803,435.67L805.85,392l35.74,31.2Zm6.86-34.08L808,429.22l24.45-7.88Z" transform="translate(-276.14 -249.88)"/><path class="cls-5" d="M633.2,1423.75c-0.54-1.71-1-3.44-1.36-5.18-2.69-12.75-1.92-31.54,12.54-36.85,1.06-.39,12.31-3.13,12.51-2.07,0,0-4.53-24.07,19.09-22.78l3.28-10.83c4.22-13.91,20.67-20.09,32.79-12.07l0.53,0.36a23.2,23.2,0,0,1,7,30.21l-7.81,14.14s22.23-12.81,31.21,5.24S720,1410.71,720,1410.71s22.34,3.59,11.28,25.21c-5.17,10.11-19.84,14.41-30,16.68-14.28,3.2-30.33,3.75-44.25-1.36C645,1446.81,637,1435.75,633.2,1423.75Z" transform="translate(-276.14 -249.88)"/><path class="cls-2" d="M680.15,1456.39a68.27,68.27,0,0,1-23.51-3.9c-11.34-4.16-20.35-14.49-24.72-28.34-0.55-1.73-1-3.52-1.39-5.3-3-14.33-1.33-33,13.39-38.38,0.08,0,7.47-2.11,11.41-2.33-0.35-3.37-.36-10.06,3.1-15.33,3.31-5,8.88-7.5,16.57-7.31l3-9.84a23.16,23.16,0,0,1,14.45-15.2,22.66,22.66,0,0,1,20.36,2.4l0.56,0.38a24.5,24.5,0,0,1,7.38,32l-5.8,10.49c4.35-1.79,11.69-4,18.45-1.93,4.7,1.42,8.32,4.64,10.78,9.57a13.81,13.81,0,0,1,.55,12.27c-3.53,7.89-14.15,12.79-20.14,15,3.23,1.25,7.45,3.64,9.68,8,2.45,4.83,1.86,10.84-1.74,17.89-5.41,10.59-20.22,15-30.88,17.37A99.46,99.46,0,0,1,680.15,1456.39ZM656,1380.74c-2.11,0-10,1.84-11.12,2.24-13.11,4.82-14.5,22-11.7,35.32,0.36,1.7.8,3.4,1.32,5h0c4.11,13.05,12.53,22.76,23.08,26.63,15.45,5.67,32.18,3.84,43.5,1.31,10.14-2.27,24.18-6.4,29.08-16,3.19-6.24,3.77-11.44,1.73-15.46-3.22-6.34-11.95-7.81-12-7.82a1.34,1.34,0,0,1-.14-2.61c0.18-.05,18.19-5.09,22.58-14.9,1.42-3.17,1.25-6.44-.51-10-2.11-4.24-5.19-7-9.15-8.2-9.11-2.76-20.09,3.46-20.2,3.52a1.34,1.34,0,0,1-1.84-1.81l7.81-14.14a21.83,21.83,0,0,0-6.58-28.47l-0.5-.34a20,20,0,0,0-18-2.12,20.51,20.51,0,0,0-12.79,13.46l-3.28,10.83a1.32,1.32,0,0,1-1.35.95c-6.38-.34-11.15,1.21-14.16,4.64-5.39,6.13-3.57,16.39-3.54,16.56h0a1.34,1.34,0,0,1-2.1,1.34H656Zm-0.37-.84h0a1.19,1.19,0,0,0,.1.3C655.65,1380.14,655.62,1380,655.59,1379.9Z" transform="translate(-276.14 -249.88)"/><path class="cls-2" d="M694.23,1454.69h-72c-20.6-23.7,8.72-51.89,8.72-51.89-16.95-25.57,9.54-33.34,9.54-33.34-1.52.45-1.81-22.79-1.5-24.88,1-6.92,2.8-14.34,8.31-18.65,20.08-15.7,27.11,36.54,28.32,46.53,25.31,15.64,2.63,30.63,2.63,30.63C714.3,1412.28,701.17,1442.59,694.23,1454.69Z" transform="translate(-276.14 -249.88)"/><path class="cls-2" d="M694.23,1457h-72a2.3,2.3,0,0,1-1.73-.79c-19.11-22,1.9-47.54,7.54-53.68-4.93-8-6.27-15.27-4-21.54,2.72-7.44,9.77-11.3,13.47-12.86a88.09,88.09,0,0,1-.8-10.73c-0.17-5.09-.22-11.74,0-13.14,1.08-7.25,3-15.31,9.17-20.12,4.32-3.38,8.53-4.26,12.49-2.61,12,5,17.27,32.72,19.39,49.6,7.95,5.14,12,10.87,12.12,17s-3.79,11-6.84,14c9.9,3.32,16.48,8.71,19.6,16.08,5.61,13.25-1.61,29.27-6.41,37.64A2.3,2.3,0,0,1,694.23,1457Zm-71-4.6h69.61c4.34-7.87,10.11-21.53,5.51-32.4-3-7-9.93-11.91-20.74-14.66a2.3,2.3,0,0,1-.7-4.14c0.08-.05,8.44-5.71,8.31-13-0.08-4.73-3.74-9.37-10.88-13.78a2.3,2.3,0,0,1-1.07-1.68c-2.47-20.38-8.16-43.43-16.73-47-2.35-1-4.93-.32-7.9,2-4.87,3.81-6.5,10.82-7.45,17.17-0.27,2,.05,19.5.89,23a2.3,2.3,0,0,1-1,3.79h0c-0.12,0-9.91,3-12.76,10.9-1.9,5.23-.39,11.6,4.49,19a2.3,2.3,0,0,1-.32,2.93C631.4,1405.53,605.67,1430.8,623.28,1452.39Zm16.57-85.14h0Zm0,0h0Zm0,0h0Z" transform="translate(-276.14 -249.88)"/><path class="cls-5" d="M694.23,1457h-72a2.3,2.3,0,0,1-1.73-.79c-19.11-22,1.9-47.54,7.54-53.68-4.93-8-6.27-15.27-4-21.54,2.72-7.44,9.77-11.3,13.47-12.86a88.09,88.09,0,0,1-.8-10.73c-0.17-5.09-.22-11.74,0-13.14,1.08-7.25,3-15.31,9.17-20.12,4.32-3.38,8.53-4.26,12.49-2.61,12,5,17.27,32.72,19.39,49.6,7.95,5.14,12,10.87,12.12,17s-3.79,11-6.84,14c9.9,3.32,16.48,8.71,19.6,16.08,5.61,13.25-1.61,29.27-6.41,37.64A2.3,2.3,0,0,1,694.23,1457Zm-71-4.6h69.61c4.34-7.87,10.11-21.53,5.51-32.4-3-7-9.93-11.91-20.74-14.66a2.3,2.3,0,0,1-.7-4.14c0.08-.05,8.44-5.71,8.31-13-0.08-4.73-3.74-9.37-10.88-13.78a2.3,2.3,0,0,1-1.07-1.68c-2.47-20.38-8.16-43.43-16.73-47-2.35-1-4.93-.32-7.9,2-4.87,3.81-6.5,10.82-7.45,17.17-0.27,2,.05,19.5.89,23a2.3,2.3,0,0,1-1,3.79h0c-0.12,0-9.91,3-12.76,10.9-1.9,5.23-.39,11.6,4.49,19a2.3,2.3,0,0,1-.32,2.93C631.4,1405.53,605.67,1430.8,623.28,1452.39Zm16.57-85.14h0Zm0,0h0Zm0,0h0Z" transform="translate(-276.14 -249.88)"/><path class="cls-5" d="M661.83,1455.53a2.3,2.3,0,0,1-2.29-2.16L651.95,1324a2.3,2.3,0,1,1,4.59-.27l7.59,129.4a2.3,2.3,0,0,1-2.16,2.43h-0.14Z" transform="translate(-276.14 -249.88)"/><path class="cls-5" d="M660.39,1431a2.3,2.3,0,0,1-.45-4.55l24.73-5a2.3,2.3,0,1,1,.91,4.51l-24.73,5A2.28,2.28,0,0,1,660.39,1431Z" transform="translate(-276.14 -249.88)"/><path class="cls-5" d="M659.06,1408.2a2.29,2.29,0,0,1-1.69-.74l-14.55-15.72a2.3,2.3,0,0,1,3.37-3.12l14.55,15.72A2.3,2.3,0,0,1,659.06,1408.2Z" transform="translate(-276.14 -249.88)"/><path class="cls-4" d="M325.36,1459.45H278.43a2.3,2.3,0,0,1,0-4.6h46.93A2.3,2.3,0,0,1,325.36,1459.45Z" transform="translate(-276.14 -249.88)"/><path class="cls-4" d="M2194.56,1459.45H351.17a2.3,2.3,0,0,1,0-4.6H2194.56A2.3,2.3,0,1,1,2194.56,1459.45Z" transform="translate(-276.14 -249.88)"/><path class="cls-4" d="M2252.81,1459.45h-27a2.3,2.3,0,0,1,0-4.6h27A2.3,2.3,0,1,1,2252.81,1459.45Z" transform="translate(-276.14 -249.88)"/><path class="cls-2" d="M1277.74,478.76h-4.6V465h4.6v13.79Zm0-27.58h-4.6V437.39h4.6v13.79Zm0-27.58h-4.6V409.81h4.6V423.6Zm0-27.58h-4.6V382.23h4.6V396Zm0-27.58h-4.6V354.65h4.6v13.79Zm0-27.58h-4.6v-14.8h3.58v2.3h1v12.51Zm246.71-10.21h-13.28v-4.6h13.28v4.6Zm-27.07,0h-13.79v-4.6h13.79v4.6Zm-27.58,0H1456v-4.6h13.79v4.6Zm-27.58,0h-13.79v-4.6h13.79v4.6Zm-27.58,0h-13.79v-4.6h13.79v4.6Zm-27.58,0h-13.79v-4.6h13.79v4.6Zm-27.58,0h-13.79v-4.6h13.79v4.6Zm-27.58,0H1318.1v-4.6h13.79v4.6Zm-27.58,0h-13.79v-4.6h13.79v4.6Z" transform="translate(-276.14 -249.88)"/><polygon class="cls-2" points="1311.25 78.47 1296.75 86.84 1282.25 95.21 1282.25 78.47 1282.25 61.73 1296.75 70.1 1311.25 78.47"/><polygon class="cls-2" points="1352.36 78.47 1337.86 86.84 1323.36 95.21 1323.36 78.47 1323.36 61.73 1337.86 70.1 1352.36 78.47"/><path class="cls-2" d="M2156.42,667a1.66,1.66,0,0,1-1.17-.49l-23.68-23.68a1.66,1.66,0,0,1,.74-2.77l32.34-8.67a1.66,1.66,0,0,1,2,2L2158,665.74A1.66,1.66,0,0,1,2156.42,667Zm-20.47-24.48,19.62,19.62,7.18-26.8Z" transform="translate(-276.14 -249.88)"/><polygon class="cls-2" points="1630 225.28 1634.33 209.11 1638.66 192.94 1650.5 204.78 1662.34 216.61 1646.17 220.95 1630 225.28"/><polygon class="cls-2" points="176.01 368.27 180.34 352.1 184.67 335.93 196.51 347.77 208.35 359.61 192.18 363.94 176.01 368.27"/><polygon class="cls-1" points="91.53 1009.09 91.88 992.35 92.22 975.61 106.54 984.28 120.87 992.95 106.2 1001.02 91.53 1009.09"/><polygon class="cls-2" points="114.06 975.61 114.4 958.88 114.74 942.14 129.07 950.8 143.39 959.47 128.72 967.54 114.06 975.61"/><polygon class="cls-2" points="110.38 91.12 124.84 82.69 139.31 74.26 139.38 91 139.45 107.74 124.91 99.43 110.38 91.12"/><path class="cls-2" d="M461.09,359.28a1.66,1.66,0,0,1-.82-0.22L431.2,342.44a1.66,1.66,0,0,1,0-2.87l28.93-16.86a1.66,1.66,0,0,1,2.49,1.42l0.14,33.48A1.66,1.66,0,0,1,461.09,359.28ZM435.34,341l24.08,13.77L459.31,327Z" transform="translate(-276.14 -249.88)"/><path class="cls-2" d="M1201.19,460.65a16.06,16.06,0,1,1,16.06-16.06A16.08,16.08,0,0,1,1201.19,460.65Zm0-28.81a12.75,12.75,0,1,0,12.75,12.75A12.76,12.76,0,0,0,1201.19,431.83Z" transform="translate(-276.14 -249.88)"/><circle class="cls-2" cx="19.98" cy="668.47" r="14.41"/><circle class="cls-2" cx="1898.42" cy="572.99" r="14.41"/><rect class="cls-1" x="1810.42" y="148.82" width="24.82" height="24.82"/><rect class="cls-2" x="1811.03" y="105.27" width="24.82" height="24.82"/><path class="cls-2" d="M2112,338.09h-24.82a1.66,1.66,0,0,1-1.66-1.66V311.61a1.66,1.66,0,0,1,1.66-1.66H2112a1.66,1.66,0,0,1,1.66,1.66v24.82A1.66,1.66,0,0,1,2112,338.09Zm-23.17-3.31h21.51V313.27h-21.51v21.51Z" transform="translate(-276.14 -249.88)"/><rect class="cls-2" x="274.78" y="220.12" width="24.82" height="24.82"/><path class="cls-2" d="M409.52,1319.91H395.73v-4.6h13.79v4.6Zm-27.58,0H368.15v-4.6h13.79v4.6Zm-27.58,0H340.57v-4.6h13.79v4.6Zm-27.58,0H313v-4.6h13.79v4.6Zm-13.95-13.63h-4.6v-13.79h4.6v13.79Zm0-27.58h-4.6V1264.9h4.6v13.79Zm0-27.58h-4.6v-13.79h4.6v13.79Zm0-27.58h-4.6v-13.79h4.6v13.79Zm0-27.58h-4.6v-13.79h4.6v13.79Zm0-27.58h-4.6v-13.79h4.6v13.79Z" transform="translate(-276.14 -249.88)"/><path class="cls-2" d="M2224.34,1062.09h-4.6V1049h4.6v13.12Zm0-26.92h-4.6v-13.79h4.6v13.79Zm0-27.58h-4.6V993.81h4.6v13.79Zm0-27.58h-4.6V966.22h4.6V980Zm0-27.58h-4.6V938.64h4.6v13.79Zm0-27.58h-4.6V911.06h4.6v13.79Zm0-27.58h-4.6V883.48h4.6v13.79Zm0-27.58h-4.6V855.9h4.6v13.79Zm0-27.58h-4.6V828.31h4.6v13.79Zm0-27.58h-4.6V800.73h4.6v13.79Zm0-27.58h-4.6V774.6h0.84v-2.3h3.75v14.64Zm-17.54-10H2193v-4.6h13.79v4.6Zm-27.58,0h-13.79v-4.6h13.79v4.6Zm-27.58,0h-13.79v-4.6h13.79v4.6Zm-27.58,0h-13.79v-4.6h13.79v4.6Z" transform="translate(-276.14 -249.88)"/><path class="cls-2" d="M1990.56,488.39H1986v-9h4.6v9Zm0-22.84H1986V451.75h4.6v13.79Zm0-27.58H1986V424.17h4.6V438Zm0-27.58H1986V396.59h4.6v13.79Zm-8.14-19.45h-13.79v-4.6h13.79v4.6Zm-27.58,0H1941v-4.6h13.79v4.6Zm-27.58,0h-13.79v-4.6h13.79v4.6Zm-27.58,0h-13.79v-4.6h13.79v4.6Zm-27.58,0H1858.3v-4.6h13.79v4.6Zm-27.58,0h-13.79v-4.6h13.79v4.6Zm-27.58,0h-13.79v-4.6h13.79v4.6Zm-27.58,0h-13.79v-4.6h13.79v4.6ZM1775.4,377.3h-4.6V363.51h4.6V377.3Zm0-27.58h-4.6V335.93h4.6v13.79Zm0-27.58h-4.6V308.34h4.6v13.79Zm0-27.58h-4.6V280.76h4.6v13.79Z" transform="translate(-276.14 -249.88)"/><path class="cls-2" d="M444.08,865.88h-4.6V852.09h4.6v13.79Zm0-27.58h-4.6V824.51h4.6V838.3Zm0-27.58h-4.6V796.93h4.6v13.79Zm0-27.58h-4.6V769.34h4.6v13.79Zm0-27.58h-4.6V741.76h4.6v13.79Z" transform="translate(-276.14 -249.88)"/><path class="cls-2" d="M699.7,359.1H625.13a1.66,1.66,0,0,1-1.66-1.66v-40a1.66,1.66,0,0,1,1.66-1.66H699.7a1.66,1.66,0,0,1,1.66,1.66v40A1.66,1.66,0,0,1,699.7,359.1Zm-72.91-3.31H698V319.13H626.79v36.66Z" transform="translate(-276.14 -249.88)"/></svg>