<svg id="Floor" xmlns="http://www.w3.org/2000/svg" viewBox="0 0 432.08 423.59"><defs><style>.cls-1{fill:#f5f5f5;}.cls-2{fill:#e0e0e0;}.cls-3{fill:#27debf;}.cls-4{opacity:0.15;}.cls-15,.cls-22,.cls-5{fill:#fff;}.cls-6{fill:#fafafa;}.cls-7{fill:#f0f0f0;}.cls-15,.cls-8{opacity:0.5;}.cls-9{opacity:0.6;}.cls-10,.cls-22{opacity:0.3;}.cls-11{opacity:0.7;}.cls-12{opacity:0.1;}.cls-13{fill:#f28f8f;}.cls-14{fill:none;stroke:#455a64;stroke-linecap:round;stroke-miterlimit:10;}.cls-16{fill:#455a64;}.cls-17{opacity:0.2;}.cls-18{opacity:0.4;}.cls-19{fill:#ffa8a7;}.cls-20{fill:#263238;}.cls-21{fill:#37474f;}.cls-23{fill:#ffbda7;}.cls-24{fill:#ebebeb;}.cls-25{fill:#f0997a;}.cls-26{opacity:0.05;}.cls-27{fill:#b16668;}</style></defs><title>CX_deployer-step4</title><path id="Floor-2" data-name="Floor" class="cls-1" d="M97.77,258.23C13.7,306.77,13.7,385.47,97.78,434s220.38,48.54,304.45,0,84.07-127.24,0-175.77S181.85,209.69,97.77,258.23Z" transform="translate(-33.2 -46.82)"/><path id="Shadow" class="cls-2" d="M84.69,400.31L47.16,378.71c-1.33-.77-1.33-2,0-2.78L288.71,236.52a5.32,5.32,0,0,1,4.81,0l37.54,21.61c1.33,0.77,1.33,2,0,2.78L89.51,400.31A5.32,5.32,0,0,1,84.69,400.31Z" transform="translate(-33.2 -46.82)"/><path id="Shadow-2" data-name="Shadow" class="cls-2" d="M247.23,319.39L266,308.57a2.85,2.85,0,0,1,2.59,0l20.59,12a0.8,0.8,0,0,1,0,1.51l-18.74,10.82a2.85,2.85,0,0,1-2.59,0l-20.59-12A0.8,0.8,0,0,1,247.23,319.39Z" transform="translate(-33.2 -46.82)"/><path id="Shadow-3" data-name="Shadow" class="cls-2" d="M274.9,303.14l18.74-10.82a2.85,2.85,0,0,1,2.59,0l20.59,12a0.8,0.8,0,0,1,0,1.51l-18.74,10.82a2.85,2.85,0,0,1-2.59,0l-20.59-12A0.8,0.8,0,0,1,274.9,303.14Z" transform="translate(-33.2 -46.82)"/><path id="Shadow-4" data-name="Shadow" class="cls-2" d="M302.15,287.4l18.74-10.82a2.85,2.85,0,0,1,2.59,0l20.59,12a0.8,0.8,0,0,1,0,1.51l-18.74,10.82a2.85,2.85,0,0,1-2.59,0l-20.59-12A0.8,0.8,0,0,1,302.15,287.4Z" transform="translate(-33.2 -46.82)"/><path id="Shadow-5" data-name="Shadow" class="cls-2" d="M166.54,392.38c-23.95,13.83-23.95,36.24,0,50.07s62.78,13.83,86.72,0,23.95-36.24,0-50.07S190.49,378.56,166.54,392.38Z" transform="translate(-33.2 -46.82)"/><path id="Shadow-6" data-name="Shadow" class="cls-2" d="M355.89,304c-20.14,10-20.14,26.25,0,36.27s52.81,10,73,0S449,314,428.85,304,376,294,355.89,304Z" transform="translate(-33.2 -46.82)"/><g id="Plants"><g id="_Group_" data-name="&lt;Group&gt;"><g id="_Group_2" data-name="&lt;Group&gt;"><path id="_Path_" data-name="&lt;Path&gt;" class="cls-3" d="M79.21,346.93s1.42-16-3.87-29.78-14.42-23.53-24.22-26.37S31.4,295.47,40.77,304s27,18.84,30.89,44.23Z" transform="translate(-33.2 -46.82)"/><path id="_Path_2" data-name="&lt;Path&gt;" class="cls-4" d="M79.21,346.93s1.42-16-3.87-29.78-14.42-23.53-24.22-26.37S31.4,295.47,40.77,304s27,18.84,30.89,44.23Z" transform="translate(-33.2 -46.82)"/></g><g id="_Group_3" data-name="&lt;Group&gt;"><path id="_Path_3" data-name="&lt;Path&gt;" class="cls-5" d="M77.12,342.26h0.11a0.54,0.54,0,0,0,.43-0.63c-5.21-28.12-23-43.07-31.7-47a0.54,0.54,0,0,0-.45,1c8.51,3.9,26,18.58,31.08,46.26A0.54,0.54,0,0,0,77.12,342.26Z" transform="translate(-33.2 -46.82)"/></g></g><g id="_Group_4" data-name="&lt;Group&gt;"><g id="_Group_5" data-name="&lt;Group&gt;"><g id="_Group_6" data-name="&lt;Group&gt;"><path id="_Path_4" data-name="&lt;Path&gt;" class="cls-3" d="M80.06,373c0-.8,0-1.61,0-2.41a26.69,26.69,0,0,1,.93-6.67c0.61-2.13,2.06-3.82,2.57-5.94a9.16,9.16,0,0,0-1.66-6.81c-1.32-1.87-3.27-3.37-4-5.54-0.9-2.74.8-5.49,0.06-8s-3.53-4.08-5.81-4.7c-3.05-.83-6.3-0.61-9.38-1.34-4-.93-7.43-3.36-11-5.28s-7.84-3.4-11.76-2.24a9.49,9.49,0,0,0-6.07,12.73c0.88,2.13,2.49,3.85,3.67,5.83s1.82,4.23.92,6.39c-0.66,1.6-1.85,2.81-2.4,4.47-1.41,4.26-.62,8.08,3.62,10.26,3.14,1.61,6.75,1.15,9.89,2.57,2.28,1,4.2,3.14,4,5.75-0.09,1.35-.47,2.66-0.6,4-0.85,8.8,5,14.39,12.46,15.48a23.11,23.11,0,0,0,11.54-1.69c3.78-1.84,3-4.8,3.14-8.52C80.28,378.56,80.1,375.78,80.06,373Z" transform="translate(-33.2 -46.82)"/></g></g><g id="_Group_7" data-name="&lt;Group&gt;"><path id="_Path_5" data-name="&lt;Path&gt;" class="cls-5" d="M47.63,354.29a0.51,0.51,0,0,0,.3,0A27.13,27.13,0,0,1,71,355.92a0.51,0.51,0,0,0,.48-0.9,28.18,28.18,0,0,0-24-1.69A0.51,0.51,0,0,0,47.63,354.29Z" transform="translate(-33.2 -46.82)"/></g><path class="cls-5" d="M80.77,381.41a0.48,0.48,0,0,1-.49-0.46c-0.88-21.45-22.41-44.13-36.85-50.32a0.48,0.48,0,0,1,.38-0.88C58.48,336,80.35,359.1,81.24,380.91a0.48,0.48,0,0,1-.46.5h0Z" transform="translate(-33.2 -46.82)"/></g></g><g id="Gears-2" data-name="Gears"><g id="_Group_8" data-name="&lt;Group&gt;"><path id="_Compound_Path_" data-name="&lt;Compound Path&gt;" class="cls-2" d="M89.29,78.86h0a0.92,0.92,0,0,0-1,.08l-2,1.29L85.87,81.4a2.21,2.21,0,0,0,.55,2.17,9.82,9.82,0,0,1,.92,1.09,1.38,1.38,0,0,0,1.88.41l4.68-3a0.94,0.94,0,0,1,1-.1ZM82.08,95.59C81.43,91.89,79,90,75.87,90.3a9.12,9.12,0,0,1,.65,2.16c1,5.85-2.78,14.16-8.5,18.54a11.73,11.73,0,0,1-6,2.61c1.88,3.93,6.63,4.3,11.58.51C79.32,109.74,83.12,101.44,82.08,95.59Zm0.1-25h0a1.22,1.22,0,0,0-.37-0.14l-3.53-.77a1.93,1.93,0,0,0-2,.9L73,76.72a2.79,2.79,0,0,1-.74.82h0a2.88,2.88,0,0,1-.56.37l1,3.36a1.21,1.21,0,0,0,1.67.74,17.32,17.32,0,0,1,2.17-.69,3.69,3.69,0,0,0,1.26-.64,2.74,2.74,0,0,0,.75-0.83l3.31-6.16a1.94,1.94,0,0,1,2-.9l3.53,0.77a1.34,1.34,0,0,1,.35.13Zm-9.94,59.58a1,1,0,0,1-.33-0.52l-1.19-3.85a1.2,1.2,0,0,0-1.67-.74,16.41,16.41,0,0,1-2.17.69,2.89,2.89,0,0,0-.68.28l0.16,0.5a1,1,0,0,0,.45.59h0ZM65.48,73.69a0.83,0.83,0,0,0-.39-0.1,1,1,0,0,0-.65.24l-5.29,4a1.32,1.32,0,0,0-.2.19,1.11,1.11,0,0,0-.14.15,3.34,3.34,0,0,0-.46.81l-0.06.2h0a2.29,2.29,0,0,0-.14.83L58.47,85a3.81,3.81,0,0,1-.82,2.37c-0.87,1-1.68,2.07-2.45,3.16a2.65,2.65,0,0,1-1.17.87,2.25,2.25,0,0,1-.46.14,1,1,0,0,1-.22,0,1.16,1.16,0,0,1-.31,0l-3.4-.16H49.56l-0.28,0L49,91.46h0l-0.28.11a2.44,2.44,0,0,0-.49.3,2,2,0,0,0-.55.68l-3.19,7A1.3,1.3,0,0,0,45,101.2l3.78,2.12a1.61,1.61,0,0,1,.08,1,31,31,0,0,0-.59,3.32,4.09,4.09,0,0,1-1.14,2.26l-0.06,0L42.47,114a1.4,1.4,0,0,0-.22.24l0,0a1.24,1.24,0,0,0-.19.3,2.6,2.6,0,0,0-.35,1.67l0.89,5a1,1,0,0,0,.41.68L48.52,125a1,1,0,0,1-.39-0.66l-0.88-5a2.26,2.26,0,0,1,.06-1,2.66,2.66,0,0,1,.73-1.3L52.67,113l0.06,0a4.17,4.17,0,0,0,1.15-2.26,28.78,28.78,0,0,1,.59-3.32,1.66,1.66,0,0,0-.94-1.85l-2.75-1.13a1.32,1.32,0,0,1-.71-1.77l3.19-7A1.91,1.91,0,0,1,53.8,95a2.18,2.18,0,0,1,1.41-.5l3.4,0.16a2.26,2.26,0,0,0,1-.19,2.65,2.65,0,0,0,1.17-.87c0.77-1.09,1.59-2.15,2.45-3.16A3.75,3.75,0,0,0,64,88.08l-0.31-4.89a2.15,2.15,0,0,1,.13-0.85A2.79,2.79,0,0,1,64.72,81L70,77a0.93,0.93,0,0,1,1-.14Zm-7.93,52a2.24,2.24,0,0,0-.56-2.17,8.83,8.83,0,0,1-.91-1.09,1.39,1.39,0,0,0-1.88-.41l-2.67,1.71-1.94,5.11a1.12,1.12,0,0,0,.47,1.4h0l5.58,3.13a1.12,1.12,0,0,1-.47-1.4Z" transform="translate(-33.2 -46.82)"/><path class="cls-6" d="M52.67,113L48,117.16a2.66,2.66,0,0,0-.73,1.3l-5.55-3.12a3.24,3.24,0,0,1,.28-0.72,1.24,1.24,0,0,1,.19-0.3l0,0a1.4,1.4,0,0,1,.22-0.24l4.64-4.14Z" transform="translate(-33.2 -46.82)"/><path class="cls-6" d="M59.59,94.48a2.26,2.26,0,0,1-1,.19l-3.4-.16a2.18,2.18,0,0,0-1.41.5l-5.56-3.12a2.44,2.44,0,0,1,.49-0.3L49,91.47h0l0.25-.05,0.28,0h0.08L53,91.54a1.16,1.16,0,0,0,.31,0l0.22,0A4.22,4.22,0,0,0,54,91.34h0Z" transform="translate(-33.2 -46.82)"/><path id="_Path_6" data-name="&lt;Path&gt;" class="cls-6" d="M94.84,82a0.92,0.92,0,0,0-1,.11l-4.68,3a1.39,1.39,0,0,1-1.88-.41,8.91,8.91,0,0,0-.92-1.09,2.21,2.21,0,0,1-.55-2.17l0.44-1.16,2-1.29a0.92,0.92,0,0,1,1-.09h0Z" transform="translate(-33.2 -46.82)"/><path class="cls-6" d="M87.74,73.69a1.34,1.34,0,0,0-.35-0.13l-3.53-.77a1.94,1.94,0,0,0-2,.9l-3.31,6.16a2.74,2.74,0,0,1-.75.83l-5.56-3.13A2.79,2.79,0,0,0,73,76.72l3.32-6.16a1.93,1.93,0,0,1,2-.9l3.53,0.77a1.22,1.22,0,0,1,.37.14h0Z" transform="translate(-33.2 -46.82)"/><path class="cls-6" d="M71.05,76.81A0.93,0.93,0,0,0,70,77l-5.28,4a2.79,2.79,0,0,0-.88,1.34l-5.56-3.12,0.06-.2a3.34,3.34,0,0,1,.46-0.81A1.11,1.11,0,0,1,59,78.06a1.32,1.32,0,0,1,.2-0.19l5.29-4a1,1,0,0,1,.65-0.24,0.83,0.83,0,0,1,.39.1Z" transform="translate(-33.2 -46.82)"/><path id="_Compound_Path_2" data-name="&lt;Compound Path&gt;" class="cls-7" d="M96.16,87.63l-0.88-5a0.84,0.84,0,0,0-1.39-.59l-4.68,3a1.38,1.38,0,0,1-1.88-.41,9.41,9.41,0,0,0-.91-1.09,2.21,2.21,0,0,1-.55-2.17l2.39-6.28a1.15,1.15,0,0,0-.87-1.56l-3.53-.77a1.93,1.93,0,0,0-2,.9l-3.32,6.15a3.47,3.47,0,0,1-2,1.47,17.26,17.26,0,0,0-2.17.7,1.21,1.21,0,0,1-1.67-.74L71.5,77.41A0.89,0.89,0,0,0,70,77l-5.29,4a2.85,2.85,0,0,0-1,2.18L64,88.08a3.81,3.81,0,0,1-.82,2.37c-0.87,1-1.69,2.07-2.45,3.16a2.75,2.75,0,0,1-2.15,1.06l-3.4-.16a2.19,2.19,0,0,0-2,1.17l-3.2,7a1.31,1.31,0,0,0,.71,1.76l2.75,1.14a1.64,1.64,0,0,1,.94,1.84,30.18,30.18,0,0,0-.59,3.33A4.12,4.12,0,0,1,52.72,113L48,117.16a2.72,2.72,0,0,0-.79,2.25l0.88,5a0.84,0.84,0,0,0,1.4.59l4.68-3a1.38,1.38,0,0,1,1.88.41,9.44,9.44,0,0,0,.91,1.09,2.21,2.21,0,0,1,.55,2.17l-2.39,6.28a1.15,1.15,0,0,0,.87,1.56l3.53,0.77a1.93,1.93,0,0,0,2-.9l3.32-6.15a3.47,3.47,0,0,1,2-1.47,17.21,17.21,0,0,0,2.17-.7,1.21,1.21,0,0,1,1.67.74l1.19,3.85a0.89,0.89,0,0,0,1.49.46l5.29-4a2.85,2.85,0,0,0,1-2.18L79.38,119a3.81,3.81,0,0,1,.82-2.37c0.87-1,1.69-2.07,2.46-3.16a2.75,2.75,0,0,1,2.15-1.06l3.4,0.16a2.19,2.19,0,0,0,2-1.17l3.2-7a1.31,1.31,0,0,0-.71-1.76L89.9,101.5A1.64,1.64,0,0,1,89,99.65a30.09,30.09,0,0,0,.59-3.33,4.12,4.12,0,0,1,1.15-2.26l4.68-4.19A2.72,2.72,0,0,0,96.16,87.63ZM73.59,114.13c-5.73,4.38-11.22,3.19-12.25-2.67s2.77-14.16,8.5-18.54S81,89.73,82.08,95.58,79.32,109.74,73.59,114.13Z" transform="translate(-33.2 -46.82)"/></g><g id="_Group_9" data-name="&lt;Group&gt;"><path id="_Compound_Path_3" data-name="&lt;Compound Path&gt;" class="cls-2" d="M162.53,74.64h0a1.06,1.06,0,0,0-1.12.09l-2.32,1.49-0.51,1.35a2.55,2.55,0,0,0,.63,2.5,11.32,11.32,0,0,1,1.06,1.26,1.6,1.6,0,0,0,2.17.47l5.4-3.46a1.08,1.08,0,0,1,1.1-.11Zm-8.32,19.31c-0.76-4.26-3.55-6.39-7.17-6.1a10.52,10.52,0,0,1,.75,2.49c1.2,6.75-3.2,16.34-9.81,21.4a13.54,13.54,0,0,1-6.93,3c2.17,4.53,7.66,5,13.36.59C151,110.28,155.4,100.7,154.21,93.95Zm0.12-28.87h0a1.4,1.4,0,0,0-.43-0.17L149.83,64a2.23,2.23,0,0,0-2.31,1l-3.83,7.11a3.22,3.22,0,0,1-.85.95h0a3.32,3.32,0,0,1-.65.43l1.2,3.88a1.4,1.4,0,0,0,1.92.85,20,20,0,0,1,2.51-.8,4.26,4.26,0,0,0,1.45-.74,3.16,3.16,0,0,0,.87-1l3.82-7.11a2.24,2.24,0,0,1,2.31-1l4.08,0.89a1.55,1.55,0,0,1,.41.15Zm-11.47,68.76a1.13,1.13,0,0,1-.38-0.6l-1.38-4.45a1.39,1.39,0,0,0-1.92-.85,18.94,18.94,0,0,1-2.51.8,3.34,3.34,0,0,0-.79.32l0.18,0.57a1.12,1.12,0,0,0,.52.69h0Zm-7.81-65.17a1,1,0,0,0-.45-0.11,1.18,1.18,0,0,0-.75.28l-6.11,4.67a1.53,1.53,0,0,0-.23.22,1.29,1.29,0,0,0-.16.18,3.85,3.85,0,0,0-.53.94l-0.07.23h0a2.64,2.64,0,0,0-.16,1L127,81.68a4.39,4.39,0,0,1-1,2.73c-1,1.16-1.94,2.39-2.83,3.65a3.06,3.06,0,0,1-1.35,1,2.58,2.58,0,0,1-.53.16,1.09,1.09,0,0,1-.26,0,1.34,1.34,0,0,1-.35,0l-3.92-.19h-0.1a1.68,1.68,0,0,0-.32,0,1.43,1.43,0,0,0-.29.06h0a2.05,2.05,0,0,0-.32.12,2.81,2.81,0,0,0-.57.34,2.33,2.33,0,0,0-.63.78l-3.68,8a1.5,1.5,0,0,0,.62,1.93l4.36,2.44a1.86,1.86,0,0,1,.1,1.1,35.68,35.68,0,0,0-.68,3.83,4.72,4.72,0,0,1-1.31,2.61l-0.06.05-5.35,4.78a1.62,1.62,0,0,0-.26.28l0,0.05a1.43,1.43,0,0,0-.21.34,3,3,0,0,0-.41,1.92l1,5.74a1.13,1.13,0,0,0,.47.78l6.4,3.59a1.1,1.1,0,0,1-.45-0.76l-1-5.74a2.61,2.61,0,0,1,.06-1.1,3.07,3.07,0,0,1,.84-1.5l5.34-4.78,0.06-.05a4.81,4.81,0,0,0,1.32-2.61,33.24,33.24,0,0,1,.68-3.83,1.91,1.91,0,0,0-1.09-2.13l-3.17-1.31a1.52,1.52,0,0,1-.82-2l3.68-8a2.21,2.21,0,0,1,.63-0.78,2.52,2.52,0,0,1,1.62-.57l3.93,0.19a2.61,2.61,0,0,0,1.13-.22,3.06,3.06,0,0,0,1.35-1c0.89-1.26,1.84-2.48,2.83-3.65a4.33,4.33,0,0,0,1-2.73L133,79.64a2.47,2.47,0,0,1,.15-1,3.21,3.21,0,0,1,1-1.55l6.1-4.67a1.07,1.07,0,0,1,1.21-.17Zm-9.15,60a2.58,2.58,0,0,0-.64-2.5,10.2,10.2,0,0,1-1-1.26,1.6,1.6,0,0,0-2.17-.48l-3.09,2-2.24,5.9a1.29,1.29,0,0,0,.54,1.61h0l6.44,3.62a1.3,1.3,0,0,1-.54-1.62Z" transform="translate(-33.2 -46.82)"/><path class="cls-6" d="M120.26,114.07l-5.34,4.78a3.07,3.07,0,0,0-.84,1.5l-6.41-3.6a3.74,3.74,0,0,1,.32-0.83,1.43,1.43,0,0,1,.21-0.34l0-.05a1.62,1.62,0,0,1,.26-0.28l5.35-4.78Z" transform="translate(-33.2 -46.82)"/><path class="cls-6" d="M128.25,92.67a2.61,2.61,0,0,1-1.13.22l-3.93-.19a2.52,2.52,0,0,0-1.62.57l-6.42-3.61a2.81,2.81,0,0,1,.57-0.34A2.05,2.05,0,0,1,116,89.2h0a1.43,1.43,0,0,1,.29-0.06,1.68,1.68,0,0,1,.32,0h0.1l3.92,0.19a1.34,1.34,0,0,0,.35,0l0.26,0a4.87,4.87,0,0,0,.51-0.17h0Z" transform="translate(-33.2 -46.82)"/><path id="_Path_7" data-name="&lt;Path&gt;" class="cls-6" d="M168.93,78.23a1.06,1.06,0,0,0-1.1.12l-5.4,3.46a1.6,1.6,0,0,1-2.17-.48,10.28,10.28,0,0,0-1.06-1.26,2.55,2.55,0,0,1-.63-2.5l0.51-1.34,2.32-1.49a1.07,1.07,0,0,1,1.12-.1h0Z" transform="translate(-33.2 -46.82)"/><path class="cls-6" d="M160.73,68.68a1.55,1.55,0,0,0-.41-0.15l-4.08-.89a2.24,2.24,0,0,0-2.31,1l-3.82,7.11a3.16,3.16,0,0,1-.87,1l-6.42-3.62a3.22,3.22,0,0,0,.85-0.95l3.83-7.11a2.23,2.23,0,0,1,2.31-1l4.07,0.89a1.4,1.4,0,0,1,.43.17h0Z" transform="translate(-33.2 -46.82)"/><path class="cls-6" d="M141.48,72.28a1.07,1.07,0,0,0-1.21.17l-6.1,4.67a3.21,3.21,0,0,0-1,1.55l-6.42-3.6,0.07-.23a3.85,3.85,0,0,1,.53-0.94,1.29,1.29,0,0,1,.16-0.18,1.53,1.53,0,0,1,.23-0.22l6.11-4.67a1.18,1.18,0,0,1,.75-0.28,1,1,0,0,1,.45.11Z" transform="translate(-33.2 -46.82)"/><path id="_Compound_Path_4" data-name="&lt;Compound Path&gt;" class="cls-7" d="M170.46,84.77l-1-5.74a1,1,0,0,0-1.61-.68l-5.4,3.46a1.59,1.59,0,0,1-2.17-.48,10.87,10.87,0,0,0-1.05-1.25,2.55,2.55,0,0,1-.63-2.5l2.75-7.25a1.32,1.32,0,0,0-1-1.8l-4.07-.89a2.23,2.23,0,0,0-2.31,1l-3.83,7.1a4,4,0,0,1-2.31,1.69,19.88,19.88,0,0,0-2.51.81,1.4,1.4,0,0,1-1.92-.86L142,73a1,1,0,0,0-1.72-.53l-6.1,4.67A3.28,3.28,0,0,0,133,79.63l0.36,5.65a4.39,4.39,0,0,1-.95,2.73c-1,1.16-1.95,2.38-2.83,3.65a3.18,3.18,0,0,1-2.48,1.22l-3.92-.19A2.53,2.53,0,0,0,120.94,94l-3.69,8a1.51,1.51,0,0,0,.82,2l3.17,1.32a1.9,1.9,0,0,1,1.09,2.13,34.8,34.8,0,0,0-.68,3.84,4.75,4.75,0,0,1-1.32,2.61l-5.41,4.84a3.14,3.14,0,0,0-.91,2.59l1,5.74a1,1,0,0,0,1.61.68l5.4-3.46a1.59,1.59,0,0,1,2.17.48,10.88,10.88,0,0,0,1.05,1.25,2.56,2.56,0,0,1,.63,2.5l-2.75,7.25a1.32,1.32,0,0,0,1,1.8l4.07,0.89a2.23,2.23,0,0,0,2.31-1l3.83-7.1a4,4,0,0,1,2.31-1.69,19.88,19.88,0,0,0,2.51-.81,1.4,1.4,0,0,1,1.92.86l1.38,4.45a1,1,0,0,0,1.72.53l6.1-4.67a3.28,3.28,0,0,0,1.16-2.52l-0.36-5.65a4.39,4.39,0,0,1,.95-2.73c1-1.16,1.95-2.38,2.83-3.65a3.18,3.18,0,0,1,2.48-1.22l3.92,0.19a2.53,2.53,0,0,0,2.25-1.35l3.69-8a1.51,1.51,0,0,0-.82-2l-3.17-1.32a1.9,1.9,0,0,1-1.09-2.13,34.73,34.73,0,0,0,.68-3.84,4.75,4.75,0,0,1,1.32-2.61l5.41-4.84A3.13,3.13,0,0,0,170.46,84.77ZM144.4,115.35c-6.61,5.06-12.94,3.68-14.14-3.08s3.2-16.34,9.81-21.4,12.94-3.68,14.14,3.08S151,110.29,144.4,115.35Z" transform="translate(-33.2 -46.82)"/></g><g id="_Group_10" data-name="&lt;Group&gt;"><path id="_Compound_Path_5" data-name="&lt;Compound Path&gt;" class="cls-2" d="M55.85,213.58a2.26,2.26,0,0,0-.13-2,18.84,18.84,0,0,1-1.92-4.16,1,1,0,0,0-1.43-.64l-2.08.92a11.92,11.92,0,0,0,.68,1.21,2.26,2.26,0,0,1,.13,2l-5.74,11.26a1.26,1.26,0,0,0,.51,1.64l4.72,2.65a1.27,1.27,0,0,1-.47-1.62Zm25.5-78.41A0.65,0.65,0,0,0,81,135.1a0.93,0.93,0,0,0-.47.13l-9.67,5.44-0.14.09-0.14.12-0.14.13a3.09,3.09,0,0,0-.25.3,2.26,2.26,0,0,0-.47,1.13l-1,10.47a3.43,3.43,0,0,1-1,2,58.45,58.45,0,0,0-5.38,5.54,1.88,1.88,0,0,1-1.9.52l-6.21-2.11a1.17,1.17,0,0,0-.49-0.06h0a0.12,0.12,0,0,0-.07,0,0.16,0.16,0,0,0-.09,0l-0.19,0a1.46,1.46,0,0,0-.54.27,0.36,0.36,0,0,0-.1.09,1,1,0,0,0-.23.28l-7.12,12a1.39,1.39,0,0,0-.15.88,1.35,1.35,0,0,0,.47.91l5,4.18a1.76,1.76,0,0,1,.48,1.86,55.44,55.44,0,0,0-2.24,7.3,3.24,3.24,0,0,1-.55,1.11,1.4,1.4,0,0,1-.17.21l-0.16.19a3.22,3.22,0,0,1-.36.31l-8.84,6.06-0.16.13a1.42,1.42,0,0,0-.15.16,2.48,2.48,0,0,0-.68,1.57v10.87a0.76,0.76,0,0,0,.35.7L43,210.54a0.78,0.78,0,0,1-.35-0.71V199a2.42,2.42,0,0,1,.39-1.21,2.26,2.26,0,0,1,.6-0.65l8.84-6a3.1,3.1,0,0,0,.69-0.7,3.38,3.38,0,0,0,.55-1.13A57,57,0,0,1,56,181.93a1.76,1.76,0,0,0-.48-1.86l-5-4.18A1.35,1.35,0,0,1,50,175a1.27,1.27,0,0,1,.15-0.88l7.12-12a1.5,1.5,0,0,1,1.18-.7,1.36,1.36,0,0,1,.56.06l6.21,2.11a1.9,1.9,0,0,0,1.91-.52,56.5,56.5,0,0,1,5.37-5.54,3.43,3.43,0,0,0,1-2l1-10.47a1.89,1.89,0,0,1,.18-0.63,2.5,2.5,0,0,1,1-1.14l9.67-5.44a0.87,0.87,0,0,1,.73-0.09Zm-6.54,93.24a0.81,0.81,0,0,1-.32-0.62l-0.94-9.14a1,1,0,0,0-1.3-.89,20,20,0,0,1-3.24.43l0.72,6.93a0.78,0.78,0,0,0,.37.63h0ZM90,162.85c1.38,1.86,2.12,4.72,2.12,8.44,0,10.14-7.32,22.47-16.35,27.55-3.52,2-6.52,2.64-8.87,2.1,2.92,3.31,7.94,3.77,13.63.57,9-5.08,16.35-17.4,16.35-27.56C96.84,167.77,94.12,163.84,90,162.85Zm9.41-29.22a1.32,1.32,0,0,0-1.71.39L90.5,144.48l-0.1.13a1.1,1.1,0,0,1-.17.16,0.32,0.32,0,0,1-.1.08l-0.1.08a2.5,2.5,0,0,1-1.41.45c-0.47,0-.93,0-1.42,0l0.23,2.22a1,1,0,0,0,1.3.89,19.88,19.88,0,0,1,4.66-.45,2.5,2.5,0,0,0,1.4-.45,1.69,1.69,0,0,0,.47-0.45l7.16-10.47a1.31,1.31,0,0,1,1.69-.39Zm13.84,19.44-0.15-.05a1,1,0,0,0-.6.07l-6.52,2.86c0.16,0.3.31,0.6,0.44,0.91s0.24,0.54.35,0.82a0.47,0.47,0,0,1,.06.16c0.12,0.29.23,0.58,0.32,0.89a1.33,1.33,0,0,1,.06.16,1.11,1.11,0,0,0,.26.43,0.69,0.69,0,0,0,.12.1l0.08,0.05a0.64,0.64,0,0,0,.25.11l0.09,0a0.91,0.91,0,0,0,.41,0h0l0.19-.06,8.61-3.78a0.8,0.8,0,0,1,.64-0.05,0.28,0.28,0,0,1,.12,0Z" transform="translate(-33.2 -46.82)"/><path class="cls-6" d="M104.1,136.29a1.31,1.31,0,0,0-1.69.39l-7.16,10.47a1.69,1.69,0,0,1-.47.45L90,144.94h0a1.32,1.32,0,0,0,.2-0.15,1.1,1.1,0,0,0,.17-0.16l0.1-.13L97.66,134a1.32,1.32,0,0,1,1.71-.39Z" transform="translate(-33.2 -46.82)"/><path class="cls-6" d="M53.17,190.35a3.1,3.1,0,0,1-.69.7l-8.84,6a2.26,2.26,0,0,0-.6.65l-4.74-2.66a2.57,2.57,0,0,1,.27-0.37,1.42,1.42,0,0,1,.15-0.16l0.16-.13,8.84-6.06a3.22,3.22,0,0,0,.36-0.31l0.16-.19,0.16-.21h0Z" transform="translate(-33.2 -46.82)"/><path class="cls-6" d="M58.47,161.42a1.5,1.5,0,0,0-1.18.7l-7.12,12A1.27,1.27,0,0,0,50,175l-4.76-2.67a1.39,1.39,0,0,1,.15-0.88l7.12-12a1,1,0,0,1,.23-0.28,0.36,0.36,0,0,1,.1-0.09,1.46,1.46,0,0,1,.54-0.27l0.19,0a0.16,0.16,0,0,1,.09,0,0.12,0.12,0,0,1,.07,0h0Z" transform="translate(-33.2 -46.82)"/><path class="cls-6" d="M86.06,137.81a0.87,0.87,0,0,0-.73.09l-9.67,5.44a2.5,2.5,0,0,0-1,1.14l-4.75-2.67a3.14,3.14,0,0,1,.29-0.5,3.09,3.09,0,0,1,.25-0.3l0.14-.13,0.14-.12,0.14-.09,9.67-5.44A0.93,0.93,0,0,1,81,135.1a0.65,0.65,0,0,1,.31.07Z" transform="translate(-33.2 -46.82)"/><path class="cls-6" d="M113.22,153.07l4.77,2.68a0.28,0.28,0,0,0-.12,0,0.8,0.8,0,0,0-.64.05l-8.61,3.78a1,1,0,0,1-1.18-.21,1.11,1.11,0,0,1-.26-0.43,1.33,1.33,0,0,0-.06-0.16c-0.1-.31-0.2-0.6-0.32-0.89a0.47,0.47,0,0,0-.06-0.16c-0.1-.28-0.22-0.56-0.35-0.82s-0.28-.61-0.44-0.91l6.52-2.86a1,1,0,0,1,.6-0.07l0.15,0.06h0Z" transform="translate(-33.2 -46.82)"/><rect class="cls-6" x="84.78" y="108.92" width="0.01" height="0.01"/><path id="_Compound_Path_6" data-name="&lt;Compound Path&gt;" class="cls-7" d="M118.32,167.32V156.44a0.72,0.72,0,0,0-1.1-.69l-8.61,3.78a1,1,0,0,1-1.43-.65,18.53,18.53,0,0,0-1.92-4.16,2.26,2.26,0,0,1-.13-2l5.74-11.26a1.25,1.25,0,0,0-.51-1.64l-6.23-3.5a1.33,1.33,0,0,0-1.71.39l-7.15,10.47a2.4,2.4,0,0,1-1.87.91,19.79,19.79,0,0,0-4.66.46,1,1,0,0,1-1.29-.89l-0.94-9.15a0.72,0.72,0,0,0-1.17-.58l-9.68,5.44a2.53,2.53,0,0,0-1.15,1.76l-1,10.48a3.47,3.47,0,0,1-1,2,57.37,57.37,0,0,0-5.37,5.54,1.89,1.89,0,0,1-1.9.52L59,161.48a1.53,1.53,0,0,0-1.74.63l-7.11,12a1.45,1.45,0,0,0,.31,1.78l5,4.18a1.77,1.77,0,0,1,.48,1.86,55.53,55.53,0,0,0-2.24,7.3,3.49,3.49,0,0,1-1.24,1.83l-8.84,6.05a2.52,2.52,0,0,0-1,1.85v10.87a0.72,0.72,0,0,0,1.1.69l8.61-3.78a1,1,0,0,1,1.43.65,18.53,18.53,0,0,0,1.92,4.16,2.26,2.26,0,0,1,.13,2l-5.74,11.26a1.25,1.25,0,0,0,.51,1.64l6.23,3.5a1.33,1.33,0,0,0,1.71-.39l7.15-10.47a2.41,2.41,0,0,1,1.87-.91,19.8,19.8,0,0,0,4.66-.46,1,1,0,0,1,1.29.89l0.94,9.15a0.72,0.72,0,0,0,1.17.58l9.68-5.44a2.53,2.53,0,0,0,1.15-1.76l1-10.48a3.47,3.47,0,0,1,1-2,57.29,57.29,0,0,0,5.37-5.54,1.89,1.89,0,0,1,1.9-.52l6.21,2.11a1.54,1.54,0,0,0,1.74-.63l7.11-12a1.45,1.45,0,0,0-.31-1.78l-5-4.18a1.77,1.77,0,0,1-.48-1.86,55.58,55.58,0,0,0,2.24-7.3,3.49,3.49,0,0,1,1.24-1.83l8.84-6.05A2.52,2.52,0,0,0,118.32,167.32ZM80.49,201.51c-9,5.07-16.35,1-16.35-9.18s7.32-22.48,16.35-27.55,16.35-1,16.35,9.18S89.52,196.43,80.49,201.51Z" transform="translate(-33.2 -46.82)"/></g></g><g id="Board-2" data-name="Board"><g id="Board-3" data-name="Board"><g id="Board-4" data-name="Board"><g id="_Group_11" data-name="&lt;Group&gt;"><polygon id="_Path_8" data-name="&lt;Path&gt;" class="cls-7" points="58.37 332.46 279.23 204.95 279.2 17.34 58.37 144.85 58.37 332.46"/></g><g id="_Group_12" data-name="&lt;Group&gt;"><polygon id="_Path_9" data-name="&lt;Path&gt;" class="cls-3" points="50.24 140.21 58.37 144.85 279.2 17.34 287.14 3.44 50.24 140.21"/></g><g id="_Group_13" data-name="&lt;Group&gt;" class="cls-8"><polygon id="_Path_10" data-name="&lt;Path&gt;" points="50.24 140.21 58.37 144.85 279.2 17.34 287.14 3.44 50.24 140.21"/></g><g id="_Group_14" data-name="&lt;Group&gt;"><polygon id="_Path_11" data-name="&lt;Path&gt;" class="cls-3" points="287.14 209.77 287.14 3.4 279.2 17.34 279.23 204.95 287.14 209.77"/></g><g id="_Group_15" data-name="&lt;Group&gt;" class="cls-9"><polygon id="_Path_12" data-name="&lt;Path&gt;" points="287.14 209.77 287.14 3.4 279.2 17.34 279.23 204.95 287.14 209.77"/></g><g id="_Group_16" data-name="&lt;Group&gt;"><polygon id="_Path_13" data-name="&lt;Path&gt;" class="cls-3" points="50.24 140.21 58.37 144.85 58.37 332.46 50.24 346.54 50.24 140.21"/></g><g id="_Group_17" data-name="&lt;Group&gt;" class="cls-9"><polygon id="_Path_14" data-name="&lt;Path&gt;" points="50.24 140.21 58.37 144.85 58.37 332.46 50.24 346.54 50.24 140.21"/></g><g id="_Group_18" data-name="&lt;Group&gt;"><polygon id="_Path_15" data-name="&lt;Path&gt;" class="cls-3" points="58.37 332.46 279.23 204.95 287.14 209.77 50.24 346.54 58.37 332.46"/></g><g id="_Group_19" data-name="&lt;Group&gt;" class="cls-8"><polygon id="_Path_16" data-name="&lt;Path&gt;" points="58.37 332.46 279.23 204.95 287.14 209.77 50.24 346.54 58.37 332.46"/></g><g id="_Group_20" data-name="&lt;Group&gt;"><polygon id="_Path_17" data-name="&lt;Path&gt;" class="cls-3" points="287.14 3.44 281.18 0 44.29 136.77 50.24 140.21 287.14 3.44"/></g><g id="_Group_21" data-name="&lt;Group&gt;" class="cls-10"><polygon id="_Path_18" data-name="&lt;Path&gt;" points="287.14 3.44 281.18 0 44.29 136.77 50.24 140.21 287.14 3.44"/></g><g id="_Group_22" data-name="&lt;Group&gt;"><polygon id="_Path_19" data-name="&lt;Path&gt;" class="cls-3" points="44.29 136.77 50.24 140.21 50.24 346.54 44.29 343.1 44.29 136.77"/></g><g id="_Group_23" data-name="&lt;Group&gt;" class="cls-11"><polygon id="_Path_20" data-name="&lt;Path&gt;" points="44.29 136.77 50.24 140.21 50.24 346.54 44.29 343.1 44.29 136.77"/></g><g id="_Group_24" data-name="&lt;Group&gt;" class="cls-12"><polygon id="_Path_21" data-name="&lt;Path&gt;" points="279.2 17.34 276.23 19.06 276.25 203.23 58.37 329.03 58.37 332.46 279.23 204.95 279.2 17.34"/></g></g></g><g id="Notes"><path class="cls-13" d="M154.06,287.38c-9,1.74-15.53,8.62-19.53,16.5a38.92,38.92,0,0,0-4.19,14.56,26.53,26.53,0,0,0,.24,6.58,12.59,12.59,0,0,0,1.85,5.09c2.16,3.07,6.24,4,9.79,3.54,4.38-.57,7.92-3.19,10.8-6.4a41.81,41.81,0,0,0,7.67-12.54,29.19,29.19,0,0,0,2.28-14c-0.4-3.34-1.8-7.15-5.07-8.65s-6.95.17-9.15,2.7a13.06,13.06,0,0,0-1.79,2.72c-0.14.28,0.33,0.77,0.52,0.45,1.7-2.93,5.19-6.28,8.93-5.57,3.32,0.63,4.94,4.16,5.49,7.16a26.24,26.24,0,0,1-1.43,13.14,42.28,42.28,0,0,1-6.63,12.22c-2.56,3.28-5.75,6.38-9.83,7.59-3.36,1-7.6.8-10.19-1.83a9.29,9.29,0,0,1-2.15-4.5,23.47,23.47,0,0,1-.52-6A37.09,37.09,0,0,1,134.52,306c3.36-7.42,8.86-14.12,16.59-17.17a28.06,28.06,0,0,1,3.1-1c0.22-.06.07-0.5-0.15-0.45h0Z" transform="translate(-33.2 -46.82)"/><line class="cls-14" x1="94.92" y1="133.12" x2="94.92" y2="297.65"/><line class="cls-14" x1="131.48" y1="112.01" x2="131.48" y2="276.54"/><line class="cls-14" x1="180.23" y1="83.87" x2="180.23" y2="248.4"/><line class="cls-14" x1="228.97" y1="55.73" x2="228.97" y2="220.25"/><path class="cls-14" d="M270.3,107.45" transform="translate(-33.2 -46.82)"/><line class="cls-14" x1="63.62" y1="169.96" x2="269.59" y2="51.04"/><g id="Note"><polygon id="_Path_22" data-name="&lt;Path&gt;" class="cls-12" points="185.46 173.78 185.46 199.23 206.54 187.06 206.54 161.6 185.46 173.78"/><g id="_Group_25" data-name="&lt;Group&gt;"><g id="_Group_26" data-name="&lt;Group&gt;"><path id="_Path_23" data-name="&lt;Path&gt;" class="cls-3" d="M242.61,235l-15.14,8.74c-1.61-.78-5.48-2.44-6.5-4.42l-1.45-14.4,21.08-12.17Z" transform="translate(-33.2 -46.82)"/><path id="_Path_24" data-name="&lt;Path&gt;" class="cls-15" d="M242.61,235l-15.14,8.74c-1.61-.78-5.48-2.44-6.5-4.42l-1.45-14.4,21.08-12.17Z" transform="translate(-33.2 -46.82)"/><path class="cls-3" d="M221,239.33c0.51,1.12,4.44,1.49,6.25.68,0,0-.6,2.69.25,3.74a7.64,7.64,0,0,1-4-1.51C221.1,240.67,221,239.33,221,239.33Z" transform="translate(-33.2 -46.82)"/><path class="cls-15" d="M221,239.33c0.51,1.12,4.44,1.49,6.25.68,0,0-.6,2.69.25,3.74a7.64,7.64,0,0,1-4-1.51C221.1,240.67,221,239.33,221,239.33Z" transform="translate(-33.2 -46.82)"/><path class="cls-12" d="M221,239.33c0.51,1.12,4.44,1.49,6.25.68,0,0-.6,2.69.25,3.74a7.64,7.64,0,0,1-4-1.51C221.1,240.67,221,239.33,221,239.33Z" transform="translate(-33.2 -46.82)"/><polygon id="_Path_25" data-name="&lt;Path&gt;" class="cls-3" points="207.39 165.93 186.31 178.11 186.31 174.2 207.39 162.03 207.39 165.93"/><polygon id="_Path_26" data-name="&lt;Path&gt;" class="cls-15" points="207.39 165.93 186.31 178.11 186.31 174.2 207.39 162.03 207.39 165.93"/><polygon id="_Path_27" data-name="&lt;Path&gt;" class="cls-12" points="207.39 165.93 186.31 178.11 186.31 174.2 207.39 162.03 207.39 165.93"/></g></g></g><path class="cls-16" d="M225.6,234.94l13-7.53c0.47-.27.86-0.08,0.86,0.43a1.84,1.84,0,0,1-.86,1.42l-13,7.53c-0.47.27-.86,0.08-0.86-0.43A1.84,1.84,0,0,1,225.6,234.94Z" transform="translate(-33.2 -46.82)"/><path class="cls-16" d="M225.6,230.65l7.7-4.45c0.47-.27.86-0.08,0.86,0.43a1.84,1.84,0,0,1-.86,1.42l-7.7,4.45c-0.47.27-.86,0.08-0.86-0.43A1.84,1.84,0,0,1,225.6,230.65Z" transform="translate(-33.2 -46.82)"/><path class="cls-16" d="M225.6,226.35l7.7-4.45c0.47-.27.86-0.08,0.86,0.43a1.84,1.84,0,0,1-.86,1.42l-7.7,4.45c-0.47.27-.86,0.08-0.86-0.43A1.84,1.84,0,0,1,225.6,226.35Z" transform="translate(-33.2 -46.82)"/><g id="Note-2" data-name="Note"><polygon id="_Path_28" data-name="&lt;Path&gt;" class="cls-12" points="240.28 78.31 240.28 103.76 261.36 91.59 261.36 66.14 240.28 78.31"/><g id="_Group_27" data-name="&lt;Group&gt;"><g id="_Group_28" data-name="&lt;Group&gt;"><path id="_Path_29" data-name="&lt;Path&gt;" class="cls-3" d="M299.83,137s-1,1.74-4.71,3.87l-18.57,10.72-2.23-22.12,21.08-12.17,1.18,12.8C296.78,132.18,297.08,135.22,299.83,137Z" transform="translate(-33.2 -46.82)"/><polygon id="_Path_30" data-name="&lt;Path&gt;" class="cls-3" points="262.21 70.47 241.12 82.64 241.12 78.73 262.21 66.56 262.21 70.47"/><polygon id="_Path_31" data-name="&lt;Path&gt;" class="cls-12" points="262.21 70.47 241.12 82.64 241.12 78.73 262.21 66.56 262.21 70.47"/></g></g></g><path class="cls-16" d="M278.58,136l10.2-5.89c0.47-.27.86-0.08,0.86,0.43a1.84,1.84,0,0,1-.86,1.42l-10.2,5.89c-0.47.27-.86,0.08-0.86-0.43A1.84,1.84,0,0,1,278.58,136Z" transform="translate(-33.2 -46.82)"/><path class="cls-16" d="M278.58,131.43l10.2-5.89c0.47-.27.86-0.08,0.86,0.43a1.84,1.84,0,0,1-.86,1.42l-10.2,5.89c-0.47.27-.86,0.08-0.86-0.43A1.84,1.84,0,0,1,278.58,131.43Z" transform="translate(-33.2 -46.82)"/><path class="cls-16" d="M285.09,137.59l9-5.16c0.47-.27.86-0.08,0.86,0.43a1.84,1.84,0,0,1-.86,1.42l-9,5.16c-0.47.27-.86,0.08-0.86-0.43A1.84,1.84,0,0,1,285.09,137.59Z" transform="translate(-33.2 -46.82)"/><g id="Note-3" data-name="Note"><polygon id="_Path_32" data-name="&lt;Path&gt;" class="cls-12" points="233.4 173.14 233.4 198.59 254.48 186.42 254.48 160.97 233.4 173.14"/><g id="_Group_29" data-name="&lt;Group&gt;"><g id="_Group_30" data-name="&lt;Group&gt;"><path id="_Path_33" data-name="&lt;Path&gt;" class="cls-3" d="M290.54,234.37l-15.14,8.74c-1.61-.78-5.48-2.44-6.5-4.42l-1.45-14.4,21.08-12.17Z" transform="translate(-33.2 -46.82)"/><path id="_Path_34" data-name="&lt;Path&gt;" class="cls-17" d="M290.54,234.37l-15.14,8.74c-1.61-.78-5.48-2.44-6.5-4.42l-1.45-14.4,21.08-12.17Z" transform="translate(-33.2 -46.82)"/><path class="cls-3" d="M268.9,238.69c0.51,1.12,4.44,1.49,6.25.68,0,0-.6,2.69.25,3.74a7.64,7.64,0,0,1-4-1.51C269,240,268.9,238.69,268.9,238.69Z" transform="translate(-33.2 -46.82)"/><path class="cls-18" d="M268.9,238.69c0.51,1.12,4.44,1.49,6.25.68,0,0-.6,2.69.25,3.74a7.64,7.64,0,0,1-4-1.51C269,240,268.9,238.69,268.9,238.69Z" transform="translate(-33.2 -46.82)"/><polygon id="_Path_35" data-name="&lt;Path&gt;" class="cls-3" points="255.33 165.3 234.25 177.47 234.24 173.56 255.33 161.39 255.33 165.3"/><polygon id="_Path_36" data-name="&lt;Path&gt;" class="cls-18" points="255.33 165.3 234.25 177.47 234.24 173.56 255.33 161.39 255.33 165.3"/></g></g></g><path class="cls-16" d="M274.62,229.39l11.16-6.44c0.47-.27.86-0.08,0.86,0.43a1.84,1.84,0,0,1-.86,1.42l-11.16,6.44c-0.47.27-.86,0.08-0.86-0.43A1.84,1.84,0,0,1,274.62,229.39Z" transform="translate(-33.2 -46.82)"/><path class="cls-16" d="M272.79,235l7.7-4.45c0.47-.27.86-0.08,0.86,0.43a1.84,1.84,0,0,1-.86,1.42l-7.7,4.45c-0.47.27-.86,0.08-0.86-0.43A1.84,1.84,0,0,1,272.79,235Z" transform="translate(-33.2 -46.82)"/><path class="cls-16" d="M271.65,226.51l7.7-4.45c0.47-.27.86-0.08,0.86,0.43a1.84,1.84,0,0,1-.86,1.42l-7.7,4.45c-0.47.27-.86,0.08-0.86-0.43A1.84,1.84,0,0,1,271.65,226.51Z" transform="translate(-33.2 -46.82)"/><g id="Note-4" data-name="Note"><polygon id="_Path_37" data-name="&lt;Path&gt;" class="cls-12" points="199.99 152.57 199.99 178.02 221.08 165.84 221.08 140.4 199.99 152.57"/><g id="_Group_31" data-name="&lt;Group&gt;"><g id="_Group_32" data-name="&lt;Group&gt;"><path id="_Path_38" data-name="&lt;Path&gt;" class="cls-3" d="M257.14,213.8l-20.87,12L234,203.72l21.08-12.17Z" transform="translate(-33.2 -46.82)"/><path id="_Path_39" data-name="&lt;Path&gt;" class="cls-17" d="M257.14,213.8l-20.87,12L234,203.72l21.08-12.17Z" transform="translate(-33.2 -46.82)"/><polygon id="_Path_40" data-name="&lt;Path&gt;" class="cls-3" points="221.93 144.72 200.84 156.9 200.84 152.99 221.93 140.82 221.93 144.72"/><polygon id="_Path_41" data-name="&lt;Path&gt;" class="cls-18" points="221.93 144.72 200.84 156.9 200.84 152.99 221.93 140.82 221.93 144.72"/></g></g></g><path class="cls-16" d="M239.82,212.1L251,205.65c0.47-.27.86-0.08,0.86,0.43a1.84,1.84,0,0,1-.86,1.42L239.82,214c-0.47.27-.86,0.08-0.86-0.43A1.84,1.84,0,0,1,239.82,212.1Z" transform="translate(-33.2 -46.82)"/><path class="cls-16" d="M239.82,207.51L251,201.07c0.47-.27.86-0.08,0.86,0.43a1.84,1.84,0,0,1-.86,1.42l-11.16,6.44c-0.47.27-.86,0.08-0.86-0.43A1.84,1.84,0,0,1,239.82,207.51Z" transform="translate(-33.2 -46.82)"/><g id="Note-5" data-name="Note"><polygon id="_Path_42" data-name="&lt;Path&gt;" class="cls-12" points="200.82 114.57 200.82 140.02 221.9 127.85 221.9 102.4 200.82 114.57"/><g id="_Group_33" data-name="&lt;Group&gt;"><g id="_Group_34" data-name="&lt;Group&gt;"><path id="_Path_43" data-name="&lt;Path&gt;" class="cls-3" d="M258,175.8l-20.87,12-2.23-22.12,21.08-12.17Z" transform="translate(-33.2 -46.82)"/><path id="_Path_44" data-name="&lt;Path&gt;" class="cls-17" d="M258,175.8l-20.87,12-2.23-22.12,21.08-12.17Z" transform="translate(-33.2 -46.82)"/><polygon id="_Path_45" data-name="&lt;Path&gt;" class="cls-3" points="222.75 106.72 201.66 118.9 201.66 114.99 222.75 102.82 222.75 106.72"/><polygon id="_Path_46" data-name="&lt;Path&gt;" class="cls-18" points="222.75 106.72 201.66 118.9 201.66 114.99 222.75 102.82 222.75 106.72"/></g></g></g><path class="cls-16" d="M240.64,174.1l11.16-6.44c0.47-.27.86-0.08,0.86,0.43a1.84,1.84,0,0,1-.86,1.42L240.64,176c-0.47.27-.86,0.08-0.86-0.43A1.84,1.84,0,0,1,240.64,174.1Z" transform="translate(-33.2 -46.82)"/><path class="cls-16" d="M240.64,169.51l11.16-6.44c0.47-.27.86-0.08,0.86,0.43a1.84,1.84,0,0,1-.86,1.42l-11.16,6.44c-0.47.27-.86,0.08-0.86-0.43A1.84,1.84,0,0,1,240.64,169.51Z" transform="translate(-33.2 -46.82)"/><g id="Note-6" data-name="Note"><polygon id="_Path_47" data-name="&lt;Path&gt;" class="cls-12" points="135.75 183.72 135.75 209.16 156.84 196.99 156.84 171.54 135.75 183.72"/><g id="_Group_35" data-name="&lt;Group&gt;"><g id="_Group_36" data-name="&lt;Group&gt;"><path id="_Path_48" data-name="&lt;Path&gt;" class="cls-3" d="M195.31,242.4s-1,1.74-4.71,3.87L172,257l-2.23-22.12,21.08-12.17,1.18,12.8C192.26,237.58,192.56,240.62,195.31,242.4Z" transform="translate(-33.2 -46.82)"/><path id="_Path_49" data-name="&lt;Path&gt;" class="cls-17" d="M195.31,242.4s-1,1.74-4.71,3.87L172,257l-2.23-22.12,21.08-12.17,1.18,12.8C192.26,237.58,192.56,240.62,195.31,242.4Z" transform="translate(-33.2 -46.82)"/><polygon id="_Path_50" data-name="&lt;Path&gt;" class="cls-3" points="157.69 175.87 136.6 188.04 136.6 184.14 157.69 171.96 157.69 175.87"/><polygon id="_Path_51" data-name="&lt;Path&gt;" class="cls-18" points="157.69 175.87 136.6 188.04 136.6 184.14 157.69 171.96 157.69 175.87"/></g></g></g><path class="cls-16" d="M175.25,243.19l10.2-5.89c0.47-.27.86-0.08,0.86,0.43a1.84,1.84,0,0,1-.86,1.42l-10.2,5.89c-0.47.27-.86,0.08-0.86-0.43A1.84,1.84,0,0,1,175.25,243.19Z" transform="translate(-33.2 -46.82)"/><path class="cls-16" d="M175.25,247.19l10.2-5.89c0.47-.27.86-0.08,0.86,0.43a1.84,1.84,0,0,1-.86,1.42L175.25,249c-0.47.27-.86,0.08-0.86-0.43A1.84,1.84,0,0,1,175.25,247.19Z" transform="translate(-33.2 -46.82)"/><path class="cls-16" d="M179.23,234l9-5.16c0.47-.27.86-0.08,0.86,0.43a1.84,1.84,0,0,1-.86,1.42l-9,5.16c-0.47.27-.86,0.08-0.86-0.43A1.84,1.84,0,0,1,179.23,234Z" transform="translate(-33.2 -46.82)"/><g id="Note-7" data-name="Note"><polygon id="_Path_52" data-name="&lt;Path&gt;" class="cls-12" points="117.09 161.38 117.09 186.84 138.18 174.66 138.18 149.21 117.09 161.38"/><g id="_Group_37" data-name="&lt;Group&gt;"><g id="_Group_38" data-name="&lt;Group&gt;"><path id="_Path_53" data-name="&lt;Path&gt;" class="cls-3" d="M176.65,220.07s-1,1.74-4.71,3.87l-18.57,10.72-2.23-22.12,21.08-12.17,1.18,12.8C173.6,215.25,173.9,218.29,176.65,220.07Z" transform="translate(-33.2 -46.82)"/><path id="_Path_54" data-name="&lt;Path&gt;" class="cls-15" d="M176.65,220.07s-1,1.74-4.71,3.87l-18.57,10.72-2.23-22.12,21.08-12.17,1.18,12.8C173.6,215.25,173.9,218.29,176.65,220.07Z" transform="translate(-33.2 -46.82)"/><polygon id="_Path_55" data-name="&lt;Path&gt;" class="cls-3" points="139.03 153.54 117.94 165.71 117.94 161.81 139.03 149.63 139.03 153.54"/><polygon id="_Path_56" data-name="&lt;Path&gt;" class="cls-15" points="139.03 153.54 117.94 165.71 117.94 161.81 139.03 149.63 139.03 153.54"/><polygon id="_Path_57" data-name="&lt;Path&gt;" class="cls-12" points="139.03 153.54 117.94 165.71 117.94 161.81 139.03 149.63 139.03 153.54"/></g></g></g><path class="cls-16" d="M156.62,220.48l9.48-5.47c0.47-.27.86-0.08,0.86,0.43a1.84,1.84,0,0,1-.86,1.42l-9.48,5.47c-0.47.27-.86,0.08-0.86-0.43A1.84,1.84,0,0,1,156.62,220.48Z" transform="translate(-33.2 -46.82)"/><path class="cls-16" d="M159,214.53l9.68-5.57c0.47-.27.86-0.08,0.86,0.43a1.84,1.84,0,0,1-.86,1.42L159,216.39c-0.47.27-.86,0.08-0.86-0.43A1.84,1.84,0,0,1,159,214.53Z" transform="translate(-33.2 -46.82)"/><g id="Note-8" data-name="Note"><polygon id="_Path_58" data-name="&lt;Path&gt;" class="cls-12" points="65.76 278.12 65.76 303.56 86.85 291.39 86.85 265.94 65.76 278.12"/><g id="_Group_39" data-name="&lt;Group&gt;"><g id="_Group_40" data-name="&lt;Group&gt;"><path id="_Path_59" data-name="&lt;Path&gt;" class="cls-3" d="M122.91,339.34l-15.14,8.74c-1.61-.78-5.48-2.44-6.5-4.42l-1.45-14.4,21.08-12.17Z" transform="translate(-33.2 -46.82)"/><path class="cls-3" d="M101.27,343.67c0.51,1.12,4.44,1.49,6.25.68,0,0-.6,2.69.25,3.74a7.64,7.64,0,0,1-4-1.51C101.41,345,101.27,343.67,101.27,343.67Z" transform="translate(-33.2 -46.82)"/><path class="cls-12" d="M101.27,343.67c0.51,1.12,4.44,1.49,6.25.68,0,0-.6,2.69.25,3.74a7.64,7.64,0,0,1-4-1.51C101.41,345,101.27,343.67,101.27,343.67Z" transform="translate(-33.2 -46.82)"/><polygon id="_Path_60" data-name="&lt;Path&gt;" class="cls-3" points="87.7 270.27 66.61 282.44 66.61 278.54 87.7 266.36 87.7 270.27"/><polygon id="_Path_61" data-name="&lt;Path&gt;" class="cls-12" points="87.7 270.27 66.61 282.44 66.61 278.54 87.7 266.36 87.7 270.27"/></g></g></g><path class="cls-16" d="M105.78,332.59l11.16-6.44c0.47-.27.86-0.08,0.86,0.43a1.84,1.84,0,0,1-.86,1.42l-11.16,6.44c-0.47.27-.86,0.08-0.86-0.43A1.84,1.84,0,0,1,105.78,332.59Z" transform="translate(-33.2 -46.82)"/><path class="cls-16" d="M105.78,337.17l7.7-4.45c0.47-.27.86-0.08,0.86,0.43a1.84,1.84,0,0,1-.86,1.42l-7.7,4.45c-0.47.27-.86,0.08-0.86-0.43A1.84,1.84,0,0,1,105.78,337.17Z" transform="translate(-33.2 -46.82)"/><g id="Note-9" data-name="Note"><polygon id="_Path_62" data-name="&lt;Path&gt;" class="cls-12" points="151.96 190.6 151.96 216.05 173.04 203.88 173.04 178.43 151.96 190.6"/><g id="_Group_41" data-name="&lt;Group&gt;"><g id="_Group_42" data-name="&lt;Group&gt;"><path id="_Path_63" data-name="&lt;Path&gt;" class="cls-3" d="M211.51,249.29s-1,1.74-4.71,3.87l-18.57,10.72L186,241.75l21.08-12.17,1.18,12.8C208.46,244.47,208.76,247.51,211.51,249.29Z" transform="translate(-33.2 -46.82)"/><polygon id="_Path_64" data-name="&lt;Path&gt;" class="cls-3" points="173.89 182.76 152.8 194.93 152.8 191.02 173.89 178.85 173.89 182.76"/><polygon id="_Path_65" data-name="&lt;Path&gt;" class="cls-12" points="173.89 182.76 152.8 194.93 152.8 191.02 173.89 178.85 173.89 182.76"/></g></g></g><path class="cls-16" d="M190.26,248.3l10.2-5.89c0.47-.27.86-0.08,0.86,0.43a1.84,1.84,0,0,1-.86,1.42l-10.2,5.89c-0.47.27-.86,0.08-0.86-0.43A1.84,1.84,0,0,1,190.26,248.3Z" transform="translate(-33.2 -46.82)"/><path class="cls-16" d="M190.26,243.72l10.2-5.89c0.47-.27.86-0.08,0.86,0.43a1.84,1.84,0,0,1-.86,1.42l-10.2,5.89c-0.47.27-.86,0.08-0.86-0.43A1.84,1.84,0,0,1,190.26,243.72Z" transform="translate(-33.2 -46.82)"/><path class="cls-16" d="M196.77,249.88l9-5.16c0.47-.27.86-0.08,0.86,0.43a1.84,1.84,0,0,1-.86,1.42l-9,5.16c-0.47.27-.86,0.08-0.86-0.43A1.84,1.84,0,0,1,196.77,249.88Z" transform="translate(-33.2 -46.82)"/><g id="Note-10" data-name="Note"><polygon id="_Path_66" data-name="&lt;Path&gt;" class="cls-12" points="98.6 154.85 98.6 180.3 119.69 168.12 119.69 142.67 98.6 154.85"/><g id="_Group_43" data-name="&lt;Group&gt;"><g id="_Group_44" data-name="&lt;Group&gt;"><path id="_Path_67" data-name="&lt;Path&gt;" class="cls-3" d="M155.75,216.08l-20.87,12L132.66,206l21.08-12.17Z" transform="translate(-33.2 -46.82)"/><polygon id="_Path_68" data-name="&lt;Path&gt;" class="cls-3" points="120.54 147 99.45 159.17 99.45 155.27 120.54 143.09 120.54 147"/><polygon id="_Path_69" data-name="&lt;Path&gt;" class="cls-12" points="120.54 147 99.45 159.17 99.45 155.27 120.54 143.09 120.54 147"/></g></g></g><path class="cls-16" d="M138.7,212.08l11.16-6.44c0.47-.27.86-0.08,0.86,0.43a1.84,1.84,0,0,1-.86,1.42l-11.16,6.44c-0.47.27-.86,0.08-0.86-0.43A1.84,1.84,0,0,1,138.7,212.08Z" transform="translate(-33.2 -46.82)"/><path class="cls-16" d="M138.7,207.5l11.16-6.44c0.47-.27.86-0.08,0.86,0.43a1.84,1.84,0,0,1-.86,1.42l-11.16,6.44c-0.47.27-.86,0.08-0.86-0.43A1.84,1.84,0,0,1,138.7,207.5Z" transform="translate(-33.2 -46.82)"/><path class="cls-16" d="M138.7,216.67l7.7-4.45c0.47-.27.86-0.08,0.86,0.43a1.84,1.84,0,0,1-.86,1.42l-7.7,4.45c-0.47.27-.86,0.08-0.86-0.43A1.84,1.84,0,0,1,138.7,216.67Z" transform="translate(-33.2 -46.82)"/><g id="Note-11" data-name="Note"><polygon id="_Path_70" data-name="&lt;Path&gt;" class="cls-12" points="146.9 228.7 146.9 254.15 167.98 241.98 167.98 216.53 146.9 228.7"/><g id="_Group_45" data-name="&lt;Group&gt;"><g id="_Group_46" data-name="&lt;Group&gt;"><path id="_Path_71" data-name="&lt;Path&gt;" class="cls-3" d="M204,289.93l-20.87,12-2.23-22.12L202,267.68Z" transform="translate(-33.2 -46.82)"/><path id="_Path_72" data-name="&lt;Path&gt;" class="cls-15" d="M204,289.93l-20.87,12-2.23-22.12L202,267.68Z" transform="translate(-33.2 -46.82)"/><polygon id="_Path_73" data-name="&lt;Path&gt;" class="cls-3" points="168.83 220.86 147.75 233.03 147.74 229.12 168.83 216.95 168.83 220.86"/><polygon id="_Path_74" data-name="&lt;Path&gt;" class="cls-15" points="168.83 220.86 147.75 233.03 147.74 229.12 168.83 216.95 168.83 220.86"/><polygon id="_Path_75" data-name="&lt;Path&gt;" class="cls-12" points="168.83 220.86 147.75 233.03 147.74 229.12 168.83 216.95 168.83 220.86"/></g></g></g><path class="cls-16" d="M186.91,290.53l11.16-6.44c0.47-.27.86-0.08,0.86,0.43a1.84,1.84,0,0,1-.86,1.42l-11.16,6.44c-0.47.27-.86,0.08-0.86-0.43A1.84,1.84,0,0,1,186.91,290.53Z" transform="translate(-33.2 -46.82)"/><path class="cls-16" d="M186.91,285.94l11.16-6.44c0.47-.27.86-0.08,0.86,0.43a1.84,1.84,0,0,1-.86,1.42l-11.16,6.44c-0.47.27-.86,0.08-0.86-0.43A1.84,1.84,0,0,1,186.91,285.94Z" transform="translate(-33.2 -46.82)"/><path class="cls-16" d="M188.27,280.66l7.7-4.45c0.47-.27.86-0.08,0.86,0.43a1.84,1.84,0,0,1-.86,1.42l-7.7,4.45c-0.47.27-.86,0.08-0.86-0.43A1.84,1.84,0,0,1,188.27,280.66Z" transform="translate(-33.2 -46.82)"/><g id="Note-12" data-name="Note"><polygon id="_Path_76" data-name="&lt;Path&gt;" class="cls-12" points="102.08 259.33 102.08 284.78 123.17 272.61 123.17 247.16 102.08 259.33"/><g id="_Group_47" data-name="&lt;Group&gt;"><g id="_Group_48" data-name="&lt;Group&gt;"><path id="_Path_77" data-name="&lt;Path&gt;" class="cls-3" d="M159.23,320.56l-15.14,8.74c-1.61-.78-5.48-2.44-6.5-4.42l-1.45-14.4,21.08-12.17Z" transform="translate(-33.2 -46.82)"/><path id="_Path_78" data-name="&lt;Path&gt;" class="cls-15" d="M159.23,320.56l-15.14,8.74c-1.61-.78-5.48-2.44-6.5-4.42l-1.45-14.4,21.08-12.17Z" transform="translate(-33.2 -46.82)"/><path class="cls-3" d="M137.58,324.88c0.51,1.12,4.44,1.49,6.25.68,0,0-.6,2.69.25,3.74a7.64,7.64,0,0,1-4-1.51C137.73,326.23,137.58,324.88,137.58,324.88Z" transform="translate(-33.2 -46.82)"/><path class="cls-15" d="M137.58,324.88c0.51,1.12,4.44,1.49,6.25.68,0,0-.6,2.69.25,3.74a7.64,7.64,0,0,1-4-1.51C137.73,326.23,137.58,324.88,137.58,324.88Z" transform="translate(-33.2 -46.82)"/><path class="cls-12" d="M137.58,324.88c0.51,1.12,4.44,1.49,6.25.68,0,0-.6,2.69.25,3.74a7.64,7.64,0,0,1-4-1.51C137.73,326.23,137.58,324.88,137.58,324.88Z" transform="translate(-33.2 -46.82)"/><polygon id="_Path_79" data-name="&lt;Path&gt;" class="cls-3" points="124.01 251.49 102.93 263.66 102.93 259.75 124.01 247.58 124.01 251.49"/><polygon id="_Path_80" data-name="&lt;Path&gt;" class="cls-15" points="124.01 251.49 102.93 263.66 102.93 259.75 124.01 247.58 124.01 251.49"/><polygon id="_Path_81" data-name="&lt;Path&gt;" class="cls-12" points="124.01 251.49 102.93 263.66 102.93 259.75 124.01 247.58 124.01 251.49"/></g></g></g><path class="cls-16" d="M142.22,320.49l13-7.53c0.47-.27.86-0.08,0.86,0.43a1.84,1.84,0,0,1-.86,1.42l-13,7.53c-0.47.27-.86,0.08-0.86-0.43A1.84,1.84,0,0,1,142.22,320.49Z" transform="translate(-33.2 -46.82)"/><path class="cls-16" d="M142.22,316.2l7.7-4.45c0.47-.27.86-0.08,0.86,0.43a1.84,1.84,0,0,1-.86,1.42l-7.7,4.45c-0.47.27-.86,0.08-0.86-0.43A1.84,1.84,0,0,1,142.22,316.2Z" transform="translate(-33.2 -46.82)"/><path class="cls-16" d="M142.22,311.9l7.7-4.45c0.47-.27.86-0.08,0.86,0.43a1.84,1.84,0,0,1-.86,1.42l-7.7,4.45c-0.47.27-.86,0.08-0.86-0.43A1.84,1.84,0,0,1,142.22,311.9Z" transform="translate(-33.2 -46.82)"/><g id="Note-13" data-name="Note"><polygon id="_Path_82" data-name="&lt;Path&gt;" class="cls-12" points="65.52 242.94 65.52 268.39 86.61 256.22 86.61 230.77 65.52 242.94"/><g id="_Group_49" data-name="&lt;Group&gt;"><g id="_Group_50" data-name="&lt;Group&gt;"><path id="_Path_83" data-name="&lt;Path&gt;" class="cls-3" d="M122.67,304.17l-15.14,8.74c-1.61-.78-5.48-2.44-6.5-4.42l-1.45-14.4,21.08-12.17Z" transform="translate(-33.2 -46.82)"/><path id="_Path_84" data-name="&lt;Path&gt;" class="cls-15" d="M122.67,304.17l-15.14,8.74c-1.61-.78-5.48-2.44-6.5-4.42l-1.45-14.4,21.08-12.17Z" transform="translate(-33.2 -46.82)"/><path class="cls-3" d="M101,308.5c0.51,1.12,4.44,1.49,6.25.68,0,0-.6,2.69.25,3.74a7.64,7.64,0,0,1-4-1.51C101.16,309.84,101,308.5,101,308.5Z" transform="translate(-33.2 -46.82)"/><path class="cls-15" d="M101,308.5c0.51,1.12,4.44,1.49,6.25.68,0,0-.6,2.69.25,3.74a7.64,7.64,0,0,1-4-1.51C101.16,309.84,101,308.5,101,308.5Z" transform="translate(-33.2 -46.82)"/><path class="cls-12" d="M101,308.5c0.51,1.12,4.44,1.49,6.25.68,0,0-.6,2.69.25,3.74a7.64,7.64,0,0,1-4-1.51C101.16,309.84,101,308.5,101,308.5Z" transform="translate(-33.2 -46.82)"/><polygon id="_Path_85" data-name="&lt;Path&gt;" class="cls-3" points="87.45 235.1 66.37 247.27 66.37 243.37 87.45 231.19 87.45 235.1"/><polygon id="_Path_86" data-name="&lt;Path&gt;" class="cls-15" points="87.45 235.1 66.37 247.27 66.37 243.37 87.45 231.19 87.45 235.1"/><polygon id="_Path_87" data-name="&lt;Path&gt;" class="cls-12" points="87.45 235.1 66.37 247.27 66.37 243.37 87.45 231.19 87.45 235.1"/></g></g></g><path class="cls-16" d="M105.66,304.11l13-7.53c0.47-.27.86-0.08,0.86,0.43a1.84,1.84,0,0,1-.86,1.42l-13,7.53c-0.47.27-.86,0.08-0.86-0.43A1.84,1.84,0,0,1,105.66,304.11Z" transform="translate(-33.2 -46.82)"/><path class="cls-16" d="M105.66,299.82l7.7-4.45c0.47-.27.86-0.08,0.86,0.43a1.84,1.84,0,0,1-.86,1.42l-7.7,4.45c-0.47.27-.86,0.08-0.86-0.43A1.84,1.84,0,0,1,105.66,299.82Z" transform="translate(-33.2 -46.82)"/><path class="cls-16" d="M105.66,295.51l7.7-4.45c0.47-.27.86-0.08,0.86,0.43a1.84,1.84,0,0,1-.86,1.42l-7.7,4.45c-0.47.27-.86,0.08-0.86-0.43A1.84,1.84,0,0,1,105.66,295.51Z" transform="translate(-33.2 -46.82)"/><g id="Note-14" data-name="Note"><polygon id="_Path_88" data-name="&lt;Path&gt;" class="cls-12" points="183.64 105.57 183.64 131.02 204.73 118.84 204.73 93.39 183.64 105.57"/><g id="_Group_51" data-name="&lt;Group&gt;"><g id="_Group_52" data-name="&lt;Group&gt;"><path id="_Path_89" data-name="&lt;Path&gt;" class="cls-3" d="M243.2,164.25s-1,1.74-4.71,3.87l-18.57,10.72-2.23-22.12,21.08-12.17,1.18,12.8C240.14,159.43,240.45,162.47,243.2,164.25Z" transform="translate(-33.2 -46.82)"/><path id="_Path_90" data-name="&lt;Path&gt;" class="cls-15" d="M243.2,164.25s-1,1.74-4.71,3.87l-18.57,10.72-2.23-22.12,21.08-12.17,1.18,12.8C240.14,159.43,240.45,162.47,243.2,164.25Z" transform="translate(-33.2 -46.82)"/><polygon id="_Path_91" data-name="&lt;Path&gt;" class="cls-3" points="205.57 97.72 184.49 109.89 184.49 105.99 205.57 93.81 205.57 97.72"/><polygon id="_Path_92" data-name="&lt;Path&gt;" class="cls-15" points="205.57 97.72 184.49 109.89 184.49 105.99 205.57 93.81 205.57 97.72"/><polygon id="_Path_93" data-name="&lt;Path&gt;" class="cls-12" points="205.57 97.72 184.49 109.89 184.49 105.99 205.57 93.81 205.57 97.72"/></g></g></g><path class="cls-16" d="M223.17,164.66l9.48-5.47c0.47-.27.86-0.08,0.86,0.43a1.84,1.84,0,0,1-.86,1.42l-9.48,5.47c-0.47.27-.86,0.08-0.86-0.43A1.84,1.84,0,0,1,223.17,164.66Z" transform="translate(-33.2 -46.82)"/><path class="cls-16" d="M225.51,158.71l9.68-5.57c0.47-.27.86-0.08,0.86,0.43a1.84,1.84,0,0,1-.86,1.42l-9.68,5.57c-0.47.27-.86,0.08-0.86-0.43A1.84,1.84,0,0,1,225.51,158.71Z" transform="translate(-33.2 -46.82)"/><g id="Note-15" data-name="Note"><polygon id="_Path_94" data-name="&lt;Path&gt;" class="cls-12" points="65.52 179.77 65.52 205.22 86.61 193.04 86.61 167.59 65.52 179.77"/><g id="_Group_53" data-name="&lt;Group&gt;"><g id="_Group_54" data-name="&lt;Group&gt;"><path id="_Path_95" data-name="&lt;Path&gt;" class="cls-3" d="M122.67,241l-15.14,8.74c-1.61-.78-5.48-2.44-6.5-4.42l-1.45-14.4,21.08-12.17Z" transform="translate(-33.2 -46.82)"/><path id="_Path_96" data-name="&lt;Path&gt;" class="cls-17" d="M122.67,241l-15.14,8.74c-1.61-.78-5.48-2.44-6.5-4.42l-1.45-14.4,21.08-12.17Z" transform="translate(-33.2 -46.82)"/><path class="cls-3" d="M101,245.32c0.51,1.12,4.44,1.49,6.25.68,0,0-.6,2.69.25,3.74a7.64,7.64,0,0,1-4-1.51C101.16,246.66,101,245.32,101,245.32Z" transform="translate(-33.2 -46.82)"/><path class="cls-18" d="M101,245.32c0.51,1.12,4.44,1.49,6.25.68,0,0-.6,2.69.25,3.74a7.64,7.64,0,0,1-4-1.51C101.16,246.66,101,245.32,101,245.32Z" transform="translate(-33.2 -46.82)"/><polygon id="_Path_97" data-name="&lt;Path&gt;" class="cls-3" points="87.45 171.92 66.37 184.1 66.37 180.19 87.45 168.02 87.45 171.92"/><polygon id="_Path_98" data-name="&lt;Path&gt;" class="cls-18" points="87.45 171.92 66.37 184.1 66.37 180.19 87.45 168.02 87.45 171.92"/></g></g></g><path class="cls-16" d="M106.75,236l11.16-6.44c0.47-.27.86-0.08,0.86,0.43a1.84,1.84,0,0,1-.86,1.42l-11.16,6.44c-0.47.27-.86,0.08-0.86-0.43A1.84,1.84,0,0,1,106.75,236Z" transform="translate(-33.2 -46.82)"/><path class="cls-16" d="M104.92,241.61l7.7-4.45c0.47-.27.86-0.08,0.86,0.43a1.84,1.84,0,0,1-.86,1.42l-7.7,4.45c-0.47.27-.86,0.08-0.86-0.43A1.84,1.84,0,0,1,104.92,241.61Z" transform="translate(-33.2 -46.82)"/><path class="cls-16" d="M103.77,233.13l7.7-4.45c0.47-.27.86-0.08,0.86,0.43a1.84,1.84,0,0,1-.86,1.42l-7.7,4.45c-0.47.27-.86,0.08-0.86-0.43A1.84,1.84,0,0,1,103.77,233.13Z" transform="translate(-33.2 -46.82)"/><g id="Note-16" data-name="Note"><polygon id="_Path_99" data-name="&lt;Path&gt;" class="cls-12" points="144.83 132.87 144.83 158.31 165.91 146.14 165.91 120.69 144.83 132.87"/><g id="_Group_55" data-name="&lt;Group&gt;"><g id="_Group_56" data-name="&lt;Group&gt;"><path id="_Path_100" data-name="&lt;Path&gt;" class="cls-3" d="M202,194.09l-20.87,12L178.88,184,200,171.84Z" transform="translate(-33.2 -46.82)"/><path id="_Path_101" data-name="&lt;Path&gt;" class="cls-17" d="M202,194.09l-20.87,12L178.88,184,200,171.84Z" transform="translate(-33.2 -46.82)"/><polygon id="_Path_102" data-name="&lt;Path&gt;" class="cls-3" points="166.76 125.02 145.68 137.19 145.68 133.28 166.76 121.11 166.76 125.02"/><polygon id="_Path_103" data-name="&lt;Path&gt;" class="cls-18" points="166.76 125.02 145.68 137.19 145.68 133.28 166.76 121.11 166.76 125.02"/></g></g></g><path class="cls-16" d="M184.65,192.4L195.81,186c0.47-.27.86-0.08,0.86,0.43a1.84,1.84,0,0,1-.86,1.42l-11.16,6.44c-0.47.27-.86,0.08-0.86-0.43A1.84,1.84,0,0,1,184.65,192.4Z" transform="translate(-33.2 -46.82)"/><path class="cls-16" d="M184.65,187.81l11.16-6.44c0.47-.27.86-0.08,0.86,0.43a1.84,1.84,0,0,1-.86,1.42l-11.16,6.44c-0.47.27-.86,0.08-0.86-0.43A1.84,1.84,0,0,1,184.65,187.81Z" transform="translate(-33.2 -46.82)"/><g id="Note-17" data-name="Note"><polygon id="_Path_104" data-name="&lt;Path&gt;" class="cls-12" points="101.1 201.67 101.1 227.12 122.19 214.94 122.19 189.49 101.1 201.67"/><g id="_Group_57" data-name="&lt;Group&gt;"><g id="_Group_58" data-name="&lt;Group&gt;"><path id="_Path_105" data-name="&lt;Path&gt;" class="cls-3" d="M160.66,260.35s-1,1.74-4.71,3.87l-18.57,10.72-2.23-22.12,21.08-12.17,1.18,12.8C157.61,255.53,157.91,258.57,160.66,260.35Z" transform="translate(-33.2 -46.82)"/><path id="_Path_106" data-name="&lt;Path&gt;" class="cls-17" d="M160.66,260.35s-1,1.74-4.71,3.87l-18.57,10.72-2.23-22.12,21.08-12.17,1.18,12.8C157.61,255.53,157.91,258.57,160.66,260.35Z" transform="translate(-33.2 -46.82)"/><polygon id="_Path_107" data-name="&lt;Path&gt;" class="cls-3" points="123.04 193.82 101.95 205.99 101.95 202.09 123.04 189.91 123.04 193.82"/><polygon id="_Path_108" data-name="&lt;Path&gt;" class="cls-18" points="123.04 193.82 101.95 205.99 101.95 202.09 123.04 189.91 123.04 193.82"/></g></g></g><path class="cls-16" d="M140.6,261.14l10.2-5.89c0.47-.27.86-0.08,0.86,0.43a1.84,1.84,0,0,1-.86,1.42L140.6,263c-0.47.27-.86,0.08-0.86-0.43A1.84,1.84,0,0,1,140.6,261.14Z" transform="translate(-33.2 -46.82)"/><path class="cls-16" d="M140.6,265.14l10.2-5.89c0.47-.27.86-0.08,0.86,0.43a1.84,1.84,0,0,1-.86,1.42L140.6,267c-0.47.27-.86,0.08-0.86-0.43A1.84,1.84,0,0,1,140.6,265.14Z" transform="translate(-33.2 -46.82)"/><path class="cls-16" d="M144.58,251.94l9-5.16c0.47-.27.86-0.08,0.86,0.43a1.84,1.84,0,0,1-.86,1.42l-9,5.16c-0.47.27-.86,0.08-0.86-0.43A1.84,1.84,0,0,1,144.58,251.94Z" transform="translate(-33.2 -46.82)"/><g id="Note-18" data-name="Note"><polygon id="_Path_109" data-name="&lt;Path&gt;" class="cls-12" points="249.35 184.2 249.35 209.65 270.44 197.48 270.44 172.03 249.35 184.2"/><g id="_Group_59" data-name="&lt;Group&gt;"><g id="_Group_60" data-name="&lt;Group&gt;"><path id="_Path_110" data-name="&lt;Path&gt;" class="cls-3" d="M306.5,245.43l-20.87,12-2.23-22.12,21.08-12.17Z" transform="translate(-33.2 -46.82)"/><path id="_Path_111" data-name="&lt;Path&gt;" class="cls-15" d="M306.5,245.43l-20.87,12-2.23-22.12,21.08-12.17Z" transform="translate(-33.2 -46.82)"/><polygon id="_Path_112" data-name="&lt;Path&gt;" class="cls-3" points="271.29 176.36 250.2 188.53 250.2 184.63 271.29 172.45 271.29 176.36"/><polygon id="_Path_113" data-name="&lt;Path&gt;" class="cls-15" points="271.29 176.36 250.2 188.53 250.2 184.63 271.29 172.45 271.29 176.36"/><polygon id="_Path_114" data-name="&lt;Path&gt;" class="cls-12" points="271.29 176.36 250.2 188.53 250.2 184.63 271.29 172.45 271.29 176.36"/></g></g></g><path class="cls-16" d="M289.37,246l11.16-6.44c0.47-.27.86-0.08,0.86,0.43a1.84,1.84,0,0,1-.86,1.42l-11.16,6.44c-0.47.27-.86,0.08-0.86-0.43A1.84,1.84,0,0,1,289.37,246Z" transform="translate(-33.2 -46.82)"/><path class="cls-16" d="M289.37,241.44L300.53,235c0.47-.27.86-0.08,0.86,0.43a1.84,1.84,0,0,1-.86,1.42l-11.16,6.44c-0.47.27-.86,0.08-0.86-0.43A1.84,1.84,0,0,1,289.37,241.44Z" transform="translate(-33.2 -46.82)"/><path class="cls-16" d="M290.73,236.16l7.7-4.45c0.47-.27.86-0.08,0.86,0.43a1.84,1.84,0,0,1-.86,1.42l-7.7,4.45c-0.47.27-.86,0.08-0.86-0.43A1.84,1.84,0,0,1,290.73,236.16Z" transform="translate(-33.2 -46.82)"/><g id="_Group_61" data-name="&lt;Group&gt;"><path id="_Path_115" data-name="&lt;Path&gt;" class="cls-13" d="M234.89,144.33a8,8,0,0,1,3.65-6.29,2.53,2.53,0,0,1,2.65-.22h0l1.67,1L242.2,140s0,0.08,0,.13a8,8,0,0,1-3.65,6.29h0l-0.76,1.33-1.9-1.1h0A2.58,2.58,0,0,1,234.89,144.33Z" transform="translate(-33.2 -46.82)"/><path id="_Path_116" data-name="&lt;Path&gt;" class="cls-19" d="M244,141.16a8,8,0,0,1-3.65,6.29c-2,1.16-3.65.23-3.65-2.08a8,8,0,0,1,3.65-6.29C242.36,137.92,244,138.85,244,141.16Z" transform="translate(-33.2 -46.82)"/></g><g id="_Group_62" data-name="&lt;Group&gt;"><path id="_Path_117" data-name="&lt;Path&gt;" class="cls-13" d="M287.06,228.4a8,8,0,0,1,3.65-6.29,2.53,2.53,0,0,1,2.65-.22h0l1.67,1L294.37,224s0,0.08,0,.13a8,8,0,0,1-3.65,6.29h0L290,231.8l-1.9-1.1h0A2.58,2.58,0,0,1,287.06,228.4Z" transform="translate(-33.2 -46.82)"/><path id="_Path_118" data-name="&lt;Path&gt;" class="cls-19" d="M296.17,225.23a8,8,0,0,1-3.65,6.29c-2,1.16-3.65.23-3.65-2.08a8,8,0,0,1,3.65-6.29C294.53,222,296.17,222.92,296.17,225.23Z" transform="translate(-33.2 -46.82)"/></g><g id="_Group_63" data-name="&lt;Group&gt;"><path id="_Path_119" data-name="&lt;Path&gt;" class="cls-13" d="M196.48,266.39a8,8,0,0,1,3.65-6.29,2.53,2.53,0,0,1,2.65-.22h0l1.67,1L203.79,262s0,0.08,0,.13a8,8,0,0,1-3.65,6.29h0l-0.76,1.33-1.9-1.1h0A2.58,2.58,0,0,1,196.48,266.39Z" transform="translate(-33.2 -46.82)"/><path id="_Path_120" data-name="&lt;Path&gt;" class="cls-19" d="M205.59,263.22a8,8,0,0,1-3.65,6.29c-2,1.16-3.65.23-3.65-2.08a8,8,0,0,1,3.65-6.29C204,260,205.59,260.91,205.59,263.22Z" transform="translate(-33.2 -46.82)"/></g><g id="_Group_64" data-name="&lt;Group&gt;"><path id="_Path_121" data-name="&lt;Path&gt;" class="cls-13" d="M130,251.11a8,8,0,0,1,3.65-6.29,2.53,2.53,0,0,1,2.65-.22h0l1.67,1-0.67,1.18s0,0.08,0,.13a8,8,0,0,1-3.65,6.29h0l-0.76,1.33-1.9-1.1h0A2.58,2.58,0,0,1,130,251.11Z" transform="translate(-33.2 -46.82)"/><path id="_Path_122" data-name="&lt;Path&gt;" class="cls-19" d="M139.07,247.93a8,8,0,0,1-3.65,6.29c-2,1.16-3.65.23-3.65-2.08a8,8,0,0,1,3.65-6.29C137.43,244.69,139.07,245.62,139.07,247.93Z" transform="translate(-33.2 -46.82)"/></g><g id="_Group_65" data-name="&lt;Group&gt;"><path id="_Path_123" data-name="&lt;Path&gt;" class="cls-13" d="M115.47,280.21a8,8,0,0,1,3.65-6.29,2.53,2.53,0,0,1,2.65-.22h0l1.67,1-0.67,1.18s0,0.08,0,.13a8,8,0,0,1-3.65,6.29h0l-0.76,1.33-1.9-1.1h0A2.58,2.58,0,0,1,115.47,280.21Z" transform="translate(-33.2 -46.82)"/><path id="_Path_124" data-name="&lt;Path&gt;" class="cls-19" d="M124.57,277a8,8,0,0,1-3.65,6.29c-2,1.16-3.65.23-3.65-2.08a8,8,0,0,1,3.65-6.29C122.94,273.8,124.57,274.73,124.57,277Z" transform="translate(-33.2 -46.82)"/></g><path class="cls-13" d="M229.87,206.89a10.35,10.35,0,0,1-4.64-4.25,14.87,14.87,0,0,1-1.62-6,20,20,0,0,1,2.83-11.76,19.42,19.42,0,0,1,2.06-2.81c0.73-.83,1.63-1.54,2.31-2.39a0.42,0.42,0,0,0-.49-0.6,13.83,13.83,0,0,0-4.76,5,21,21,0,0,0-2.55,6c-1,4-1,8.85,1,12.57a9.44,9.44,0,0,0,5.82,4.86c0.39,0.09.33-.49,0.08-0.62h0Z" transform="translate(-33.2 -46.82)"/><path class="cls-13" d="M225.81,181.68a0.37,0.37,0,1,0-.1,0l0.1,0a2.93,2.93,0,0,0,.42-0.13l0.67-.23q0.7-.25,1.39-0.53,1.37-.55,2.7-1.21l-0.79-.57a13.73,13.73,0,0,0-1.3,2.92,14.63,14.63,0,0,0-.4,1.64,7,7,0,0,0-.17,1.79c0,0.45.87,0.6,1,.11s0.12-1.1.22-1.64a12.75,12.75,0,0,1,.36-1.51,13.88,13.88,0,0,1,1.26-2.89,0.44,0.44,0,0,0-.18-0.51,0.58,0.58,0,0,0-.6-0.06q-1.21.61-2.47,1.14l-1.23.49c-0.42.16-.87,0.28-1.28,0.47s0,0.83.43,0.73h0Z" transform="translate(-33.2 -46.82)"/><path class="cls-13" d="M272.32,164.55l10.2-5.89c0.47-.27.86-0.08,0.86,0.43a1.84,1.84,0,0,1-.86,1.42l-10.2,5.89c-0.47.27-.86,0.08-0.86-0.43A1.84,1.84,0,0,1,272.32,164.55Z" transform="translate(-33.2 -46.82)"/><path class="cls-13" d="M272.32,160l10.2-5.89c0.47-.27.86-0.08,0.86,0.43a1.84,1.84,0,0,1-.86,1.42l-10.2,5.89c-0.47.27-.86,0.08-0.86-0.43A1.84,1.84,0,0,1,272.32,160Z" transform="translate(-33.2 -46.82)"/><path class="cls-13" d="M278.82,166.12l9-5.16c0.47-.27.86-0.08,0.86,0.43a1.84,1.84,0,0,1-.86,1.42l-9,5.16c-0.47.27-.86,0.08-0.86-0.43A1.84,1.84,0,0,1,278.82,166.12Z" transform="translate(-33.2 -46.82)"/><path class="cls-13" d="M221.95,258.51l10.2-5.89c0.47-.27.86-0.08,0.86,0.43a1.84,1.84,0,0,1-.86,1.42l-10.2,5.89c-0.47.27-.86,0.08-0.86-0.43A1.84,1.84,0,0,1,221.95,258.51Z" transform="translate(-33.2 -46.82)"/><path class="cls-13" d="M221.95,253.93l10.2-5.89c0.47-.27.86-0.08,0.86,0.43a1.84,1.84,0,0,1-.86,1.42l-10.2,5.89c-0.47.27-.86,0.08-0.86-0.43A1.84,1.84,0,0,1,221.95,253.93Z" transform="translate(-33.2 -46.82)"/><path class="cls-13" d="M228.45,260.09l9-5.16c0.47-.27.86-0.08,0.86,0.43a1.84,1.84,0,0,1-.86,1.42l-9,5.16c-0.47.27-.86,0.08-0.86-0.43A1.84,1.84,0,0,1,228.45,260.09Z" transform="translate(-33.2 -46.82)"/><path class="cls-13" d="M168.89,285.68c-0.12,1.73.11,3.51,0.15,5.25s0.08,3.32.09,5,0,3.23,0,4.85-0.19,3.38-.16,5.06a0.58,0.58,0,0,0,.3.55l0.23,0.11a0.52,0.52,0,0,0,.58-0.1c0.52-.66.35-1.72,0.38-2.53s0.06-1.65.07-2.48q0.06-2.67,0-5.33c0-1.73,0-3.47-.11-5.2a33.71,33.71,0,0,0-.34-5.19c-0.11-.56-1.16-0.59-1.2,0h0Z" transform="translate(-33.2 -46.82)"/><path class="cls-13" d="M170.7,311.87a1.26,1.26,0,0,0-.24-0.54,4,4,0,0,0-.38-0.43,1.63,1.63,0,0,0-.42-0.31,1.23,1.23,0,0,0-1.08,0,0.83,0.83,0,0,0-.41.42,0.85,0.85,0,0,0,0,.57,2.43,2.43,0,0,0,.46.84,1.31,1.31,0,0,0,.53.38,1.07,1.07,0,0,0,.72,0l0.1-.05a0.9,0.9,0,0,0,.63-0.36A0.73,0.73,0,0,0,170.7,311.87Z" transform="translate(-33.2 -46.82)"/></g></g><g id="Sticky_Notes" data-name="Sticky Notes"><g id="_Group_66" data-name="&lt;Group&gt;"><polygon id="_Path_125" data-name="&lt;Path&gt;" class="cls-3" points="273.67 237.93 291.48 227.65 308.6 237.54 290.79 247.82 273.67 237.93"/><polygon id="_Path_126" data-name="&lt;Path&gt;" class="cls-18" points="273.67 237.93 291.48 227.65 308.6 237.54 290.79 247.82 273.67 237.93"/><polygon id="_Path_127" data-name="&lt;Path&gt;" class="cls-3" points="273.67 237.93 271.62 236.75 289.42 226.47 291.48 227.65 273.67 237.93"/><polygon id="_Path_128" data-name="&lt;Path&gt;" class="cls-18" points="273.67 237.93 271.62 236.75 289.42 226.47 291.48 227.65 273.67 237.93"/><polygon id="_Path_129" data-name="&lt;Path&gt;" class="cls-3" points="271.62 236.75 271.62 241.22 290.79 252.29 290.79 247.82 271.62 236.75"/><polygon id="_Path_130" data-name="&lt;Path&gt;" class="cls-8" points="271.62 236.75 271.62 241.22 290.79 252.29 290.79 247.82 271.62 236.75"/><polygon id="_Path_131" data-name="&lt;Path&gt;" class="cls-3" points="290.79 247.82 308.6 237.54 308.6 242.01 290.79 252.29 290.79 247.82"/><polygon id="_Path_132" data-name="&lt;Path&gt;" class="cls-17" points="290.79 247.82 308.6 237.54 308.6 242.01 290.79 252.29 290.79 247.82"/><path id="_Path_133" data-name="&lt;Path&gt;" class="cls-3" d="M338.48,280.85h0l-13.8-6.37-17.8,10.28L324,292.66l15.41-8.9a3.11,3.11,0,0,0,1.8-2.67A3.09,3.09,0,0,1,338.48,280.85Z" transform="translate(-33.2 -46.82)"/><path id="_Path_134" data-name="&lt;Path&gt;" class="cls-17" d="M338.48,280.85h0l-13.8-6.37-17.8,10.28L324,292.66l15.41-8.9a3.11,3.11,0,0,0,1.8-2.67A3.09,3.09,0,0,1,338.48,280.85Z" transform="translate(-33.2 -46.82)"/></g></g><g id="Sticky_Notes-2" data-name="Sticky Notes"><g id="_Group_67" data-name="&lt;Group&gt;"><polygon id="_Path_135" data-name="&lt;Path&gt;" class="cls-3" points="246.28 254.02 264.08 243.74 281.2 253.62 263.4 263.9 246.28 254.02"/><polygon id="_Path_136" data-name="&lt;Path&gt;" class="cls-12" points="246.28 254.02 264.08 243.74 281.2 253.62 263.4 263.9 246.28 254.02"/><polygon id="_Path_137" data-name="&lt;Path&gt;" class="cls-3" points="246.28 254.02 244.23 252.83 262.03 242.55 264.08 243.74 246.28 254.02"/><polygon id="_Path_138" data-name="&lt;Path&gt;" class="cls-12" points="246.28 254.02 244.23 252.83 262.03 242.55 264.08 243.74 246.28 254.02"/><polygon id="_Path_139" data-name="&lt;Path&gt;" class="cls-3" points="244.23 252.83 244.23 257.31 263.4 268.38 263.4 263.9 244.23 252.83"/><polygon id="_Path_140" data-name="&lt;Path&gt;" class="cls-10" points="244.23 252.83 244.23 257.31 263.4 268.38 263.4 263.9 244.23 252.83"/><polygon id="_Path_141" data-name="&lt;Path&gt;" class="cls-3" points="263.4 263.9 281.2 253.62 281.2 258.1 263.4 268.38 263.4 263.9"/><path id="_Path_142" data-name="&lt;Path&gt;" class="cls-3" d="M311.09,296.93h0l-13.8-6.37-17.8,10.28,17.12,7.91,15.41-8.9a3.11,3.11,0,0,0,1.8-2.67A3.09,3.09,0,0,1,311.09,296.93Z" transform="translate(-33.2 -46.82)"/></g></g><g id="Sticky_Notes-3" data-name="Sticky Notes"><g id="_Group_68" data-name="&lt;Group&gt;"><polygon id="_Path_143" data-name="&lt;Path&gt;" class="cls-3" points="218.85 270.15 236.66 259.87 253.78 269.75 235.97 280.03 218.85 270.15"/><polygon id="_Path_144" data-name="&lt;Path&gt;" class="cls-15" points="218.85 270.15 236.66 259.87 253.78 269.75 235.97 280.03 218.85 270.15"/><polygon id="_Path_145" data-name="&lt;Path&gt;" class="cls-12" points="218.85 270.15 236.66 259.87 253.78 269.75 235.97 280.03 218.85 270.15"/><polygon id="_Path_146" data-name="&lt;Path&gt;" class="cls-3" points="218.85 270.15 216.8 268.96 234.6 258.68 236.66 259.87 218.85 270.15"/><polygon id="_Path_147" data-name="&lt;Path&gt;" class="cls-15" points="218.85 270.15 216.8 268.96 234.6 258.68 236.66 259.87 218.85 270.15"/><polygon id="_Path_148" data-name="&lt;Path&gt;" class="cls-12" points="218.85 270.15 216.8 268.96 234.6 258.68 236.66 259.87 218.85 270.15"/><polygon id="_Path_149" data-name="&lt;Path&gt;" class="cls-3" points="216.8 268.96 216.8 273.44 235.97 284.51 235.97 280.03 216.8 268.96"/><polygon id="_Path_150" data-name="&lt;Path&gt;" class="cls-15" points="216.8 268.96 216.8 273.44 235.97 284.51 235.97 280.03 216.8 268.96"/><polygon id="_Path_151" data-name="&lt;Path&gt;" class="cls-17" points="216.8 268.96 216.8 273.44 235.97 284.51 235.97 280.03 216.8 268.96"/><polygon id="_Path_152" data-name="&lt;Path&gt;" class="cls-3" points="235.97 280.03 253.78 269.75 253.78 274.23 235.97 284.51 235.97 280.03"/><polygon id="_Path_153" data-name="&lt;Path&gt;" class="cls-15" points="235.97 280.03 253.78 269.75 253.78 274.23 235.97 284.51 235.97 280.03"/><path id="_Path_154" data-name="&lt;Path&gt;" class="cls-3" d="M283.66,313.07h0l-13.8-6.37L252.05,317l17.12,7.91,15.41-8.9a3.11,3.11,0,0,0,1.8-2.67A3.09,3.09,0,0,1,283.66,313.07Z" transform="translate(-33.2 -46.82)"/><path id="_Path_155" data-name="&lt;Path&gt;" class="cls-15" d="M283.66,313.07h0l-13.8-6.37L252.05,317l17.12,7.91,15.41-8.9a3.11,3.11,0,0,0,1.8-2.67A3.09,3.09,0,0,1,283.66,313.07Z" transform="translate(-33.2 -46.82)"/></g></g><g id="Character"><g id="_Group_69" data-name="&lt;Group&gt;"><polygon class="cls-13" points="264.31 130.76 267.01 133.15 265.94 138.4 257.5 141.23 251.58 138.32 248.88 135.94 264.31 130.76"/><polygon class="cls-12" points="264.31 130.76 267.01 133.15 265.94 138.4 257.5 141.23 251.58 138.32 248.88 135.94 264.31 130.76"/><polygon class="cls-13" points="263.24 136.01 254.8 138.84 248.88 135.94 264.31 130.76 263.24 136.01"/><polygon class="cls-12" points="254.8 138.84 257.5 141.23 251.58 138.32 248.88 135.94 254.8 138.84"/><path class="cls-20" d="M323.56,184.74c-3.59,1.2-7.13.27-11.34-.44s-7.78.52-13.44,2.41h0a2.55,2.55,0,0,1-2.46-.76,8,8,0,0,1-2.3-6.88,2.55,2.55,0,0,1,1.51-2.09h0c5.66-1.9,9.31-3.13,12.18-6.18s5.2-6,8.78-7.19Z" transform="translate(-33.2 -46.82)"/><g id="_Group_70" data-name="&lt;Group&gt;"><path class="cls-20" d="M323.56,184.74l0.86-.29L415.18,154l7.86-2.63-0.83-2.49-0.67-2-1.35-4-0.67-2-1.34-4-1.35-4.05L416,130.25l-2.54.85-96.26,32.26-0.06,0-0.46.15-0.06,0a5.34,5.34,0,0,0-2.81,3.71,7.46,7.46,0,0,0-.18.73,13.57,13.57,0,0,0-.17,3.89,18.37,18.37,0,0,0,.89,4.2,16.2,16.2,0,0,0,4.3,6.89C320.36,184.49,322.09,185,323.56,184.74Z" transform="translate(-33.2 -46.82)"/><path class="cls-21" d="M313.45,171.89a18.37,18.37,0,0,0,.89,4.2l105.17-35.25-1.34-4-1.35-4.05L416,130.25l-2.54.85-96.26,32.26-0.06,0-0.46.15-0.06,0a5.34,5.34,0,0,0-2.81,3.71,7.46,7.46,0,0,0-.18.73A13.57,13.57,0,0,0,313.45,171.89Z" transform="translate(-33.2 -46.82)"/><path class="cls-16" d="M416.83,132.74l-103,34.53a7.46,7.46,0,0,0-.18.73,13.57,13.57,0,0,0-.17,3.89l104.72-35.1Z" transform="translate(-33.2 -46.82)"/><path id="_Path_156" data-name="&lt;Path&gt;" class="cls-2" d="M412.7,134.8a17.43,17.43,0,0,0,5,14.95c3.77,3.33,7.63,2,8.63-2.89a17.43,17.43,0,0,0-5-14.95C417.57,128.58,413.7,129.88,412.7,134.8Z" transform="translate(-33.2 -46.82)"/></g><g id="_Group_71" data-name="&lt;Group&gt;"><path id="_Path_157" data-name="&lt;Path&gt;" class="cls-13" d="M417.57,150.48c-4.07-3.6-6.5-10.84-5.42-16.17,0.54-2.66,1.86-4.35,3.54-4.91l37.89-12.7,7.55,22.9-37.77,12.66C421.67,152.83,419.61,152.28,417.57,150.48Z" transform="translate(-33.2 -46.82)"/><path id="_Path_158" data-name="&lt;Path&gt;" class="cls-22" d="M412,138.86l37.83-12.68a14.59,14.59,0,0,1,.15-4.54l-37.84,12.68A14.84,14.84,0,0,0,412,138.86Z" transform="translate(-33.2 -46.82)"/><path id="_Path_159" data-name="&lt;Path&gt;" class="cls-12" d="M417.56,150.48c2,1.81,4.11,2.36,5.8,1.78l37.76-12.66h0c-1.67.54-3.71,0-5.72-1.8a16.36,16.36,0,0,1-3.86-5.44L413.71,145A16.2,16.2,0,0,0,417.56,150.48Z" transform="translate(-33.2 -46.82)"/><path id="_Path_160" data-name="&lt;Path&gt;" class="cls-13" d="M450,121.63c-1.08,5.33,1.34,12.57,5.42,16.17s8.25,2.2,9.33-3.13-1.34-12.57-5.42-16.17S451.07,116.3,450,121.63Z" transform="translate(-33.2 -46.82)"/><path id="_Path_161" data-name="&lt;Path&gt;" class="cls-4" d="M450,121.63c-1.08,5.33,1.34,12.57,5.42,16.17s8.25,2.2,9.33-3.13-1.34-12.57-5.42-16.17S451.07,116.3,450,121.63Z" transform="translate(-33.2 -46.82)"/><path id="_Compound_Path_7" data-name="&lt;Compound Path&gt;" class="cls-17" d="M454.93,120.77a3.86,3.86,0,0,0-2.33,3.18,12.14,12.14,0,0,0,3.49,10.42,3.89,3.89,0,0,0,3.69,1.17c1.11-.35,2-1.44,2.33-3.18a12.16,12.16,0,0,0-3.49-10.43A3.89,3.89,0,0,0,454.93,120.77Zm0.73,2.22a2.7,2.7,0,0,1,2.58.8,8.51,8.51,0,0,1,2.45,7.3,2.34,2.34,0,0,1-4.21,1.42,8.51,8.51,0,0,1-2.44-7.3A2.68,2.68,0,0,1,455.66,123Z" transform="translate(-33.2 -46.82)"/></g></g><g id="_Group_72" data-name="&lt;Group&gt;"><path class="cls-21" d="M350.24,323.07c-0.42-.05-0.41,1.2-0.28,1.75s1.8,2.4,4.84,3.13,7.29,0.29,9.11.27,4.92,1,6.73,1.28,5.08-.19,6.19-1.18a1.9,1.9,0,0,0,.49-1.48c0-1.2-.1-1.45-0.24-1.45Z" transform="translate(-33.2 -46.82)"/><g id="_Group_73" data-name="&lt;Group&gt;"><g id="_Group_74" data-name="&lt;Group&gt;"><path id="_Path_162" data-name="&lt;Path&gt;" class="cls-16" d="M376.75,321.8c0,0.24.09,0.48,0.12,0.72a12,12,0,0,1,.11,3.71,3.36,3.36,0,0,1-2.26,1.56,11.35,11.35,0,0,1-6.16-.14,18,18,0,0,0-4.66-.64,44.81,44.81,0,0,1-6.33,0,15.1,15.1,0,0,1-4.61-1.14,5.82,5.82,0,0,1-2.72-2.62,4.24,4.24,0,0,1,2.53-4.13,9.51,9.51,0,0,1,4.74-.81c1.77,0.08,3.1.36,4.67,0.31a7.7,7.7,0,0,0,3.15-.63,3.08,3.08,0,0,0,1-1.36c0.27-.55.38-1,0.89-1.07,0,0,7.42.13,8.17,0.22s0.89,3.11,1,3.7,0.06,1,.16,1.4C376.62,321.2,376.69,321.5,376.75,321.8Z" transform="translate(-33.2 -46.82)"/></g></g><path class="cls-6" d="M360.82,318.3a1.11,1.11,0,0,0-.38-0.15,1.77,1.77,0,0,0-1.62,1.09,4.5,4.5,0,0,0-.42,1.06,2.52,2.52,0,0,0-.08,1.4,0.25,0.25,0,0,0,.24.23,0.28,0.28,0,0,0,.16-0.27,5.42,5.42,0,0,1,.61-1.87,2.19,2.19,0,0,1,.47-0.67,2.06,2.06,0,0,1,.73-0.42c0.11,0,.59,0,0.48-0.23a0.3,0.3,0,0,0-.09-0.1Z" transform="translate(-33.2 -46.82)"/><path class="cls-6" d="M362.89,318.38a1.36,1.36,0,0,0-1,.23,2,2,0,0,0-.6.93,3,3,0,0,0-.14,2.41c0.13,0.22.32,0.12,0.4-.08a3.26,3.26,0,0,0,.11-0.74,6.79,6.79,0,0,1,.5-1.58,2.5,2.5,0,0,1,.32-0.57,1.11,1.11,0,0,1,.33-0.29,0.7,0.7,0,0,1,.2-0.08l0.2,0a0.23,0.23,0,0,0-.21-0.19Z" transform="translate(-33.2 -46.82)"/><path class="cls-6" d="M365,317.86a1.31,1.31,0,0,0-.62.39,1.76,1.76,0,0,0-.31.63,6.65,6.65,0,0,0-.34,1.57,2,2,0,0,0,.23,1.09,0.32,0.32,0,0,0,.36.2,0.51,0.51,0,0,0,.16-0.44c0-.25,0-0.51,0-0.76a4.46,4.46,0,0,1,1-2.56,0.16,0.16,0,0,0,0-.13,0.15,0.15,0,0,0-.18-0.07Z" transform="translate(-33.2 -46.82)"/><path class="cls-6" d="M358.6,318.42c-0.73,0-2.3.91-3.13,3.13a12.8,12.8,0,0,0-.5,5.06,7.22,7.22,0,0,1-4-2.06,4.35,4.35,0,0,1-1-1.32,4.48,4.48,0,0,1,.88-3.4c1.11-1.23,2.78-2,5.37-2.06,2.91-.06,3.13.72,3.13,0.72Z" transform="translate(-33.2 -46.82)"/><path id="_Path_163" data-name="&lt;Path&gt;" class="cls-23" d="M375.8,310.81s-0.23,3.81-.53,5.58c-0.17,1-1.14,2.53-4.23,2.47a3.57,3.57,0,0,1-3.63-2.39,62.73,62.73,0,0,1-.17-7Z" transform="translate(-33.2 -46.82)"/></g><path class="cls-23" d="M428.16,301.45L423.56,290l-10,3.44s7,10.11,7.83,11.21C422.73,306.46,428.16,301.45,428.16,301.45Z" transform="translate(-33.2 -46.82)"/><path id="_Path_164" data-name="&lt;Path&gt;" class="cls-16" d="M432.73,304.62a5.88,5.88,0,0,1,0,1.38l-0.36,4.81a12,12,0,0,1-.26,1.89A11.59,11.59,0,0,0,432,315c0,0.8,0,1.59,0,2.39a4.3,4.3,0,0,0,0,1c0.08,0.33-5,3.27-7.12,4.4l-0.37.18a3.26,3.26,0,0,1-3.36-.79,5.71,5.71,0,0,1,1.39-6.28s0.26,0,.21-2c0-1.44,0-2.9-.15-4.34a9.34,9.34,0,0,0-.68-2.63,6.34,6.34,0,0,1-.88-2.44,3.66,3.66,0,0,1,.81-1.7,5.14,5.14,0,0,1,1.25-1.36,9,9,0,0,1,3.63-1.79,1.56,1.56,0,0,1,.81,0,2.26,2.26,0,0,1,.93.87,9.35,9.35,0,0,0,2.32,1.72,4.11,4.11,0,0,1,1.89,2.11A2.58,2.58,0,0,1,432.73,304.62Z" transform="translate(-33.2 -46.82)"/><path id="_Path_165" data-name="&lt;Path&gt;" class="cls-6" d="M422.52,315.9a7.2,7.2,0,0,0-.67,1h0a7.22,7.22,0,0,0-.72,5.32c-3.62-.33-4.57-2.42-4.57-2.42a3.48,3.48,0,0,1,1.88-3.12,5,5,0,0,1,.79-0.41l0,0A5.3,5.3,0,0,1,422.52,315.9Z" transform="translate(-33.2 -46.82)"/><path id="_Path_166" data-name="&lt;Path&gt;" class="cls-3" d="M433.73,305.15c1,0.37.71,3,.1,5.5s-0.93,3.4-.62,5.49,0.48,3-.37,3.8-7.65,3.94-7.65,3.94a25,25,0,0,0,1.52-7.87c0.18-4.64.49-7.63,2.64-9.74A4.08,4.08,0,0,1,433.73,305.15Z" transform="translate(-33.2 -46.82)"/><path id="_Path_167" data-name="&lt;Path&gt;" class="cls-10" d="M433.73,305.15c1,0.37.71,3,.1,5.5s-0.93,3.4-.62,5.49,0.48,3-.37,3.8-7.65,3.94-7.65,3.94a25,25,0,0,0,1.52-7.87c0.18-4.64.49-7.63,2.64-9.74A4.08,4.08,0,0,1,433.73,305.15Z" transform="translate(-33.2 -46.82)"/><path id="_Path_168" data-name="&lt;Path&gt;" class="cls-21" d="M416.55,319.76a12.66,12.66,0,0,0,5.67,2.48c3,0.34,3.18-.82,3.5-4.41s0.44-8.56,1.86-10.75,3.79-3.16,4.73-2.94a2.84,2.84,0,0,1,1.42,1,5.18,5.18,0,0,0-4,1.59c-1.89,1.85-2.24,5.76-2.33,9.31s-0.24,7.67-3.07,8.1a10.3,10.3,0,0,1-7.71-2.34A1.43,1.43,0,0,1,416.55,319.76Z" transform="translate(-33.2 -46.82)"/><path id="_Path_169" data-name="&lt;Path&gt;" class="cls-6" d="M422.74,314.58a1,1,0,0,0-.42.66,2,2,0,0,0,1,1.86c0.38,0.22.71,0.13,0.09-.62A3.89,3.89,0,0,1,422.74,314.58Z" transform="translate(-33.2 -46.82)"/><path id="_Path_170" data-name="&lt;Path&gt;" class="cls-6" d="M422.68,312.08a0.87,0.87,0,0,0-.26.54,3.11,3.11,0,0,0,1.25,2c0.67,0.3.31-.44,0-0.78A13.29,13.29,0,0,1,422.68,312.08Z" transform="translate(-33.2 -46.82)"/><path id="_Path_171" data-name="&lt;Path&gt;" class="cls-6" d="M422.51,309.32a0.61,0.61,0,0,0-.31.44A3.14,3.14,0,0,0,424,311c0.43,0,.53-0.17,0-0.53S422.51,309.32,422.51,309.32Z" transform="translate(-33.2 -46.82)"/><path id="_Path_172" data-name="&lt;Path&gt;" class="cls-16" d="M416.75,298.67S394.82,266,394.16,263.39s-4.82-29.27-4.82-29.27l-8.58,31.46a52.41,52.41,0,0,1,.78,8.85,78.68,78.68,0,0,1-1.75,15.46C377.5,300.69,376.2,311,376.2,311a8.67,8.67,0,0,1-4.69,1,9.83,9.83,0,0,1-4.59-1.3s-1.19-29.24-1.53-35.94-0.55-9.7-.18-14.11c0.51-6,.79-12.26,1.94-25.27,1-11.43,3.09-35.76,3.09-35.76l35.23-2.34s3,5.62,3.32,20.22c0.28,11.4.26,42.69,0.26,42.69,5.23,3.28,6.83,6.68,9.32,13.09,1.57,4,5.63,16.61,6.82,20.32C420.78,294.89,416.75,298.67,416.75,298.67Z" transform="translate(-33.2 -46.82)"/><path id="_Path_173" data-name="&lt;Path&gt;" class="cls-21" d="M389.31,234.23l3-12.77s5.08,0.36,11.31-4.63c0,0-.72,4.46-9.52,6.53l-2.92,12.51,0.92,15.51S389.35,234.52,389.31,234.23Z" transform="translate(-33.2 -46.82)"/><g id="_Group_75" data-name="&lt;Group&gt;"><polygon id="_Path_174" data-name="&lt;Path&gt;" class="cls-23" points="348.75 102.92 350.24 115.73 362.7 115.12 361.32 100.17 348.75 102.92"/><g id="_Group_76" data-name="&lt;Group&gt;"><path class="cls-23" d="M402.14,153.63c3.89,0.1,7.22,1.85,8.09,6s-0.58,15.2-1.41,21.31c-0.79,5.76-1,7.39-4.23,7.91-2.42.4-12.36-1-12.36-1Z" transform="translate(-33.2 -46.82)"/><path class="cls-3" d="M399.48,153.63c4.54-1.18,9.11,1.13,10.2,3s1.51,3.79,1,9.45-1.47,13.71-1.47,13.71-3.41,3.18-13.94-1Z" transform="translate(-33.2 -46.82)"/><path id="_Path_175" data-name="&lt;Path&gt;" class="cls-24" d="M407.84,160.12c-0.63-3.46-5.17-7.09-9.43-6.4-1,.16-2.29.26-3.23,0.43,0.53,2-8.3,4.23-12.45,2.35-1.64.43-5.89,1.25-7.25,1.71-3.91,1.3-5.52,5.15-6.13,17.9,0,0,.31,28.87.16,34.63,9.65,4.07,19.79,4.18,25.41,3.09,11.71-2.28,13.23-7.09,13.23-7.09l-1.74-13.21S409.27,167.94,407.84,160.12Z" transform="translate(-33.2 -46.82)"/><path class="cls-23" d="M375.48,158.2c-5.34.46-7.61,1.44-11.62,8.67-3.73,6.72-10.39,18.09-12.9,22.35a69.74,69.74,0,0,1-16.6-6.4,5.77,5.77,0,0,1-2-2.39c-1.12-2.45-1.75-2.37-3-4.42-1-1.59-1-2.75-1.5-2.69a2.13,2.13,0,0,0-1.62,2.4,10.89,10.89,0,0,0,.74,2.95,21.85,21.85,0,0,1-4.21-4.41c-2.89-3.93-5.1-4.64-6.71,1.37-1,3.77.54,7.38,8.13,12.37,2.19,1.44,8.41,5.23,11.4,6.66,9.26,4.42,11.89,6,16.79,6.35,3,0.19,4.26-.88,6.52-3.44,5.09-5.75,14.55-19.78,14.55-19.78S381.44,167.17,375.48,158.2Z" transform="translate(-33.2 -46.82)"/></g><g id="_Group_77" data-name="&lt;Group&gt;"><path id="_Path_176" data-name="&lt;Path&gt;" class="cls-25" d="M373.17,134.05s-3.11,4.58-2.76,5,2.65,0.86,2.65.86Z" transform="translate(-33.2 -46.82)"/></g><g id="_Group_78" data-name="&lt;Group&gt;"><path id="_Compound_Path_8" data-name="&lt;Compound Path&gt;" class="cls-20" d="M374.62,137a3.6,3.6,0,1,1,3.71-3.6A3.66,3.66,0,0,1,374.62,137Zm0-6.4a2.8,2.8,0,1,0,2.88,2.8A2.85,2.85,0,0,0,374.62,130.6Z" transform="translate(-33.2 -46.82)"/></g><g id="_Group_79" data-name="&lt;Group&gt;"><path id="_Path_177" data-name="&lt;Path&gt;" class="cls-23" d="M381.81,121.37c-6.3,1.29-8.12,4-8.71,13.69-0.62,10.15.45,13.34,1.82,14.7,0.93,0.92,6.08,1.09,8.68.39,3.25-.87,10.61-3.4,14.05-8.5,4.05-6,5.12-14.15.78-17.48C392.32,119.47,384.37,120.85,381.81,121.37Z" transform="translate(-33.2 -46.82)"/></g><path class="cls-25" d="M382,150.44l-0.29-1.87a12.76,12.76,0,0,1-6.46,1.42C376.48,150.57,379.62,150.74,382,150.44Z" transform="translate(-33.2 -46.82)"/><polygon id="_Path_178" data-name="&lt;Path&gt;" class="cls-20" points="338.06 85.83 349.26 87.23 348.81 88 338.06 86.64 338.06 85.83"/><g id="_Group_80" data-name="&lt;Group&gt;"><g id="_Group_81" data-name="&lt;Group&gt;"><g id="_Group_82" data-name="&lt;Group&gt;"><path id="_Path_179" data-name="&lt;Path&gt;" class="cls-20" d="M372.71,125.39a4.19,4.19,0,0,0,.49,2.7,4.52,4.52,0,0,0,4.22,2.16c-0.29,0,.8,1.37.9,1.45a2.27,2.27,0,0,0,1.65.62c0.22,1.36.12,2.79,1.68,3.43,0,0,1-3.75,4.25-3.28s3.72,4.53,1.66,7-4,1.53-4,1.52a5.36,5.36,0,0,1,.32,1.51,10.84,10.84,0,0,0,.84,2.05,9.89,9.89,0,0,0,2.95,3.35,8.7,8.7,0,0,0,3.57,1.63,7.71,7.71,0,0,0,3.5-.29,66.52,66.52,0,0,0,7.81-13,17.17,17.17,0,0,0,1.81-6.41,8.35,8.35,0,0,0-1.19-5.28,6.1,6.1,0,0,0-4.09-2.36,6.32,6.32,0,0,0-3.51-4.68,12.27,12.27,0,0,0-6-1.16c-2.07.06-4.11,0.41-6.17,0.61a68.55,68.55,0,0,1-12.77-.26,0.74,0.74,0,0,0-.44.05,0.66,0.66,0,0,0-.25.44,5,5,0,0,0,3.61,6.3A4.14,4.14,0,0,0,372.71,125.39Z" transform="translate(-33.2 -46.82)"/></g></g><g id="_Group_83" data-name="&lt;Group&gt;"><g id="_Group_84" data-name="&lt;Group&gt;"><path id="_Path_180" data-name="&lt;Path&gt;" class="cls-20" d="M381.57,137.89l0.12-4.25A2.12,2.12,0,1,0,381.57,137.89Z" transform="translate(-33.2 -46.82)"/></g></g></g></g><path class="cls-3" d="M376.2,158c-5.75-.13-9.17,2.11-13.2,8.7s-7.84,14.41-7.84,14.41,5.16,6.63,11.57,7.73L377,173.33S380.6,163.71,376.2,158Z" transform="translate(-33.2 -46.82)"/></g><g id="Character-2" data-name="Character"><g id="_Group_85" data-name="&lt;Group&gt;"><g id="_Group_86" data-name="&lt;Group&gt;"><g id="_Group_87" data-name="&lt;Group&gt;"><path id="_Path_181" data-name="&lt;Path&gt;" class="cls-21" d="M175.69,392.8c-2.29,5.88-4.38,13.5-7.65,25-3.06,10.77-3.45,18.46-.06,21.27s13.57,1.69,20.62-11.6c2.2-4.16,10.37-16.93,10.37-16.93s5.67-1.74,7.66-3.15c0,0,18.56,1.44,27.67,0s19.25-12,15.61-13.24c-6.55-2.28-24.22-3.88-39.16-5.57Z" transform="translate(-33.2 -46.82)"/><path id="_Path_182" data-name="&lt;Path&gt;" class="cls-20" d="M225.55,404.64c-4.11.75-10.07-.8-13.42-2a9,9,0,0,0,.06-3.61,11.78,11.78,0,0,1-1.72,4.44c-0.57.29-1.06,0.53-1.41,0.69-2.31,1-8.67,3.91-9.77,2.86a12.12,12.12,0,0,0-6.74-4.74c1.88,1.4,7.32,5.71,5.09,10.29l1.33-2.09s5.67-1.74,7.66-3.15c0,0,10.37.81,19.42,0.62l11.07-6.89S232,400.56,225.55,404.64Z" transform="translate(-33.2 -46.82)"/><g id="_Group_88" data-name="&lt;Group&gt;"><path id="_Path_183" data-name="&lt;Path&gt;" class="cls-13" d="M214.52,416.81a11.8,11.8,0,0,1-5,2.62,4.28,4.28,0,0,1-1.82-.08c-2.07-.54-5.41-0.69-6.78,3.41-1.56,4.66-6.94,6.65-8.51,9.81-0.78,1.59-1.38,6.25-.83,9.16,0.45,2.39,5.1.86,6.94-1.94a47.17,47.17,0,0,1,8.15-8.49c4-2,8.48-5,10.38-6.21Z" transform="translate(-33.2 -46.82)"/><path id="_Path_184" data-name="&lt;Path&gt;" class="cls-20" d="M243.24,392.23c11.94,1.38,12,7.78,8.81,12.43-3.48,5-15.62,11.43-22.18,14.79-6,3.09-16.32,8.59-16.32,8.59s-4.88-4.21-4-8.62c6.85-4.3,16.42-17,27.56-18.32Z" transform="translate(-33.2 -46.82)"/><path id="_Path_185" data-name="&lt;Path&gt;" class="cls-20" d="M193.36,443.27a2.75,2.75,0,0,1-1.95-.55c-0.52-.4-2.09-3.78-0.9-7.79s4-6.44,5.37-7.76a10,10,0,0,0,2.49-4.87c0.57-2,2.16-4.4,3.2-4.63a4.56,4.56,0,0,1,2.55.64Z" transform="translate(-33.2 -46.82)"/><path class="cls-16" d="M193.36,443.27c2.27,0.41,4.11-1,5.21-2.46s2.15-3,3.42-4.51a17.73,17.73,0,0,1,4.65-4.42c1.84-1,3.65-1,3.26-2a18.26,18.26,0,0,0-1.77-3.77c-0.73-1-2.08-.15-2.5.14s0.1-1.43,1.22-2.35,1-4.34,1.84-4.4l0.88-.06a0.83,0.83,0,0,0-.75-1c-1-.19-2.14.56-4.69-0.08s-3.75,2.07-4.43,4.76-1.16,4-3,5.81-4.84,4.72-4.91,8.86S192.62,442.84,193.36,443.27Z" transform="translate(-33.2 -46.82)"/><path id="_Path_186" data-name="&lt;Path&gt;" class="cls-1" d="M204.17,433.88a1.87,1.87,0,0,0,1.3-1.23,5.41,5.41,0,0,0-.53-3.75,0.75,0.75,0,0,0-1.24-.17h0a0.75,0.75,0,0,0-.09.86A5.75,5.75,0,0,1,204.17,433.88Z" transform="translate(-33.2 -46.82)"/><path id="_Path_187" data-name="&lt;Path&gt;" class="cls-1" d="M202,436.3a2.15,2.15,0,0,0,1.27-1.52,6.7,6.7,0,0,0-.57-4.1,0.74,0.74,0,0,0-1.19-.16h0a0.72,0.72,0,0,0-.09.83A5.76,5.76,0,0,1,202,436.3Z" transform="translate(-33.2 -46.82)"/><path id="_Path_188" data-name="&lt;Path&gt;" class="cls-1" d="M199.91,439.05a2.41,2.41,0,0,0,1.2-1.61,6.44,6.44,0,0,0-.62-3.94,0.74,0.74,0,0,0-1.19-.16h0a0.72,0.72,0,0,0-.09.83A5.5,5.5,0,0,1,199.91,439.05Z" transform="translate(-33.2 -46.82)"/></g><g id="_Group_89" data-name="&lt;Group&gt;"><path id="_Path_189" data-name="&lt;Path&gt;" class="cls-19" d="M209.89,418.35c2.15-.43,5.3-1,6.67-2.68s4.12-3.15,7.62-.6a15.71,15.71,0,0,0,7.61,2.55,27.26,27.26,0,0,1,3.61.35,13.45,13.45,0,0,1,3.91,2,6.56,6.56,0,0,1,1.91,1.82,4.08,4.08,0,0,1-.15,4.46,2.37,2.37,0,0,1-.59.6,2.49,2.49,0,0,1-1,.35,6.86,6.86,0,0,1-3.45-.61c-1-.32-2-0.57-2.94-0.8a50.06,50.06,0,0,0-6.8-1.13c-1-.09-3.17-0.5-4.14-0.66-4.35-.71-9.07,2.39-9.07,2.39Z" transform="translate(-33.2 -46.82)"/><path id="_Path_190" data-name="&lt;Path&gt;" class="cls-21" d="M166.23,435.87c0.47,4.16,5,6.38,15,4.87s34.41-15.25,34.41-15.25-0.65-5.75-6-7.55c0,0-5,.66-13.14,2a106,106,0,0,0-10.91,2.46c-5.81,7.06-11.34,3.82-13.51,6.3C168.48,432.85,166.23,435.87,166.23,435.87Z" transform="translate(-33.2 -46.82)"/><path id="_Path_191" data-name="&lt;Path&gt;" class="cls-20" d="M241.87,426.57a2.75,2.75,0,0,0,1.26-1.58c0.18-.63-1-4-4.26-6.54a17.33,17.33,0,0,0-8.43-3.48,10,10,0,0,1-4.87-2.51c-1.62-1.28-4.32-2.32-5.3-1.9a4.56,4.56,0,0,0-1.7,2Z" transform="translate(-33.2 -46.82)"/><path id="_Path_192" data-name="&lt;Path&gt;" class="cls-16" d="M220.59,425.2c1,0.85,2,.45,3.2.09,1.6-.48,3.75-0.14,6,0.38,1.5,0.36,2.87.82,4.34,1.28s3.18,1.44,4.52,1.62a3,3,0,0,0,3.29-3.71c-0.57-1.77-3-5.35-7.19-7.36-2.26-1.1-6-1-8.5-2.88-1.69-1.29-3.78-2.77-5.95-3-1.28-.17-1.79.52-2.47,1.47a36.31,36.31,0,0,1-3,3.58,7,7,0,0,0,3.11,2.13,3.05,3.05,0,0,1,1.17.55,2.5,2.5,0,0,1,.48.73,1.15,1.15,0,0,1,.12,1.15,3.64,3.64,0,0,1-.36.34,1.63,1.63,0,0,0,0,1.75,5.66,5.66,0,0,0,1,1.72Z" transform="translate(-33.2 -46.82)"/><path id="_Path_193" data-name="&lt;Path&gt;" class="cls-1" d="M227.62,425.25a1.87,1.87,0,0,1-1.77-.25,5.42,5.42,0,0,1-1.76-3.35,0.75,0.75,0,0,1,.91-0.85h0a0.75,0.75,0,0,1,.58.64A5.75,5.75,0,0,0,227.62,425.25Z" transform="translate(-33.2 -46.82)"/><path id="_Path_194" data-name="&lt;Path&gt;" class="cls-1" d="M230.8,426a2.15,2.15,0,0,1-1.92-.5,6.7,6.7,0,0,1-1.93-3.66,0.74,0.74,0,0,1,.87-0.83h0a0.72,0.72,0,0,1,.55.62A5.76,5.76,0,0,0,230.8,426Z" transform="translate(-33.2 -46.82)"/><path id="_Path_195" data-name="&lt;Path&gt;" class="cls-1" d="M234.09,427a2.41,2.41,0,0,1-1.91-.61,6.44,6.44,0,0,1-1.8-3.56,0.74,0.74,0,0,1,.87-0.83h0a0.72,0.72,0,0,1,.55.62A5.5,5.5,0,0,0,234.09,427Z" transform="translate(-33.2 -46.82)"/></g><path id="_Path_196" data-name="&lt;Path&gt;" class="cls-20" d="M192.58,420.71a36.68,36.68,0,0,0-11.85,4.07s5.37-5.71,13.29-6.4Z" transform="translate(-33.2 -46.82)"/></g></g></g><g id="_Group_90" data-name="&lt;Group&gt;"><g id="_Group_91" data-name="&lt;Group&gt;"><path id="_Path_197" data-name="&lt;Path&gt;" class="cls-3" d="M179.18,411.08l0,0.72a2.05,2.05,0,0,0,.93,1.82L199,425.77a2.06,2.06,0,0,0,2,.1L237.77,407a2,2,0,0,0,1.11-1.72l0-.5-38.82,20Z" transform="translate(-33.2 -46.82)"/></g><g id="_Group_92" data-name="&lt;Group&gt;" class="cls-18"><path id="_Path_198" data-name="&lt;Path&gt;" d="M179.18,411.08l0,0.72a2.05,2.05,0,0,0,.93,1.82L199,425.77a2.06,2.06,0,0,0,2,.1L237.77,407a2,2,0,0,0,1.11-1.72l0-.5-38.82,20Z" transform="translate(-33.2 -46.82)"/></g><g id="_Group_93" data-name="&lt;Group&gt;" class="cls-17"><path id="_Path_199" data-name="&lt;Path&gt;" d="M200.09,424.73L200,426.09a2,2,0,0,0,1-.22L237.77,407a2,2,0,0,0,1.11-1.72l0-.5Z" transform="translate(-33.2 -46.82)"/></g><g id="_Group_94" data-name="&lt;Group&gt;"><path id="_Path_200" data-name="&lt;Path&gt;" class="cls-3" d="M238.9,404.76L218.32,391.5a1.22,1.22,0,0,0-1.22-.06l-37.77,19.44a0.27,0.27,0,0,0,0,.47l20.78,13.38Z" transform="translate(-33.2 -46.82)"/></g><g id="_Group_95" data-name="&lt;Group&gt;" class="cls-17"><path id="_Path_201" data-name="&lt;Path&gt;" d="M238.9,404.76L218.32,391.5a1.22,1.22,0,0,0-1.22-.06l-37.77,19.44a0.27,0.27,0,0,0,0,.47l20.78,13.38Z" transform="translate(-33.2 -46.82)"/></g><g id="_Group_96" data-name="&lt;Group&gt;"><polygon id="_Path_202" data-name="&lt;Path&gt;" class="cls-16" points="166.78 376.1 155.67 368.96 190.01 351.29 201.17 358.4 166.78 376.1"/></g><g id="_Group_97" data-name="&lt;Group&gt;"><polygon id="_Path_203" data-name="&lt;Path&gt;" class="cls-21" points="162.05 357.5 162.25 357.63 167.7 361.14 177.93 355.87 178.15 355.76 172.5 352.13 162.05 357.5"/></g><g id="_Group_98" data-name="&lt;Group&gt;"><polygon id="_Path_204" data-name="&lt;Path&gt;" class="cls-16" points="162.25 357.63 167.7 361.14 177.93 355.87 172.49 352.37 162.25 357.63"/></g><g id="_Group_99" data-name="&lt;Group&gt;"><path id="_Path_205" data-name="&lt;Path&gt;" class="cls-3" d="M200.65,425.06a2.42,2.42,0,0,0,2.09-.06l36.56-18.81a2.42,2.42,0,0,0,1.26-1.63l5-23a2.49,2.49,0,0,0,.05-0.4,2.42,2.42,0,0,0-.63-1.75l-38,19.55a1.8,1.8,0,0,0-.93,1.21Z" transform="translate(-33.2 -46.82)"/></g><g id="_Group_100" data-name="&lt;Group&gt;" class="cls-17"><path id="_Path_206" data-name="&lt;Path&gt;" d="M200.65,425.06a2.42,2.42,0,0,0,2.09-.06l36.56-18.81a2.42,2.42,0,0,0,1.26-1.63l5-23a2.49,2.49,0,0,0,.05-0.4,2.42,2.42,0,0,0-.63-1.75l-38,19.55a1.8,1.8,0,0,0-.93,1.21Z" transform="translate(-33.2 -46.82)"/></g><g id="_Group_101" data-name="&lt;Group&gt;"><path id="_Path_207" data-name="&lt;Path&gt;" class="cls-3" d="M200.09,424.73l0.24,0.15,0.32,0.18,5.43-24.92a1.8,1.8,0,0,1,.93-1.21l38-19.55a2.46,2.46,0,0,0-.48-0.4l-38.07,19.59a1.8,1.8,0,0,0-.93,1.21Z" transform="translate(-33.2 -46.82)"/></g><g id="_Group_102" data-name="&lt;Group&gt;" class="cls-18"><path id="_Path_208" data-name="&lt;Path&gt;" d="M200.09,424.73l0.24,0.15,0.32,0.18,5.43-24.92a1.8,1.8,0,0,1,.93-1.21l38-19.55a2.46,2.46,0,0,0-.48-0.4l-38.07,19.59a1.8,1.8,0,0,0-.93,1.21Z" transform="translate(-33.2 -46.82)"/></g><g id="_Group_103" data-name="&lt;Group&gt;"><path id="_Path_209" data-name="&lt;Path&gt;" class="cls-3" d="M221.72,404.6a7.87,7.87,0,0,1,3.81-4.44c1.77-.91,2.93-0.4,2.59,1.15a7.87,7.87,0,0,1-3.81,4.44C222.54,406.65,221.38,406.14,221.72,404.6Z" transform="translate(-33.2 -46.82)"/></g></g><path id="_Path_210" data-name="&lt;Path&gt;" class="cls-19" d="M244.91,361.69a5.61,5.61,0,0,1,3.82-1.57,14.72,14.72,0,0,0,2.2-.16,2.84,2.84,0,0,0,2.18-1.65c0.08-.23.12-0.47,0.21-0.69s0.38-.67.54-1a2.21,2.21,0,0,0,.07-1.61,0.89,0.89,0,0,1,.1-1.11,2.27,2.27,0,0,0,0-2.32,2.94,2.94,0,0,1-.32-0.56,5,5,0,0,1,0-1.34c-0.09-2-3.4-1.44-4.57-1.07-0.34.11-2,.59-2.72,0.83a11.08,11.08,0,0,0-.32-3.31c-0.47-2.1-2.58-2.93-2.71-1.67-0.07.73,0.23,2.72-.49,4.46a18.13,18.13,0,0,0-1.29,2.79c-0.35,1.12-.51,1.63-2.83,4.24-2.15,2.43-11.16,10.35-11.16,10.35s-9.77-15.27-12.3-19.43c-4.23-7-9.82-6-13.46-5.78l3.35,13.88s14.77,19.67,17.59,22.7,5,3,7.31.7C232.69,375.85,240.69,366.63,244.91,361.69Z" transform="translate(-33.2 -46.82)"/><path class="cls-13" d="M247.38,350.05c-0.92.36-1.47,1.06-1.6,2.75a4.63,4.63,0,0,1-1.83,3.4,2.6,2.6,0,0,0,1.47-.48c0.56-.48.71-0.52,1-0.2a1.89,1.89,0,0,0,.71.5,1.3,1.3,0,0,0-.26,1.53c0.44,0.91,2.78,1.15,4.8.34,0,0-3.21.67-3.84-.38s1.14-2.14,2.4-2.36c0,0-3.08.43-3.44-.6s0.95-1.66,2.76-1.94c0,0-2.53.22-2.88-.67A1.55,1.55,0,0,1,247.38,350.05Z" transform="translate(-33.2 -46.82)"/><g id="_Group_104" data-name="&lt;Group&gt;"><g id="_Group_105" data-name="&lt;Group&gt;"><path class="cls-3" d="M189.61,341.44s-10.09,1.8-11.31,2.34c9.54,6.83-.88,20.06-0.88,20.06l4.13,12.46a120.87,120.87,0,0,0-5.15,15.42c13.25,8.11,30.14,6.76,35.7-2.75A87.78,87.78,0,0,1,211,375.62c0.06-2.41.65-5.91,0.8-9a11.08,11.08,0,0,0,2.31-12.41c-3.75-7.58-10.24-13.13-12.33-13.15Z" transform="translate(-33.2 -46.82)"/></g></g><g class="cls-8"><g id="_Group_106" data-name="&lt;Group&gt;"><g id="_Group_107" data-name="&lt;Group&gt;"><path class="cls-5" d="M189.61,341.44s-10.09,1.8-11.31,2.34c9.54,6.83-.88,20.06-0.88,20.06l4.13,12.46a120.87,120.87,0,0,0-5.15,15.42c13.25,8.11,30.14,6.76,35.7-2.75A87.78,87.78,0,0,1,211,375.62c0.06-2.41.65-5.91,0.8-9a11.08,11.08,0,0,0,2.31-12.41c-3.75-7.58-10.24-13.13-12.33-13.15Z" transform="translate(-33.2 -46.82)"/></g></g></g><path class="cls-26" d="M184.38,386.08c2-4.19,5.59-8.57,3-11.48s-5.56-12.56-4.78-15.71l-1.9-.65a29,29,0,0,1-3.28,5.6l4.13,12.46a120.88,120.88,0,0,0-5.15,15.42,36.19,36.19,0,0,0,15.89,5.22C187.14,395.08,182.37,390.19,184.38,386.08Z" transform="translate(-33.2 -46.82)"/><g id="_Group_108" data-name="&lt;Group&gt;"><path id="_Path_211" data-name="&lt;Path&gt;" class="cls-19" d="M180.57,406.72c-2.06-1.45-12.36-11.21-17.08-16-5.59-5.63-5-6.15-3.92-9.12,2.38-6.62,7.95-21.12,10.07-27.18,2.47-7.06,4.82-10.13,9.36-10.91,3.43,2.75,6.12,9.26,2.1,20.63l-9.53,19.45s5.9,8.23,9.6,11.75,4.66,4.53,6.49,5.33c2.29,1,5.17,1.23,6,2a65.86,65.86,0,0,1,5.63,6.64c0.78,1.31,2.63,4,0,4.78-2.44.75-4.41-.31-6.38-1.68a25.38,25.38,0,0,1-2.62-2.2,9.7,9.7,0,0,1-5.7-1.18C183.08,408.23,180.57,406.72,180.57,406.72Z" transform="translate(-33.2 -46.82)"/></g><g id="_Group_109" data-name="&lt;Group&gt;"><path class="cls-20" d="M187.39,337.54c0.83-.74-4.07-4.48-4.54-4.86a22.1,22.1,0,0,1-5.08-5A11,11,0,0,1,181,312.53a12.44,12.44,0,0,1,16.69-9.81,10.33,10.33,0,0,0,3.05.94,15.4,15.4,0,0,0,2.53-.31,6.91,6.91,0,0,1,7.06,9.84,4.14,4.14,0,0,1,2,3.66c-0.25,1.69-1.87,2.09-2.08,2.93a0.83,0.83,0,0,0,1.41.75,1.7,1.7,0,0,1-2,1.33c-1.83-.12-3.42-2.62-3.42-2.62Z" transform="translate(-33.2 -46.82)"/><path id="_Path_212" data-name="&lt;Path&gt;" class="cls-19" d="M204.32,311.36c2.33,1,4.51,4.65,4.36,14.66-0.13,8.49-2.76,10.6-4.08,11.21s-3.88.27-6.37-.15l0,4.88s5.92,6.67,1.84,9.41c-10.41-1.95-12.62-8.9-12.62-8.9l0-11.55s-1.45,1.49-4-.75c-2.06-1.85-2.77-5-1.19-6.69a3.82,3.82,0,0,1,.61-0.53,3.63,3.63,0,0,1,3.18-.52,3.09,3.09,0,0,1,1.95,2.81,0.91,0.91,0,0,0,.37.73,0.72,0.72,0,0,0,.69,0,2.37,2.37,0,0,0,.54-0.48,13.53,13.53,0,0,1,3.18-2.51c1.45-.72,2.89-1.45,4.27-2.3a18.35,18.35,0,0,0,5.18-4.48,11.84,11.84,0,0,0,1.43-2.42A8.93,8.93,0,0,0,204.32,311.36Z" transform="translate(-33.2 -46.82)"/><g id="_Group_110" data-name="&lt;Group&gt;"><ellipse id="_Path_213" data-name="&lt;Path&gt;" class="cls-20" cx="205.52" cy="323.14" rx="1.17" ry="1.13" transform="matrix(0.05, -1, 1, 0.05, -159.81, 466.97)"/></g><g id="_Group_111" data-name="&lt;Group&gt;"><ellipse id="_Path_214" data-name="&lt;Path&gt;" class="cls-20" cx="196.62" cy="323.54" rx="1.26" ry="1.21" transform="translate(-168.75 458.39) rotate(-87.39)"/></g><path id="_Path_215" data-name="&lt;Path&gt;" class="cls-27" d="M196.67,330.29l4.28,1.39a2.19,2.19,0,0,1-2.77,1.62A2.46,2.46,0,0,1,196.67,330.29Z" transform="translate(-33.2 -46.82)"/><path class="cls-13" d="M197.28,331.21a2.15,2.15,0,0,0-.67.12,2.38,2.38,0,0,0,1.57,2,2.06,2.06,0,0,0,1.26,0A2.17,2.17,0,0,0,197.28,331.21Z" transform="translate(-33.2 -46.82)"/><path id="_Path_216" data-name="&lt;Path&gt;" class="cls-20" d="M207.4,321l-2.89-1.19a1.5,1.5,0,0,1,2-.87A1.62,1.62,0,0,1,207.4,321Z" transform="translate(-33.2 -46.82)"/><polygon id="_Path_217" data-name="&lt;Path&gt;" class="cls-13" points="167.41 275.58 168.24 282.48 171.33 281.03 167.41 275.58"/><path id="_Path_218" data-name="&lt;Path&gt;" class="cls-13" d="M198.22,337.09c-2.62-.34-8-1.91-8.88-4.12a5.78,5.78,0,0,0,1.91,2.82c1.62,1.42,7,2.95,7,2.95Z" transform="translate(-33.2 -46.82)"/></g></g></svg>