<svg xmlns="http://www.w3.org/2000/svg" xmlns:xlink="http://www.w3.org/1999/xlink" viewBox="0 0 917.64 869.15"><defs><style>.cls-1{isolation:isolate;}.cls-2{mask:url(#mask);}.cls-17,.cls-3{opacity:0.3;}.cls-15,.cls-17,.cls-3{mix-blend-mode:multiply;}.cls-3{fill:url(#linear-gradient);}.cls-4{fill:#1a1a1a;}.cls-21,.cls-5{opacity:0.2;}.cls-5{fill:url(#_åçûìßííûé_ãðàäèåíò_17);}.cls-6{fill:url(#_åçûìßííûé_ãðàäèåíò_2);}.cls-7{fill:#ccc;}.cls-8{fill:#b3b3b3;}.cls-9{fill:#f3f3f3;}.cls-10{fill:#d1d1d1;}.cls-11{fill:#d8d8d8;}.cls-12{fill:#313946;}.cls-13{fill:#333;}.cls-14{mask:url(#mask-2);}.cls-15{opacity:0.25;fill:url(#linear-gradient-2);}.cls-16{mask:url(#mask-3);}.cls-17{fill:url(#linear-gradient-3);}.cls-18{fill:#fff;}.cls-19{fill:#f2f2f2;}.cls-20{fill:#ed1c24;}.cls-21{mix-blend-mode:soft-light;}.cls-22{opacity:0;}.cls-23{opacity:0.08;}.cls-24{opacity:0.15;}.cls-25{opacity:0.23;}.cls-26{opacity:0.31;}.cls-27{opacity:0.38;}.cls-28{opacity:0.46;}.cls-29{opacity:0.54;}.cls-30{opacity:0.62;}.cls-31{opacity:0.69;}.cls-32{opacity:0.77;}.cls-33{opacity:0.85;}.cls-34{opacity:0.92;}.cls-35{fill:url(#_åçûìßííûé_ãðàäèåíò_23);}</style><mask id="mask" x="0" y="656.6" width="917.11" height="212.55" maskUnits="userSpaceOnUse"/><linearGradient id="linear-gradient" x1="733.73" y1="-2261.53" x2="733.73" y2="-2100.99" gradientTransform="translate(28.66 3432.45) scale(0.58 1.22)" gradientUnits="userSpaceOnUse"><stop offset="0" stop-color="#71756f"/><stop offset="0.03" stop-color="#828680"/><stop offset="0.1" stop-color="#a3a6a2"/><stop offset="0.18" stop-color="#c0c2bf"/><stop offset="0.27" stop-color="#d7d8d7"/><stop offset="0.37" stop-color="#e9eae9"/><stop offset="0.49" stop-color="#f6f6f6"/><stop offset="0.65" stop-color="#fdfdfd"/><stop offset="1" stop-color="#fff"/></linearGradient><linearGradient id="_åçûìßííûé_ãðàäèåíò_17" x1="954.36" y1="616.57" x2="763.75" y2="286.41" gradientUnits="userSpaceOnUse"><stop offset="0"/><stop offset="1" stop-color="#fff"/></linearGradient><linearGradient id="_åçûìßííûé_ãðàäèåíò_2" x1="460.35" y1="110.19" x2="460.35" y2="669.89" gradientUnits="userSpaceOnUse"><stop offset="0" stop-color="#fe5757"/><stop offset="1" stop-color="#cd0102"/></linearGradient><mask id="mask-2" x="629.69" y="-6.01" width="59.75" height="504.14" maskUnits="userSpaceOnUse"/><linearGradient id="linear-gradient-2" x1="987.76" y1="524.5" x2="987.76" y2="579.37" gradientTransform="translate(111.52 1236.82) rotate(-90)" xlink:href="#linear-gradient"/><mask id="mask-3" x="269.58" y="490.11" width="379.56" height="44.99" maskUnits="userSpaceOnUse"/><linearGradient id="linear-gradient-3" x1="457.1" y1="494.87" x2="457.1" y2="536.18" gradientTransform="matrix(1, 0, 0, 1, 0, 0)" xlink:href="#linear-gradient"/><linearGradient id="_åçûìßííûé_ãðàäèåíò_23" x1="568.15" y1="392.7" x2="664.32" y2="524.82" gradientUnits="userSpaceOnUse"><stop offset="0" stop-color="#e4f801"/><stop offset="1" stop-color="#2b7901"/></linearGradient></defs><title>Download in any format</title><g class="cls-1"><g id="_ëîé_1" data-name="‘ëîé_1"><g class="cls-2"><polygon class="cls-3" points="905.89 869.15 0 867.58 17.82 694.25 906.39 694.3 905.89 869.15"/></g><path class="cls-4" d="M928.36,320H274.69a22.54,22.54,0,0,0-22.54,22.54V783.39H950.91V342.55A22.54,22.54,0,0,0,928.36,320Z" transform="translate(-141.18 -210.48)"/><path class="cls-5" d="M928.36,320H705.56a237.51,237.51,0,0,0-8.17,61.9c0,131,106.21,237.23,237.23,237.23,5.48,0,10.91-.2,16.29-0.57v-276A22.54,22.54,0,0,0,928.36,320Z" transform="translate(-141.18 -210.48)"/><polygon class="cls-6" points="146.36 512.42 146.36 541.43 774.34 541.43 774.34 512.42 774.34 141 146.36 141 146.36 512.42"/><path class="cls-7" d="M148.95,897.1a10.52,10.52,0,0,0,10.52,10.52h883.95a10.52,10.52,0,0,0,10.52-10.52V886.44h-905V897.1Z" transform="translate(-141.18 -210.48)"/><path class="cls-8" d="M144.07,896.69a2.28,2.28,0,0,0,2.28,2.28h910.19a2.28,2.28,0,0,0,2.28-2.28V884.31H144.07v12.38Z" transform="translate(-141.18 -210.48)"/><path class="cls-7" d="M549.24,886.38a5.26,5.26,0,0,0,5.26,5.26h93.89a5.26,5.26,0,0,0,5.26-5.26v-2.07H549.24v2.07Z" transform="translate(-141.18 -210.48)"/><polygon class="cls-9" points="111.25 564.98 2.89 673.83 917.64 673.83 809.28 564.98 111.25 564.98"/><polygon class="cls-10" points="74.56 629.81 137.51 629.81 181.82 572.78 127.52 572.78 74.56 629.81"/><polygon class="cls-10" points="738.71 572.78 783.02 629.81 845.97 629.81 793.02 572.78 738.71 572.78"/><path class="cls-11" d="M693.94,854.81c-1.12-5.2-6.73-9.33-12.55-9.33H521.5c-5.82,0-11.43,4.13-12.55,9.33L505.9,869c-1.22,5.69,2.86,10.42,9.15,10.42H687.84c6.29,0,10.38-4.72,9.15-10.42Z" transform="translate(-141.18 -210.48)"/><polygon class="cls-12" points="156.16 629.81 191.29 629.81 198.01 619.43 163.77 619.43 156.16 629.81"/><polygon class="cls-12" points="188.71 585.35 220.08 585.35 225.45 577.05 194.79 577.05 188.71 585.35"/><polygon class="cls-12" points="195.79 575.68 241.34 575.68 243.1 572.78 197.91 572.78 195.79 575.68"/><polygon class="cls-12" points="247.56 575.68 278.11 575.68 279.57 572.78 249.27 572.78 247.56 575.68"/><polygon class="cls-12" points="285.08 575.68 315.63 575.68 316.79 572.78 286.49 572.78 285.08 575.68"/><polygon class="cls-12" points="322.11 575.68 352.66 575.68 353.52 572.78 323.22 572.78 322.11 575.68"/><polygon class="cls-12" points="359.63 575.68 390.18 575.68 390.74 572.78 360.44 572.78 359.63 575.68"/><polygon class="cls-12" points="396.49 575.68 427.04 575.68 427.3 572.78 397 572.78 396.49 575.68"/><polygon class="cls-12" points="434.22 572.78 434.01 575.68 464.56 575.68 464.52 572.78 434.22 572.78"/><polygon class="cls-12" points="470.95 572.78 471.04 575.68 501.59 575.68 501.25 572.78 470.95 572.78"/><polygon class="cls-12" points="506.67 572.78 507.04 575.68 537.59 575.68 536.97 572.78 506.67 572.78"/><polygon class="cls-12" points="543.08 572.78 543.75 575.68 574.3 575.68 573.38 572.78 543.08 572.78"/><polygon class="cls-12" points="581.15 572.78 582.13 575.68 612.67 575.68 611.45 572.78 581.15 572.78"/><polygon class="cls-12" points="618.37 572.78 619.65 575.68 650.19 575.68 648.67 572.78 618.37 572.78"/><polygon class="cls-12" points="655.1 572.78 656.68 575.68 687.22 575.68 685.4 572.78 655.1 572.78"/><polygon class="cls-12" points="692.32 572.78 694.2 575.68 724.74 575.68 722.62 572.78 692.32 572.78"/><polygon class="cls-12" points="173.36 606.32 232.68 606.32 238.05 597.07 180.13 597.07 173.36 606.32"/><polygon class="cls-12" points="181.25 595.55 231.5 595.55 236.76 586.79 187.66 586.79 181.25 595.55"/><polygon class="cls-12" points="165.01 617.72 251.35 617.72 256.42 607.93 172.18 607.93 165.01 617.72"/><polygon class="cls-12" points="677.07 597.07 682.31 606.32 747.07 606.32 740.29 597.07 677.07 597.07"/><polygon class="cls-12" points="664 607.93 669.07 617.72 755.41 617.72 748.24 607.93 664 607.93"/><polygon class="cls-12" points="198.13 629.81 233.25 629.81 238.93 619.43 204.69 619.43 198.13 629.81"/><polygon class="cls-12" points="258.06 617.72 292.16 617.72 296.24 607.93 262.97 607.93 258.06 617.72"/><polygon class="cls-12" points="299.94 617.72 334.04 617.72 337.11 607.93 303.84 607.93 299.94 617.72"/><polygon class="cls-12" points="340.2 617.72 374.3 617.72 376.38 607.93 343.11 607.93 340.2 617.72"/><polygon class="cls-12" points="382.08 617.72 416.18 617.72 417.25 607.93 383.98 607.93 382.08 617.72"/><polygon class="cls-12" points="423 617.72 457.1 617.72 457.18 607.93 423.91 607.93 423 617.72"/><polygon class="cls-12" points="464.77 607.93 464.89 617.72 498.99 617.72 498.05 607.93 464.77 607.93"/><polygon class="cls-12" points="504.05 607.93 505.14 617.72 539.24 617.72 537.32 607.93 504.05 607.93"/><polygon class="cls-12" points="544.92 607.93 547.02 617.72 581.12 617.72 578.19 607.93 544.92 607.93"/><polygon class="cls-12" points="584.03 607.93 587.11 617.72 621.21 617.72 617.3 607.93 584.03 607.93"/><polygon class="cls-12" points="624.89 607.93 628.99 617.72 663.09 617.72 658.16 607.93 624.89 607.93"/><polygon class="cls-12" points="240.22 606.32 273.36 606.32 277.77 597.07 245.41 597.07 240.22 606.32"/><polygon class="cls-12" points="280.92 606.32 314.06 606.32 317.51 597.07 285.15 597.07 280.92 606.32"/><polygon class="cls-12" points="320.03 606.32 353.17 606.32 355.7 597.07 323.35 597.07 320.03 606.32"/><polygon class="cls-12" points="360.73 606.32 393.87 606.32 395.44 597.07 363.08 597.07 360.73 606.32"/><polygon class="cls-12" points="400.5 606.32 433.63 606.32 434.26 597.07 401.91 597.07 400.5 606.32"/><polygon class="cls-12" points="441.65 597.07 441.2 606.32 474.33 606.32 474 597.07 441.65 597.07"/><polygon class="cls-12" points="479.84 597.07 480.31 606.32 513.45 606.32 512.19 597.07 479.84 597.07"/><polygon class="cls-12" points="519.58 597.07 521.01 606.32 554.15 606.32 551.93 597.07 519.58 597.07"/><polygon class="cls-12" points="557.61 597.07 559.96 606.32 593.1 606.32 589.96 597.07 557.61 597.07"/><polygon class="cls-12" points="597.35 597.07 600.66 606.32 633.8 606.32 629.7 597.07 597.35 597.07"/><polygon class="cls-12" points="637.21 597.07 641.49 606.32 674.62 606.32 669.56 597.07 637.21 597.07"/><polygon class="cls-12" points="238.94 595.55 271.16 595.55 275.5 586.79 244.02 586.79 238.94 595.55"/><polygon class="cls-12" points="278.52 595.55 310.74 595.55 314.18 586.79 282.69 586.79 278.52 595.55"/><polygon class="cls-12" points="316.56 595.55 348.78 595.55 351.34 586.79 319.86 586.79 316.56 595.55"/><polygon class="cls-12" points="356.14 595.55 388.36 595.55 390.01 586.79 358.53 586.79 356.14 595.55"/><polygon class="cls-12" points="394.81 595.55 427.03 595.55 427.8 586.79 396.31 586.79 394.81 595.55"/><polygon class="cls-12" points="434.98 586.79 434.39 595.55 466.61 595.55 466.47 586.79 434.98 586.79"/><polygon class="cls-12" points="472.15 586.79 472.43 595.55 504.65 595.55 503.63 586.79 472.15 586.79"/><polygon class="cls-12" points="510.82 586.79 512.01 595.55 544.23 595.55 542.3 586.79 510.82 586.79"/><polygon class="cls-12" points="549.39 586.79 551.49 595.55 583.71 595.55 580.88 586.79 549.39 586.79"/><polygon class="cls-12" points="586.5 586.79 589.47 595.55 621.69 595.55 617.99 586.79 586.5 586.79"/><polygon class="cls-12" points="625.29 586.79 629.17 595.55 661.4 595.55 656.77 586.79 625.29 586.79"/><polygon class="cls-12" points="663.22 586.79 667.99 595.55 700.22 595.55 694.7 586.79 663.22 586.79"/><polygon class="cls-12" points="701.29 586.79 706.96 595.55 739.18 595.55 732.77 586.79 701.29 586.79"/><polygon class="cls-12" points="226.19 585.35 257.55 585.35 262.09 577.05 231.43 577.05 226.19 585.35"/><polygon class="cls-12" points="264.71 585.35 296.07 585.35 299.75 577.05 269.09 577.05 264.71 585.35"/><polygon class="cls-12" points="301.74 585.35 333.1 585.35 335.94 577.05 305.28 577.05 301.74 585.35"/><polygon class="cls-12" points="340.26 585.35 371.62 585.35 373.6 577.05 342.94 577.05 340.26 585.35"/><polygon class="cls-12" points="377.89 585.35 409.26 585.35 410.4 577.05 379.74 577.05 377.89 585.35"/><polygon class="cls-12" points="416.42 585.35 447.78 585.35 448.06 577.05 417.4 577.05 416.42 585.35"/><polygon class="cls-12" points="453.59 577.05 453.44 585.35 484.8 585.35 484.25 577.05 453.59 577.05"/><polygon class="cls-12" points="491.25 577.05 491.96 585.35 523.32 585.35 521.91 577.05 491.25 577.05"/><polygon class="cls-12" points="527.29 577.05 528.82 585.35 560.19 585.35 557.95 577.05 527.29 577.05"/><polygon class="cls-12" points="564.95 577.05 567.35 585.35 598.71 585.35 595.61 577.05 564.95 577.05"/><polygon class="cls-12" points="602.72 577.05 605.99 585.35 637.35 585.35 633.38 577.05 602.72 577.05"/><polygon class="cls-12" points="639.66 577.05 643.77 585.35 675.13 585.35 670.32 577.05 639.66 577.05"/><polygon class="cls-12" points="676.73 577.05 681.69 585.35 731.72 585.35 725.64 577.05 676.73 577.05"/><polygon class="cls-12" points="240.72 629.81 275.85 629.81 280.45 619.43 246.21 619.43 240.72 629.81"/><polygon class="cls-12" points="598.08 619.43 601.61 629.81 636.73 629.81 632.32 619.43 598.08 619.43"/><polygon class="cls-12" points="639.6 619.43 644.2 629.81 679.32 629.81 673.85 619.43 639.6 619.43"/><polygon class="cls-12" points="722.07 618.9 728.77 629.25 763.85 629.25 756.27 618.9 722.07 618.9"/><polygon class="cls-12" points="680.72 618.9 683.21 623.47 717.8 623.47 714.92 618.9 680.72 618.9"/><polygon class="cls-12" points="684.1 625.1 686.67 629.81 721.79 629.81 718.82 625.1 684.1 625.1"/><polygon class="cls-12" points="282.69 629.81 328.52 629.81 331.81 619.43 287.13 619.43 282.69 629.81"/><polygon class="cls-12" points="547.15 619.43 549.38 629.81 595.21 629.81 591.83 619.43 547.15 619.43"/><polygon class="cls-12" points="341 619.43 337.94 629.81 541.47 629.81 539.44 619.43 341 619.43"/><path class="cls-13" d="M858,775.46H344.8l0,0c-1.34,1.83-.37,3.33,2.17,3.33H855.84c2.55,0,3.51-1.5,2.17-3.33Z" transform="translate(-141.18 -210.48)"/><g class="cls-14"><rect class="cls-15" x="640.36" width="49.06" height="498.13"/></g><g class="cls-16"><rect class="cls-17" x="269.58" y="498.14" width="375.04" height="36.94"/></g><polygon class="cls-18" points="269.58 498.78 581.86 498.78 644.62 498.78 644.62 436.01 644.62 0 269.58 0 269.58 498.78"/><rect class="cls-19" x="300.91" y="217.15" width="312.33" height="10.93"/><rect class="cls-19" x="300.86" y="238.97" width="312.38" height="10.93"/><rect class="cls-19" x="300.86" y="260.79" width="312.38" height="10.93"/><rect class="cls-19" x="300.86" y="282.61" width="312.38" height="10.93"/><rect class="cls-19" x="300.86" y="304.43" width="312.38" height="10.93"/><rect class="cls-19" x="300.86" y="326.25" width="312.38" height="10.93"/><rect class="cls-19" x="300.86" y="348.08" width="312.38" height="10.93"/><rect class="cls-19" x="300.86" y="369.9" width="312.38" height="10.93"/><rect class="cls-19" x="300.86" y="391.72" width="313.23" height="10.93"/><rect class="cls-19" x="300.12" y="413.54" width="313.97" height="10.93"/><rect class="cls-19" x="300.12" y="435.36" width="313.97" height="10.93"/><rect class="cls-19" x="300.12" y="457.18" width="313.12" height="10.93"/><rect class="cls-19" x="300.91" y="151.68" width="312.33" height="10.93"/><rect class="cls-19" x="300.91" y="173.5" width="312.33" height="10.93"/><rect class="cls-19" x="300.91" y="195.32" width="312.33" height="10.93"/><rect class="cls-20" x="300.91" y="28.63" width="312.38" height="112.16"/><path class="cls-18" d="M521.29,331.54a3.74,3.74,0,0,1-6.42-2.68V261.53a3.6,3.6,0,0,1,3.74-3.73h19.16a25,25,0,0,1,12.5,3.11,22,22,0,0,1,8.57,8.62,25.47,25.47,0,0,1,3.06,12.59,25,25,0,0,1-3.06,12.45,21.8,21.8,0,0,1-8.57,8.52,25.26,25.26,0,0,1-12.5,3.07H522.34v22.7A3.63,3.63,0,0,1,521.29,331.54Zm25.19-34.72a15.42,15.42,0,0,0,6-6,17.47,17.47,0,0,0,2.16-8.72,17.94,17.94,0,0,0-2.16-8.86,15.66,15.66,0,0,0-6-6.08,17.17,17.17,0,0,0-8.72-2.2H522.34v34h15.42A17.47,17.47,0,0,0,546.48,296.82Z" transform="translate(-141.18 -210.48)"/><path class="cls-18" d="M613.81,262.58a34,34,0,0,1,13.27,13.27,41.74,41.74,0,0,1,0,38.65,33.86,33.86,0,0,1-13.27,13.31,38.81,38.81,0,0,1-19.35,4.79H577.23a3.6,3.6,0,0,1-3.74-3.74V261.53a3.6,3.6,0,0,1,3.74-3.73h17.24A38.82,38.82,0,0,1,613.81,262.58ZM610,321.91a28.08,28.08,0,0,0,10.63-11,34.51,34.51,0,0,0,0-31.61A27.77,27.77,0,0,0,610,268.42a30.47,30.47,0,0,0-15.52-3.93H581v61.39h13.5A30.17,30.17,0,0,0,610,321.91Z" transform="translate(-141.18 -210.48)"/><path class="cls-18" d="M681.43,292.41a3.47,3.47,0,0,1,1.05,2.63,3.51,3.51,0,0,1-1.05,2.59,3.63,3.63,0,0,1-2.68,1.05h-30v30.17a3.68,3.68,0,0,1-1.05,2.63,3.55,3.55,0,0,1-2.68,1.1,3.76,3.76,0,0,1-3.73-3.74V261.53a3.55,3.55,0,0,1,1.1-2.68,3.68,3.68,0,0,1,2.63-1.05H690a3.64,3.64,0,0,1,2.68,1.05,3.52,3.52,0,0,1,1.05,2.59,3.36,3.36,0,0,1-1.05,2.54,3.73,3.73,0,0,1-2.68,1H648.77v26.44h30A3.73,3.73,0,0,1,681.43,292.41Z" transform="translate(-141.18 -210.48)"/><g class="cls-21"><circle class="cls-22" cx="621.09" cy="465.18" r="61.47"/><circle class="cls-23" cx="620.63" cy="464.57" r="61.47"/><circle class="cls-24" cx="620.17" cy="463.95" r="61.47"/><circle class="cls-25" cx="619.71" cy="463.34" r="61.47"/><circle class="cls-26" cx="619.24" cy="462.72" r="61.47"/><circle class="cls-27" cx="618.78" cy="462.11" r="61.47"/><circle class="cls-28" cx="618.32" cy="461.49" r="61.47"/><circle class="cls-29" cx="617.86" cy="460.88" r="61.47"/><circle class="cls-30" cx="617.4" cy="460.26" r="61.47"/><circle class="cls-31" cx="616.94" cy="459.65" r="61.47"/><circle class="cls-32" cx="616.47" cy="459.03" r="61.47"/><circle class="cls-33" cx="616.01" cy="458.42" r="61.47"/><circle class="cls-34" cx="615.55" cy="457.8" r="61.47"/><circle cx="615.09" cy="457.18" r="61.47"/></g><g class="cls-21"><circle class="cls-22" cx="609.09" cy="465.18" r="61.47"/><circle class="cls-23" cx="609.55" cy="464.57" r="61.47"/><circle class="cls-24" cx="610.01" cy="463.95" r="61.47"/><circle class="cls-25" cx="610.47" cy="463.34" r="61.47"/><circle class="cls-26" cx="610.94" cy="462.72" r="61.47"/><circle class="cls-27" cx="611.4" cy="462.11" r="61.47"/><circle class="cls-28" cx="611.86" cy="461.49" r="61.47"/><circle class="cls-29" cx="612.32" cy="460.88" r="61.47"/><circle class="cls-30" cx="612.78" cy="460.26" r="61.47"/><circle class="cls-31" cx="613.24" cy="459.65" r="61.47"/><circle class="cls-32" cx="613.71" cy="459.03" r="61.47"/><circle class="cls-33" cx="614.17" cy="458.42" r="61.47"/><circle class="cls-34" cx="614.63" cy="457.8" r="61.47"/><circle cx="615.09" cy="457.18" r="61.47"/></g><circle class="cls-35" cx="615.09" cy="457.18" r="61.47"/><polygon class="cls-18" points="627.17 418.69 603.01 418.69 603.01 457.62 583.52 457.62 599.31 476.65 615.09 495.68 630.88 476.65 646.66 457.62 627.17 457.62 627.17 418.69"/></g></g></svg>