<svg id="Слой_1" data-name="Слой 1" xmlns="http://www.w3.org/2000/svg" xmlns:xlink="http://www.w3.org/1999/xlink" viewBox="0 0 2086.86 1697.42"><defs><style>.cls-1{fill:url(#linear-gradient);}.cls-2{fill:url(#linear-gradient-2);}.cls-3{fill:url(#linear-gradient-3);}.cls-4{fill:url(#linear-gradient-4);}.cls-5{fill:#98a6b1;}.cls-6{fill:url(#linear-gradient-5);}.cls-7{fill:url(#linear-gradient-6);}.cls-8{fill:#706865;}.cls-9{fill:#bdafaa;}.cls-10{fill:#fff;}.cls-11{fill:#ffb955;}.cls-12{fill:#cfcfcf;}.cls-13{fill:#eea886;}.cls-14{fill:#db9c7c;}.cls-15{fill:#323657;}.cls-16{fill:#4da8f2;}.cls-17{fill:#efaa88;}.cls-18{fill:#424773;}.cls-19{fill:#292c47;}.cls-20{fill:#d88a51;}.cls-21{fill:#e2d2ca;}.cls-22{fill:#dfe1e8;}.cls-23{fill:#385369;}.cls-24{fill:url(#linear-gradient-7);}.cls-25{fill:#ffce55;}.cls-26{fill:#cf8c6c;}.cls-27{fill:#555c94;}.cls-28{fill:#354c70;}.cls-29{fill:#deb135;}.cls-30{fill:#f2c344;}.cls-31{fill:#d9d0c4;}.cls-32{fill:#ffb355;}.cls-33{fill:#eea987;}.cls-34{fill:#ffd255;}.cls-35{fill:#3c5780;}.cls-36{fill:#fccca2;}.cls-37{fill:#c48a6f;}.cls-38{fill:#e8734d;}.cls-39{fill:#293b57;}.cls-40{fill:#fb5;}.cls-41{fill:#e09e7f;}.cls-42{fill:#665249;}.cls-43{fill:#2e2626;}.cls-44{fill:#2f6b8c;}.cls-45{fill:#a77860;}.cls-46{fill:#4b5182;}.cls-47{fill:#22243b;}.cls-48{fill:#5c5c5c;}.cls-49{fill:#a87860;}.cls-50{fill:#5c5049;}.cls-51{fill:#fab46c;}.cls-52{fill:#d4c3bd;}.cls-53{fill:#de9673;}.cls-54{fill:#e6d3cc;}.cls-55{fill:#ded1c5;}.cls-56{fill:#bc8551;}.cls-57{fill:#23344a;}.cls-58{fill:#807066;}.cls-59{fill:#ffd078;}.cls-60{fill:#ffd887;}.cls-61{fill:#ffd989;}.cls-62{fill:#d6d6d6;}.cls-63{fill:#e8e8e8;}.cls-64{fill:#c2c2c2;}.cls-65{fill:#e0e0e0;}</style><linearGradient id="linear-gradient" x1="4188.89" y1="364.48" x2="3881.12" y2="-31.79" gradientTransform="translate(-1349.6 -21.75) rotate(17.79)" gradientUnits="userSpaceOnUse"><stop offset="0" stop-color="#ff9f55"/><stop offset="1" stop-color="#ffd255"/></linearGradient><linearGradient id="linear-gradient-2" x1="1279.77" y1="1253.21" x2="1248.56" y2="1213.02" gradientTransform="matrix(1, 0, 0, 1, 0, 0)" xlink:href="#linear-gradient"/><linearGradient id="linear-gradient-3" x1="1263.48" y1="1342.61" x2="1223.73" y2="1291.42" gradientTransform="matrix(1, 0, 0, 1, 0, 0)" xlink:href="#linear-gradient"/><linearGradient id="linear-gradient-4" x1="1432.14" y1="1305.18" x2="1401.81" y2="1266.12" gradientTransform="matrix(1, 0, 0, 1, 0, 0)" xlink:href="#linear-gradient"/><linearGradient id="linear-gradient-5" x1="1348.43" y1="1319.93" x2="872.04" y2="706.54" gradientTransform="matrix(1, 0, 0, 1, 0, 0)" xlink:href="#linear-gradient"/><linearGradient id="linear-gradient-6" x1="1568.14" y1="1602.81" x2="848.69" y2="676.46" gradientTransform="matrix(1, 0, 0, 1, 0, 0)" xlink:href="#linear-gradient"/><linearGradient id="linear-gradient-7" x1="4300.82" y1="-1275.57" x2="3980.09" y2="-1688.54" gradientTransform="matrix(0.85, 0.53, -0.53, 0.85, -2447.19, -161.27)" xlink:href="#linear-gradient"/></defs><title>real-time-collaboration</title><path class="cls-1" d="M2511,1260.35l-4.23-77.22-166.25-24-25.94,72.83a398.7,398.7,0,0,0-47.44,8.12l39.18,185.69a206.43,206.43,0,0,1,171.77,32.07l90.37-167.69A392.52,392.52,0,0,0,2511,1260.35Z" transform="translate(-481.59 -151.29)"/><path class="cls-2" d="M1159.26,1290.37v-8a202.12,202.12,0,0,0,188.46-127.43l7.42,3A210.08,210.08,0,0,1,1159.26,1290.37Z" transform="translate(-481.59 -151.29)"/><path class="cls-3" d="M1159.26,1349.48v-8a267.39,267.39,0,0,0,167.59-58.24l5,6.27A275.32,275.32,0,0,1,1159.26,1349.48Z" transform="translate(-481.59 -151.29)"/><path class="cls-4" d="M1356.12,1363.24l-4.48-6.63a344.59,344.59,0,0,0,122.7-146.82l7.32,3.22A352.58,352.58,0,0,1,1356.12,1363.24Z" transform="translate(-481.59 -151.29)"/><rect class="cls-5" x="1904.18" y="403.82" width="8" height="209.3" transform="translate(-328.22 1262.9) rotate(-42.22)"/><path class="cls-6" d="M962.08,1504l-142.21-101.2,31.8-71.25a396.91,396.91,0,0,1-56.17-89.76l-78.07-2.48-29-172.09,73-27.93A396.69,396.69,0,0,1,785,936.07l-53.38-56.89L832.84,737l71.25,31.81a397,397,0,0,1,89.79-56.17l2.48-78,172.09-29,27.91,73a396.7,396.7,0,0,1,103.24,23.64l56.89-53.38,142.21,101.18-31.81,71.25A397.64,397.64,0,0,1,1523,911l78,2.48,29,172.09-72.93,27.91a399.75,399.75,0,0,1-7.07,46.49l-0.86,4-192-47.29,0.68-3.71a202.82,202.82,0,0,0-81.57-201.14c-90.72-64.56-217.06-43.27-281.61,47.45s-43.26,217,47.45,281.61a201,201,0,0,0,61.86,29.77l3.52,1-36.81,194.42-4.07-1a395.77,395.77,0,0,1-47.73-14.53ZM829.85,1400.07l131.53,93.61,55.76-52.32,2.34,0.89a387.92,387.92,0,0,0,45,14.12l33.89-179a209.09,209.09,0,0,1-60.81-29.92C943.25,1180.3,921.12,1049,988.22,954.66S1186.67,838.22,1281,905.33a210.89,210.89,0,0,1,85.45,205.39l176.66,43.52a391.67,391.67,0,0,0,6.3-44l0.21-2.5,71.49-27.35-26.82-159.17-76.5-2.43-1-2.29a389.67,389.67,0,0,0-57.62-92.11l-1.61-1.92,31.18-69.83-131.53-93.58-55.76,52.33-2.34-.9a388.69,388.69,0,0,0-105.91-24.26l-2.5-.21-27.35-71.51-159.17,26.84-2.43,76.5-2.29,1a389,389,0,0,0-92.11,57.62l-1.92,1.61L835.56,747,742,878.49l52.33,55.76-0.9,2.34a388.74,388.74,0,0,0-24.26,105.89l-0.21,2.5-71.51,27.38,26.82,159.17,76.52,2.43,1,2.29a388.94,388.94,0,0,0,57.62,92.09l1.61,1.92Z" transform="translate(-481.59 -151.29)"/><path class="cls-7" d="M1611.66,1000.17l-14-82.82-77.28-2.45a394,394,0,0,0-58.2-93.06l31.49-70.53-136.87-97.4-56.31,52.85a389.27,389.27,0,0,0-43.21-13.72l-34.8,187.3a206.22,206.22,0,0,1,139.36,233.35l184.3,45.4a395.93,395.93,0,0,0,7.22-48.5l72.19-27.63ZM991.49,957a204.88,204.88,0,0,1,57.67-54.67L955.11,737.48a391,391,0,0,0-50.37,36L834.21,742,785.52,810.4l-48.69,68.43,52.85,56.33a392.58,392.58,0,0,0-24.52,107l-72.23,27.65,14,82.82,13.95,82.82,77.27,2.45a393.37,393.37,0,0,0,58.22,93l-31.49,70.53,68.43,48.73,68.45,48.69L1018,1446a388.76,388.76,0,0,0,49.57,15.25L1103,1274.53a205,205,0,0,1-63.1-30.34C947.21,1178.22,925.55,1049.64,991.49,957Z" transform="translate(-481.59 -151.29)"/><rect class="cls-8" x="639.22" y="1256.75" width="8.52" height="387.33"/><rect class="cls-8" x="447.79" y="1256.75" width="8.52" height="387.33"/><rect class="cls-9" x="404.91" y="1094.94" width="280.38" height="485.21" rx="25.58" ry="25.58"/><rect class="cls-10" x="412.6" y="1102.75" width="265" height="458.44" rx="25.27" ry="25.27"/><rect class="cls-8" x="503.32" y="1091.26" width="83.55" height="18.87"/><path class="cls-11" d="M953.65,555.63a160.05,160.05,0,0,0,10-43.55L993,500.83l-5.68-33.72-5.68-33.72-31.46-1a160,160,0,0,0-23.7-37.88l12.82-28.72L911.47,346l-27.86-19.82-22.93,21.52a160.06,160.06,0,0,0-43.55-10L805.88,308.3,772.16,314l-33.72,5.68-1,31.46a160.06,160.06,0,0,0-37.88,23.7L670.86,362,651,389.86l-19.82,27.86,21.52,22.93a160,160,0,0,0-10,43.55l-29.39,11.25L619,529.17l5.68,33.72,31.46,1a160.08,160.08,0,0,0,23.7,37.88l-12.82,28.72,27.86,19.82,27.86,19.83L745.7,648.6a160.06,160.06,0,0,0,43.55,10L800.5,688l33.72-5.68,33.72-5.68,1-31.46a160,160,0,0,0,37.88-23.7l28.72,12.82,19.82-27.86,19.82-27.86ZM754.58,566.45a83.83,83.83,0,1,1,116.91-19.7A83.83,83.83,0,0,1,754.58,566.45Z" transform="translate(-481.59 -151.29)"/><path class="cls-12" d="M1022.87,1468.31l-5.55-14.5a78.78,78.78,0,0,1-16.56-3.79l-11.31,10.62-31.37-22.33,6.32-14.16a78.77,78.77,0,0,1-9-14.4l-15.52-.49-6.4-38,14.5-5.55a78.9,78.9,0,0,1,3.79-16.56l-10.62-11.31,22.33-31.38,14.17,6.32a78.78,78.78,0,0,1,14.4-9l0.49-15.52,38-6.4,5.55,14.5a78.84,78.84,0,0,1,16.56,3.79l11.31-10.62,31.38,22.33-6.32,14.16a78.77,78.77,0,0,1,9,14.4l15.51,0.49,6.4,38-14.5,5.55a78.78,78.78,0,0,1-3.79,16.56l10.62,11.31-22.33,31.38-14.16-6.32a78.79,78.79,0,0,1-14.4,9l-0.49,15.51Zm-24-27.52,2.34,0.9a70.84,70.84,0,0,0,19.27,4.41l2.5,0.21,5,13,25.06-4.22,0.44-13.93,2.29-1a70.78,70.78,0,0,0,16.76-10.48l1.92-1.61,12.72,5.68,14.73-20.7-9.53-10.16,0.9-2.34a70.82,70.82,0,0,0,4.42-19.27l0.21-2.5,13-5-4.22-25.06-13.93-.44-1-2.29a70.76,70.76,0,0,0-10.48-16.76l-1.61-1.92,5.68-12.72-20.7-14.73-10.16,9.53-2.34-.9a70.81,70.81,0,0,0-19.27-4.42l-2.5-.21-5-13-25.06,4.22L999.88,1309l-2.29,1a70.78,70.78,0,0,0-16.76,10.48l-1.92,1.61-12.72-5.68-14.73,20.7,9.53,10.16-0.9,2.34a70.83,70.83,0,0,0-4.42,19.27l-0.21,2.5-13,5,4.22,25.06,13.93,0.44,1,2.29A70.83,70.83,0,0,0,972.11,1421l1.61,1.92L968,1435.59l20.7,14.73Z" transform="translate(-481.59 -151.29)"/><path class="cls-12" d="M1044.74,1414.33l-3.34-7.27a35.23,35.23,0,0,0,20.32-28.7l8,0.74A43.23,43.23,0,0,1,1044.74,1414.33Zm-43-4-0.18-.12a43.26,43.26,0,0,1-18.1-35.18q0-2,.19-4l8,0.75c-0.1,1.09-.15,2.19-0.15,3.29a35.28,35.28,0,0,0,14.79,28.7Zm45.26-64a34.94,34.94,0,0,0-20.32-6.49h0a35.59,35.59,0,0,0-14.69,3.2l-3.33-7.28a43.63,43.63,0,0,1,18-3.92h0a42.9,42.9,0,0,1,25,8Z" transform="translate(-481.59 -151.29)"/><path class="cls-12" d="M1082.15,1555.63l-3.06-8a43.12,43.12,0,0,1-6.82-1.56l-6.24,5.85-19-13.51,3.49-7.81a43.29,43.29,0,0,1-3.71-5.93l-8.55-.27-3.87-23,8-3.06a43.21,43.21,0,0,1,1.56-6.82l-5.85-6.24,13.51-19,7.81,3.49a43.2,43.2,0,0,1,5.93-3.71l0.27-8.55,23-3.87,3.06,8a43.06,43.06,0,0,1,6.82,1.56l6.24-5.85,19,13.51-3.49,7.81a43.13,43.13,0,0,1,3.71,5.93l8.55,0.27,3.87,23-8,3.06a43.2,43.2,0,0,1-1.56,6.82l5.85,6.24-13.51,19-7.81-3.49a43.15,43.15,0,0,1-5.93,3.71l-0.27,8.55Zm-11.76-18.76,2.34,0.9a35.16,35.16,0,0,0,9.58,2.19l2.5,0.21,2.48,6.48,10.05-1.69,0.22-6.93,2.29-1a35.19,35.19,0,0,0,8.33-5.21l1.92-1.61,6.33,2.82,5.91-8.31-4.74-5.05,0.9-2.34a35.2,35.2,0,0,0,2.19-9.58l0.21-2.5,6.48-2.48-1.69-10.05-6.93-.22-1-2.29a35.22,35.22,0,0,0-5.21-8.33l-1.61-1.92,2.83-6.33-8.31-5.91-5.05,4.74-2.34-.9a35.2,35.2,0,0,0-9.58-2.2l-2.5-.21-2.48-6.48-10.05,1.69-0.22,6.93-2.29,1a35.2,35.2,0,0,0-8.33,5.21l-1.92,1.61-6.33-2.83-5.91,8.31,4.74,5.05-0.9,2.34a35.21,35.21,0,0,0-2.19,9.58l-0.21,2.5-6.48,2.48,1.69,10.05,6.93,0.22,1,2.29a35.21,35.21,0,0,0,5.21,8.33l1.61,1.92-2.83,6.33,8.31,5.91Zm14.94-7.68a24.35,24.35,0,0,1-14.17-4.55h0a24.53,24.53,0,1,1,18.3,4.2A24.81,24.81,0,0,1,1085.33,1529.19Zm0.08-41.06a16.52,16.52,0,0,0-9.61,30h0A16.53,16.53,0,1,0,1085.4,1488.13Z" transform="translate(-481.59 -151.29)"/><path class="cls-13" d="M877.54,1580.73a16.69,16.69,0,0,1,2.16,5.72c0.19,2,1.9,5.08,2.64,6.75s3.13,9.28,3.21,11.26c0,0.81-1.77,5.91-1.51,7.54s1.19,4.86-.28,5.08-3.12-2.43-3.12-2.43a2.15,2.15,0,0,1-1.1,2.08c-2.41,1.11-3.68.13-3.68,0.13s-0.89,1.65-2,1.87a4.54,4.54,0,0,1-3.67-.5,4.44,4.44,0,0,1-2.78.89,3.65,3.65,0,0,1-3.09-1.92s-2.75.56-3.55-.73-0.66-2.65-1-3.82-0.08-11.68,3.49-19.24-0.91-15-.91-15Z" transform="translate(-481.59 -151.29)"/><path class="cls-14" d="M881,1613.66s0.24-9.43-2.24-11.44-2.76,1.4-2.76,1.4,0.34-3.36-2.38-3.82-2.83,3.54-2.83,3.54a2.62,2.62,0,0,0-3.29-2.06c-2.85.53-2.17,3.84-2.17,3.84s-2.72-3.25-4.49-.13c-3,5.27-.11,11.48-0.11,11.48s0.84,1.43,3.55.73c0,0,1.81,3.65,5.87,1,0,0,4.16,2.29,5.67-1.38C875.86,1616.85,880.44,1619,881,1613.66Z" transform="translate(-481.59 -151.29)"/><path class="cls-15" d="M909.54,1444.86s-16.15,53.81-21.6,73.66c-1.71,6.23-5.85,65.68-6.58,68.07s-21.21,5.67-21.21,5.67,2.48-74.37,2.71-78.43,22.6-87.11,29.1-90.07c4.87-2.22,7.45-.38,13.59,4.17C914.16,1434.34,909.54,1444.86,909.54,1444.86Z" transform="translate(-481.59 -151.29)"/><rect class="cls-16" x="1064.29" y="1357.12" width="44.17" height="3.28" transform="translate(-1048.29 665.45) rotate(-33.2)"/><path class="cls-17" d="M1109.69,1359.2a9.65,9.65,0,0,1-1,2.93s-1.21,1.44-2,2.52a9.11,9.11,0,0,0-.58.86,17.67,17.67,0,0,1-3.05,4.75c-1.76,1.79-8.61,7.46-8.61,7.46l-5.87-5-6.1-2.73s3.42-14.84,4.86-16.7a6,6,0,0,1,.44-0.5c1.38-1.45,3-2,3.82-2.63,0.3-.25,3.44-2.51,4.55-2.22a3.77,3.77,0,0,1,2.82,2.35s3,0.92,4.18,2.69a5.61,5.61,0,0,1,3.63,3.37S1109.57,1357.45,1109.69,1359.2Z" transform="translate(-481.59 -151.29)"/><path class="cls-18" d="M896.44,1812.29S895,1822.5,894.78,1824s-16.37-.9-16.37-0.9L877.1,1811S894.41,1810.85,896.44,1812.29Z" transform="translate(-481.59 -151.29)"/><path class="cls-19" d="M895,1822.74s5.13,6.16,10.09,8.84,12.76,3.75,15.69,6.52c2.12,2,7.71,10.64-12.89,10.46s-30.54,1.22-32.75-2.09,3.19-24.43,3.19-24.43S883.17,1823.8,895,1822.74Z" transform="translate(-481.59 -151.29)"/><path class="cls-18" d="M1012.43,1812.29s-1.47,10.21-1.66,11.75-16.37-.9-16.37-0.9L993.09,1811S1010.41,1810.85,1012.43,1812.29Z" transform="translate(-481.59 -151.29)"/><path class="cls-19" d="M1010.95,1822.74s5.13,6.16,10.09,8.84,23.22,4.89,26.15,7.66c2.12,2,5.64,10.08-23.35,9.32-20.6-.54-30.54,1.22-32.75-2.09s3.19-24.43,3.19-24.43S998.88,1823.92,1010.95,1822.74Z" transform="translate(-481.59 -151.29)"/><path class="cls-19" d="M909.84,1549.79s-15.21,24.17-14.08,46-5.52,45.7-7.8,68.52c-2.55,25.44-13,85.67-13.35,99.28s1.62,57.06,1.62,57.06l20.87,0.48s17.53-105.29,22.07-116,27-87.34,27.81-95.93S909.84,1549.79,909.84,1549.79Z" transform="translate(-481.59 -151.29)"/><path class="cls-19" d="M989.92,1553.06s11.46,59.88,13,73.25,2.52,64.71,3.28,73.06,7.07,109.1,9.08,121.77H988.57s-20.48-73.42-20.48-108.16-15.82-75.52-26-98.44-33.59-23.46-39.87-66C902.19,1548.55,981.42,1539.57,989.92,1553.06Z" transform="translate(-481.59 -151.29)"/><path class="cls-13" d="M935.22,1346.6s20.42-7.63,29.83,7.91,8.51,46.66-1.78,50.48-25.75,1.83-31-7.9-10-23.78-9.8-33.18S929.86,1349.31,935.22,1346.6Z" transform="translate(-481.59 -151.29)"/><path class="cls-13" d="M961.05,1405.71s-0.85,5.51.55,8.23-26.45,2.79-26.45,2.79a183.52,183.52,0,0,0-6.55-27.25C924.32,1377,961.05,1405.71,961.05,1405.71Z" transform="translate(-481.59 -151.29)"/><path class="cls-20" d="M928.61,1389.48s1.92,3.17,9.77,1.94,17.42-11.67,20.7-12.82,3.31-3.07,3.31-3.07l2.05,3,3.48,0.22s-3.17-9.34,1.61-13.15-5-30.23-30.14-21.43c0,0-19.33,5.33-18.63,16.32S924.28,1384,928.61,1389.48Z" transform="translate(-481.59 -151.29)"/><path class="cls-21" d="M963.26,1413.61s-0.09-5.19-2.44-5.69-26-2.77-28.84-1.63v6S937.54,1415.76,963.26,1413.61Z" transform="translate(-481.59 -151.29)"/><path class="cls-13" d="M961.87,1371.53c-0.44-1.84-5.13-7.11-6.92-1.47s2.71,13.23,5.23,12.58S963,1376.2,961.87,1371.53Z" transform="translate(-481.59 -151.29)"/><path class="cls-15" d="M1002.31,1421.47c-16.19-2.13-39-7.86-39-7.86L932,1412.34s-28.71,6.32-40,11.43c-1.07.48-1.08,25.62-4,32.21l9.38,19.78s5.41,39.18,6.54,56.6c0.52,8-11.17,75-11.17,75s12.52,3.69,33.87,6,74.7-.85,75-3.37-10.33-93.9-10.8-98.64c-0.72-7.26,2.5-45.86,2.5-45.86,4.93-3.82,48.21-23.92,60-34.39,3.16-2.8,16.5-15.79,20.29-20.27,13.43-15.88,24.43-29.5,25.77-32.43,1.52-1.67-15-10.57-16.51-11.06-1.28-.43-19,23.24-26,30.8-3.12,3.37-16.06,12.79-16.06,12.79S1012.43,1422.05,1002.31,1421.47Z" transform="translate(-481.59 -151.29)"/><path class="cls-20" d="M929.41,1348.44s-26,2-.8,41Z" transform="translate(-481.59 -151.29)"/><polygon class="cls-22" points="624.16 1196.74 626.29 1193.49 622.36 1194 624.16 1196.74"/><path class="cls-23" d="M1837.85,435.8a20.54,20.54,0,0,0,20.51-20.51h-4.83a15.68,15.68,0,1,1-15.68-15.68h2.42V151.29h-4.83V394.92A20.51,20.51,0,0,0,1837.85,435.8Z" transform="translate(-481.59 -151.29)"/><rect class="cls-5" x="1832.29" y="276.61" width="11.55" height="117.26" transform="translate(3194.54 519.18) rotate(180)"/><polygon class="cls-5" points="1218.79 437.37 1212.86 431.99 1356.59 273.77 1361.85 279.88 1218.79 437.37"/><path class="cls-24" d="M2075,740.74a392.62,392.62,0,0,0,45.79-40.3L1989,563.85a206.15,206.15,0,0,1-304.77-1.78l-129.37,139.2a390,390,0,0,0,43.66,38.4l-15.05,75.84L1661,847.82l77.53,32.29L1781.76,816a394.2,394.2,0,0,0,109.77.29l42.93,64.22,77.66-32,77.66-32Z" transform="translate(-481.59 -151.29)"/><polygon class="cls-25" points="1209.23 1086.75 1079.95 1086.75 1079.95 1180.46 1079.95 1200.2 1099.69 1180.46 1209.23 1180.46 1209.23 1086.75"/><path class="cls-13" d="M1562.91,1450.63s2.79-6.92,3.25-8,3.15-2.75,6.41-4.43,8.42-2.5,9-2.2a3.2,3.2,0,0,1,2,1.82,6.17,6.17,0,0,1,.51,3.08,3.75,3.75,0,0,1,1.33,3.37,3.26,3.26,0,0,1,.74,3.56s1.49,1.39.76,2.92a24.8,24.8,0,0,0-3.51,2.63c-0.81.92-6.66,4.09-12.73,6.27C1570.6,1459.7,1564.17,1459.82,1562.91,1450.63Z" transform="translate(-481.59 -151.29)"/><path class="cls-26" d="M1572.81,1446.86s0.07,3.75-.45,4.81,7.6,3.42,7.6,3.42S1577.37,1446.89,1572.81,1446.86Z" transform="translate(-481.59 -151.29)"/><polygon class="cls-27" points="939.84 1661.94 943.38 1650.9 958.37 1653.33 956.13 1663.28 939.84 1661.94"/><polygon class="cls-27" points="1062.7 1660.63 1063.54 1666.7 1079.95 1663.96 1079.08 1654.9 1062.7 1660.63"/><path class="cls-28" d="M1508.75,1642s-2.42,13.17-5.22,27.79c-0.49,2.55-1,5.14-1.49,7.71-2.74,14.09-5.51,27.64-6.53,30.44-2.33,6.37-52.57,98.44-52.57,98.44s-20.55-1.56-21.31-4.21c0,0,42.12-100,41.88-103.61s5.15-106.12,5.15-106.12S1507.64,1636,1508.75,1642Z" transform="translate(-481.59 -151.29)"/><path class="cls-28" d="M1531.71,1586.54s19.66,100.67,21.34,108.38,9.13,110.83,9.13,110.83-4.42,9.11-20.74,5.68c0,0-22.25-110.8-24.13-114.51-7.28-14.41-43-84.21-46.46-94.18s-2.45-21.59-2.45-21.59S1495,1566.24,1531.71,1586.54Z" transform="translate(-481.59 -151.29)"/><path class="cls-29" d="M1523.45,1456.15s8.62,21.5,10.79,20.86,26.95-29.73,26.95-29.73,11.34,14.15,9.82,15.77c-2.12,2.26-31.38,50.92-35.41,50s-22-30.62-22-30.62S1512.56,1460,1523.45,1456.15Z" transform="translate(-481.59 -151.29)"/><path class="cls-30" d="M1486.57,1415.1s22.36,17.09,28.53,23.87,23.2,34.89,22,43.35c-4.71,32.42-6.95,60.05-7.09,82.17-0.12,19.27,6,24.19,2.19,24.47-4.39.33-60.66,20.72-69,23.2,0,0,5.46-67.85,8.22-75.68S1462.57,1446.6,1486.57,1415.1Z" transform="translate(-481.59 -151.29)"/><path class="cls-31" d="M1630.58,1382.68l5,25.28,5,25.28s-28.71-9-61.29-2.52l-2.21-11.15-2.23-11.21C1607.47,1401.89,1630.58,1382.68,1630.58,1382.68Z" transform="translate(-481.59 -151.29)"/><path class="cls-32" d="M1545.13,1818s12.38-2.4,12.82-2.77,3.09-5.27,5-4.42,1.94,6.81,3.81,7.82,16.66,11,18.47,12.81,13,0.75,14.3,3.91,1.39,10.62-15.31,8.87-35.78,1-39.37-1S1544,1822.8,1545.13,1818Z" transform="translate(-481.59 -151.29)"/><path class="cls-32" d="M1421.23,1813s12.61-.38,13.1-0.69,3.89-4.71,5.65-3.56,0.82,7,2.51,8.33,14.68,13.52,16.18,15.6,12.73,2.82,13.49,6.15-0.33,10.71-16.53,6.3-35.47-4.78-38.7-7.3S1419.33,1817.52,1421.23,1813Z" transform="translate(-481.59 -151.29)"/><path class="cls-33" d="M1519.16,1591.21s1.51,6.13,3.93,7.46-11.28,14.43-11.28,14.43-5.56-12.15-5.41-13.37S1519.16,1591.21,1519.16,1591.21Z" transform="translate(-481.59 -151.29)"/><path class="cls-34" d="M1476.64,1441.61s-16,76.34-17.36,84.15c-1.24,7.4,47.05,78,47.05,78l16.06-9.53s-39-70.86-38.91-74.09,18.71-64.77,18.71-64.77,7.79-13.4-6-19.91S1476.64,1441.61,1476.64,1441.61Z" transform="translate(-481.59 -151.29)"/><path class="cls-35" d="M1528.58,1596.47s5.22,26,4.9,33.91-30-12.51-28.46-20.42Z" transform="translate(-481.59 -151.29)"/><path class="cls-13" d="M1486.57,1415.1s40.73,44.49,38.22,39.56c-8.94-17.58-15.19-20.55-15.06-23.83,0.1-2.51.91-9.76,1.08-12.21,0.32-4.66.83-8.51,0.83-8.51s-20.22-28.4-19.33-18.73S1486.57,1415.1,1486.57,1415.1Z" transform="translate(-481.59 -151.29)"/><path class="cls-13" d="M1525.36,1362.73s5.6,13.14,5.68,16.22-0.7,5.44-.22,9,3.57,11.37,3.19,13.5c-0.46,2.57-5.88,1.23-6.63,5.47s-4.69,12.21-6.65,12.37c-5,.41-24.35-7.46-25.58-11.5s-8.23-26.56-10.4-30.85,34-27.76,37.31-21Z" transform="translate(-481.59 -151.29)"/><path class="cls-36" d="M1476.14,1372.48c-2.56-11.15,10.26-12.53,10.26-12.53s8.35-9.72,28.32-8.56,16.93,27.22,16.93,27.22-13.82-2.07-19.83-.55c0,0-.73,11.13-0.08,13.89l-7.53-.67s0.84-9.88-2.78-10.35-4.83,20.92-11.57,25.63a7.38,7.38,0,0,0-.91-3h0a86,86,0,0,1-5.24-10.91C1480.78,1386.21,1477.45,1378.2,1476.14,1372.48Z" transform="translate(-481.59 -151.29)"/><path class="cls-13" d="M1506.45,1383.33s-2.8-7.54-9.43-2.65c-4.82,3.56.14,16.29,4.83,16.23S1508.45,1389.92,1506.45,1383.33Z" transform="translate(-481.59 -151.29)"/><path class="cls-37" d="M1494.06,1404.26s1,4,2.06,4.94a43.3,43.3,0,0,0,15,7.82l-0.87,8S1493.18,1418.31,1494.06,1404.26Z" transform="translate(-481.59 -151.29)"/><path class="cls-38" d="M1583.88,1458.37l2.87-1.37-13-27.65-7.31,3.44,11,23.43C1578.69,1458.84,1581.27,1459.6,1583.88,1458.37Z" transform="translate(-481.59 -151.29)"/><path class="cls-14" d="M1580.66,1436.45s-8.15,4.47-7.59,5.88a2.36,2.36,0,0,0,1.61,1.58l-2.52,3.36s-0.41,3.17,3.16,2.69c0,0-.69,2.92,2.7,2,0,0,.4,2.13,2,2s6.77-3.22,6.77-3.22,0.79-1.14-.76-2.92a3.21,3.21,0,0,0-.74-3.56,3.53,3.53,0,0,0-1.33-3.37s0.75-4-2.48-4.9C1581.53,1436,1581,1436.26,1580.66,1436.45Z" transform="translate(-481.59 -151.29)"/><polygon class="cls-38" points="1075.21 1284.09 1103.95 1278.72 1099.27 1255.16 1070.76 1261.66 1075.21 1284.09"/><path class="cls-13" d="M1566.4,1442.5s6.38-.18,9.91,1.25a1.92,1.92,0,0,1,1.51,1.65c0,0.86-1.25,2-4,2.18a23.33,23.33,0,0,0-6.23,1.76S1564.68,1448.74,1566.4,1442.5Z" transform="translate(-481.59 -151.29)"/><path class="cls-39" d="M1503.53,1669.75c-0.49,2.55-1,5.14-1.49,7.71l-16.32-43.2C1487.88,1638.63,1503.53,1669.75,1503.53,1669.75Z" transform="translate(-481.59 -151.29)"/><polygon class="cls-40" points="1315.87 1436.5 1579.36 1436.5 1496.32 1691.53 1504.08 1694.06 1590.61 1428.33 1309.94 1428.33 1224.24 1691.53 1232.01 1694.06 1315.87 1436.5"/><polygon class="cls-40" points="1405.55 1691.53 1322.51 1436.5 1586 1436.5 1669.86 1694.06 1677.63 1691.53 1591.93 1428.33 1311.26 1428.33 1397.78 1694.06 1405.55 1691.53"/><rect class="cls-40" x="1291.36" y="1508.64" width="322.5" height="8.17"/><rect class="cls-40" x="1258.13" y="1597.31" width="385.85" height="8.17"/><path class="cls-41" d="M2072.37,1081.64s1.86-6.39-1-8.9c-2.42-2.14-4-6.65-4.5-8-0.66-1.86-4.79-6.8-2.46-7.65s7.21,7.82,8.6,9.44,3-7.78,4.59-9.27,17,2,15.22,8.31-7.94,11.87-8,13a40.36,40.36,0,0,1-1.15,4.65Z" transform="translate(-481.59 -151.29)"/><path class="cls-41" d="M2076.85,1058.6s6.87-19,8.38-19.86,2.52-.45,2,1.35-6.1,18.53-6.1,18.53,11.9-21.09,13-22.09c0.64-.58,2.63.14,2.42,1.13s-10.81,22.58-10.81,22.58,11.15-19.68,12.3-20.24a1.56,1.56,0,0,1,2,2.15c-0.73,1.52-10,20.36-10,20.36s9-13.81,10.27-13.71c0.77,0.06,2.52.61,0.09,4.1s-7.32,12.33-7.32,12.33Z" transform="translate(-481.59 -151.29)"/><path class="cls-41" d="M1807.57,1254s-6.09,2.68-9,.19c-2.43-2.12-7.11-3.1-8.55-3.41-1.93-.41-7.37-3.86-7.91-1.44s8.7,6.13,10.48,7.29-7.32,3.95-8.58,5.77,4.2,16.64,10.23,14,10.73-9.43,11.88-9.68a40.32,40.32,0,0,0,4.46-1.74Z" transform="translate(-481.59 -151.29)"/><path class="cls-41" d="M1785.32,1261.45s-17.91,9.29-18.59,10.91-0.12,2.56,1.6,1.76,17.57-8.48,17.57-8.48-19.36,14.56-20.2,15.76c-0.49.71,0.48,2.59,1.44,2.25s21-13.68,21-13.68-18,13.63-18.45,14.84a1.56,1.56,0,0,0,2.38,1.65c1.41-.92,18.87-12.62,18.87-12.62s-12.51,10.74-12.25,12c0.16,0.75.93,2.42,4.07-.45s11.27-8.87,11.27-8.87Z" transform="translate(-481.59 -151.29)"/><path class="cls-15" d="M1801.15,1254.32l9.59,11.82s61.72-25.5,71.16-34.36c0,0,2.5-1,15.27-11.09h0c2.73-2.17,5.4-4.22,7.85-6l1.67-1.48h0l17-15.22s31-16.44,18.34-34.2c0,0-5.25-4.74-13.3-.91s-19.71,13.89-22.47,16.54-20.65,17.9-21.61,18.87c-3.57,3.62-15.73,14.45-22,19.18C1851.63,1225.79,1801.15,1254.32,1801.15,1254.32Z" transform="translate(-481.59 -151.29)"/><path class="cls-33" d="M1977.67,1128.8v0a73.81,73.81,0,0,1-8.39,13.85c-10.92,14-36.37,14.35-36.75-24.1a59.42,59.42,0,0,1,2.3-18c5.21-17.06,17.45-19.9,17.45-19.9,9-.5,24.88,1.74,30.15,13.52C1986.18,1102.58,1983.47,1116.45,1977.67,1128.8Z" transform="translate(-481.59 -151.29)"/><path class="cls-42" d="M1977.67,1128.8v0s-1.3.35-6-9.14c-0.94-1.9-1.67-.54-2.08-1.38l-7.49-2.92s7.41-12.39-2.28-15.82c-9.87-3.5-25,1-25,1,3.23-30.54,17.45-19.9,17.45-19.9,9-.5,28.39,0,33.67,11.82C1989.69,1100.89,1983.47,1116.45,1977.67,1128.8Z" transform="translate(-481.59 -151.29)"/><path class="cls-33" d="M1968.06,1112.54c0.56-2.57,5.63-4.78,7.79.74s-5.06,11.38-7,10.17S1967.14,1116.79,1968.06,1112.54Z" transform="translate(-481.59 -151.29)"/><path class="cls-43" d="M1870.71,1559.8s-10.5,8.58-19.33,10.49-13.46,6.43-13.53,11.67,25.41,8.69,35.51,3.41c15.08-7.88,16.61-5.51,18.29-9.45s0.33-14.37.44-15.62C1892.22,1558.75,1870.71,1559.8,1870.71,1559.8Z" transform="translate(-481.59 -151.29)"/><path class="cls-43" d="M1871.43,1556.95a35.84,35.84,0,0,0-1,4.37c0.17,0.09,19.9,2.3,19.3-1.13-0.48-2.78-1.17-5.81-1.17-5.81Z" transform="translate(-481.59 -151.29)"/><path class="cls-43" d="M1996.2,1566.67s-6.53,9.89-14.82,11.88-11.19,5.07-11.59,10,19.27,11.4,33.1,2.73c9.08-5.7,12.47-5.37,14.3-9s0.44-13.81.62-15C2018,1565.86,1996.2,1566.67,1996.2,1566.67Z" transform="translate(-481.59 -151.29)"/><path class="cls-44" d="M1998.39,1563.07a37.82,37.82,0,0,0-.25,4.26c0.16,0.1,18.37,3.32,18.26,0a25.42,25.42,0,0,0-1.15-5.85Z" transform="translate(-481.59 -151.29)"/><path class="cls-30" d="M1923.19,1311.86s-24.75,61.4-31.87,82.25c-9.36,27.43-14.52,51.6-15.7,64.75-1.48,16.54-7.29,94.6-8.33,99.44s27.78,3.21,27.78,3.21,16.21-98.43,20.63-116c4.11-16.4,43-90.82,46.78-86.34s16.21,80.65,19,93.58,10.22,114.78,10.22,114.78,25.29,4.05,30.39,0c0,0-4-90.81-5.76-115.06-0.67-9.24,5.85-110.66-9.78-151.55C1998.29,1279.26,1923.19,1311.86,1923.19,1311.86Z" transform="translate(-481.59 -151.29)"/><path class="cls-15" d="M1949.9,1157.69s-21.42,4.4-24.19,6.86c-3,2.62-9,29.11-9.36,36.26s1.52,36.59,4.54,47.7-2.67,57.37-4.57,72.77c0,0,37.13,16.87,99.9,3.72,0,0-11-47.88-9.17-63.11,2.38-19.51,8.72-62.23,8.72-62.23s5.76-40.71.45-39.7c-17.4,3.28-39.87-2.27-39.87-2.27H1949.9Z" transform="translate(-481.59 -151.29)"/><path class="cls-13" d="M1945.11,1162.65s6.57,4.94,28.55-4.75a60.68,60.68,0,0,1,2.12-26c4.31-14.07-28.34,14.67-28.34,14.67,0.36,0.25.42,1.66,0.22,3.62,0,0.13,0,.25,0,0.39a38.07,38.07,0,0,1-.88,4.8l-0.16.63C1945.34,1160.67,1945.11,1158.54,1945.11,1162.65Z" transform="translate(-481.59 -151.29)"/><path class="cls-45" d="M1946.73,1155.33h0c15.75,2,24.34-14.94,24.59-15.45-10.78,15.71-23.71,10.61-23.71,10.61h0A38.64,38.64,0,0,1,1946.73,1155.33Z" transform="translate(-481.59 -151.29)"/><path class="cls-13" d="M1945.2,1158.71s-5,7.49,2,8.77,21.34-.28,29.15-9.78C1976.33,1157.69,1955.76,1153.74,1945.2,1158.71Z" transform="translate(-481.59 -151.29)"/><path class="cls-15" d="M1981.41,1198c-2.23-4.6,3.4-16.6,13-25a70.15,70.15,0,0,1,19.56-12.23c3.94-1.47,30.81-10.13,32.1-13.49,1.64-4.26,8.78-25.16,9.36-27,1.16-3.64,14.57-45,14.57-45l16.71,3.83s-12.46,59.8-14,67.47c-1,5-1.88,14-13.13,21.15-11.43,7.3-36.49,25.81-39,26.79S1991.34,1218.52,1981.41,1198Z" transform="translate(-481.59 -151.29)"/><path class="cls-46" d="M2344.59,1807.48a35.29,35.29,0,0,0-9.32,4.93c-4.86,3.55-11.4,9.35-18.58,10.65s-14.78,1.18-13.62,8.87,24.81,11.48,46.13,5,21.64-7.1,21.64-9-3.23-20.95-4.2-21.6S2344.59,1807.48,2344.59,1807.48Z" transform="translate(-481.59 -151.29)"/><path class="cls-46" d="M2468.81,1800.39s-8.21,8.5-15.29,9.93-16.36,3.73-16.84,8.37,2.48,5.85,2.75,6.14c1.77,1.36,35.52,2.58,48.59-2.34,8-3-1.22-28.12-1.22-28.12Z" transform="translate(-481.59 -151.29)"/><path class="cls-33" d="M2395.39,1435.23s-24.15,26.91-23.35,18.95c0.48-4.79-1.75-13.09-3.61-18.95-1.23-3.88-2.29-6.68-2.29-6.68h0c0.2-.38,26.28-37.38,25.33-25.81S2395.39,1435.23,2395.39,1435.23Z" transform="translate(-481.59 -151.29)"/><path class="cls-30" d="M2386.47,1638s-10.61,37-8.82,43.54,20,30.49,22.5,34.08c3.33,4.83,56.18,87.78,56.77,89.17s30.46-5.79,31.65-12.16c0,0-41.86-85.92-51.81-97.27s-12.25-23.11-10.66-36.24,21-55.69,18-73.2S2388.26,1619.57,2386.47,1638Z" transform="translate(-481.59 -151.29)"/><path class="cls-30" d="M2366.8,1588.83s-71.28,54-79.26,65,1,27.46,2.16,32.83,49.25,111.71,49.85,121c0,0,32.25,2.69,37.91-4.48,0,0-35.08-100.94-40.16-118.25s12.38-21.51,26.41-27.78,75.6-42.4,79.18-56c3.27-12.41,0-21.77,0-21.77S2425.7,1568.26,2366.8,1588.83Z" transform="translate(-481.59 -151.29)"/><path class="cls-47" d="M2363,1479.58s-47.81-16.7-47-27.08,42.79-61.62,42.79-61.62l14.2,9.24-20.42,53.5,36.22,13.64Z" transform="translate(-481.59 -151.29)"/><path class="cls-15" d="M2398.17,1433.75s-5.49-11.18-5.59-13.57c0,0-24.06,18.94-26.45,23.42,0,0,1.28,8.26.39,12.34Z" transform="translate(-481.59 -151.29)"/><path class="cls-15" d="M2398.17,1433.75s-4.78-2.39-12.14,2.39-32.66,30.11-37.24,31.71c0,0,10.89,47.41,11.49,59.95s8.81,78.13,4,86.49c0,0,18.34-5,41-12.49,23.6-7.8,45.47-21,45.47-21s-16.12-39.43-17.74-52.11C2431.33,1515.43,2418.17,1449.75,2398.17,1433.75Z" transform="translate(-481.59 -151.29)"/><path class="cls-33" d="M2337,1403.1s-3.95-4.07-4.55-13.58c-0.65-10.34-.29-6.68-0.29-6.68Z" transform="translate(-481.59 -151.29)"/><path class="cls-48" d="M2362.63,1398.38s-11.74-6-17.59-6c-6.22,0-12.54,4.31-12.54,4.31s-2.65-9.54-.39-13.33S2362.63,1398.38,2362.63,1398.38Z" transform="translate(-481.59 -151.29)"/><path class="cls-49" d="M2383.07,1409.89s-3,17.17-14.62,25.32l0,0c-1.23-3.88-2.29-6.68-2.29-6.68h0C2366.32,1428.45,2378,1422,2383.07,1409.89Z" transform="translate(-481.59 -151.29)"/><path class="cls-17" d="M2354.11,1376.68s-7.86,23.36-8.65,28.78-16.89-5.06-16.89-5.06,7.32-19.84,8.92-29.5S2354.11,1376.68,2354.11,1376.68Z" transform="translate(-481.59 -151.29)"/><path class="cls-15" d="M2405,1466.59c-1.25-6.65-8.36-13.67-15.12-14.06-14.84-.86-48.39-1-49.47-2.86-1.38-2.43,14.9-67.61,14.9-67.61s-13.69-5.59-22.22-6.36c0,0-36.61,96.71-32.27,99.62,15.78,10.6,86.09,13.26,86.09,13.26s14.83-3.47,17.63-13.37A18.61,18.61,0,0,0,2405,1466.59Z" transform="translate(-481.59 -151.29)"/><path class="cls-17" d="M2347.86,1342.12a12.32,12.32,0,0,0-2.59,3s-0.79,2.27-1.45,3.85a11.55,11.55,0,0,1-.56,1.2,22.54,22.54,0,0,0-3.21,6.45c-0.81,3.1-2.55,14.32-2.55,14.32l9.31,3.18,7.31,2.61s13.71-11.16,14.8-14a7.64,7.64,0,0,0,.27-0.81c0.69-2.46.17-4.58,0.38-5.91,0.08-.49.5-5.41-0.55-6.44a4.82,4.82,0,0,0-4.42-1.55s-3-2.69-5.67-2.82a7.16,7.16,0,0,0-6.07-1.78S2349.85,1341.11,2347.86,1342.12Z" transform="translate(-481.59 -151.29)"/><path class="cls-13" d="M2335.55,1381.31s-3,14.58.93,15.52c3.25,0.78.93,14.9,0.74,17.15s6.06,2,7.68,2.89,10.06,15.76,15,14.81,24.23-14.91,28.27-22.77,0.59-36.87-6.81-47.32S2340.92,1355.81,2335.55,1381.31Z" transform="translate(-481.59 -151.29)"/><path class="cls-15" d="M2334.89,1383.46s-5.07-3.62-2-20.12c3.53-19,38.66-8.16,41.47-8.27s20.75-1.78,19.59,24.47c-1.26,28.2-2.57,27.67-2.57,27.67s-6.06-15-11.09-14.65c-5.46.34-14.23,1.72-14.23,1.72s0.9-13.08-6.51-12.67S2341.11,1378.77,2334.89,1383.46Z" transform="translate(-481.59 -151.29)"/><path class="cls-13" d="M2369.28,1395.08c-0.07-1.48-.33-8.11,4.77-8.63s5.75,7.54,3.34,13.08S2369.66,1403.33,2369.28,1395.08Z" transform="translate(-481.59 -151.29)"/><polygon class="cls-25" points="0 1143.48 100.19 1143.48 100.19 1216.09 100.19 1231.39 84.89 1216.09 0 1216.09 0 1143.48"/><polygon class="cls-50" points="222.25 1645.37 202.11 1511.41 205.99 1510.81 226.13 1644.77 222.25 1645.37"/><polygon class="cls-50" points="197.66 1645.37 177.51 1511.41 181.39 1510.81 201.54 1644.77 197.66 1645.37"/><polygon class="cls-50" points="76.51 1645.37 72.63 1644.77 92.77 1510.81 96.65 1511.41 76.51 1645.37"/><path class="cls-51" d="M690,1664.06l15.78-166s-27.6-3.61-44.27-2.72l-25.06,168.72H690Z" transform="translate(-481.59 -151.29)"/><rect class="cls-51" x="154.86" y="1504.33" width="53.56" height="8.44"/><path class="cls-51" d="M601.41,1657.3L593,1499.11s69.84-7.59,112.74-1Z" transform="translate(-481.59 -151.29)"/><path class="cls-36" d="M657.18,1447.88s10.78-31.63-9.8-41.43-38.05,4.37-41.35,12-2.43,21.62.39,31.34,2.41,24.53-3.71,29.48-13.7,13.17-13.32,29.91c0.23,10.38,40.86-26.56,40.86-26.56Z" transform="translate(-481.59 -151.29)"/><path class="cls-52" d="M629.72,1788.21s-0.64,22.35,2.55,23.69,15.27-6.43,20.6-14.11-6.68-25.58-8.65-35.44c-0.82-4.13-10.21-11.57-14.79-9.44s-7.92,7.59-7.92,7.59S633.17,1768.48,629.72,1788.21Z" transform="translate(-481.59 -151.29)"/><path class="cls-53" d="M621.52,1760.5a123.23,123.23,0,0,1,6,13.54c2,5.92,2.42,22.31,3.7,23.44s11.41-4,12.76-10.1-2.75-18.38-6.66-24.82a40,40,0,0,0-7.88-9.66S622.54,1754.25,621.52,1760.5Z" transform="translate(-481.59 -151.29)"/><polygon class="cls-52" points="162.64 1611.05 173.51 1626.93 171.46 1628.34 163.05 1616.07 162.64 1611.05"/><path class="cls-53" d="M605.07,1586.82s5.32,9,0,15.52-41.08,24.5-40.82,34.88,6.81,26.62,9.17,30.74,11,21.22,15.55,31.22,30.6,57.87,35.71,68.66,2-43.16,2-43.16l-26.09-76.51,61-59.39S654.13,1572.36,605.07,1586.82Z" transform="translate(-481.59 -151.29)"/><path class="cls-34" d="M628.27,1485.5s-16.92,3.75-23.63,7.67-21.62,22-21.62,29.73,65.21,15,65.21,15L660.58,1583s33-8,36.88-14.71-13-54.14-15.33-64.15-14.68-16.75-28.42-18.67A94.29,94.29,0,0,0,628.27,1485.5Z" transform="translate(-481.59 -151.29)"/><path class="cls-13" d="M668.25,1588.31s-1.18,7.72,2,11,17.6,22.34,9.94,41.07c-7,17.2-20.66,16.87-20.66,16.87h-21.1s6.13,31,4.15,51.36-11.29,67-11.48,69.35-8.92,9.71-11.47,6c0,0-.24-28.05-1.61-38.65s-7.22-53-9-59.25-12.16-25.31-12.16-27.27-10.16-32.67,12-40.52S638.83,1588.47,668.25,1588.31Z" transform="translate(-481.59 -151.29)"/><path class="cls-54" d="M609.07,1805.56s-14.55,17-12.92,20,15.91,4.61,24.89,2,10.89-24.08,15.57-33c2-3.73-.67-15.41-5.57-16.64s-10.93.92-10.93,0.92S624.16,1792.39,609.07,1805.56Z" transform="translate(-481.59 -151.29)"/><path class="cls-13" d="M620.12,1778.86a123.35,123.35,0,0,1-3.85,14.31c-2.14,5.88-12.15,18.86-11.86,20.56s11.36,4.09,16.27.17,9.42-16,10.43-23.48a40,40,0,0,0-.05-12.47S624.84,1774.64,620.12,1778.86Z" transform="translate(-481.59 -151.29)"/><polygon class="cls-54" points="155.02 1643.29 153.5 1662.47 151.01 1662.27 152.19 1647.44 155.02 1643.29"/><path class="cls-15" d="M680.15,1640.36c-6.64,17.43-20.66,16.87-20.66,16.87h-21.1s-8.8-13.95-30.36-16.34a63.75,63.75,0,0,0-16.25.39l-0.22,0c-28.64,4.24-23.11,14.75-23,15-2.38-5.81-4.88-15.05-4.28-20,2.75-22.67,35.5-27.42,40.82-34s0-15.52,0-15.52c49.06-14.46,56.44,2,56.44,2,2.15-.3,7.66-3.47,10-3.49,0,0,2.46,5.36,4.19,10.2C677.23,1599.77,687.35,1621.45,680.15,1640.36Z" transform="translate(-481.59 -151.29)"/><polygon class="cls-55" points="178.2 1364.26 185.46 1431.75 89.92 1431.75 82.67 1364.26 178.2 1364.26"/><rect class="cls-55" x="177.11" y="1425.68" width="15.96" height="6.07"/><rect class="cls-56" x="24.08" y="1431.75" width="304.28" height="9.19"/><path class="cls-13" d="M638.84,1411.84s21.4,6.33,18.35,36-17,28.17-18.35,28.39-17.91,1.31-23.15-34.73S638.84,1411.84,638.84,1411.84Z" transform="translate(-481.59 -151.29)"/><path class="cls-13" d="M649,1470.81s-1.13,9.84.76,16-24.93,6.29-24.92,1.26c0-5.71,2.74-10.49.17-20.28S649,1470.81,649,1470.81Z" transform="translate(-481.59 -151.29)"/><path class="cls-36" d="M633.31,1425.09s11.63,18.5,23.87,22.79c0,0,6.68-31-20.92-37.55S613,1441.69,615,1451.78A82,82,0,0,1,633.31,1425.09Z" transform="translate(-481.59 -151.29)"/><path class="cls-45" d="M628.23,1472.07s8.47,8.82,19.3.92c0,0-.89,5.64-8.68,6.37S628.23,1472.07,628.23,1472.07Z" transform="translate(-481.59 -151.29)"/><path class="cls-57" d="M617.71,1422.3s6.12-11.86,16.46-12.39,16.49,8.44,16.49,8.44a17.58,17.58,0,0,0-16.47-10.1C621.75,1408.26,617.71,1422.3,617.71,1422.3Z" transform="translate(-481.59 -151.29)"/><path class="cls-13" d="M652.54,1485.35s-0.38,20.56-16.68,21.17-12.91-19.72-12.91-19.72S634.87,1482,652.54,1485.35Z" transform="translate(-481.59 -151.29)"/><rect class="cls-58" x="321.6" y="1440.94" width="6.76" height="231.91"/><rect class="cls-58" x="24.08" y="1440.94" width="6.76" height="231.91"/><path class="cls-34" d="M1318.89,562.39a31.2,31.2,0,0,1-16.16-10.8,23.38,23.38,0,0,1-4.73-19.24c1.81-13.21.57-27.5-.84-37.42a62.72,62.72,0,1,1,73.11,17.59c-7.19,11.49-12.33,22.31-15.28,32.18-3,13.48-18.12,21.68-33.79,18.28Q1320,562.72,1318.89,562.39Zm42.62-162.76a57.58,57.58,0,0,0-60,92.55l0.47,0.56,0.11,0.73c1.5,10.29,2.89,25.52.93,39.67l0,0.19a18.32,18.32,0,0,0,3.76,15.14,26.4,26.4,0,0,0,15.48,9.49c12.95,2.81,25.38-3.68,27.72-14.45l0-.1,0-.09c3.14-10.53,8.63-22,16.31-34.22l0.43-.69,0.75-.31A57.57,57.57,0,0,0,1361.51,399.63Z" transform="translate(-481.59 -151.29)"/><polygon class="cls-34" points="830.32 387.78 836.3 319.21 847.83 333.67 858.49 325.89 864.07 336.46 879.42 328.15 857.45 393.48 852.59 391.84 870.4 338.86 861.96 343.44 856.72 333.53 846.88 340.71 840.29 332.45 835.43 388.23 830.32 387.78"/><rect class="cls-34" x="1298.34" y="556.65" width="44.48" height="17.93" transform="translate(-331.85 -418.14) rotate(12.23)"/><rect class="cls-34" x="1293.91" y="538.63" width="58.79" height="28.85" transform="translate(-334.45 -418.99) rotate(12.23)"/><polygon class="cls-59" points="40.61 853.56 37.51 852.5 63.51 776.83 121.59 760.74 141.57 677.78 186.3 657.42 195.62 592.99 198.87 593.46 189.28 659.66 144.38 680.11 124.32 763.39 66.05 779.52 40.61 853.56"/><circle class="cls-10" cx="604.54" cy="913.36" r="8.74" transform="translate(-926.82 449.53) rotate(-39.92)"/><path class="cls-59" d="M611.21,921.32a10.38,10.38,0,1,1,1.3-14.62A10.39,10.39,0,0,1,611.21,921.32ZM600,907.91a7.1,7.1,0,1,0,10,.89A7.11,7.11,0,0,0,600,907.91Z" transform="translate(-481.59 -151.29)"/><circle class="cls-10" cx="624.81" cy="830.73" r="8.74" transform="translate(-869.08 443.32) rotate(-39.92)"/><path class="cls-59" d="M631.47,838.7a10.38,10.38,0,1,1,1.3-14.62A10.39,10.39,0,0,1,631.47,838.7Zm-11.22-13.41a7.1,7.1,0,1,0,10,.89A7.11,7.11,0,0,0,620.25,825.29Z" transform="translate(-481.59 -151.29)"/><circle class="cls-10" cx="668.84" cy="809.81" r="8.74" transform="translate(-845.39 466.69) rotate(-39.92)"/><path class="cls-59" d="M675.5,817.78a10.38,10.38,0,1,1,1.3-14.62A10.39,10.39,0,0,1,675.5,817.78Zm-11.22-13.41a7.1,7.1,0,1,0,10,.89A7.11,7.11,0,0,0,664.28,804.37Z" transform="translate(-481.59 -151.29)"/><circle class="cls-10" cx="546.7" cy="930.2" r="8.74" transform="translate(-951.12 416.38) rotate(-39.92)"/><path class="cls-59" d="M553.36,938.17a10.38,10.38,0,1,1,1.3-14.62A10.39,10.39,0,0,1,553.36,938.17Zm-11.22-13.41a7.1,7.1,0,1,0,10,.89A7.11,7.11,0,0,0,542.14,924.76Z" transform="translate(-481.59 -151.29)"/><rect class="cls-60" x="2215.19" y="785.75" width="140.69" height="9.86" transform="translate(4089.48 1430.07) rotate(180)"/><rect class="cls-60" x="2215.19" y="804.34" width="140.69" height="41.46" transform="translate(4089.48 1498.84) rotate(180)"/><rect class="cls-60" x="2149.1" y="859.74" width="83" height="6.2" transform="translate(3899.61 1574.38) rotate(180)"/><rect class="cls-60" x="2149.1" y="868.64" width="83" height="16.78" transform="translate(3899.61 1602.78) rotate(180)"/><rect class="cls-61" x="2378.98" y="732.59" width="6.2" height="116.17" transform="translate(4282.57 1430.07) rotate(180)"/><polygon class="cls-62" points="1897.63 984.93 1796.35 928.29 1831.16 926 1897.63 984.93"/><polygon class="cls-63" points="1897.63 984.93 1866.46 934.8 1840.31 934.11 1897.63 984.93"/><polygon class="cls-64" points="1819.64 941.32 1817.61 954.08 1897.63 984.93 1819.64 941.32"/><path class="cls-65" d="M632.3,1191.29c-0.1-.66-2.41-16.51-2.41-40.67q0-3.83.09-7.93l8,0.17q-0.08,4-.08,7.76a300.68,300.68,0,0,0,2.33,39.5Zm9.9-95.72-7.9-1.28a279.91,279.91,0,0,1,11.79-47.22l7.55,2.64A272,272,0,0,0,642.2,1095.57Zm1639-36.05c-0.41-.47-10.28-11.57-32.63-25.38l4.2-6.81c23.36,14.43,34,26.4,34.44,26.9ZM1592,1034.79l0-8c16,0,32.12-.43,47.79-1.17l0.38,8C1624.38,1034.36,1608.18,1034.76,1592,1034.79Zm-48.15-.93c-15.68-.63-31.85-1.59-48.06-2.87l0.63-8c16.1,1.26,32.17,2.22,47.75,2.85Zm144.36-3.67-0.76-8c15.86-1.51,31.82-3.43,47.44-5.71l1.15,7.92C1720.31,1026.73,1704.22,1028.67,1688.23,1030.19Zm-240.32-3.8c-15.44-1.75-31.5-3.81-47.71-6.13l1.13-7.92c16.14,2.31,32.11,4.36,47.48,6.09Zm335.64-10.1-1.55-7.85c11.46-2.27,23-4.78,34.41-7.48q6.22-1.48,12.35-2.86l1.76,7.8q-6.08,1.37-12.27,2.84C1806.79,1011.46,1795.11,1014,1783.56,1016.29Zm422.83-3.38a370.22,370.22,0,0,0-45-14.94l2-7.73a378.38,378.38,0,0,1,46,15.27Zm-853.7-.05c-15.24-2.56-30.72-5.33-47.32-8.46l1.48-7.86c16.55,3.12,32,5.88,47.17,8.43Zm-678.82-5.58L667.1,1003a177.85,177.85,0,0,1,31.45-37.46l5.35,6A169.8,169.8,0,0,0,673.87,1007.28Zm1203.52-10.92-1.43-7.87c16.08-2.91,32.1-5.42,47.61-7.46l1,7.93C1909.22,991,1893.34,993.46,1877.38,996.35Zm-619.17-1.21q-23.62-4.8-47-9.78l1.66-7.83q23.37,5,47,9.77Zm856.59-6.81c-15.18-2.34-31.11-4.06-47.34-5.11l0.52-8c16.46,1.07,32.63,2.81,48,5.19ZM1972.12,984l-0.6-8c16.36-1.22,32.58-1.93,48.2-2.09l0.08,8C2004.36,982.13,1988.31,982.82,1972.12,984Zm-807.87-8.72q-23.55-5.06-46.91-10l1.66-7.83q23.38,4.95,46.94,10Zm-93.87-19.77c-16.92-3.41-32.3-6.4-47-9.12l1.45-7.87c14.78,2.73,30.21,5.72,47.17,9.14Zm-327.72-10-3.48-7.2a207.77,207.77,0,0,1,46.14-15.7l1.71,7.82A199.87,199.87,0,0,0,742.67,945.58Zm233.49-7.33c-16.33-2.62-32.26-4.94-47.35-6.89l1-7.93c15.17,2,31.19,4.29,47.6,6.92Zm-94.87-12.11-0.62-.05c-11.74-1-23.21-1.52-34.15-1.57q-6.47,0-12.67.24l-0.31-8c4.25-.16,8.71-0.24,13-0.25,11.15,0,22.87.54,34.83,1.6l0.6,0.05Z" transform="translate(-481.59 -151.29)"/></svg>